<?xml version="1.0" encoding="UTF-8" standalone="no"?>
<!DOCTYPE svg PUBLIC "-//W3C//DTD SVG 1.1//EN"
 "http://www.w3.org/Graphics/SVG/1.1/DTD/svg11.dtd">
<!-- Generated by graphviz version 2.38.0 (20140413.2041)
 -->
<!-- Title: Tree Pages: 1 -->
<svg width="1029pt" height="520pt"
 viewBox="0.00 0.00 1028.50 520.00" xmlns="http://www.w3.org/2000/svg" xmlns:xlink="http://www.w3.org/1999/xlink">
<g id="graph0" class="graph" transform="scale(1 1) rotate(0) translate(4 516)">
<title>Tree</title>
<polygon fill="white" stroke="none" points="-4,4 -4,-516 1024.5,-516 1024.5,4 -4,4"/>
<!-- 0 -->
<g id="node1" class="node"><title>0</title>
<polygon fill="none" stroke="black" points="542,-512 354,-512 354,-429 542,-429 542,-512"/>
<text text-anchor="middle" x="448" y="-496.8" font-family="Sans-Serif" font-size="14.00">locality_type_urban &lt;= 0.5</text>
<text text-anchor="middle" x="448" y="-481.8" font-family="Sans-Serif" font-size="14.00">gini = 0.44</text>
<text text-anchor="middle" x="448" y="-466.8" font-family="Sans-Serif" font-size="14.00">samples = 2467</text>
<text text-anchor="middle" x="448" y="-451.8" font-family="Sans-Serif" font-size="14.00">value = [805, 1662]</text>
<text text-anchor="middle" x="448" y="-436.8" font-family="Sans-Serif" font-size="14.00">class = 1</text>
</g>
<!-- 1 -->
<g id="node2" class="node"><title>1</title>
<polygon fill="none" stroke="black" points="353,-393 209,-393 209,-310 353,-310 353,-393"/>
<text text-anchor="middle" x="281" y="-377.8" font-family="Sans-Serif" font-size="14.00">has_internet &lt;= 0.5</text>
<text text-anchor="middle" x="281" y="-362.8" font-family="Sans-Serif" font-size="14.00">gini = 0.054</text>
<text text-anchor="middle" x="281" y="-347.8" font-family="Sans-Serif" font-size="14.00">samples = 798</text>
<text text-anchor="middle" x="281" y="-332.8" font-family="Sans-Serif" font-size="14.00">value = [776, 22]</text>
<text text-anchor="middle" x="281" y="-317.8" font-family="Sans-Serif" font-size="14.00">class = 0</text>
</g>
<!-- 0&#45;&gt;1 -->
<g id="edge1" class="edge"><title>0&#45;&gt;1</title>
<path fill="none" stroke="black" d="M390.06,-428.907C376.2,-419.197 361.3,-408.758 347.102,-398.811"/>
<polygon fill="black" stroke="black" points="349.036,-395.892 338.837,-393.021 345.019,-401.625 349.036,-395.892"/>
<text text-anchor="middle" x="343.172" y="-413.942" font-family="Sans-Serif" font-size="14.00">True</text>
</g>
<!-- 32 -->
<g id="node11" class="node"><title>32</title>
<polygon fill="none" stroke="black" points="624,-393 454,-393 454,-310 624,-310 624,-393"/>
<text text-anchor="middle" x="539" y="-377.8" font-family="Sans-Serif" font-size="14.00">strata_1st_strata &lt;= 0.5</text>
<text text-anchor="middle" x="539" y="-362.8" font-family="Sans-Serif" font-size="14.00">gini = 0.034</text>
<text text-anchor="middle" x="539" y="-347.8" font-family="Sans-Serif" font-size="14.00">samples = 1669</text>
<text text-anchor="middle" x="539" y="-332.8" font-family="Sans-Serif" font-size="14.00">value = [29, 1640]</text>
<text text-anchor="middle" x="539" y="-317.8" font-family="Sans-Serif" font-size="14.00">class = 1</text>
</g>
<!-- 0&#45;&gt;32 -->
<g id="edge10" class="edge"><title>0&#45;&gt;32</title>
<path fill="none" stroke="black" d="M479.572,-428.907C486.56,-419.923 494.033,-410.315 501.239,-401.05"/>
<polygon fill="black" stroke="black" points="504.107,-403.063 507.484,-393.021 498.582,-398.766 504.107,-403.063"/>
<text text-anchor="middle" x="510.585" y="-414.128" font-family="Sans-Serif" font-size="14.00">False</text>
</g>
<!-- 2 -->
<g id="node3" class="node"><title>2</title>
<polygon fill="none" stroke="black" points="193.5,-266.5 74.5,-266.5 74.5,-198.5 193.5,-198.5 193.5,-266.5"/>
<text text-anchor="middle" x="134" y="-251.3" font-family="Sans-Serif" font-size="14.00">gini = 0.0</text>
<text text-anchor="middle" x="134" y="-236.3" font-family="Sans-Serif" font-size="14.00">samples = 698</text>
<text text-anchor="middle" x="134" y="-221.3" font-family="Sans-Serif" font-size="14.00">value = [698, 0]</text>
<text text-anchor="middle" x="134" y="-206.3" font-family="Sans-Serif" font-size="14.00">class = 0</text>
</g>
<!-- 1&#45;&gt;2 -->
<g id="edge2" class="edge"><title>1&#45;&gt;2</title>
<path fill="none" stroke="black" d="M229.999,-309.907C215.026,-297.99 198.675,-284.976 183.779,-273.12"/>
<polygon fill="black" stroke="black" points="185.675,-270.156 175.671,-266.667 181.316,-275.633 185.675,-270.156"/>
</g>
<!-- 3 -->
<g id="node4" class="node"><title>3</title>
<polygon fill="none" stroke="black" points="350.5,-274 211.5,-274 211.5,-191 350.5,-191 350.5,-274"/>
<text text-anchor="middle" x="281" y="-258.8" font-family="Sans-Serif" font-size="14.00">exp_corn &lt;= 0.017</text>
<text text-anchor="middle" x="281" y="-243.8" font-family="Sans-Serif" font-size="14.00">gini = 0.343</text>
<text text-anchor="middle" x="281" y="-228.8" font-family="Sans-Serif" font-size="14.00">samples = 100</text>
<text text-anchor="middle" x="281" y="-213.8" font-family="Sans-Serif" font-size="14.00">value = [78, 22]</text>
<text text-anchor="middle" x="281" y="-198.8" font-family="Sans-Serif" font-size="14.00">class = 0</text>
</g>
<!-- 1&#45;&gt;3 -->
<g id="edge3" class="edge"><title>1&#45;&gt;3</title>
<path fill="none" stroke="black" d="M281,-309.907C281,-301.649 281,-292.864 281,-284.302"/>
<polygon fill="black" stroke="black" points="284.5,-284.021 281,-274.021 277.5,-284.021 284.5,-284.021"/>
</g>
<!-- 4 -->
<g id="node5" class="node"><title>4</title>
<polygon fill="none" stroke="black" points="162,-155 0,-155 0,-72 162,-72 162,-155"/>
<text text-anchor="middle" x="81" y="-139.8" font-family="Sans-Serif" font-size="14.00">has_microwave &lt;= 0.5</text>
<text text-anchor="middle" x="81" y="-124.8" font-family="Sans-Serif" font-size="14.00">gini = 0.245</text>
<text text-anchor="middle" x="81" y="-109.8" font-family="Sans-Serif" font-size="14.00">samples = 7</text>
<text text-anchor="middle" x="81" y="-94.8" font-family="Sans-Serif" font-size="14.00">value = [1, 6]</text>
<text text-anchor="middle" x="81" y="-79.8" font-family="Sans-Serif" font-size="14.00">class = 1</text>
</g>
<!-- 3&#45;&gt;4 -->
<g id="edge4" class="edge"><title>3&#45;&gt;4</title>
<path fill="none" stroke="black" d="M211.611,-190.907C194.702,-181.016 176.5,-170.368 159.212,-160.254"/>
<polygon fill="black" stroke="black" points="160.665,-157.049 150.266,-155.021 157.131,-163.091 160.665,-157.049"/>
</g>
<!-- 7 -->
<g id="node8" class="node"><title>7</title>
<polygon fill="none" stroke="black" points="381.5,-155 180.5,-155 180.5,-72 381.5,-72 381.5,-155"/>
<text text-anchor="middle" x="281" y="-139.8" font-family="Sans-Serif" font-size="14.00">BMI_random_adult &lt;= 0.379</text>
<text text-anchor="middle" x="281" y="-124.8" font-family="Sans-Serif" font-size="14.00">gini = 0.285</text>
<text text-anchor="middle" x="281" y="-109.8" font-family="Sans-Serif" font-size="14.00">samples = 93</text>
<text text-anchor="middle" x="281" y="-94.8" font-family="Sans-Serif" font-size="14.00">value = [77, 16]</text>
<text text-anchor="middle" x="281" y="-79.8" font-family="Sans-Serif" font-size="14.00">class = 0</text>
</g>
<!-- 3&#45;&gt;7 -->
<g id="edge7" class="edge"><title>3&#45;&gt;7</title>
<path fill="none" stroke="black" d="M281,-190.907C281,-182.649 281,-173.864 281,-165.302"/>
<polygon fill="black" stroke="black" points="284.5,-165.021 281,-155.021 277.5,-165.021 284.5,-165.021"/>
</g>
<!-- 5 -->
<g id="node6" class="node"><title>5</title>
<polygon fill="none" stroke="black" points="86,-36 32,-36 32,-0 86,-0 86,-36"/>
<text text-anchor="middle" x="59" y="-14.3" font-family="Sans-Serif" font-size="14.00">(...)</text>
</g>
<!-- 4&#45;&gt;5 -->
<g id="edge5" class="edge"><title>4&#45;&gt;5</title>
<path fill="none" stroke="black" d="M71.4145,-71.7615C69.3856,-63.1387 67.2914,-54.2385 65.4143,-46.2606"/>
<polygon fill="black" stroke="black" points="68.7927,-45.3376 63.0953,-36.4051 61.9788,-46.9409 68.7927,-45.3376"/>
</g>
<!-- 6 -->
<g id="node7" class="node"><title>6</title>
<polygon fill="none" stroke="black" points="158,-36 104,-36 104,-0 158,-0 158,-36"/>
<text text-anchor="middle" x="131" y="-14.3" font-family="Sans-Serif" font-size="14.00">(...)</text>
</g>
<!-- 4&#45;&gt;6 -->
<g id="edge6" class="edge"><title>4&#45;&gt;6</title>
<path fill="none" stroke="black" d="M102.785,-71.7615C107.552,-62.8481 112.477,-53.6382 116.852,-45.4571"/>
<polygon fill="black" stroke="black" points="120.063,-46.8739 121.692,-36.4051 113.89,-43.5729 120.063,-46.8739"/>
</g>
<!-- 8 -->
<g id="node9" class="node"><title>8</title>
<polygon fill="none" stroke="black" points="258,-36 204,-36 204,-0 258,-0 258,-36"/>
<text text-anchor="middle" x="231" y="-14.3" font-family="Sans-Serif" font-size="14.00">(...)</text>
</g>
<!-- 7&#45;&gt;8 -->
<g id="edge8" class="edge"><title>7&#45;&gt;8</title>
<path fill="none" stroke="black" d="M259.215,-71.7615C254.448,-62.8481 249.523,-53.6382 245.148,-45.4571"/>
<polygon fill="black" stroke="black" points="248.11,-43.5729 240.308,-36.4051 241.937,-46.8739 248.11,-43.5729"/>
</g>
<!-- 29 -->
<g id="node10" class="node"><title>29</title>
<polygon fill="none" stroke="black" points="330,-36 276,-36 276,-0 330,-0 330,-36"/>
<text text-anchor="middle" x="303" y="-14.3" font-family="Sans-Serif" font-size="14.00">(...)</text>
</g>
<!-- 7&#45;&gt;29 -->
<g id="edge9" class="edge"><title>7&#45;&gt;29</title>
<path fill="none" stroke="black" d="M290.586,-71.7615C292.614,-63.1387 294.709,-54.2385 296.586,-46.2606"/>
<polygon fill="black" stroke="black" points="300.021,-46.9409 298.905,-36.4051 293.207,-45.3376 300.021,-46.9409"/>
</g>
<!-- 33 -->
<g id="node12" class="node"><title>33</title>
<polygon fill="none" stroke="black" points="610,-274 468,-274 468,-191 610,-191 610,-274"/>
<text text-anchor="middle" x="539" y="-258.8" font-family="Sans-Serif" font-size="14.00">exp_dairy &lt;= 0.359</text>
<text text-anchor="middle" x="539" y="-243.8" font-family="Sans-Serif" font-size="14.00">gini = 0.001</text>
<text text-anchor="middle" x="539" y="-228.8" font-family="Sans-Serif" font-size="14.00">samples = 1540</text>
<text text-anchor="middle" x="539" y="-213.8" font-family="Sans-Serif" font-size="14.00">value = [1, 1539]</text>
<text text-anchor="middle" x="539" y="-198.8" font-family="Sans-Serif" font-size="14.00">class = 1</text>
</g>
<!-- 32&#45;&gt;33 -->
<g id="edge11" class="edge"><title>32&#45;&gt;33</title>
<path fill="none" stroke="black" d="M539,-309.907C539,-301.649 539,-292.864 539,-284.302"/>
<polygon fill="black" stroke="black" points="542.5,-284.021 539,-274.021 535.5,-284.021 542.5,-284.021"/>
</g>
<!-- 38 -->
<g id="node17" class="node"><title>38</title>
<polygon fill="none" stroke="black" points="839.5,-274 712.5,-274 712.5,-191 839.5,-191 839.5,-274"/>
<text text-anchor="middle" x="776" y="-258.8" font-family="Sans-Serif" font-size="14.00">use_none &lt;= 0.5</text>
<text text-anchor="middle" x="776" y="-243.8" font-family="Sans-Serif" font-size="14.00">gini = 0.34</text>
<text text-anchor="middle" x="776" y="-228.8" font-family="Sans-Serif" font-size="14.00">samples = 129</text>
<text text-anchor="middle" x="776" y="-213.8" font-family="Sans-Serif" font-size="14.00">value = [28, 101]</text>
<text text-anchor="middle" x="776" y="-198.8" font-family="Sans-Serif" font-size="14.00">class = 1</text>
</g>
<!-- 32&#45;&gt;38 -->
<g id="edge16" class="edge"><title>32&#45;&gt;38</title>
<path fill="none" stroke="black" d="M621.226,-309.907C647.895,-296.742 677.277,-282.236 703.21,-269.434"/>
<polygon fill="black" stroke="black" points="704.811,-272.547 712.229,-264.982 701.713,-266.27 704.811,-272.547"/>
</g>
<!-- 34 -->
<g id="node13" class="node"><title>34</title>
<polygon fill="none" stroke="black" points="526,-147.5 400,-147.5 400,-79.5 526,-79.5 526,-147.5"/>
<text text-anchor="middle" x="463" y="-132.3" font-family="Sans-Serif" font-size="14.00">gini = 0.0</text>
<text text-anchor="middle" x="463" y="-117.3" font-family="Sans-Serif" font-size="14.00">samples = 1521</text>
<text text-anchor="middle" x="463" y="-102.3" font-family="Sans-Serif" font-size="14.00">value = [0, 1521]</text>
<text text-anchor="middle" x="463" y="-87.3" font-family="Sans-Serif" font-size="14.00">class = 1</text>
</g>
<!-- 33&#45;&gt;34 -->
<g id="edge12" class="edge"><title>33&#45;&gt;34</title>
<path fill="none" stroke="black" d="M512.632,-190.907C505.321,-179.652 497.374,-167.418 490.026,-156.106"/>
<polygon fill="black" stroke="black" points="492.927,-154.146 484.544,-147.667 487.057,-157.96 492.927,-154.146"/>
</g>
<!-- 35 -->
<g id="node14" class="node"><title>35</title>
<polygon fill="none" stroke="black" points="686,-155 544,-155 544,-72 686,-72 686,-155"/>
<text text-anchor="middle" x="615" y="-139.8" font-family="Sans-Serif" font-size="14.00">exp_dairy &lt;= 0.362</text>
<text text-anchor="middle" x="615" y="-124.8" font-family="Sans-Serif" font-size="14.00">gini = 0.1</text>
<text text-anchor="middle" x="615" y="-109.8" font-family="Sans-Serif" font-size="14.00">samples = 19</text>
<text text-anchor="middle" x="615" y="-94.8" font-family="Sans-Serif" font-size="14.00">value = [1, 18]</text>
<text text-anchor="middle" x="615" y="-79.8" font-family="Sans-Serif" font-size="14.00">class = 1</text>
</g>
<!-- 33&#45;&gt;35 -->
<g id="edge13" class="edge"><title>33&#45;&gt;35</title>
<path fill="none" stroke="black" d="M565.368,-190.907C571.086,-182.105 577.193,-172.703 583.098,-163.612"/>
<polygon fill="black" stroke="black" points="586.167,-165.313 588.679,-155.021 580.296,-161.5 586.167,-165.313"/>
</g>
<!-- 36 -->
<g id="node15" class="node"><title>36</title>
<polygon fill="none" stroke="black" points="578,-36 524,-36 524,-0 578,-0 578,-36"/>
<text text-anchor="middle" x="551" y="-14.3" font-family="Sans-Serif" font-size="14.00">(...)</text>
</g>
<!-- 35&#45;&gt;36 -->
<g id="edge14" class="edge"><title>35&#45;&gt;36</title>
<path fill="none" stroke="black" d="M587.115,-71.7615C580.815,-62.5574 574.298,-53.0372 568.564,-44.6601"/>
<polygon fill="black" stroke="black" points="571.45,-42.6801 562.914,-36.4051 565.674,-46.6341 571.45,-42.6801"/>
</g>
<!-- 37 -->
<g id="node16" class="node"><title>37</title>
<polygon fill="none" stroke="black" points="650,-36 596,-36 596,-0 650,-0 650,-36"/>
<text text-anchor="middle" x="623" y="-14.3" font-family="Sans-Serif" font-size="14.00">(...)</text>
</g>
<!-- 35&#45;&gt;37 -->
<g id="edge15" class="edge"><title>35&#45;&gt;37</title>
<path fill="none" stroke="black" d="M618.486,-71.7615C619.215,-63.2356 619.968,-54.4385 620.645,-46.5299"/>
<polygon fill="black" stroke="black" points="624.145,-46.6671 621.511,-36.4051 617.171,-46.0703 624.145,-46.6671"/>
</g>
<!-- 39 -->
<g id="node18" class="node"><title>39</title>
<polygon fill="none" stroke="black" points="847.5,-155 704.5,-155 704.5,-72 847.5,-72 847.5,-155"/>
<text text-anchor="middle" x="776" y="-139.8" font-family="Sans-Serif" font-size="14.00">has_blender &lt;= 0.5</text>
<text text-anchor="middle" x="776" y="-124.8" font-family="Sans-Serif" font-size="14.00">gini = 0.187</text>
<text text-anchor="middle" x="776" y="-109.8" font-family="Sans-Serif" font-size="14.00">samples = 86</text>
<text text-anchor="middle" x="776" y="-94.8" font-family="Sans-Serif" font-size="14.00">value = [9, 77]</text>
<text text-anchor="middle" x="776" y="-79.8" font-family="Sans-Serif" font-size="14.00">class = 1</text>
</g>
<!-- 38&#45;&gt;39 -->
<g id="edge17" class="edge"><title>38&#45;&gt;39</title>
<path fill="none" stroke="black" d="M776,-190.907C776,-182.649 776,-173.864 776,-165.302"/>
<polygon fill="black" stroke="black" points="779.5,-165.021 776,-155.021 772.5,-165.021 779.5,-165.021"/>
</g>
<!-- 52 -->
<g id="node21" class="node"><title>52</title>
<polygon fill="none" stroke="black" points="1020.5,-155 865.5,-155 865.5,-72 1020.5,-72 1020.5,-155"/>
<text text-anchor="middle" x="943" y="-139.8" font-family="Sans-Serif" font-size="14.00">region_Centre &lt;= 0.5</text>
<text text-anchor="middle" x="943" y="-124.8" font-family="Sans-Serif" font-size="14.00">gini = 0.493</text>
<text text-anchor="middle" x="943" y="-109.8" font-family="Sans-Serif" font-size="14.00">samples = 43</text>
<text text-anchor="middle" x="943" y="-94.8" font-family="Sans-Serif" font-size="14.00">value = [19, 24]</text>
<text text-anchor="middle" x="943" y="-79.8" font-family="Sans-Serif" font-size="14.00">class = 1</text>
</g>
<!-- 38&#45;&gt;52 -->
<g id="edge20" class="edge"><title>38&#45;&gt;52</title>
<path fill="none" stroke="black" d="M833.94,-190.907C847.8,-181.197 862.7,-170.758 876.898,-160.811"/>
<polygon fill="black" stroke="black" points="878.981,-163.625 885.163,-155.021 874.964,-157.892 878.981,-163.625"/>
</g>
<!-- 40 -->
<g id="node19" class="node"><title>40</title>
<polygon fill="none" stroke="black" points="760,-36 706,-36 706,-0 760,-0 760,-36"/>
<text text-anchor="middle" x="733" y="-14.3" font-family="Sans-Serif" font-size="14.00">(...)</text>
</g>
<!-- 39&#45;&gt;40 -->
<g id="edge18" class="edge"><title>39&#45;&gt;40</title>
<path fill="none" stroke="black" d="M757.265,-71.7615C753.21,-62.945 749.022,-53.8384 745.29,-45.7242"/>
<polygon fill="black" stroke="black" points="748.363,-44.028 741.004,-36.4051 742.003,-46.9528 748.363,-44.028"/>
</g>
<!-- 41 -->
<g id="node20" class="node"><title>41</title>
<polygon fill="none" stroke="black" points="832,-36 778,-36 778,-0 832,-0 832,-36"/>
<text text-anchor="middle" x="805" y="-14.3" font-family="Sans-Serif" font-size="14.00">(...)</text>
</g>
<!-- 39&#45;&gt;41 -->
<g id="edge19" class="edge"><title>39&#45;&gt;41</title>
<path fill="none" stroke="black" d="M788.635,-71.7615C791.34,-63.0419 794.132,-54.0385 796.628,-45.9921"/>
<polygon fill="black" stroke="black" points="799.982,-46.9931 799.602,-36.4051 793.296,-44.9194 799.982,-46.9931"/>
</g>
<!-- 53 -->
<g id="node22" class="node"><title>53</title>
<polygon fill="none" stroke="black" points="934,-36 880,-36 880,-0 934,-0 934,-36"/>
<text text-anchor="middle" x="907" y="-14.3" font-family="Sans-Serif" font-size="14.00">(...)</text>
</g>
<!-- 52&#45;&gt;53 -->
<g id="edge21" class="edge"><title>52&#45;&gt;53</title>
<path fill="none" stroke="black" d="M927.315,-71.7615C923.957,-63.0419 920.491,-54.0385 917.393,-45.9921"/>
<polygon fill="black" stroke="black" points="920.561,-44.4797 913.701,-36.4051 914.028,-46.9949 920.561,-44.4797"/>
</g>
<!-- 62 -->
<g id="node23" class="node"><title>62</title>
<polygon fill="none" stroke="black" points="1006,-36 952,-36 952,-0 1006,-0 1006,-36"/>
<text text-anchor="middle" x="979" y="-14.3" font-family="Sans-Serif" font-size="14.00">(...)</text>
</g>
<!-- 52&#45;&gt;62 -->
<g id="edge22" class="edge"><title>52&#45;&gt;62</title>
<path fill="none" stroke="black" d="M958.685,-71.7615C962.043,-63.0419 965.509,-54.0385 968.607,-45.9921"/>
<polygon fill="black" stroke="black" points="971.972,-46.9949 972.299,-36.4051 965.439,-44.4797 971.972,-46.9949"/>
</g>
</g>
</svg>
