<?xml version="1.0" encoding="utf-8" standalone="no"?>
<!DOCTYPE svg PUBLIC "-//W3C//DTD SVG 1.1//EN"
  "http://www.w3.org/Graphics/SVG/1.1/DTD/svg11.dtd">
<svg height="324.635938pt" version="1.1" viewBox="0 0 638.825 324.635938" width="638.825pt" xmlns="http://www.w3.org/2000/svg" xmlns:xlink="http://www.w3.org/1999/xlink">
 <metadata>
  <rdf:RDF xmlns:cc="http://creativecommons.org/ns#" xmlns:dc="http://purl.org/dc/elements/1.1/" xmlns:rdf="http://www.w3.org/1999/02/22-rdf-syntax-ns#">
   <cc:Work>
    <dc:type rdf:resource="http://purl.org/dc/dcmitype/StillImage"/>
    <dc:date>2022-05-13T14:17:26.719527</dc:date>
    <dc:format>image/svg+xml</dc:format>
    <dc:creator>
     <cc:Agent>
      <dc:title>Matplotlib v3.4.3, https://matplotlib.org/</dc:title>
     </cc:Agent>
    </dc:creator>
   </cc:Work>
  </rdf:RDF>
 </metadata>
 <defs>
  <style type="text/css">*{stroke-linecap:butt;stroke-linejoin:round;}</style>
 </defs>
 <g id="figure_1">
  <g id="patch_1">
   <path d="M 0 324.635938 
L 638.825 324.635938 
L 638.825 0 
L 0 0 
z
" style="fill:#ffffff;"/>
  </g>
  <g id="axes_1">
   <g id="patch_2">
    <path d="M 73.625 279 
L 631.625 279 
L 631.625 7.2 
L 73.625 7.2 
z
" style="fill:#ffffff;"/>
   </g>
   <g id="matplotlib.axis_1">
    <g id="xtick_1">
     <g id="text_1">
      <!-- 0 -->
      <g style="fill:#262626;" transform="translate(84.358702 296.736719)scale(0.15 -0.15)">
       <defs>
        <path d="M 266 2259 
Q 266 3072 433 3567 
Q 600 4063 929 4331 
Q 1259 4600 1759 4600 
Q 2128 4600 2406 4451 
Q 2684 4303 2865 4023 
Q 3047 3744 3150 3342 
Q 3253 2941 3253 2259 
Q 3253 1453 3087 958 
Q 2922 463 2592 192 
Q 2263 -78 1759 -78 
Q 1097 -78 719 397 
Q 266 969 266 2259 
z
M 844 2259 
Q 844 1131 1108 757 
Q 1372 384 1759 384 
Q 2147 384 2411 759 
Q 2675 1134 2675 2259 
Q 2675 3391 2411 3762 
Q 2147 4134 1753 4134 
Q 1366 4134 1134 3806 
Q 844 3388 844 2259 
z
" id="ArialMT-30" transform="scale(0.015625)"/>
       </defs>
       <use xlink:href="#ArialMT-30"/>
      </g>
     </g>
    </g>
    <g id="xtick_2">
     <g id="text_2">
      <!-- 20 -->
      <g style="fill:#262626;" transform="translate(184.780314 296.736719)scale(0.15 -0.15)">
       <defs>
        <path d="M 3222 541 
L 3222 0 
L 194 0 
Q 188 203 259 391 
Q 375 700 629 1000 
Q 884 1300 1366 1694 
Q 2113 2306 2375 2664 
Q 2638 3022 2638 3341 
Q 2638 3675 2398 3904 
Q 2159 4134 1775 4134 
Q 1369 4134 1125 3890 
Q 881 3647 878 3216 
L 300 3275 
Q 359 3922 746 4261 
Q 1134 4600 1788 4600 
Q 2447 4600 2831 4234 
Q 3216 3869 3216 3328 
Q 3216 3053 3103 2787 
Q 2991 2522 2730 2228 
Q 2469 1934 1863 1422 
Q 1356 997 1212 845 
Q 1069 694 975 541 
L 3222 541 
z
" id="ArialMT-32" transform="scale(0.015625)"/>
       </defs>
       <use xlink:href="#ArialMT-32"/>
       <use x="55.615234" xlink:href="#ArialMT-30"/>
      </g>
     </g>
    </g>
    <g id="xtick_3">
     <g id="text_3">
      <!-- 40 -->
      <g style="fill:#262626;" transform="translate(289.372628 296.736719)scale(0.15 -0.15)">
       <defs>
        <path d="M 2069 0 
L 2069 1097 
L 81 1097 
L 81 1613 
L 2172 4581 
L 2631 4581 
L 2631 1613 
L 3250 1613 
L 3250 1097 
L 2631 1097 
L 2631 0 
L 2069 0 
z
M 2069 1613 
L 2069 3678 
L 634 1613 
L 2069 1613 
z
" id="ArialMT-34" transform="scale(0.015625)"/>
       </defs>
       <use xlink:href="#ArialMT-34"/>
       <use x="55.615234" xlink:href="#ArialMT-30"/>
      </g>
     </g>
    </g>
    <g id="xtick_4">
     <g id="text_4">
      <!-- 60 -->
      <g style="fill:#262626;" transform="translate(393.964943 296.736719)scale(0.15 -0.15)">
       <defs>
        <path d="M 3184 3459 
L 2625 3416 
Q 2550 3747 2413 3897 
Q 2184 4138 1850 4138 
Q 1581 4138 1378 3988 
Q 1113 3794 959 3422 
Q 806 3050 800 2363 
Q 1003 2672 1297 2822 
Q 1591 2972 1913 2972 
Q 2475 2972 2870 2558 
Q 3266 2144 3266 1488 
Q 3266 1056 3080 686 
Q 2894 316 2569 119 
Q 2244 -78 1831 -78 
Q 1128 -78 684 439 
Q 241 956 241 2144 
Q 241 3472 731 4075 
Q 1159 4600 1884 4600 
Q 2425 4600 2770 4297 
Q 3116 3994 3184 3459 
z
M 888 1484 
Q 888 1194 1011 928 
Q 1134 663 1356 523 
Q 1578 384 1822 384 
Q 2178 384 2434 671 
Q 2691 959 2691 1453 
Q 2691 1928 2437 2201 
Q 2184 2475 1800 2475 
Q 1419 2475 1153 2201 
Q 888 1928 888 1484 
z
" id="ArialMT-36" transform="scale(0.015625)"/>
       </defs>
       <use xlink:href="#ArialMT-36"/>
       <use x="55.615234" xlink:href="#ArialMT-30"/>
      </g>
     </g>
    </g>
    <g id="xtick_5">
     <g id="text_5">
      <!-- 80 -->
      <g style="fill:#262626;" transform="translate(498.557258 296.736719)scale(0.15 -0.15)">
       <defs>
        <path d="M 1131 2484 
Q 781 2613 612 2850 
Q 444 3088 444 3419 
Q 444 3919 803 4259 
Q 1163 4600 1759 4600 
Q 2359 4600 2725 4251 
Q 3091 3903 3091 3403 
Q 3091 3084 2923 2848 
Q 2756 2613 2416 2484 
Q 2838 2347 3058 2040 
Q 3278 1734 3278 1309 
Q 3278 722 2862 322 
Q 2447 -78 1769 -78 
Q 1091 -78 675 323 
Q 259 725 259 1325 
Q 259 1772 486 2073 
Q 713 2375 1131 2484 
z
M 1019 3438 
Q 1019 3113 1228 2906 
Q 1438 2700 1772 2700 
Q 2097 2700 2305 2904 
Q 2513 3109 2513 3406 
Q 2513 3716 2298 3927 
Q 2084 4138 1766 4138 
Q 1444 4138 1231 3931 
Q 1019 3725 1019 3438 
z
M 838 1322 
Q 838 1081 952 856 
Q 1066 631 1291 507 
Q 1516 384 1775 384 
Q 2178 384 2440 643 
Q 2703 903 2703 1303 
Q 2703 1709 2433 1975 
Q 2163 2241 1756 2241 
Q 1359 2241 1098 1978 
Q 838 1716 838 1322 
z
" id="ArialMT-38" transform="scale(0.015625)"/>
       </defs>
       <use xlink:href="#ArialMT-38"/>
       <use x="55.615234" xlink:href="#ArialMT-30"/>
      </g>
     </g>
    </g>
    <g id="xtick_6">
     <g id="text_6">
      <!-- 100 -->
      <g style="fill:#262626;" transform="translate(598.97887 296.736719)scale(0.15 -0.15)">
       <defs>
        <path d="M 2384 0 
L 1822 0 
L 1822 3584 
Q 1619 3391 1289 3197 
Q 959 3003 697 2906 
L 697 3450 
Q 1169 3672 1522 3987 
Q 1875 4303 2022 4600 
L 2384 4600 
L 2384 0 
z
" id="ArialMT-31" transform="scale(0.015625)"/>
       </defs>
       <use xlink:href="#ArialMT-31"/>
       <use x="55.615234" xlink:href="#ArialMT-30"/>
       <use x="111.230469" xlink:href="#ArialMT-30"/>
      </g>
     </g>
    </g>
    <g id="text_7">
     <!-- k -->
     <g style="fill:#262626;" transform="translate(348.875 314.454688)scale(0.15 -0.15)">
      <defs>
       <path d="M 425 0 
L 425 4581 
L 988 4581 
L 988 1969 
L 2319 3319 
L 3047 3319 
L 1778 2088 
L 3175 0 
L 2481 0 
L 1384 1697 
L 988 1316 
L 988 0 
L 425 0 
z
" id="ArialMT-6b" transform="scale(0.015625)"/>
      </defs>
      <use xlink:href="#ArialMT-6b"/>
     </g>
    </g>
   </g>
   <g id="matplotlib.axis_2">
    <g id="ytick_1">
     <g id="line2d_1">
      <path clip-path="url(#paa5f5a5c00)" d="M 73.625 275.234055 
L 631.625 275.234055 
" style="fill:none;stroke:#cccccc;stroke-linecap:round;stroke-width:0.8;"/>
     </g>
     <g id="text_8">
      <!-- 2000 -->
      <g style="fill:#262626;" transform="translate(33.259375 280.602414)scale(0.15 -0.15)">
       <use xlink:href="#ArialMT-32"/>
       <use x="55.615234" xlink:href="#ArialMT-30"/>
       <use x="111.230469" xlink:href="#ArialMT-30"/>
       <use x="166.845703" xlink:href="#ArialMT-30"/>
      </g>
     </g>
    </g>
    <g id="ytick_2">
     <g id="line2d_2">
      <path clip-path="url(#paa5f5a5c00)" d="M 73.625 235.967713 
L 631.625 235.967713 
" style="fill:none;stroke:#cccccc;stroke-linecap:round;stroke-width:0.8;"/>
     </g>
     <g id="text_9">
      <!-- 4000 -->
      <g style="fill:#262626;" transform="translate(33.259375 241.336073)scale(0.15 -0.15)">
       <use xlink:href="#ArialMT-34"/>
       <use x="55.615234" xlink:href="#ArialMT-30"/>
       <use x="111.230469" xlink:href="#ArialMT-30"/>
       <use x="166.845703" xlink:href="#ArialMT-30"/>
      </g>
     </g>
    </g>
    <g id="ytick_3">
     <g id="line2d_3">
      <path clip-path="url(#paa5f5a5c00)" d="M 73.625 196.701372 
L 631.625 196.701372 
" style="fill:none;stroke:#cccccc;stroke-linecap:round;stroke-width:0.8;"/>
     </g>
     <g id="text_10">
      <!-- 6000 -->
      <g style="fill:#262626;" transform="translate(33.259375 202.069731)scale(0.15 -0.15)">
       <use xlink:href="#ArialMT-36"/>
       <use x="55.615234" xlink:href="#ArialMT-30"/>
       <use x="111.230469" xlink:href="#ArialMT-30"/>
       <use x="166.845703" xlink:href="#ArialMT-30"/>
      </g>
     </g>
    </g>
    <g id="ytick_4">
     <g id="line2d_4">
      <path clip-path="url(#paa5f5a5c00)" d="M 73.625 157.43503 
L 631.625 157.43503 
" style="fill:none;stroke:#cccccc;stroke-linecap:round;stroke-width:0.8;"/>
     </g>
     <g id="text_11">
      <!-- 8000 -->
      <g style="fill:#262626;" transform="translate(33.259375 162.803389)scale(0.15 -0.15)">
       <use xlink:href="#ArialMT-38"/>
       <use x="55.615234" xlink:href="#ArialMT-30"/>
       <use x="111.230469" xlink:href="#ArialMT-30"/>
       <use x="166.845703" xlink:href="#ArialMT-30"/>
      </g>
     </g>
    </g>
    <g id="ytick_5">
     <g id="line2d_5">
      <path clip-path="url(#paa5f5a5c00)" d="M 73.625 118.168688 
L 631.625 118.168688 
" style="fill:none;stroke:#cccccc;stroke-linecap:round;stroke-width:0.8;"/>
     </g>
     <g id="text_12">
      <!-- 10000 -->
      <g style="fill:#262626;" transform="translate(24.917969 123.537048)scale(0.15 -0.15)">
       <use xlink:href="#ArialMT-31"/>
       <use x="55.615234" xlink:href="#ArialMT-30"/>
       <use x="111.230469" xlink:href="#ArialMT-30"/>
       <use x="166.845703" xlink:href="#ArialMT-30"/>
       <use x="222.460938" xlink:href="#ArialMT-30"/>
      </g>
     </g>
    </g>
    <g id="ytick_6">
     <g id="line2d_6">
      <path clip-path="url(#paa5f5a5c00)" d="M 73.625 78.902347 
L 631.625 78.902347 
" style="fill:none;stroke:#cccccc;stroke-linecap:round;stroke-width:0.8;"/>
     </g>
     <g id="text_13">
      <!-- 12000 -->
      <g style="fill:#262626;" transform="translate(24.917969 84.270706)scale(0.15 -0.15)">
       <use xlink:href="#ArialMT-31"/>
       <use x="55.615234" xlink:href="#ArialMT-32"/>
       <use x="111.230469" xlink:href="#ArialMT-30"/>
       <use x="166.845703" xlink:href="#ArialMT-30"/>
       <use x="222.460938" xlink:href="#ArialMT-30"/>
      </g>
     </g>
    </g>
    <g id="ytick_7">
     <g id="line2d_7">
      <path clip-path="url(#paa5f5a5c00)" d="M 73.625 39.636005 
L 631.625 39.636005 
" style="fill:none;stroke:#cccccc;stroke-linecap:round;stroke-width:0.8;"/>
     </g>
     <g id="text_14">
      <!-- 14000 -->
      <g style="fill:#262626;" transform="translate(24.917969 45.004364)scale(0.15 -0.15)">
       <use xlink:href="#ArialMT-31"/>
       <use x="55.615234" xlink:href="#ArialMT-34"/>
       <use x="111.230469" xlink:href="#ArialMT-30"/>
       <use x="166.845703" xlink:href="#ArialMT-30"/>
       <use x="222.460938" xlink:href="#ArialMT-30"/>
      </g>
     </g>
    </g>
    <g id="text_15">
     <!-- Between-Cluster Variation -->
     <g style="fill:#262626;" transform="translate(17.936719 229.667578)rotate(-90)scale(0.15 -0.15)">
      <defs>
       <path d="M 469 0 
L 469 4581 
L 2188 4581 
Q 2713 4581 3030 4442 
Q 3347 4303 3526 4014 
Q 3706 3725 3706 3409 
Q 3706 3116 3547 2856 
Q 3388 2597 3066 2438 
Q 3481 2316 3704 2022 
Q 3928 1728 3928 1328 
Q 3928 1006 3792 729 
Q 3656 453 3456 303 
Q 3256 153 2954 76 
Q 2653 0 2216 0 
L 469 0 
z
M 1075 2656 
L 2066 2656 
Q 2469 2656 2644 2709 
Q 2875 2778 2992 2937 
Q 3109 3097 3109 3338 
Q 3109 3566 3000 3739 
Q 2891 3913 2687 3977 
Q 2484 4041 1991 4041 
L 1075 4041 
L 1075 2656 
z
M 1075 541 
L 2216 541 
Q 2509 541 2628 563 
Q 2838 600 2978 687 
Q 3119 775 3209 942 
Q 3300 1109 3300 1328 
Q 3300 1584 3169 1773 
Q 3038 1963 2805 2039 
Q 2572 2116 2134 2116 
L 1075 2116 
L 1075 541 
z
" id="ArialMT-42" transform="scale(0.015625)"/>
       <path d="M 2694 1069 
L 3275 997 
Q 3138 488 2766 206 
Q 2394 -75 1816 -75 
Q 1088 -75 661 373 
Q 234 822 234 1631 
Q 234 2469 665 2931 
Q 1097 3394 1784 3394 
Q 2450 3394 2872 2941 
Q 3294 2488 3294 1666 
Q 3294 1616 3291 1516 
L 816 1516 
Q 847 969 1125 678 
Q 1403 388 1819 388 
Q 2128 388 2347 550 
Q 2566 713 2694 1069 
z
M 847 1978 
L 2700 1978 
Q 2663 2397 2488 2606 
Q 2219 2931 1791 2931 
Q 1403 2931 1139 2672 
Q 875 2413 847 1978 
z
" id="ArialMT-65" transform="scale(0.015625)"/>
       <path d="M 1650 503 
L 1731 6 
Q 1494 -44 1306 -44 
Q 1000 -44 831 53 
Q 663 150 594 308 
Q 525 466 525 972 
L 525 2881 
L 113 2881 
L 113 3319 
L 525 3319 
L 525 4141 
L 1084 4478 
L 1084 3319 
L 1650 3319 
L 1650 2881 
L 1084 2881 
L 1084 941 
Q 1084 700 1114 631 
Q 1144 563 1211 522 
Q 1278 481 1403 481 
Q 1497 481 1650 503 
z
" id="ArialMT-74" transform="scale(0.015625)"/>
       <path d="M 1034 0 
L 19 3319 
L 600 3319 
L 1128 1403 
L 1325 691 
Q 1338 744 1497 1375 
L 2025 3319 
L 2603 3319 
L 3100 1394 
L 3266 759 
L 3456 1400 
L 4025 3319 
L 4572 3319 
L 3534 0 
L 2950 0 
L 2422 1988 
L 2294 2553 
L 1622 0 
L 1034 0 
z
" id="ArialMT-77" transform="scale(0.015625)"/>
       <path d="M 422 0 
L 422 3319 
L 928 3319 
L 928 2847 
Q 1294 3394 1984 3394 
Q 2284 3394 2536 3286 
Q 2788 3178 2913 3003 
Q 3038 2828 3088 2588 
Q 3119 2431 3119 2041 
L 3119 0 
L 2556 0 
L 2556 2019 
Q 2556 2363 2490 2533 
Q 2425 2703 2258 2804 
Q 2091 2906 1866 2906 
Q 1506 2906 1245 2678 
Q 984 2450 984 1813 
L 984 0 
L 422 0 
z
" id="ArialMT-6e" transform="scale(0.015625)"/>
       <path d="M 203 1375 
L 203 1941 
L 1931 1941 
L 1931 1375 
L 203 1375 
z
" id="ArialMT-2d" transform="scale(0.015625)"/>
       <path d="M 3763 1606 
L 4369 1453 
Q 4178 706 3683 314 
Q 3188 -78 2472 -78 
Q 1731 -78 1267 223 
Q 803 525 561 1097 
Q 319 1669 319 2325 
Q 319 3041 592 3573 
Q 866 4106 1370 4382 
Q 1875 4659 2481 4659 
Q 3169 4659 3637 4309 
Q 4106 3959 4291 3325 
L 3694 3184 
Q 3534 3684 3231 3912 
Q 2928 4141 2469 4141 
Q 1941 4141 1586 3887 
Q 1231 3634 1087 3207 
Q 944 2781 944 2328 
Q 944 1744 1114 1308 
Q 1284 872 1643 656 
Q 2003 441 2422 441 
Q 2931 441 3284 734 
Q 3638 1028 3763 1606 
z
" id="ArialMT-43" transform="scale(0.015625)"/>
       <path d="M 409 0 
L 409 4581 
L 972 4581 
L 972 0 
L 409 0 
z
" id="ArialMT-6c" transform="scale(0.015625)"/>
       <path d="M 2597 0 
L 2597 488 
Q 2209 -75 1544 -75 
Q 1250 -75 995 37 
Q 741 150 617 320 
Q 494 491 444 738 
Q 409 903 409 1263 
L 409 3319 
L 972 3319 
L 972 1478 
Q 972 1038 1006 884 
Q 1059 663 1231 536 
Q 1403 409 1656 409 
Q 1909 409 2131 539 
Q 2353 669 2445 892 
Q 2538 1116 2538 1541 
L 2538 3319 
L 3100 3319 
L 3100 0 
L 2597 0 
z
" id="ArialMT-75" transform="scale(0.015625)"/>
       <path d="M 197 991 
L 753 1078 
Q 800 744 1014 566 
Q 1228 388 1613 388 
Q 2000 388 2187 545 
Q 2375 703 2375 916 
Q 2375 1106 2209 1216 
Q 2094 1291 1634 1406 
Q 1016 1563 777 1677 
Q 538 1791 414 1992 
Q 291 2194 291 2438 
Q 291 2659 392 2848 
Q 494 3038 669 3163 
Q 800 3259 1026 3326 
Q 1253 3394 1513 3394 
Q 1903 3394 2198 3281 
Q 2494 3169 2634 2976 
Q 2775 2784 2828 2463 
L 2278 2388 
Q 2241 2644 2061 2787 
Q 1881 2931 1553 2931 
Q 1166 2931 1000 2803 
Q 834 2675 834 2503 
Q 834 2394 903 2306 
Q 972 2216 1119 2156 
Q 1203 2125 1616 2013 
Q 2213 1853 2448 1751 
Q 2684 1650 2818 1456 
Q 2953 1263 2953 975 
Q 2953 694 2789 445 
Q 2625 197 2315 61 
Q 2006 -75 1616 -75 
Q 969 -75 630 194 
Q 291 463 197 991 
z
" id="ArialMT-73" transform="scale(0.015625)"/>
       <path d="M 416 0 
L 416 3319 
L 922 3319 
L 922 2816 
Q 1116 3169 1280 3281 
Q 1444 3394 1641 3394 
Q 1925 3394 2219 3213 
L 2025 2691 
Q 1819 2813 1613 2813 
Q 1428 2813 1281 2702 
Q 1134 2591 1072 2394 
Q 978 2094 978 1738 
L 978 0 
L 416 0 
z
" id="ArialMT-72" transform="scale(0.015625)"/>
       <path id="ArialMT-20" transform="scale(0.015625)"/>
       <path d="M 1803 0 
L 28 4581 
L 684 4581 
L 1875 1253 
Q 2019 853 2116 503 
Q 2222 878 2363 1253 
L 3600 4581 
L 4219 4581 
L 2425 0 
L 1803 0 
z
" id="ArialMT-56" transform="scale(0.015625)"/>
       <path d="M 2588 409 
Q 2275 144 1986 34 
Q 1697 -75 1366 -75 
Q 819 -75 525 192 
Q 231 459 231 875 
Q 231 1119 342 1320 
Q 453 1522 633 1644 
Q 813 1766 1038 1828 
Q 1203 1872 1538 1913 
Q 2219 1994 2541 2106 
Q 2544 2222 2544 2253 
Q 2544 2597 2384 2738 
Q 2169 2928 1744 2928 
Q 1347 2928 1158 2789 
Q 969 2650 878 2297 
L 328 2372 
Q 403 2725 575 2942 
Q 747 3159 1072 3276 
Q 1397 3394 1825 3394 
Q 2250 3394 2515 3294 
Q 2781 3194 2906 3042 
Q 3031 2891 3081 2659 
Q 3109 2516 3109 2141 
L 3109 1391 
Q 3109 606 3145 398 
Q 3181 191 3288 0 
L 2700 0 
Q 2613 175 2588 409 
z
M 2541 1666 
Q 2234 1541 1622 1453 
Q 1275 1403 1131 1340 
Q 988 1278 909 1158 
Q 831 1038 831 891 
Q 831 666 1001 516 
Q 1172 366 1500 366 
Q 1825 366 2078 508 
Q 2331 650 2450 897 
Q 2541 1088 2541 1459 
L 2541 1666 
z
" id="ArialMT-61" transform="scale(0.015625)"/>
       <path d="M 425 3934 
L 425 4581 
L 988 4581 
L 988 3934 
L 425 3934 
z
M 425 0 
L 425 3319 
L 988 3319 
L 988 0 
L 425 0 
z
" id="ArialMT-69" transform="scale(0.015625)"/>
       <path d="M 213 1659 
Q 213 2581 725 3025 
Q 1153 3394 1769 3394 
Q 2453 3394 2887 2945 
Q 3322 2497 3322 1706 
Q 3322 1066 3130 698 
Q 2938 331 2570 128 
Q 2203 -75 1769 -75 
Q 1072 -75 642 372 
Q 213 819 213 1659 
z
M 791 1659 
Q 791 1022 1069 705 
Q 1347 388 1769 388 
Q 2188 388 2466 706 
Q 2744 1025 2744 1678 
Q 2744 2294 2464 2611 
Q 2184 2928 1769 2928 
Q 1347 2928 1069 2612 
Q 791 2297 791 1659 
z
" id="ArialMT-6f" transform="scale(0.015625)"/>
      </defs>
      <use xlink:href="#ArialMT-42"/>
      <use x="66.699219" xlink:href="#ArialMT-65"/>
      <use x="122.314453" xlink:href="#ArialMT-74"/>
      <use x="150.097656" xlink:href="#ArialMT-77"/>
      <use x="222.314453" xlink:href="#ArialMT-65"/>
      <use x="277.929688" xlink:href="#ArialMT-65"/>
      <use x="333.544922" xlink:href="#ArialMT-6e"/>
      <use x="389.160156" xlink:href="#ArialMT-2d"/>
      <use x="422.460938" xlink:href="#ArialMT-43"/>
      <use x="494.677734" xlink:href="#ArialMT-6c"/>
      <use x="516.894531" xlink:href="#ArialMT-75"/>
      <use x="572.509766" xlink:href="#ArialMT-73"/>
      <use x="622.509766" xlink:href="#ArialMT-74"/>
      <use x="650.292969" xlink:href="#ArialMT-65"/>
      <use x="705.908203" xlink:href="#ArialMT-72"/>
      <use x="739.208984" xlink:href="#ArialMT-20"/>
      <use x="766.992188" xlink:href="#ArialMT-56"/>
      <use x="826.316406" xlink:href="#ArialMT-61"/>
      <use x="881.931641" xlink:href="#ArialMT-72"/>
      <use x="915.232422" xlink:href="#ArialMT-69"/>
      <use x="937.449219" xlink:href="#ArialMT-61"/>
      <use x="993.064453" xlink:href="#ArialMT-74"/>
      <use x="1020.847656" xlink:href="#ArialMT-69"/>
      <use x="1043.064453" xlink:href="#ArialMT-6f"/>
      <use x="1098.679688" xlink:href="#ArialMT-6e"/>
     </g>
    </g>
   </g>
   <g id="line2d_8">
    <path clip-path="url(#paa5f5a5c00)" d="M 98.988636 266.645455 
L 104.218252 234.899926 
L 109.447868 217.668118 
L 114.677484 200.571222 
L 119.907099 186.71694 
L 125.136715 175.863441 
L 130.366331 168.239019 
L 135.595947 161.556927 
L 140.825562 155.033799 
L 146.055178 149.122633 
L 151.284794 143.86972 
L 156.51441 138.932672 
L 161.744025 134.949819 
L 166.973641 129.53018 
L 172.203257 126.492316 
L 177.432873 122.735081 
L 182.662488 118.668455 
L 187.892104 115.335418 
L 193.12172 113.257365 
L 198.351336 110.149993 
L 203.580951 107.562712 
L 208.810567 104.502358 
L 214.040183 104.360249 
L 219.269799 100.858758 
L 224.499414 98.49641 
L 229.72903 97.305836 
L 234.958646 94.33573 
L 240.188261 93.522235 
L 245.417877 91.324097 
L 250.647493 89.630513 
L 255.877109 88.392127 
L 261.106724 86.092784 
L 266.33634 83.494228 
L 271.565956 82.355547 
L 276.795572 80.65413 
L 282.025187 80.581781 
L 287.254803 76.848869 
L 292.484419 76.639004 
L 297.714035 76.014404 
L 302.94365 74.250949 
L 308.173266 73.090527 
L 313.402882 71.963149 
L 318.632498 69.327134 
L 323.862113 69.791553 
L 329.091729 67.120251 
L 334.321345 67.567757 
L 339.550961 63.660072 
L 344.780576 64.526825 
L 350.010192 64.058694 
L 355.239808 62.553302 
L 360.469424 60.354575 
L 365.699039 60.397958 
L 370.928655 59.052591 
L 376.158271 58.932376 
L 381.387887 57.109638 
L 386.617502 56.232758 
L 391.847118 53.378887 
L 397.076734 53.006596 
L 402.30635 52.109775 
L 407.535965 51.068396 
L 412.765581 50.52147 
L 417.995197 49.052691 
L 423.224813 48.277878 
L 428.454428 46.992384 
L 433.684044 47.833511 
L 438.91366 45.73007 
L 444.143276 45.359587 
L 449.372891 43.929627 
L 454.602507 42.882424 
L 459.832123 42.414622 
L 465.061739 41.821872 
L 470.291354 40.089819 
L 475.52097 40.127827 
L 480.750586 37.794026 
L 485.980201 37.845308 
L 491.209817 37.661406 
L 496.439433 36.671087 
L 501.669049 35.227092 
L 506.898664 34.96871 
L 512.12828 34.01335 
L 517.357896 33.358425 
L 522.587512 32.4384 
L 527.817127 31.813365 
L 533.046743 31.196455 
L 538.276359 29.571068 
L 543.505975 29.421563 
L 548.73559 29.080607 
L 553.965206 28.323729 
L 559.194822 27.393938 
L 564.424438 24.303626 
L 569.654053 24.8227 
L 574.883669 24.034304 
L 580.113285 23.456308 
L 585.342901 23.187454 
L 590.572516 21.979142 
L 595.802132 20.96494 
L 601.031748 20.722267 
L 606.261364 19.554545 
" style="fill:none;stroke:#4e79a7;stroke-linecap:round;stroke-width:1.5;"/>
    <defs>
     <path d="M 0 3 
C 0.795609 3 1.55874 2.683901 2.12132 2.12132 
C 2.683901 1.55874 3 0.795609 3 0 
C 3 -0.795609 2.683901 -1.55874 2.12132 -2.12132 
C 1.55874 -2.683901 0.795609 -3 0 -3 
C -0.795609 -3 -1.55874 -2.683901 -2.12132 -2.12132 
C -2.683901 -1.55874 -3 -0.795609 -3 0 
C -3 0.795609 -2.683901 1.55874 -2.12132 2.12132 
C -1.55874 2.683901 -0.795609 3 0 3 
z
" id="m8270145325" style="stroke:#ffffff;stroke-width:0.75;"/>
    </defs>
    <g clip-path="url(#paa5f5a5c00)">
     <use style="fill:#4e79a7;stroke:#ffffff;stroke-width:0.75;" x="98.988636" xlink:href="#m8270145325" y="266.645455"/>
     <use style="fill:#4e79a7;stroke:#ffffff;stroke-width:0.75;" x="104.218252" xlink:href="#m8270145325" y="234.899926"/>
     <use style="fill:#4e79a7;stroke:#ffffff;stroke-width:0.75;" x="109.447868" xlink:href="#m8270145325" y="217.668118"/>
     <use style="fill:#4e79a7;stroke:#ffffff;stroke-width:0.75;" x="114.677484" xlink:href="#m8270145325" y="200.571222"/>
     <use style="fill:#4e79a7;stroke:#ffffff;stroke-width:0.75;" x="119.907099" xlink:href="#m8270145325" y="186.71694"/>
     <use style="fill:#4e79a7;stroke:#ffffff;stroke-width:0.75;" x="125.136715" xlink:href="#m8270145325" y="175.863441"/>
     <use style="fill:#4e79a7;stroke:#ffffff;stroke-width:0.75;" x="130.366331" xlink:href="#m8270145325" y="168.239019"/>
     <use style="fill:#4e79a7;stroke:#ffffff;stroke-width:0.75;" x="135.595947" xlink:href="#m8270145325" y="161.556927"/>
     <use style="fill:#4e79a7;stroke:#ffffff;stroke-width:0.75;" x="140.825562" xlink:href="#m8270145325" y="155.033799"/>
     <use style="fill:#4e79a7;stroke:#ffffff;stroke-width:0.75;" x="146.055178" xlink:href="#m8270145325" y="149.122633"/>
     <use style="fill:#4e79a7;stroke:#ffffff;stroke-width:0.75;" x="151.284794" xlink:href="#m8270145325" y="143.86972"/>
     <use style="fill:#4e79a7;stroke:#ffffff;stroke-width:0.75;" x="156.51441" xlink:href="#m8270145325" y="138.932672"/>
     <use style="fill:#4e79a7;stroke:#ffffff;stroke-width:0.75;" x="161.744025" xlink:href="#m8270145325" y="134.949819"/>
     <use style="fill:#4e79a7;stroke:#ffffff;stroke-width:0.75;" x="166.973641" xlink:href="#m8270145325" y="129.53018"/>
     <use style="fill:#4e79a7;stroke:#ffffff;stroke-width:0.75;" x="172.203257" xlink:href="#m8270145325" y="126.492316"/>
     <use style="fill:#4e79a7;stroke:#ffffff;stroke-width:0.75;" x="177.432873" xlink:href="#m8270145325" y="122.735081"/>
     <use style="fill:#4e79a7;stroke:#ffffff;stroke-width:0.75;" x="182.662488" xlink:href="#m8270145325" y="118.668455"/>
     <use style="fill:#4e79a7;stroke:#ffffff;stroke-width:0.75;" x="187.892104" xlink:href="#m8270145325" y="115.335418"/>
     <use style="fill:#4e79a7;stroke:#ffffff;stroke-width:0.75;" x="193.12172" xlink:href="#m8270145325" y="113.257365"/>
     <use style="fill:#4e79a7;stroke:#ffffff;stroke-width:0.75;" x="198.351336" xlink:href="#m8270145325" y="110.149993"/>
     <use style="fill:#4e79a7;stroke:#ffffff;stroke-width:0.75;" x="203.580951" xlink:href="#m8270145325" y="107.562712"/>
     <use style="fill:#4e79a7;stroke:#ffffff;stroke-width:0.75;" x="208.810567" xlink:href="#m8270145325" y="104.502358"/>
     <use style="fill:#4e79a7;stroke:#ffffff;stroke-width:0.75;" x="214.040183" xlink:href="#m8270145325" y="104.360249"/>
     <use style="fill:#4e79a7;stroke:#ffffff;stroke-width:0.75;" x="219.269799" xlink:href="#m8270145325" y="100.858758"/>
     <use style="fill:#4e79a7;stroke:#ffffff;stroke-width:0.75;" x="224.499414" xlink:href="#m8270145325" y="98.49641"/>
     <use style="fill:#4e79a7;stroke:#ffffff;stroke-width:0.75;" x="229.72903" xlink:href="#m8270145325" y="97.305836"/>
     <use style="fill:#4e79a7;stroke:#ffffff;stroke-width:0.75;" x="234.958646" xlink:href="#m8270145325" y="94.33573"/>
     <use style="fill:#4e79a7;stroke:#ffffff;stroke-width:0.75;" x="240.188261" xlink:href="#m8270145325" y="93.522235"/>
     <use style="fill:#4e79a7;stroke:#ffffff;stroke-width:0.75;" x="245.417877" xlink:href="#m8270145325" y="91.324097"/>
     <use style="fill:#4e79a7;stroke:#ffffff;stroke-width:0.75;" x="250.647493" xlink:href="#m8270145325" y="89.630513"/>
     <use style="fill:#4e79a7;stroke:#ffffff;stroke-width:0.75;" x="255.877109" xlink:href="#m8270145325" y="88.392127"/>
     <use style="fill:#4e79a7;stroke:#ffffff;stroke-width:0.75;" x="261.106724" xlink:href="#m8270145325" y="86.092784"/>
     <use style="fill:#4e79a7;stroke:#ffffff;stroke-width:0.75;" x="266.33634" xlink:href="#m8270145325" y="83.494228"/>
     <use style="fill:#4e79a7;stroke:#ffffff;stroke-width:0.75;" x="271.565956" xlink:href="#m8270145325" y="82.355547"/>
     <use style="fill:#4e79a7;stroke:#ffffff;stroke-width:0.75;" x="276.795572" xlink:href="#m8270145325" y="80.65413"/>
     <use style="fill:#4e79a7;stroke:#ffffff;stroke-width:0.75;" x="282.025187" xlink:href="#m8270145325" y="80.581781"/>
     <use style="fill:#4e79a7;stroke:#ffffff;stroke-width:0.75;" x="287.254803" xlink:href="#m8270145325" y="76.848869"/>
     <use style="fill:#4e79a7;stroke:#ffffff;stroke-width:0.75;" x="292.484419" xlink:href="#m8270145325" y="76.639004"/>
     <use style="fill:#4e79a7;stroke:#ffffff;stroke-width:0.75;" x="297.714035" xlink:href="#m8270145325" y="76.014404"/>
     <use style="fill:#4e79a7;stroke:#ffffff;stroke-width:0.75;" x="302.94365" xlink:href="#m8270145325" y="74.250949"/>
     <use style="fill:#4e79a7;stroke:#ffffff;stroke-width:0.75;" x="308.173266" xlink:href="#m8270145325" y="73.090527"/>
     <use style="fill:#4e79a7;stroke:#ffffff;stroke-width:0.75;" x="313.402882" xlink:href="#m8270145325" y="71.963149"/>
     <use style="fill:#4e79a7;stroke:#ffffff;stroke-width:0.75;" x="318.632498" xlink:href="#m8270145325" y="69.327134"/>
     <use style="fill:#4e79a7;stroke:#ffffff;stroke-width:0.75;" x="323.862113" xlink:href="#m8270145325" y="69.791553"/>
     <use style="fill:#4e79a7;stroke:#ffffff;stroke-width:0.75;" x="329.091729" xlink:href="#m8270145325" y="67.120251"/>
     <use style="fill:#4e79a7;stroke:#ffffff;stroke-width:0.75;" x="334.321345" xlink:href="#m8270145325" y="67.567757"/>
     <use style="fill:#4e79a7;stroke:#ffffff;stroke-width:0.75;" x="339.550961" xlink:href="#m8270145325" y="63.660072"/>
     <use style="fill:#4e79a7;stroke:#ffffff;stroke-width:0.75;" x="344.780576" xlink:href="#m8270145325" y="64.526825"/>
     <use style="fill:#4e79a7;stroke:#ffffff;stroke-width:0.75;" x="350.010192" xlink:href="#m8270145325" y="64.058694"/>
     <use style="fill:#4e79a7;stroke:#ffffff;stroke-width:0.75;" x="355.239808" xlink:href="#m8270145325" y="62.553302"/>
     <use style="fill:#4e79a7;stroke:#ffffff;stroke-width:0.75;" x="360.469424" xlink:href="#m8270145325" y="60.354575"/>
     <use style="fill:#4e79a7;stroke:#ffffff;stroke-width:0.75;" x="365.699039" xlink:href="#m8270145325" y="60.397958"/>
     <use style="fill:#4e79a7;stroke:#ffffff;stroke-width:0.75;" x="370.928655" xlink:href="#m8270145325" y="59.052591"/>
     <use style="fill:#4e79a7;stroke:#ffffff;stroke-width:0.75;" x="376.158271" xlink:href="#m8270145325" y="58.932376"/>
     <use style="fill:#4e79a7;stroke:#ffffff;stroke-width:0.75;" x="381.387887" xlink:href="#m8270145325" y="57.109638"/>
     <use style="fill:#4e79a7;stroke:#ffffff;stroke-width:0.75;" x="386.617502" xlink:href="#m8270145325" y="56.232758"/>
     <use style="fill:#4e79a7;stroke:#ffffff;stroke-width:0.75;" x="391.847118" xlink:href="#m8270145325" y="53.378887"/>
     <use style="fill:#4e79a7;stroke:#ffffff;stroke-width:0.75;" x="397.076734" xlink:href="#m8270145325" y="53.006596"/>
     <use style="fill:#4e79a7;stroke:#ffffff;stroke-width:0.75;" x="402.30635" xlink:href="#m8270145325" y="52.109775"/>
     <use style="fill:#4e79a7;stroke:#ffffff;stroke-width:0.75;" x="407.535965" xlink:href="#m8270145325" y="51.068396"/>
     <use style="fill:#4e79a7;stroke:#ffffff;stroke-width:0.75;" x="412.765581" xlink:href="#m8270145325" y="50.52147"/>
     <use style="fill:#4e79a7;stroke:#ffffff;stroke-width:0.75;" x="417.995197" xlink:href="#m8270145325" y="49.052691"/>
     <use style="fill:#4e79a7;stroke:#ffffff;stroke-width:0.75;" x="423.224813" xlink:href="#m8270145325" y="48.277878"/>
     <use style="fill:#4e79a7;stroke:#ffffff;stroke-width:0.75;" x="428.454428" xlink:href="#m8270145325" y="46.992384"/>
     <use style="fill:#4e79a7;stroke:#ffffff;stroke-width:0.75;" x="433.684044" xlink:href="#m8270145325" y="47.833511"/>
     <use style="fill:#4e79a7;stroke:#ffffff;stroke-width:0.75;" x="438.91366" xlink:href="#m8270145325" y="45.73007"/>
     <use style="fill:#4e79a7;stroke:#ffffff;stroke-width:0.75;" x="444.143276" xlink:href="#m8270145325" y="45.359587"/>
     <use style="fill:#4e79a7;stroke:#ffffff;stroke-width:0.75;" x="449.372891" xlink:href="#m8270145325" y="43.929627"/>
     <use style="fill:#4e79a7;stroke:#ffffff;stroke-width:0.75;" x="454.602507" xlink:href="#m8270145325" y="42.882424"/>
     <use style="fill:#4e79a7;stroke:#ffffff;stroke-width:0.75;" x="459.832123" xlink:href="#m8270145325" y="42.414622"/>
     <use style="fill:#4e79a7;stroke:#ffffff;stroke-width:0.75;" x="465.061739" xlink:href="#m8270145325" y="41.821872"/>
     <use style="fill:#4e79a7;stroke:#ffffff;stroke-width:0.75;" x="470.291354" xlink:href="#m8270145325" y="40.089819"/>
     <use style="fill:#4e79a7;stroke:#ffffff;stroke-width:0.75;" x="475.52097" xlink:href="#m8270145325" y="40.127827"/>
     <use style="fill:#4e79a7;stroke:#ffffff;stroke-width:0.75;" x="480.750586" xlink:href="#m8270145325" y="37.794026"/>
     <use style="fill:#4e79a7;stroke:#ffffff;stroke-width:0.75;" x="485.980201" xlink:href="#m8270145325" y="37.845308"/>
     <use style="fill:#4e79a7;stroke:#ffffff;stroke-width:0.75;" x="491.209817" xlink:href="#m8270145325" y="37.661406"/>
     <use style="fill:#4e79a7;stroke:#ffffff;stroke-width:0.75;" x="496.439433" xlink:href="#m8270145325" y="36.671087"/>
     <use style="fill:#4e79a7;stroke:#ffffff;stroke-width:0.75;" x="501.669049" xlink:href="#m8270145325" y="35.227092"/>
     <use style="fill:#4e79a7;stroke:#ffffff;stroke-width:0.75;" x="506.898664" xlink:href="#m8270145325" y="34.96871"/>
     <use style="fill:#4e79a7;stroke:#ffffff;stroke-width:0.75;" x="512.12828" xlink:href="#m8270145325" y="34.01335"/>
     <use style="fill:#4e79a7;stroke:#ffffff;stroke-width:0.75;" x="517.357896" xlink:href="#m8270145325" y="33.358425"/>
     <use style="fill:#4e79a7;stroke:#ffffff;stroke-width:0.75;" x="522.587512" xlink:href="#m8270145325" y="32.4384"/>
     <use style="fill:#4e79a7;stroke:#ffffff;stroke-width:0.75;" x="527.817127" xlink:href="#m8270145325" y="31.813365"/>
     <use style="fill:#4e79a7;stroke:#ffffff;stroke-width:0.75;" x="533.046743" xlink:href="#m8270145325" y="31.196455"/>
     <use style="fill:#4e79a7;stroke:#ffffff;stroke-width:0.75;" x="538.276359" xlink:href="#m8270145325" y="29.571068"/>
     <use style="fill:#4e79a7;stroke:#ffffff;stroke-width:0.75;" x="543.505975" xlink:href="#m8270145325" y="29.421563"/>
     <use style="fill:#4e79a7;stroke:#ffffff;stroke-width:0.75;" x="548.73559" xlink:href="#m8270145325" y="29.080607"/>
     <use style="fill:#4e79a7;stroke:#ffffff;stroke-width:0.75;" x="553.965206" xlink:href="#m8270145325" y="28.323729"/>
     <use style="fill:#4e79a7;stroke:#ffffff;stroke-width:0.75;" x="559.194822" xlink:href="#m8270145325" y="27.393938"/>
     <use style="fill:#4e79a7;stroke:#ffffff;stroke-width:0.75;" x="564.424438" xlink:href="#m8270145325" y="24.303626"/>
     <use style="fill:#4e79a7;stroke:#ffffff;stroke-width:0.75;" x="569.654053" xlink:href="#m8270145325" y="24.8227"/>
     <use style="fill:#4e79a7;stroke:#ffffff;stroke-width:0.75;" x="574.883669" xlink:href="#m8270145325" y="24.034304"/>
     <use style="fill:#4e79a7;stroke:#ffffff;stroke-width:0.75;" x="580.113285" xlink:href="#m8270145325" y="23.456308"/>
     <use style="fill:#4e79a7;stroke:#ffffff;stroke-width:0.75;" x="585.342901" xlink:href="#m8270145325" y="23.187454"/>
     <use style="fill:#4e79a7;stroke:#ffffff;stroke-width:0.75;" x="590.572516" xlink:href="#m8270145325" y="21.979142"/>
     <use style="fill:#4e79a7;stroke:#ffffff;stroke-width:0.75;" x="595.802132" xlink:href="#m8270145325" y="20.96494"/>
     <use style="fill:#4e79a7;stroke:#ffffff;stroke-width:0.75;" x="601.031748" xlink:href="#m8270145325" y="20.722267"/>
     <use style="fill:#4e79a7;stroke:#ffffff;stroke-width:0.75;" x="606.261364" xlink:href="#m8270145325" y="19.554545"/>
    </g>
   </g>
   <g id="patch_3">
    <path d="M 73.625 279 
L 631.625 279 
" style="fill:none;stroke:#cccccc;stroke-linecap:square;stroke-linejoin:miter;stroke-width:0.8;"/>
   </g>
  </g>
 </g>
 <defs>
  <clipPath id="paa5f5a5c00">
   <rect height="271.8" width="558" x="73.625" y="7.2"/>
  </clipPath>
 </defs>
</svg>
