<?xml version="1.0" encoding="utf-8" standalone="no"?>
<!DOCTYPE svg PUBLIC "-//W3C//DTD SVG 1.1//EN"
  "http://www.w3.org/Graphics/SVG/1.1/DTD/svg11.dtd">
<svg height="324.635938pt" version="1.1" viewBox="0 0 638.825 324.635938" width="638.825pt" xmlns="http://www.w3.org/2000/svg" xmlns:xlink="http://www.w3.org/1999/xlink">
 <metadata>
  <rdf:RDF xmlns:cc="http://creativecommons.org/ns#" xmlns:dc="http://purl.org/dc/elements/1.1/" xmlns:rdf="http://www.w3.org/1999/02/22-rdf-syntax-ns#">
   <cc:Work>
    <dc:type rdf:resource="http://purl.org/dc/dcmitype/StillImage"/>
    <dc:date>2022-05-13T14:37:25.959039</dc:date>
    <dc:format>image/svg+xml</dc:format>
    <dc:creator>
     <cc:Agent>
      <dc:title>Matplotlib v3.4.3, https://matplotlib.org/</dc:title>
     </cc:Agent>
    </dc:creator>
   </cc:Work>
  </rdf:RDF>
 </metadata>
 <defs>
  <style type="text/css">*{stroke-linecap:butt;stroke-linejoin:round;}</style>
 </defs>
 <g id="figure_1">
  <g id="patch_1">
   <path d="M 0 324.635938 
L 638.825 324.635938 
L 638.825 0 
L 0 0 
z
" style="fill:#ffffff;"/>
  </g>
  <g id="axes_1">
   <g id="patch_2">
    <path d="M 73.625 279 
L 631.625 279 
L 631.625 7.2 
L 73.625 7.2 
z
" style="fill:#ffffff;"/>
   </g>
   <g id="matplotlib.axis_1">
    <g id="xtick_1">
     <g id="text_1">
      <!-- 0 -->
      <g style="fill:#262626;" transform="translate(84.358702 296.736719)scale(0.15 -0.15)">
       <defs>
        <path d="M 266 2259 
Q 266 3072 433 3567 
Q 600 4063 929 4331 
Q 1259 4600 1759 4600 
Q 2128 4600 2406 4451 
Q 2684 4303 2865 4023 
Q 3047 3744 3150 3342 
Q 3253 2941 3253 2259 
Q 3253 1453 3087 958 
Q 2922 463 2592 192 
Q 2263 -78 1759 -78 
Q 1097 -78 719 397 
Q 266 969 266 2259 
z
M 844 2259 
Q 844 1131 1108 757 
Q 1372 384 1759 384 
Q 2147 384 2411 759 
Q 2675 1134 2675 2259 
Q 2675 3391 2411 3762 
Q 2147 4134 1753 4134 
Q 1366 4134 1134 3806 
Q 844 3388 844 2259 
z
" id="ArialMT-30" transform="scale(0.015625)"/>
       </defs>
       <use xlink:href="#ArialMT-30"/>
      </g>
     </g>
    </g>
    <g id="xtick_2">
     <g id="text_2">
      <!-- 20 -->
      <g style="fill:#262626;" transform="translate(184.780314 296.736719)scale(0.15 -0.15)">
       <defs>
        <path d="M 3222 541 
L 3222 0 
L 194 0 
Q 188 203 259 391 
Q 375 700 629 1000 
Q 884 1300 1366 1694 
Q 2113 2306 2375 2664 
Q 2638 3022 2638 3341 
Q 2638 3675 2398 3904 
Q 2159 4134 1775 4134 
Q 1369 4134 1125 3890 
Q 881 3647 878 3216 
L 300 3275 
Q 359 3922 746 4261 
Q 1134 4600 1788 4600 
Q 2447 4600 2831 4234 
Q 3216 3869 3216 3328 
Q 3216 3053 3103 2787 
Q 2991 2522 2730 2228 
Q 2469 1934 1863 1422 
Q 1356 997 1212 845 
Q 1069 694 975 541 
L 3222 541 
z
" id="ArialMT-32" transform="scale(0.015625)"/>
       </defs>
       <use xlink:href="#ArialMT-32"/>
       <use x="55.615234" xlink:href="#ArialMT-30"/>
      </g>
     </g>
    </g>
    <g id="xtick_3">
     <g id="text_3">
      <!-- 40 -->
      <g style="fill:#262626;" transform="translate(289.372628 296.736719)scale(0.15 -0.15)">
       <defs>
        <path d="M 2069 0 
L 2069 1097 
L 81 1097 
L 81 1613 
L 2172 4581 
L 2631 4581 
L 2631 1613 
L 3250 1613 
L 3250 1097 
L 2631 1097 
L 2631 0 
L 2069 0 
z
M 2069 1613 
L 2069 3678 
L 634 1613 
L 2069 1613 
z
" id="ArialMT-34" transform="scale(0.015625)"/>
       </defs>
       <use xlink:href="#ArialMT-34"/>
       <use x="55.615234" xlink:href="#ArialMT-30"/>
      </g>
     </g>
    </g>
    <g id="xtick_4">
     <g id="text_4">
      <!-- 60 -->
      <g style="fill:#262626;" transform="translate(393.964943 296.736719)scale(0.15 -0.15)">
       <defs>
        <path d="M 3184 3459 
L 2625 3416 
Q 2550 3747 2413 3897 
Q 2184 4138 1850 4138 
Q 1581 4138 1378 3988 
Q 1113 3794 959 3422 
Q 806 3050 800 2363 
Q 1003 2672 1297 2822 
Q 1591 2972 1913 2972 
Q 2475 2972 2870 2558 
Q 3266 2144 3266 1488 
Q 3266 1056 3080 686 
Q 2894 316 2569 119 
Q 2244 -78 1831 -78 
Q 1128 -78 684 439 
Q 241 956 241 2144 
Q 241 3472 731 4075 
Q 1159 4600 1884 4600 
Q 2425 4600 2770 4297 
Q 3116 3994 3184 3459 
z
M 888 1484 
Q 888 1194 1011 928 
Q 1134 663 1356 523 
Q 1578 384 1822 384 
Q 2178 384 2434 671 
Q 2691 959 2691 1453 
Q 2691 1928 2437 2201 
Q 2184 2475 1800 2475 
Q 1419 2475 1153 2201 
Q 888 1928 888 1484 
z
" id="ArialMT-36" transform="scale(0.015625)"/>
       </defs>
       <use xlink:href="#ArialMT-36"/>
       <use x="55.615234" xlink:href="#ArialMT-30"/>
      </g>
     </g>
    </g>
    <g id="xtick_5">
     <g id="text_5">
      <!-- 80 -->
      <g style="fill:#262626;" transform="translate(498.557258 296.736719)scale(0.15 -0.15)">
       <defs>
        <path d="M 1131 2484 
Q 781 2613 612 2850 
Q 444 3088 444 3419 
Q 444 3919 803 4259 
Q 1163 4600 1759 4600 
Q 2359 4600 2725 4251 
Q 3091 3903 3091 3403 
Q 3091 3084 2923 2848 
Q 2756 2613 2416 2484 
Q 2838 2347 3058 2040 
Q 3278 1734 3278 1309 
Q 3278 722 2862 322 
Q 2447 -78 1769 -78 
Q 1091 -78 675 323 
Q 259 725 259 1325 
Q 259 1772 486 2073 
Q 713 2375 1131 2484 
z
M 1019 3438 
Q 1019 3113 1228 2906 
Q 1438 2700 1772 2700 
Q 2097 2700 2305 2904 
Q 2513 3109 2513 3406 
Q 2513 3716 2298 3927 
Q 2084 4138 1766 4138 
Q 1444 4138 1231 3931 
Q 1019 3725 1019 3438 
z
M 838 1322 
Q 838 1081 952 856 
Q 1066 631 1291 507 
Q 1516 384 1775 384 
Q 2178 384 2440 643 
Q 2703 903 2703 1303 
Q 2703 1709 2433 1975 
Q 2163 2241 1756 2241 
Q 1359 2241 1098 1978 
Q 838 1716 838 1322 
z
" id="ArialMT-38" transform="scale(0.015625)"/>
       </defs>
       <use xlink:href="#ArialMT-38"/>
       <use x="55.615234" xlink:href="#ArialMT-30"/>
      </g>
     </g>
    </g>
    <g id="xtick_6">
     <g id="text_6">
      <!-- 100 -->
      <g style="fill:#262626;" transform="translate(598.97887 296.736719)scale(0.15 -0.15)">
       <defs>
        <path d="M 2384 0 
L 1822 0 
L 1822 3584 
Q 1619 3391 1289 3197 
Q 959 3003 697 2906 
L 697 3450 
Q 1169 3672 1522 3987 
Q 1875 4303 2022 4600 
L 2384 4600 
L 2384 0 
z
" id="ArialMT-31" transform="scale(0.015625)"/>
       </defs>
       <use xlink:href="#ArialMT-31"/>
       <use x="55.615234" xlink:href="#ArialMT-30"/>
       <use x="111.230469" xlink:href="#ArialMT-30"/>
      </g>
     </g>
    </g>
    <g id="text_7">
     <!-- k -->
     <g style="fill:#262626;" transform="translate(348.875 314.454688)scale(0.15 -0.15)">
      <defs>
       <path d="M 425 0 
L 425 4581 
L 988 4581 
L 988 1969 
L 2319 3319 
L 3047 3319 
L 1778 2088 
L 3175 0 
L 2481 0 
L 1384 1697 
L 988 1316 
L 988 0 
L 425 0 
z
" id="ArialMT-6b" transform="scale(0.015625)"/>
      </defs>
      <use xlink:href="#ArialMT-6b"/>
     </g>
    </g>
   </g>
   <g id="matplotlib.axis_2">
    <g id="ytick_1">
     <g id="line2d_1">
      <path clip-path="url(#pd57608f8ef)" d="M 73.625 267.216629 
L 631.625 267.216629 
" style="fill:none;stroke:#cccccc;stroke-linecap:round;stroke-width:0.8;"/>
     </g>
     <g id="text_8">
      <!-- 0 -->
      <g style="fill:#262626;" transform="translate(58.283594 272.584988)scale(0.15 -0.15)">
       <use xlink:href="#ArialMT-30"/>
      </g>
     </g>
    </g>
    <g id="ytick_2">
     <g id="line2d_2">
      <path clip-path="url(#pd57608f8ef)" d="M 73.625 229.599583 
L 631.625 229.599583 
" style="fill:none;stroke:#cccccc;stroke-linecap:round;stroke-width:0.8;"/>
     </g>
     <g id="text_9">
      <!-- 2000 -->
      <g style="fill:#262626;" transform="translate(33.259375 234.967943)scale(0.15 -0.15)">
       <use xlink:href="#ArialMT-32"/>
       <use x="55.615234" xlink:href="#ArialMT-30"/>
       <use x="111.230469" xlink:href="#ArialMT-30"/>
       <use x="166.845703" xlink:href="#ArialMT-30"/>
      </g>
     </g>
    </g>
    <g id="ytick_3">
     <g id="line2d_3">
      <path clip-path="url(#pd57608f8ef)" d="M 73.625 191.982538 
L 631.625 191.982538 
" style="fill:none;stroke:#cccccc;stroke-linecap:round;stroke-width:0.8;"/>
     </g>
     <g id="text_10">
      <!-- 4000 -->
      <g style="fill:#262626;" transform="translate(33.259375 197.350898)scale(0.15 -0.15)">
       <use xlink:href="#ArialMT-34"/>
       <use x="55.615234" xlink:href="#ArialMT-30"/>
       <use x="111.230469" xlink:href="#ArialMT-30"/>
       <use x="166.845703" xlink:href="#ArialMT-30"/>
      </g>
     </g>
    </g>
    <g id="ytick_4">
     <g id="line2d_4">
      <path clip-path="url(#pd57608f8ef)" d="M 73.625 154.365493 
L 631.625 154.365493 
" style="fill:none;stroke:#cccccc;stroke-linecap:round;stroke-width:0.8;"/>
     </g>
     <g id="text_11">
      <!-- 6000 -->
      <g style="fill:#262626;" transform="translate(33.259375 159.733853)scale(0.15 -0.15)">
       <use xlink:href="#ArialMT-36"/>
       <use x="55.615234" xlink:href="#ArialMT-30"/>
       <use x="111.230469" xlink:href="#ArialMT-30"/>
       <use x="166.845703" xlink:href="#ArialMT-30"/>
      </g>
     </g>
    </g>
    <g id="ytick_5">
     <g id="line2d_5">
      <path clip-path="url(#pd57608f8ef)" d="M 73.625 116.748448 
L 631.625 116.748448 
" style="fill:none;stroke:#cccccc;stroke-linecap:round;stroke-width:0.8;"/>
     </g>
     <g id="text_12">
      <!-- 8000 -->
      <g style="fill:#262626;" transform="translate(33.259375 122.116808)scale(0.15 -0.15)">
       <use xlink:href="#ArialMT-38"/>
       <use x="55.615234" xlink:href="#ArialMT-30"/>
       <use x="111.230469" xlink:href="#ArialMT-30"/>
       <use x="166.845703" xlink:href="#ArialMT-30"/>
      </g>
     </g>
    </g>
    <g id="ytick_6">
     <g id="line2d_6">
      <path clip-path="url(#pd57608f8ef)" d="M 73.625 79.131403 
L 631.625 79.131403 
" style="fill:none;stroke:#cccccc;stroke-linecap:round;stroke-width:0.8;"/>
     </g>
     <g id="text_13">
      <!-- 10000 -->
      <g style="fill:#262626;" transform="translate(24.917969 84.499763)scale(0.15 -0.15)">
       <use xlink:href="#ArialMT-31"/>
       <use x="55.615234" xlink:href="#ArialMT-30"/>
       <use x="111.230469" xlink:href="#ArialMT-30"/>
       <use x="166.845703" xlink:href="#ArialMT-30"/>
       <use x="222.460938" xlink:href="#ArialMT-30"/>
      </g>
     </g>
    </g>
    <g id="ytick_7">
     <g id="line2d_7">
      <path clip-path="url(#pd57608f8ef)" d="M 73.625 41.514358 
L 631.625 41.514358 
" style="fill:none;stroke:#cccccc;stroke-linecap:round;stroke-width:0.8;"/>
     </g>
     <g id="text_14">
      <!-- 12000 -->
      <g style="fill:#262626;" transform="translate(24.917969 46.882718)scale(0.15 -0.15)">
       <use xlink:href="#ArialMT-31"/>
       <use x="55.615234" xlink:href="#ArialMT-32"/>
       <use x="111.230469" xlink:href="#ArialMT-30"/>
       <use x="166.845703" xlink:href="#ArialMT-30"/>
       <use x="222.460938" xlink:href="#ArialMT-30"/>
      </g>
     </g>
    </g>
    <g id="text_15">
     <!-- Between-Cluster Variation -->
     <g style="fill:#262626;" transform="translate(17.936719 229.667578)rotate(-90)scale(0.15 -0.15)">
      <defs>
       <path d="M 469 0 
L 469 4581 
L 2188 4581 
Q 2713 4581 3030 4442 
Q 3347 4303 3526 4014 
Q 3706 3725 3706 3409 
Q 3706 3116 3547 2856 
Q 3388 2597 3066 2438 
Q 3481 2316 3704 2022 
Q 3928 1728 3928 1328 
Q 3928 1006 3792 729 
Q 3656 453 3456 303 
Q 3256 153 2954 76 
Q 2653 0 2216 0 
L 469 0 
z
M 1075 2656 
L 2066 2656 
Q 2469 2656 2644 2709 
Q 2875 2778 2992 2937 
Q 3109 3097 3109 3338 
Q 3109 3566 3000 3739 
Q 2891 3913 2687 3977 
Q 2484 4041 1991 4041 
L 1075 4041 
L 1075 2656 
z
M 1075 541 
L 2216 541 
Q 2509 541 2628 563 
Q 2838 600 2978 687 
Q 3119 775 3209 942 
Q 3300 1109 3300 1328 
Q 3300 1584 3169 1773 
Q 3038 1963 2805 2039 
Q 2572 2116 2134 2116 
L 1075 2116 
L 1075 541 
z
" id="ArialMT-42" transform="scale(0.015625)"/>
       <path d="M 2694 1069 
L 3275 997 
Q 3138 488 2766 206 
Q 2394 -75 1816 -75 
Q 1088 -75 661 373 
Q 234 822 234 1631 
Q 234 2469 665 2931 
Q 1097 3394 1784 3394 
Q 2450 3394 2872 2941 
Q 3294 2488 3294 1666 
Q 3294 1616 3291 1516 
L 816 1516 
Q 847 969 1125 678 
Q 1403 388 1819 388 
Q 2128 388 2347 550 
Q 2566 713 2694 1069 
z
M 847 1978 
L 2700 1978 
Q 2663 2397 2488 2606 
Q 2219 2931 1791 2931 
Q 1403 2931 1139 2672 
Q 875 2413 847 1978 
z
" id="ArialMT-65" transform="scale(0.015625)"/>
       <path d="M 1650 503 
L 1731 6 
Q 1494 -44 1306 -44 
Q 1000 -44 831 53 
Q 663 150 594 308 
Q 525 466 525 972 
L 525 2881 
L 113 2881 
L 113 3319 
L 525 3319 
L 525 4141 
L 1084 4478 
L 1084 3319 
L 1650 3319 
L 1650 2881 
L 1084 2881 
L 1084 941 
Q 1084 700 1114 631 
Q 1144 563 1211 522 
Q 1278 481 1403 481 
Q 1497 481 1650 503 
z
" id="ArialMT-74" transform="scale(0.015625)"/>
       <path d="M 1034 0 
L 19 3319 
L 600 3319 
L 1128 1403 
L 1325 691 
Q 1338 744 1497 1375 
L 2025 3319 
L 2603 3319 
L 3100 1394 
L 3266 759 
L 3456 1400 
L 4025 3319 
L 4572 3319 
L 3534 0 
L 2950 0 
L 2422 1988 
L 2294 2553 
L 1622 0 
L 1034 0 
z
" id="ArialMT-77" transform="scale(0.015625)"/>
       <path d="M 422 0 
L 422 3319 
L 928 3319 
L 928 2847 
Q 1294 3394 1984 3394 
Q 2284 3394 2536 3286 
Q 2788 3178 2913 3003 
Q 3038 2828 3088 2588 
Q 3119 2431 3119 2041 
L 3119 0 
L 2556 0 
L 2556 2019 
Q 2556 2363 2490 2533 
Q 2425 2703 2258 2804 
Q 2091 2906 1866 2906 
Q 1506 2906 1245 2678 
Q 984 2450 984 1813 
L 984 0 
L 422 0 
z
" id="ArialMT-6e" transform="scale(0.015625)"/>
       <path d="M 203 1375 
L 203 1941 
L 1931 1941 
L 1931 1375 
L 203 1375 
z
" id="ArialMT-2d" transform="scale(0.015625)"/>
       <path d="M 3763 1606 
L 4369 1453 
Q 4178 706 3683 314 
Q 3188 -78 2472 -78 
Q 1731 -78 1267 223 
Q 803 525 561 1097 
Q 319 1669 319 2325 
Q 319 3041 592 3573 
Q 866 4106 1370 4382 
Q 1875 4659 2481 4659 
Q 3169 4659 3637 4309 
Q 4106 3959 4291 3325 
L 3694 3184 
Q 3534 3684 3231 3912 
Q 2928 4141 2469 4141 
Q 1941 4141 1586 3887 
Q 1231 3634 1087 3207 
Q 944 2781 944 2328 
Q 944 1744 1114 1308 
Q 1284 872 1643 656 
Q 2003 441 2422 441 
Q 2931 441 3284 734 
Q 3638 1028 3763 1606 
z
" id="ArialMT-43" transform="scale(0.015625)"/>
       <path d="M 409 0 
L 409 4581 
L 972 4581 
L 972 0 
L 409 0 
z
" id="ArialMT-6c" transform="scale(0.015625)"/>
       <path d="M 2597 0 
L 2597 488 
Q 2209 -75 1544 -75 
Q 1250 -75 995 37 
Q 741 150 617 320 
Q 494 491 444 738 
Q 409 903 409 1263 
L 409 3319 
L 972 3319 
L 972 1478 
Q 972 1038 1006 884 
Q 1059 663 1231 536 
Q 1403 409 1656 409 
Q 1909 409 2131 539 
Q 2353 669 2445 892 
Q 2538 1116 2538 1541 
L 2538 3319 
L 3100 3319 
L 3100 0 
L 2597 0 
z
" id="ArialMT-75" transform="scale(0.015625)"/>
       <path d="M 197 991 
L 753 1078 
Q 800 744 1014 566 
Q 1228 388 1613 388 
Q 2000 388 2187 545 
Q 2375 703 2375 916 
Q 2375 1106 2209 1216 
Q 2094 1291 1634 1406 
Q 1016 1563 777 1677 
Q 538 1791 414 1992 
Q 291 2194 291 2438 
Q 291 2659 392 2848 
Q 494 3038 669 3163 
Q 800 3259 1026 3326 
Q 1253 3394 1513 3394 
Q 1903 3394 2198 3281 
Q 2494 3169 2634 2976 
Q 2775 2784 2828 2463 
L 2278 2388 
Q 2241 2644 2061 2787 
Q 1881 2931 1553 2931 
Q 1166 2931 1000 2803 
Q 834 2675 834 2503 
Q 834 2394 903 2306 
Q 972 2216 1119 2156 
Q 1203 2125 1616 2013 
Q 2213 1853 2448 1751 
Q 2684 1650 2818 1456 
Q 2953 1263 2953 975 
Q 2953 694 2789 445 
Q 2625 197 2315 61 
Q 2006 -75 1616 -75 
Q 969 -75 630 194 
Q 291 463 197 991 
z
" id="ArialMT-73" transform="scale(0.015625)"/>
       <path d="M 416 0 
L 416 3319 
L 922 3319 
L 922 2816 
Q 1116 3169 1280 3281 
Q 1444 3394 1641 3394 
Q 1925 3394 2219 3213 
L 2025 2691 
Q 1819 2813 1613 2813 
Q 1428 2813 1281 2702 
Q 1134 2591 1072 2394 
Q 978 2094 978 1738 
L 978 0 
L 416 0 
z
" id="ArialMT-72" transform="scale(0.015625)"/>
       <path id="ArialMT-20" transform="scale(0.015625)"/>
       <path d="M 1803 0 
L 28 4581 
L 684 4581 
L 1875 1253 
Q 2019 853 2116 503 
Q 2222 878 2363 1253 
L 3600 4581 
L 4219 4581 
L 2425 0 
L 1803 0 
z
" id="ArialMT-56" transform="scale(0.015625)"/>
       <path d="M 2588 409 
Q 2275 144 1986 34 
Q 1697 -75 1366 -75 
Q 819 -75 525 192 
Q 231 459 231 875 
Q 231 1119 342 1320 
Q 453 1522 633 1644 
Q 813 1766 1038 1828 
Q 1203 1872 1538 1913 
Q 2219 1994 2541 2106 
Q 2544 2222 2544 2253 
Q 2544 2597 2384 2738 
Q 2169 2928 1744 2928 
Q 1347 2928 1158 2789 
Q 969 2650 878 2297 
L 328 2372 
Q 403 2725 575 2942 
Q 747 3159 1072 3276 
Q 1397 3394 1825 3394 
Q 2250 3394 2515 3294 
Q 2781 3194 2906 3042 
Q 3031 2891 3081 2659 
Q 3109 2516 3109 2141 
L 3109 1391 
Q 3109 606 3145 398 
Q 3181 191 3288 0 
L 2700 0 
Q 2613 175 2588 409 
z
M 2541 1666 
Q 2234 1541 1622 1453 
Q 1275 1403 1131 1340 
Q 988 1278 909 1158 
Q 831 1038 831 891 
Q 831 666 1001 516 
Q 1172 366 1500 366 
Q 1825 366 2078 508 
Q 2331 650 2450 897 
Q 2541 1088 2541 1459 
L 2541 1666 
z
" id="ArialMT-61" transform="scale(0.015625)"/>
       <path d="M 425 3934 
L 425 4581 
L 988 4581 
L 988 3934 
L 425 3934 
z
M 425 0 
L 425 3319 
L 988 3319 
L 988 0 
L 425 0 
z
" id="ArialMT-69" transform="scale(0.015625)"/>
       <path d="M 213 1659 
Q 213 2581 725 3025 
Q 1153 3394 1769 3394 
Q 2453 3394 2887 2945 
Q 3322 2497 3322 1706 
Q 3322 1066 3130 698 
Q 2938 331 2570 128 
Q 2203 -75 1769 -75 
Q 1072 -75 642 372 
Q 213 819 213 1659 
z
M 791 1659 
Q 791 1022 1069 705 
Q 1347 388 1769 388 
Q 2188 388 2466 706 
Q 2744 1025 2744 1678 
Q 2744 2294 2464 2611 
Q 2184 2928 1769 2928 
Q 1347 2928 1069 2612 
Q 791 2297 791 1659 
z
" id="ArialMT-6f" transform="scale(0.015625)"/>
      </defs>
      <use xlink:href="#ArialMT-42"/>
      <use x="66.699219" xlink:href="#ArialMT-65"/>
      <use x="122.314453" xlink:href="#ArialMT-74"/>
      <use x="150.097656" xlink:href="#ArialMT-77"/>
      <use x="222.314453" xlink:href="#ArialMT-65"/>
      <use x="277.929688" xlink:href="#ArialMT-65"/>
      <use x="333.544922" xlink:href="#ArialMT-6e"/>
      <use x="389.160156" xlink:href="#ArialMT-2d"/>
      <use x="422.460938" xlink:href="#ArialMT-43"/>
      <use x="494.677734" xlink:href="#ArialMT-6c"/>
      <use x="516.894531" xlink:href="#ArialMT-75"/>
      <use x="572.509766" xlink:href="#ArialMT-73"/>
      <use x="622.509766" xlink:href="#ArialMT-74"/>
      <use x="650.292969" xlink:href="#ArialMT-65"/>
      <use x="705.908203" xlink:href="#ArialMT-72"/>
      <use x="739.208984" xlink:href="#ArialMT-20"/>
      <use x="766.992188" xlink:href="#ArialMT-56"/>
      <use x="826.316406" xlink:href="#ArialMT-61"/>
      <use x="881.931641" xlink:href="#ArialMT-72"/>
      <use x="915.232422" xlink:href="#ArialMT-69"/>
      <use x="937.449219" xlink:href="#ArialMT-61"/>
      <use x="993.064453" xlink:href="#ArialMT-74"/>
      <use x="1020.847656" xlink:href="#ArialMT-69"/>
      <use x="1043.064453" xlink:href="#ArialMT-6f"/>
      <use x="1098.679688" xlink:href="#ArialMT-6e"/>
     </g>
    </g>
   </g>
   <g id="line2d_8">
    <path clip-path="url(#pd57608f8ef)" d="M 98.988636 266.645455 
L 104.218252 266.037704 
L 109.447868 265.474643 
L 114.677484 264.385662 
L 119.907099 263.844155 
L 125.136715 263.318067 
L 130.366331 262.811167 
L 135.595947 261.596061 
L 140.825562 261.018305 
L 146.055178 260.51925 
L 151.284794 260.024641 
L 156.51441 259.497906 
L 161.744025 258.530869 
L 166.973641 257.989073 
L 172.203257 257.385981 
L 177.432873 256.372664 
L 182.662488 255.396105 
L 187.892104 254.905787 
L 193.12172 254.401713 
L 198.351336 253.9383 
L 203.580951 253.453543 
L 208.810567 252.963793 
L 214.040183 252.434867 
L 219.269799 251.964486 
L 224.499414 251.447886 
L 229.72903 250.947205 
L 234.958646 250.443904 
L 240.188261 249.983898 
L 245.417877 249.537415 
L 250.647493 248.541562 
L 255.877109 248.076362 
L 261.106724 247.610044 
L 266.33634 247.076513 
L 271.565956 246.6013 
L 276.795572 246.112612 
L 282.025187 245.655344 
L 287.254803 245.220107 
L 292.484419 244.349203 
L 297.714035 243.431701 
L 302.94365 242.990542 
L 308.173266 242.542781 
L 313.402882 242.302141 
L 318.632498 241.797559 
L 323.862113 241.333912 
L 329.091729 240.887583 
L 334.321345 240.479551 
L 339.550961 240.017018 
L 344.780576 239.17994 
L 350.010192 238.738929 
L 355.239808 237.896407 
L 360.469424 237.424904 
L 365.699039 236.983325 
L 370.928655 236.031227 
L 376.158271 235.336744 
L 381.387887 234.300922 
L 386.617502 233.893404 
L 391.847118 233.22702 
L 397.076734 232.980299 
L 402.30635 232.531057 
L 407.535965 232.098916 
L 412.765581 231.592483 
L 417.995197 231.138147 
L 423.224813 230.675999 
L 428.454428 230.251352 
L 433.684044 229.448096 
L 438.91366 229.049084 
L 444.143276 228.180802 
L 449.372891 227.788333 
L 454.602507 227.348187 
L 459.832123 226.831697 
L 465.061739 226.339643 
L 470.291354 225.925244 
L 475.52097 225.461664 
L 480.750586 224.486878 
L 485.980201 223.998839 
L 491.209817 223.56684 
L 496.439433 223.06387 
L 501.669049 222.637049 
L 506.898664 222.190989 
L 512.12828 221.787255 
L 517.357896 221.360083 
L 522.587512 220.261452 
L 527.817127 219.808356 
L 533.046743 218.827106 
L 538.276359 218.380574 
L 543.505975 217.973064 
L 548.73559 217.529033 
L 553.965206 217.095677 
L 559.194822 216.584954 
L 564.424438 216.126543 
L 569.654053 215.638867 
L 574.883669 215.197991 
L 580.113285 214.74993 
L 585.342901 214.316402 
L 590.572516 213.10804 
L 595.802132 212.003215 
L 601.031748 211.173439 
L 606.261364 210.181248 
" style="fill:none;stroke:#1f77b4;stroke-linecap:round;stroke-width:1.5;"/>
    <defs>
     <path d="M 0 3 
C 0.795609 3 1.55874 2.683901 2.12132 2.12132 
C 2.683901 1.55874 3 0.795609 3 0 
C 3 -0.795609 2.683901 -1.55874 2.12132 -2.12132 
C 1.55874 -2.683901 0.795609 -3 0 -3 
C -0.795609 -3 -1.55874 -2.683901 -2.12132 -2.12132 
C -2.683901 -1.55874 -3 -0.795609 -3 0 
C -3 0.795609 -2.683901 1.55874 -2.12132 2.12132 
C -1.55874 2.683901 -0.795609 3 0 3 
z
" id="md87c17024d" style="stroke:#ffffff;stroke-width:0.75;"/>
    </defs>
    <g clip-path="url(#pd57608f8ef)">
     <use style="fill:#1f77b4;stroke:#ffffff;stroke-width:0.75;" x="98.988636" xlink:href="#md87c17024d" y="266.645455"/>
     <use style="fill:#1f77b4;stroke:#ffffff;stroke-width:0.75;" x="104.218252" xlink:href="#md87c17024d" y="266.037704"/>
     <use style="fill:#1f77b4;stroke:#ffffff;stroke-width:0.75;" x="109.447868" xlink:href="#md87c17024d" y="265.474643"/>
     <use style="fill:#1f77b4;stroke:#ffffff;stroke-width:0.75;" x="114.677484" xlink:href="#md87c17024d" y="264.385662"/>
     <use style="fill:#1f77b4;stroke:#ffffff;stroke-width:0.75;" x="119.907099" xlink:href="#md87c17024d" y="263.844155"/>
     <use style="fill:#1f77b4;stroke:#ffffff;stroke-width:0.75;" x="125.136715" xlink:href="#md87c17024d" y="263.318067"/>
     <use style="fill:#1f77b4;stroke:#ffffff;stroke-width:0.75;" x="130.366331" xlink:href="#md87c17024d" y="262.811167"/>
     <use style="fill:#1f77b4;stroke:#ffffff;stroke-width:0.75;" x="135.595947" xlink:href="#md87c17024d" y="261.596061"/>
     <use style="fill:#1f77b4;stroke:#ffffff;stroke-width:0.75;" x="140.825562" xlink:href="#md87c17024d" y="261.018305"/>
     <use style="fill:#1f77b4;stroke:#ffffff;stroke-width:0.75;" x="146.055178" xlink:href="#md87c17024d" y="260.51925"/>
     <use style="fill:#1f77b4;stroke:#ffffff;stroke-width:0.75;" x="151.284794" xlink:href="#md87c17024d" y="260.024641"/>
     <use style="fill:#1f77b4;stroke:#ffffff;stroke-width:0.75;" x="156.51441" xlink:href="#md87c17024d" y="259.497906"/>
     <use style="fill:#1f77b4;stroke:#ffffff;stroke-width:0.75;" x="161.744025" xlink:href="#md87c17024d" y="258.530869"/>
     <use style="fill:#1f77b4;stroke:#ffffff;stroke-width:0.75;" x="166.973641" xlink:href="#md87c17024d" y="257.989073"/>
     <use style="fill:#1f77b4;stroke:#ffffff;stroke-width:0.75;" x="172.203257" xlink:href="#md87c17024d" y="257.385981"/>
     <use style="fill:#1f77b4;stroke:#ffffff;stroke-width:0.75;" x="177.432873" xlink:href="#md87c17024d" y="256.372664"/>
     <use style="fill:#1f77b4;stroke:#ffffff;stroke-width:0.75;" x="182.662488" xlink:href="#md87c17024d" y="255.396105"/>
     <use style="fill:#1f77b4;stroke:#ffffff;stroke-width:0.75;" x="187.892104" xlink:href="#md87c17024d" y="254.905787"/>
     <use style="fill:#1f77b4;stroke:#ffffff;stroke-width:0.75;" x="193.12172" xlink:href="#md87c17024d" y="254.401713"/>
     <use style="fill:#1f77b4;stroke:#ffffff;stroke-width:0.75;" x="198.351336" xlink:href="#md87c17024d" y="253.9383"/>
     <use style="fill:#1f77b4;stroke:#ffffff;stroke-width:0.75;" x="203.580951" xlink:href="#md87c17024d" y="253.453543"/>
     <use style="fill:#1f77b4;stroke:#ffffff;stroke-width:0.75;" x="208.810567" xlink:href="#md87c17024d" y="252.963793"/>
     <use style="fill:#1f77b4;stroke:#ffffff;stroke-width:0.75;" x="214.040183" xlink:href="#md87c17024d" y="252.434867"/>
     <use style="fill:#1f77b4;stroke:#ffffff;stroke-width:0.75;" x="219.269799" xlink:href="#md87c17024d" y="251.964486"/>
     <use style="fill:#1f77b4;stroke:#ffffff;stroke-width:0.75;" x="224.499414" xlink:href="#md87c17024d" y="251.447886"/>
     <use style="fill:#1f77b4;stroke:#ffffff;stroke-width:0.75;" x="229.72903" xlink:href="#md87c17024d" y="250.947205"/>
     <use style="fill:#1f77b4;stroke:#ffffff;stroke-width:0.75;" x="234.958646" xlink:href="#md87c17024d" y="250.443904"/>
     <use style="fill:#1f77b4;stroke:#ffffff;stroke-width:0.75;" x="240.188261" xlink:href="#md87c17024d" y="249.983898"/>
     <use style="fill:#1f77b4;stroke:#ffffff;stroke-width:0.75;" x="245.417877" xlink:href="#md87c17024d" y="249.537415"/>
     <use style="fill:#1f77b4;stroke:#ffffff;stroke-width:0.75;" x="250.647493" xlink:href="#md87c17024d" y="248.541562"/>
     <use style="fill:#1f77b4;stroke:#ffffff;stroke-width:0.75;" x="255.877109" xlink:href="#md87c17024d" y="248.076362"/>
     <use style="fill:#1f77b4;stroke:#ffffff;stroke-width:0.75;" x="261.106724" xlink:href="#md87c17024d" y="247.610044"/>
     <use style="fill:#1f77b4;stroke:#ffffff;stroke-width:0.75;" x="266.33634" xlink:href="#md87c17024d" y="247.076513"/>
     <use style="fill:#1f77b4;stroke:#ffffff;stroke-width:0.75;" x="271.565956" xlink:href="#md87c17024d" y="246.6013"/>
     <use style="fill:#1f77b4;stroke:#ffffff;stroke-width:0.75;" x="276.795572" xlink:href="#md87c17024d" y="246.112612"/>
     <use style="fill:#1f77b4;stroke:#ffffff;stroke-width:0.75;" x="282.025187" xlink:href="#md87c17024d" y="245.655344"/>
     <use style="fill:#1f77b4;stroke:#ffffff;stroke-width:0.75;" x="287.254803" xlink:href="#md87c17024d" y="245.220107"/>
     <use style="fill:#1f77b4;stroke:#ffffff;stroke-width:0.75;" x="292.484419" xlink:href="#md87c17024d" y="244.349203"/>
     <use style="fill:#1f77b4;stroke:#ffffff;stroke-width:0.75;" x="297.714035" xlink:href="#md87c17024d" y="243.431701"/>
     <use style="fill:#1f77b4;stroke:#ffffff;stroke-width:0.75;" x="302.94365" xlink:href="#md87c17024d" y="242.990542"/>
     <use style="fill:#1f77b4;stroke:#ffffff;stroke-width:0.75;" x="308.173266" xlink:href="#md87c17024d" y="242.542781"/>
     <use style="fill:#1f77b4;stroke:#ffffff;stroke-width:0.75;" x="313.402882" xlink:href="#md87c17024d" y="242.302141"/>
     <use style="fill:#1f77b4;stroke:#ffffff;stroke-width:0.75;" x="318.632498" xlink:href="#md87c17024d" y="241.797559"/>
     <use style="fill:#1f77b4;stroke:#ffffff;stroke-width:0.75;" x="323.862113" xlink:href="#md87c17024d" y="241.333912"/>
     <use style="fill:#1f77b4;stroke:#ffffff;stroke-width:0.75;" x="329.091729" xlink:href="#md87c17024d" y="240.887583"/>
     <use style="fill:#1f77b4;stroke:#ffffff;stroke-width:0.75;" x="334.321345" xlink:href="#md87c17024d" y="240.479551"/>
     <use style="fill:#1f77b4;stroke:#ffffff;stroke-width:0.75;" x="339.550961" xlink:href="#md87c17024d" y="240.017018"/>
     <use style="fill:#1f77b4;stroke:#ffffff;stroke-width:0.75;" x="344.780576" xlink:href="#md87c17024d" y="239.17994"/>
     <use style="fill:#1f77b4;stroke:#ffffff;stroke-width:0.75;" x="350.010192" xlink:href="#md87c17024d" y="238.738929"/>
     <use style="fill:#1f77b4;stroke:#ffffff;stroke-width:0.75;" x="355.239808" xlink:href="#md87c17024d" y="237.896407"/>
     <use style="fill:#1f77b4;stroke:#ffffff;stroke-width:0.75;" x="360.469424" xlink:href="#md87c17024d" y="237.424904"/>
     <use style="fill:#1f77b4;stroke:#ffffff;stroke-width:0.75;" x="365.699039" xlink:href="#md87c17024d" y="236.983325"/>
     <use style="fill:#1f77b4;stroke:#ffffff;stroke-width:0.75;" x="370.928655" xlink:href="#md87c17024d" y="236.031227"/>
     <use style="fill:#1f77b4;stroke:#ffffff;stroke-width:0.75;" x="376.158271" xlink:href="#md87c17024d" y="235.336744"/>
     <use style="fill:#1f77b4;stroke:#ffffff;stroke-width:0.75;" x="381.387887" xlink:href="#md87c17024d" y="234.300922"/>
     <use style="fill:#1f77b4;stroke:#ffffff;stroke-width:0.75;" x="386.617502" xlink:href="#md87c17024d" y="233.893404"/>
     <use style="fill:#1f77b4;stroke:#ffffff;stroke-width:0.75;" x="391.847118" xlink:href="#md87c17024d" y="233.22702"/>
     <use style="fill:#1f77b4;stroke:#ffffff;stroke-width:0.75;" x="397.076734" xlink:href="#md87c17024d" y="232.980299"/>
     <use style="fill:#1f77b4;stroke:#ffffff;stroke-width:0.75;" x="402.30635" xlink:href="#md87c17024d" y="232.531057"/>
     <use style="fill:#1f77b4;stroke:#ffffff;stroke-width:0.75;" x="407.535965" xlink:href="#md87c17024d" y="232.098916"/>
     <use style="fill:#1f77b4;stroke:#ffffff;stroke-width:0.75;" x="412.765581" xlink:href="#md87c17024d" y="231.592483"/>
     <use style="fill:#1f77b4;stroke:#ffffff;stroke-width:0.75;" x="417.995197" xlink:href="#md87c17024d" y="231.138147"/>
     <use style="fill:#1f77b4;stroke:#ffffff;stroke-width:0.75;" x="423.224813" xlink:href="#md87c17024d" y="230.675999"/>
     <use style="fill:#1f77b4;stroke:#ffffff;stroke-width:0.75;" x="428.454428" xlink:href="#md87c17024d" y="230.251352"/>
     <use style="fill:#1f77b4;stroke:#ffffff;stroke-width:0.75;" x="433.684044" xlink:href="#md87c17024d" y="229.448096"/>
     <use style="fill:#1f77b4;stroke:#ffffff;stroke-width:0.75;" x="438.91366" xlink:href="#md87c17024d" y="229.049084"/>
     <use style="fill:#1f77b4;stroke:#ffffff;stroke-width:0.75;" x="444.143276" xlink:href="#md87c17024d" y="228.180802"/>
     <use style="fill:#1f77b4;stroke:#ffffff;stroke-width:0.75;" x="449.372891" xlink:href="#md87c17024d" y="227.788333"/>
     <use style="fill:#1f77b4;stroke:#ffffff;stroke-width:0.75;" x="454.602507" xlink:href="#md87c17024d" y="227.348187"/>
     <use style="fill:#1f77b4;stroke:#ffffff;stroke-width:0.75;" x="459.832123" xlink:href="#md87c17024d" y="226.831697"/>
     <use style="fill:#1f77b4;stroke:#ffffff;stroke-width:0.75;" x="465.061739" xlink:href="#md87c17024d" y="226.339643"/>
     <use style="fill:#1f77b4;stroke:#ffffff;stroke-width:0.75;" x="470.291354" xlink:href="#md87c17024d" y="225.925244"/>
     <use style="fill:#1f77b4;stroke:#ffffff;stroke-width:0.75;" x="475.52097" xlink:href="#md87c17024d" y="225.461664"/>
     <use style="fill:#1f77b4;stroke:#ffffff;stroke-width:0.75;" x="480.750586" xlink:href="#md87c17024d" y="224.486878"/>
     <use style="fill:#1f77b4;stroke:#ffffff;stroke-width:0.75;" x="485.980201" xlink:href="#md87c17024d" y="223.998839"/>
     <use style="fill:#1f77b4;stroke:#ffffff;stroke-width:0.75;" x="491.209817" xlink:href="#md87c17024d" y="223.56684"/>
     <use style="fill:#1f77b4;stroke:#ffffff;stroke-width:0.75;" x="496.439433" xlink:href="#md87c17024d" y="223.06387"/>
     <use style="fill:#1f77b4;stroke:#ffffff;stroke-width:0.75;" x="501.669049" xlink:href="#md87c17024d" y="222.637049"/>
     <use style="fill:#1f77b4;stroke:#ffffff;stroke-width:0.75;" x="506.898664" xlink:href="#md87c17024d" y="222.190989"/>
     <use style="fill:#1f77b4;stroke:#ffffff;stroke-width:0.75;" x="512.12828" xlink:href="#md87c17024d" y="221.787255"/>
     <use style="fill:#1f77b4;stroke:#ffffff;stroke-width:0.75;" x="517.357896" xlink:href="#md87c17024d" y="221.360083"/>
     <use style="fill:#1f77b4;stroke:#ffffff;stroke-width:0.75;" x="522.587512" xlink:href="#md87c17024d" y="220.261452"/>
     <use style="fill:#1f77b4;stroke:#ffffff;stroke-width:0.75;" x="527.817127" xlink:href="#md87c17024d" y="219.808356"/>
     <use style="fill:#1f77b4;stroke:#ffffff;stroke-width:0.75;" x="533.046743" xlink:href="#md87c17024d" y="218.827106"/>
     <use style="fill:#1f77b4;stroke:#ffffff;stroke-width:0.75;" x="538.276359" xlink:href="#md87c17024d" y="218.380574"/>
     <use style="fill:#1f77b4;stroke:#ffffff;stroke-width:0.75;" x="543.505975" xlink:href="#md87c17024d" y="217.973064"/>
     <use style="fill:#1f77b4;stroke:#ffffff;stroke-width:0.75;" x="548.73559" xlink:href="#md87c17024d" y="217.529033"/>
     <use style="fill:#1f77b4;stroke:#ffffff;stroke-width:0.75;" x="553.965206" xlink:href="#md87c17024d" y="217.095677"/>
     <use style="fill:#1f77b4;stroke:#ffffff;stroke-width:0.75;" x="559.194822" xlink:href="#md87c17024d" y="216.584954"/>
     <use style="fill:#1f77b4;stroke:#ffffff;stroke-width:0.75;" x="564.424438" xlink:href="#md87c17024d" y="216.126543"/>
     <use style="fill:#1f77b4;stroke:#ffffff;stroke-width:0.75;" x="569.654053" xlink:href="#md87c17024d" y="215.638867"/>
     <use style="fill:#1f77b4;stroke:#ffffff;stroke-width:0.75;" x="574.883669" xlink:href="#md87c17024d" y="215.197991"/>
     <use style="fill:#1f77b4;stroke:#ffffff;stroke-width:0.75;" x="580.113285" xlink:href="#md87c17024d" y="214.74993"/>
     <use style="fill:#1f77b4;stroke:#ffffff;stroke-width:0.75;" x="585.342901" xlink:href="#md87c17024d" y="214.316402"/>
     <use style="fill:#1f77b4;stroke:#ffffff;stroke-width:0.75;" x="590.572516" xlink:href="#md87c17024d" y="213.10804"/>
     <use style="fill:#1f77b4;stroke:#ffffff;stroke-width:0.75;" x="595.802132" xlink:href="#md87c17024d" y="212.003215"/>
     <use style="fill:#1f77b4;stroke:#ffffff;stroke-width:0.75;" x="601.031748" xlink:href="#md87c17024d" y="211.173439"/>
     <use style="fill:#1f77b4;stroke:#ffffff;stroke-width:0.75;" x="606.261364" xlink:href="#md87c17024d" y="210.181248"/>
    </g>
   </g>
   <g id="line2d_9">
    <path clip-path="url(#pd57608f8ef)" d="M 98.988636 244.018681 
L 104.218252 235.740855 
L 109.447868 221.955097 
L 114.677484 207.815444 
L 119.907099 193.922518 
L 125.136715 183.755442 
L 130.366331 182.852847 
L 135.595947 179.657805 
L 140.825562 174.837147 
L 146.055178 172.266075 
L 151.284794 167.620596 
L 156.51441 164.669556 
L 161.744025 163.494649 
L 166.973641 161.537691 
L 172.203257 153.211459 
L 177.432873 148.927854 
L 182.662488 147.962992 
L 187.892104 144.307101 
L 193.12172 142.175315 
L 198.351336 134.748252 
L 203.580951 132.757988 
L 208.810567 131.597245 
L 214.040183 130.308461 
L 219.269799 125.362326 
L 224.499414 120.313452 
L 229.72903 118.869171 
L 234.958646 116.314512 
L 240.188261 113.510164 
L 245.417877 111.971113 
L 250.647493 110.917238 
L 255.877109 109.924965 
L 261.106724 108.426472 
L 266.33634 104.965352 
L 271.565956 103.4934 
L 276.795572 100.426771 
L 282.025187 99.406591 
L 287.254803 98.14793 
L 292.484419 96.646475 
L 297.714035 94.802803 
L 302.94365 93.391014 
L 308.173266 91.609133 
L 313.402882 90.581096 
L 318.632498 89.308247 
L 323.862113 84.730775 
L 329.091729 82.287087 
L 334.321345 80.278304 
L 339.550961 77.751546 
L 344.780576 76.545222 
L 350.010192 74.249237 
L 355.239808 71.678866 
L 360.469424 69.959139 
L 365.699039 68.533916 
L 370.928655 67.738722 
L 376.158271 66.550004 
L 381.387887 64.844023 
L 386.617502 63.618642 
L 391.847118 62.809111 
L 397.076734 62.270082 
L 402.30635 61.450084 
L 407.535965 59.919431 
L 412.765581 57.65915 
L 417.995197 56.625374 
L 423.224813 54.974046 
L 428.454428 54.248378 
L 433.684044 52.725902 
L 438.91366 51.273291 
L 444.143276 50.823591 
L 449.372891 49.641015 
L 454.602507 47.893082 
L 459.832123 46.740083 
L 465.061739 45.892927 
L 470.291354 45.330729 
L 475.52097 44.317751 
L 480.750586 43.319244 
L 485.980201 42.088142 
L 491.209817 41.168244 
L 496.439433 40.520401 
L 501.669049 39.687751 
L 506.898664 38.810141 
L 512.12828 37.325691 
L 517.357896 36.468949 
L 522.587512 35.525119 
L 527.817127 34.093152 
L 533.046743 32.985276 
L 538.276359 32.552604 
L 543.505975 31.493742 
L 548.73559 30.324784 
L 553.965206 29.310711 
L 559.194822 27.911806 
L 564.424438 27.301069 
L 569.654053 26.300448 
L 574.883669 25.501952 
L 580.113285 24.916304 
L 585.342901 23.522155 
L 590.572516 22.834584 
L 595.802132 21.583037 
L 601.031748 20.323475 
L 606.261364 19.554545 
" style="fill:none;stroke:#ff7f0e;stroke-linecap:round;stroke-width:1.5;"/>
    <defs>
     <path d="M 0 3 
C 0.795609 3 1.55874 2.683901 2.12132 2.12132 
C 2.683901 1.55874 3 0.795609 3 0 
C 3 -0.795609 2.683901 -1.55874 2.12132 -2.12132 
C 1.55874 -2.683901 0.795609 -3 0 -3 
C -0.795609 -3 -1.55874 -2.683901 -2.12132 -2.12132 
C -2.683901 -1.55874 -3 -0.795609 -3 0 
C -3 0.795609 -2.683901 1.55874 -2.12132 2.12132 
C -1.55874 2.683901 -0.795609 3 0 3 
z
" id="m2f10ff7798" style="stroke:#ffffff;stroke-width:0.75;"/>
    </defs>
    <g clip-path="url(#pd57608f8ef)">
     <use style="fill:#ff7f0e;stroke:#ffffff;stroke-width:0.75;" x="98.988636" xlink:href="#m2f10ff7798" y="244.018681"/>
     <use style="fill:#ff7f0e;stroke:#ffffff;stroke-width:0.75;" x="104.218252" xlink:href="#m2f10ff7798" y="235.740855"/>
     <use style="fill:#ff7f0e;stroke:#ffffff;stroke-width:0.75;" x="109.447868" xlink:href="#m2f10ff7798" y="221.955097"/>
     <use style="fill:#ff7f0e;stroke:#ffffff;stroke-width:0.75;" x="114.677484" xlink:href="#m2f10ff7798" y="207.815444"/>
     <use style="fill:#ff7f0e;stroke:#ffffff;stroke-width:0.75;" x="119.907099" xlink:href="#m2f10ff7798" y="193.922518"/>
     <use style="fill:#ff7f0e;stroke:#ffffff;stroke-width:0.75;" x="125.136715" xlink:href="#m2f10ff7798" y="183.755442"/>
     <use style="fill:#ff7f0e;stroke:#ffffff;stroke-width:0.75;" x="130.366331" xlink:href="#m2f10ff7798" y="182.852847"/>
     <use style="fill:#ff7f0e;stroke:#ffffff;stroke-width:0.75;" x="135.595947" xlink:href="#m2f10ff7798" y="179.657805"/>
     <use style="fill:#ff7f0e;stroke:#ffffff;stroke-width:0.75;" x="140.825562" xlink:href="#m2f10ff7798" y="174.837147"/>
     <use style="fill:#ff7f0e;stroke:#ffffff;stroke-width:0.75;" x="146.055178" xlink:href="#m2f10ff7798" y="172.266075"/>
     <use style="fill:#ff7f0e;stroke:#ffffff;stroke-width:0.75;" x="151.284794" xlink:href="#m2f10ff7798" y="167.620596"/>
     <use style="fill:#ff7f0e;stroke:#ffffff;stroke-width:0.75;" x="156.51441" xlink:href="#m2f10ff7798" y="164.669556"/>
     <use style="fill:#ff7f0e;stroke:#ffffff;stroke-width:0.75;" x="161.744025" xlink:href="#m2f10ff7798" y="163.494649"/>
     <use style="fill:#ff7f0e;stroke:#ffffff;stroke-width:0.75;" x="166.973641" xlink:href="#m2f10ff7798" y="161.537691"/>
     <use style="fill:#ff7f0e;stroke:#ffffff;stroke-width:0.75;" x="172.203257" xlink:href="#m2f10ff7798" y="153.211459"/>
     <use style="fill:#ff7f0e;stroke:#ffffff;stroke-width:0.75;" x="177.432873" xlink:href="#m2f10ff7798" y="148.927854"/>
     <use style="fill:#ff7f0e;stroke:#ffffff;stroke-width:0.75;" x="182.662488" xlink:href="#m2f10ff7798" y="147.962992"/>
     <use style="fill:#ff7f0e;stroke:#ffffff;stroke-width:0.75;" x="187.892104" xlink:href="#m2f10ff7798" y="144.307101"/>
     <use style="fill:#ff7f0e;stroke:#ffffff;stroke-width:0.75;" x="193.12172" xlink:href="#m2f10ff7798" y="142.175315"/>
     <use style="fill:#ff7f0e;stroke:#ffffff;stroke-width:0.75;" x="198.351336" xlink:href="#m2f10ff7798" y="134.748252"/>
     <use style="fill:#ff7f0e;stroke:#ffffff;stroke-width:0.75;" x="203.580951" xlink:href="#m2f10ff7798" y="132.757988"/>
     <use style="fill:#ff7f0e;stroke:#ffffff;stroke-width:0.75;" x="208.810567" xlink:href="#m2f10ff7798" y="131.597245"/>
     <use style="fill:#ff7f0e;stroke:#ffffff;stroke-width:0.75;" x="214.040183" xlink:href="#m2f10ff7798" y="130.308461"/>
     <use style="fill:#ff7f0e;stroke:#ffffff;stroke-width:0.75;" x="219.269799" xlink:href="#m2f10ff7798" y="125.362326"/>
     <use style="fill:#ff7f0e;stroke:#ffffff;stroke-width:0.75;" x="224.499414" xlink:href="#m2f10ff7798" y="120.313452"/>
     <use style="fill:#ff7f0e;stroke:#ffffff;stroke-width:0.75;" x="229.72903" xlink:href="#m2f10ff7798" y="118.869171"/>
     <use style="fill:#ff7f0e;stroke:#ffffff;stroke-width:0.75;" x="234.958646" xlink:href="#m2f10ff7798" y="116.314512"/>
     <use style="fill:#ff7f0e;stroke:#ffffff;stroke-width:0.75;" x="240.188261" xlink:href="#m2f10ff7798" y="113.510164"/>
     <use style="fill:#ff7f0e;stroke:#ffffff;stroke-width:0.75;" x="245.417877" xlink:href="#m2f10ff7798" y="111.971113"/>
     <use style="fill:#ff7f0e;stroke:#ffffff;stroke-width:0.75;" x="250.647493" xlink:href="#m2f10ff7798" y="110.917238"/>
     <use style="fill:#ff7f0e;stroke:#ffffff;stroke-width:0.75;" x="255.877109" xlink:href="#m2f10ff7798" y="109.924965"/>
     <use style="fill:#ff7f0e;stroke:#ffffff;stroke-width:0.75;" x="261.106724" xlink:href="#m2f10ff7798" y="108.426472"/>
     <use style="fill:#ff7f0e;stroke:#ffffff;stroke-width:0.75;" x="266.33634" xlink:href="#m2f10ff7798" y="104.965352"/>
     <use style="fill:#ff7f0e;stroke:#ffffff;stroke-width:0.75;" x="271.565956" xlink:href="#m2f10ff7798" y="103.4934"/>
     <use style="fill:#ff7f0e;stroke:#ffffff;stroke-width:0.75;" x="276.795572" xlink:href="#m2f10ff7798" y="100.426771"/>
     <use style="fill:#ff7f0e;stroke:#ffffff;stroke-width:0.75;" x="282.025187" xlink:href="#m2f10ff7798" y="99.406591"/>
     <use style="fill:#ff7f0e;stroke:#ffffff;stroke-width:0.75;" x="287.254803" xlink:href="#m2f10ff7798" y="98.14793"/>
     <use style="fill:#ff7f0e;stroke:#ffffff;stroke-width:0.75;" x="292.484419" xlink:href="#m2f10ff7798" y="96.646475"/>
     <use style="fill:#ff7f0e;stroke:#ffffff;stroke-width:0.75;" x="297.714035" xlink:href="#m2f10ff7798" y="94.802803"/>
     <use style="fill:#ff7f0e;stroke:#ffffff;stroke-width:0.75;" x="302.94365" xlink:href="#m2f10ff7798" y="93.391014"/>
     <use style="fill:#ff7f0e;stroke:#ffffff;stroke-width:0.75;" x="308.173266" xlink:href="#m2f10ff7798" y="91.609133"/>
     <use style="fill:#ff7f0e;stroke:#ffffff;stroke-width:0.75;" x="313.402882" xlink:href="#m2f10ff7798" y="90.581096"/>
     <use style="fill:#ff7f0e;stroke:#ffffff;stroke-width:0.75;" x="318.632498" xlink:href="#m2f10ff7798" y="89.308247"/>
     <use style="fill:#ff7f0e;stroke:#ffffff;stroke-width:0.75;" x="323.862113" xlink:href="#m2f10ff7798" y="84.730775"/>
     <use style="fill:#ff7f0e;stroke:#ffffff;stroke-width:0.75;" x="329.091729" xlink:href="#m2f10ff7798" y="82.287087"/>
     <use style="fill:#ff7f0e;stroke:#ffffff;stroke-width:0.75;" x="334.321345" xlink:href="#m2f10ff7798" y="80.278304"/>
     <use style="fill:#ff7f0e;stroke:#ffffff;stroke-width:0.75;" x="339.550961" xlink:href="#m2f10ff7798" y="77.751546"/>
     <use style="fill:#ff7f0e;stroke:#ffffff;stroke-width:0.75;" x="344.780576" xlink:href="#m2f10ff7798" y="76.545222"/>
     <use style="fill:#ff7f0e;stroke:#ffffff;stroke-width:0.75;" x="350.010192" xlink:href="#m2f10ff7798" y="74.249237"/>
     <use style="fill:#ff7f0e;stroke:#ffffff;stroke-width:0.75;" x="355.239808" xlink:href="#m2f10ff7798" y="71.678866"/>
     <use style="fill:#ff7f0e;stroke:#ffffff;stroke-width:0.75;" x="360.469424" xlink:href="#m2f10ff7798" y="69.959139"/>
     <use style="fill:#ff7f0e;stroke:#ffffff;stroke-width:0.75;" x="365.699039" xlink:href="#m2f10ff7798" y="68.533916"/>
     <use style="fill:#ff7f0e;stroke:#ffffff;stroke-width:0.75;" x="370.928655" xlink:href="#m2f10ff7798" y="67.738722"/>
     <use style="fill:#ff7f0e;stroke:#ffffff;stroke-width:0.75;" x="376.158271" xlink:href="#m2f10ff7798" y="66.550004"/>
     <use style="fill:#ff7f0e;stroke:#ffffff;stroke-width:0.75;" x="381.387887" xlink:href="#m2f10ff7798" y="64.844023"/>
     <use style="fill:#ff7f0e;stroke:#ffffff;stroke-width:0.75;" x="386.617502" xlink:href="#m2f10ff7798" y="63.618642"/>
     <use style="fill:#ff7f0e;stroke:#ffffff;stroke-width:0.75;" x="391.847118" xlink:href="#m2f10ff7798" y="62.809111"/>
     <use style="fill:#ff7f0e;stroke:#ffffff;stroke-width:0.75;" x="397.076734" xlink:href="#m2f10ff7798" y="62.270082"/>
     <use style="fill:#ff7f0e;stroke:#ffffff;stroke-width:0.75;" x="402.30635" xlink:href="#m2f10ff7798" y="61.450084"/>
     <use style="fill:#ff7f0e;stroke:#ffffff;stroke-width:0.75;" x="407.535965" xlink:href="#m2f10ff7798" y="59.919431"/>
     <use style="fill:#ff7f0e;stroke:#ffffff;stroke-width:0.75;" x="412.765581" xlink:href="#m2f10ff7798" y="57.65915"/>
     <use style="fill:#ff7f0e;stroke:#ffffff;stroke-width:0.75;" x="417.995197" xlink:href="#m2f10ff7798" y="56.625374"/>
     <use style="fill:#ff7f0e;stroke:#ffffff;stroke-width:0.75;" x="423.224813" xlink:href="#m2f10ff7798" y="54.974046"/>
     <use style="fill:#ff7f0e;stroke:#ffffff;stroke-width:0.75;" x="428.454428" xlink:href="#m2f10ff7798" y="54.248378"/>
     <use style="fill:#ff7f0e;stroke:#ffffff;stroke-width:0.75;" x="433.684044" xlink:href="#m2f10ff7798" y="52.725902"/>
     <use style="fill:#ff7f0e;stroke:#ffffff;stroke-width:0.75;" x="438.91366" xlink:href="#m2f10ff7798" y="51.273291"/>
     <use style="fill:#ff7f0e;stroke:#ffffff;stroke-width:0.75;" x="444.143276" xlink:href="#m2f10ff7798" y="50.823591"/>
     <use style="fill:#ff7f0e;stroke:#ffffff;stroke-width:0.75;" x="449.372891" xlink:href="#m2f10ff7798" y="49.641015"/>
     <use style="fill:#ff7f0e;stroke:#ffffff;stroke-width:0.75;" x="454.602507" xlink:href="#m2f10ff7798" y="47.893082"/>
     <use style="fill:#ff7f0e;stroke:#ffffff;stroke-width:0.75;" x="459.832123" xlink:href="#m2f10ff7798" y="46.740083"/>
     <use style="fill:#ff7f0e;stroke:#ffffff;stroke-width:0.75;" x="465.061739" xlink:href="#m2f10ff7798" y="45.892927"/>
     <use style="fill:#ff7f0e;stroke:#ffffff;stroke-width:0.75;" x="470.291354" xlink:href="#m2f10ff7798" y="45.330729"/>
     <use style="fill:#ff7f0e;stroke:#ffffff;stroke-width:0.75;" x="475.52097" xlink:href="#m2f10ff7798" y="44.317751"/>
     <use style="fill:#ff7f0e;stroke:#ffffff;stroke-width:0.75;" x="480.750586" xlink:href="#m2f10ff7798" y="43.319244"/>
     <use style="fill:#ff7f0e;stroke:#ffffff;stroke-width:0.75;" x="485.980201" xlink:href="#m2f10ff7798" y="42.088142"/>
     <use style="fill:#ff7f0e;stroke:#ffffff;stroke-width:0.75;" x="491.209817" xlink:href="#m2f10ff7798" y="41.168244"/>
     <use style="fill:#ff7f0e;stroke:#ffffff;stroke-width:0.75;" x="496.439433" xlink:href="#m2f10ff7798" y="40.520401"/>
     <use style="fill:#ff7f0e;stroke:#ffffff;stroke-width:0.75;" x="501.669049" xlink:href="#m2f10ff7798" y="39.687751"/>
     <use style="fill:#ff7f0e;stroke:#ffffff;stroke-width:0.75;" x="506.898664" xlink:href="#m2f10ff7798" y="38.810141"/>
     <use style="fill:#ff7f0e;stroke:#ffffff;stroke-width:0.75;" x="512.12828" xlink:href="#m2f10ff7798" y="37.325691"/>
     <use style="fill:#ff7f0e;stroke:#ffffff;stroke-width:0.75;" x="517.357896" xlink:href="#m2f10ff7798" y="36.468949"/>
     <use style="fill:#ff7f0e;stroke:#ffffff;stroke-width:0.75;" x="522.587512" xlink:href="#m2f10ff7798" y="35.525119"/>
     <use style="fill:#ff7f0e;stroke:#ffffff;stroke-width:0.75;" x="527.817127" xlink:href="#m2f10ff7798" y="34.093152"/>
     <use style="fill:#ff7f0e;stroke:#ffffff;stroke-width:0.75;" x="533.046743" xlink:href="#m2f10ff7798" y="32.985276"/>
     <use style="fill:#ff7f0e;stroke:#ffffff;stroke-width:0.75;" x="538.276359" xlink:href="#m2f10ff7798" y="32.552604"/>
     <use style="fill:#ff7f0e;stroke:#ffffff;stroke-width:0.75;" x="543.505975" xlink:href="#m2f10ff7798" y="31.493742"/>
     <use style="fill:#ff7f0e;stroke:#ffffff;stroke-width:0.75;" x="548.73559" xlink:href="#m2f10ff7798" y="30.324784"/>
     <use style="fill:#ff7f0e;stroke:#ffffff;stroke-width:0.75;" x="553.965206" xlink:href="#m2f10ff7798" y="29.310711"/>
     <use style="fill:#ff7f0e;stroke:#ffffff;stroke-width:0.75;" x="559.194822" xlink:href="#m2f10ff7798" y="27.911806"/>
     <use style="fill:#ff7f0e;stroke:#ffffff;stroke-width:0.75;" x="564.424438" xlink:href="#m2f10ff7798" y="27.301069"/>
     <use style="fill:#ff7f0e;stroke:#ffffff;stroke-width:0.75;" x="569.654053" xlink:href="#m2f10ff7798" y="26.300448"/>
     <use style="fill:#ff7f0e;stroke:#ffffff;stroke-width:0.75;" x="574.883669" xlink:href="#m2f10ff7798" y="25.501952"/>
     <use style="fill:#ff7f0e;stroke:#ffffff;stroke-width:0.75;" x="580.113285" xlink:href="#m2f10ff7798" y="24.916304"/>
     <use style="fill:#ff7f0e;stroke:#ffffff;stroke-width:0.75;" x="585.342901" xlink:href="#m2f10ff7798" y="23.522155"/>
     <use style="fill:#ff7f0e;stroke:#ffffff;stroke-width:0.75;" x="590.572516" xlink:href="#m2f10ff7798" y="22.834584"/>
     <use style="fill:#ff7f0e;stroke:#ffffff;stroke-width:0.75;" x="595.802132" xlink:href="#m2f10ff7798" y="21.583037"/>
     <use style="fill:#ff7f0e;stroke:#ffffff;stroke-width:0.75;" x="601.031748" xlink:href="#m2f10ff7798" y="20.323475"/>
     <use style="fill:#ff7f0e;stroke:#ffffff;stroke-width:0.75;" x="606.261364" xlink:href="#m2f10ff7798" y="19.554545"/>
    </g>
   </g>
   <g id="line2d_10">
    <path clip-path="url(#pd57608f8ef)" d="M 98.988636 266.534723 
L 104.218252 265.781542 
L 109.447868 233.297602 
L 114.677484 225.857667 
L 119.907099 216.240555 
L 125.136715 214.91589 
L 130.366331 191.402224 
L 135.595947 190.987163 
L 140.825562 190.56944 
L 146.055178 189.878212 
L 151.284794 188.608879 
L 156.51441 185.602428 
L 161.744025 184.324584 
L 166.973641 175.763408 
L 172.203257 174.198947 
L 177.432873 173.498391 
L 182.662488 173.03034 
L 187.892104 171.670909 
L 193.12172 159.740317 
L 198.351336 159.108256 
L 203.580951 150.644195 
L 208.810567 140.576718 
L 214.040183 139.699838 
L 219.269799 137.596566 
L 224.499414 133.511121 
L 229.72903 132.950289 
L 234.958646 131.940097 
L 240.188261 131.186914 
L 245.417877 127.330351 
L 250.647493 125.813561 
L 255.877109 124.507204 
L 261.106724 120.821364 
L 266.33634 119.722655 
L 271.565956 118.470802 
L 276.795572 117.416361 
L 282.025187 115.791243 
L 287.254803 114.607565 
L 292.484419 114.221977 
L 297.714035 113.229497 
L 302.94365 112.67955 
L 308.173266 108.753428 
L 313.402882 108.147665 
L 318.632498 107.466645 
L 323.862113 106.065243 
L 329.091729 105.321242 
L 334.321345 104.284367 
L 339.550961 98.533875 
L 344.780576 97.992635 
L 350.010192 96.974528 
L 355.239808 95.681177 
L 360.469424 90.206165 
L 365.699039 89.372576 
L 370.928655 88.791017 
L 376.158271 88.107765 
L 381.387887 84.487141 
L 386.617502 83.793725 
L 391.847118 82.454915 
L 397.076734 81.336401 
L 402.30635 78.948101 
L 407.535965 77.257932 
L 412.765581 76.19374 
L 417.995197 71.001171 
L 423.224813 70.142094 
L 428.454428 69.260981 
L 433.684044 68.650267 
L 438.91366 68.095881 
L 444.143276 67.423588 
L 449.372891 67.012792 
L 454.602507 65.085376 
L 459.832123 64.419528 
L 465.061739 63.26066 
L 470.291354 61.449616 
L 475.52097 60.670725 
L 480.750586 59.60022 
L 485.980201 58.966398 
L 491.209817 57.718543 
L 496.439433 54.345218 
L 501.669049 53.906884 
L 506.898664 52.957985 
L 512.12828 52.344734 
L 517.357896 51.709252 
L 522.587512 50.814989 
L 527.817127 50.134034 
L 533.046743 48.982502 
L 538.276359 48.154125 
L 543.505975 46.619018 
L 548.73559 46.255827 
L 553.965206 45.254158 
L 559.194822 43.469958 
L 564.424438 42.543523 
L 569.654053 37.531993 
L 574.883669 35.627039 
L 580.113285 34.833579 
L 585.342901 34.060636 
L 590.572516 32.567882 
L 595.802132 32.180012 
L 601.031748 31.320094 
L 606.261364 30.876539 
" style="fill:none;stroke:#2ca02c;stroke-linecap:round;stroke-width:1.5;"/>
    <defs>
     <path d="M 0 3 
C 0.795609 3 1.55874 2.683901 2.12132 2.12132 
C 2.683901 1.55874 3 0.795609 3 0 
C 3 -0.795609 2.683901 -1.55874 2.12132 -2.12132 
C 1.55874 -2.683901 0.795609 -3 0 -3 
C -0.795609 -3 -1.55874 -2.683901 -2.12132 -2.12132 
C -2.683901 -1.55874 -3 -0.795609 -3 0 
C -3 0.795609 -2.683901 1.55874 -2.12132 2.12132 
C -1.55874 2.683901 -0.795609 3 0 3 
z
" id="m9e0b4d6c6f" style="stroke:#ffffff;stroke-width:0.75;"/>
    </defs>
    <g clip-path="url(#pd57608f8ef)">
     <use style="fill:#2ca02c;stroke:#ffffff;stroke-width:0.75;" x="98.988636" xlink:href="#m9e0b4d6c6f" y="266.534723"/>
     <use style="fill:#2ca02c;stroke:#ffffff;stroke-width:0.75;" x="104.218252" xlink:href="#m9e0b4d6c6f" y="265.781542"/>
     <use style="fill:#2ca02c;stroke:#ffffff;stroke-width:0.75;" x="109.447868" xlink:href="#m9e0b4d6c6f" y="233.297602"/>
     <use style="fill:#2ca02c;stroke:#ffffff;stroke-width:0.75;" x="114.677484" xlink:href="#m9e0b4d6c6f" y="225.857667"/>
     <use style="fill:#2ca02c;stroke:#ffffff;stroke-width:0.75;" x="119.907099" xlink:href="#m9e0b4d6c6f" y="216.240555"/>
     <use style="fill:#2ca02c;stroke:#ffffff;stroke-width:0.75;" x="125.136715" xlink:href="#m9e0b4d6c6f" y="214.91589"/>
     <use style="fill:#2ca02c;stroke:#ffffff;stroke-width:0.75;" x="130.366331" xlink:href="#m9e0b4d6c6f" y="191.402224"/>
     <use style="fill:#2ca02c;stroke:#ffffff;stroke-width:0.75;" x="135.595947" xlink:href="#m9e0b4d6c6f" y="190.987163"/>
     <use style="fill:#2ca02c;stroke:#ffffff;stroke-width:0.75;" x="140.825562" xlink:href="#m9e0b4d6c6f" y="190.56944"/>
     <use style="fill:#2ca02c;stroke:#ffffff;stroke-width:0.75;" x="146.055178" xlink:href="#m9e0b4d6c6f" y="189.878212"/>
     <use style="fill:#2ca02c;stroke:#ffffff;stroke-width:0.75;" x="151.284794" xlink:href="#m9e0b4d6c6f" y="188.608879"/>
     <use style="fill:#2ca02c;stroke:#ffffff;stroke-width:0.75;" x="156.51441" xlink:href="#m9e0b4d6c6f" y="185.602428"/>
     <use style="fill:#2ca02c;stroke:#ffffff;stroke-width:0.75;" x="161.744025" xlink:href="#m9e0b4d6c6f" y="184.324584"/>
     <use style="fill:#2ca02c;stroke:#ffffff;stroke-width:0.75;" x="166.973641" xlink:href="#m9e0b4d6c6f" y="175.763408"/>
     <use style="fill:#2ca02c;stroke:#ffffff;stroke-width:0.75;" x="172.203257" xlink:href="#m9e0b4d6c6f" y="174.198947"/>
     <use style="fill:#2ca02c;stroke:#ffffff;stroke-width:0.75;" x="177.432873" xlink:href="#m9e0b4d6c6f" y="173.498391"/>
     <use style="fill:#2ca02c;stroke:#ffffff;stroke-width:0.75;" x="182.662488" xlink:href="#m9e0b4d6c6f" y="173.03034"/>
     <use style="fill:#2ca02c;stroke:#ffffff;stroke-width:0.75;" x="187.892104" xlink:href="#m9e0b4d6c6f" y="171.670909"/>
     <use style="fill:#2ca02c;stroke:#ffffff;stroke-width:0.75;" x="193.12172" xlink:href="#m9e0b4d6c6f" y="159.740317"/>
     <use style="fill:#2ca02c;stroke:#ffffff;stroke-width:0.75;" x="198.351336" xlink:href="#m9e0b4d6c6f" y="159.108256"/>
     <use style="fill:#2ca02c;stroke:#ffffff;stroke-width:0.75;" x="203.580951" xlink:href="#m9e0b4d6c6f" y="150.644195"/>
     <use style="fill:#2ca02c;stroke:#ffffff;stroke-width:0.75;" x="208.810567" xlink:href="#m9e0b4d6c6f" y="140.576718"/>
     <use style="fill:#2ca02c;stroke:#ffffff;stroke-width:0.75;" x="214.040183" xlink:href="#m9e0b4d6c6f" y="139.699838"/>
     <use style="fill:#2ca02c;stroke:#ffffff;stroke-width:0.75;" x="219.269799" xlink:href="#m9e0b4d6c6f" y="137.596566"/>
     <use style="fill:#2ca02c;stroke:#ffffff;stroke-width:0.75;" x="224.499414" xlink:href="#m9e0b4d6c6f" y="133.511121"/>
     <use style="fill:#2ca02c;stroke:#ffffff;stroke-width:0.75;" x="229.72903" xlink:href="#m9e0b4d6c6f" y="132.950289"/>
     <use style="fill:#2ca02c;stroke:#ffffff;stroke-width:0.75;" x="234.958646" xlink:href="#m9e0b4d6c6f" y="131.940097"/>
     <use style="fill:#2ca02c;stroke:#ffffff;stroke-width:0.75;" x="240.188261" xlink:href="#m9e0b4d6c6f" y="131.186914"/>
     <use style="fill:#2ca02c;stroke:#ffffff;stroke-width:0.75;" x="245.417877" xlink:href="#m9e0b4d6c6f" y="127.330351"/>
     <use style="fill:#2ca02c;stroke:#ffffff;stroke-width:0.75;" x="250.647493" xlink:href="#m9e0b4d6c6f" y="125.813561"/>
     <use style="fill:#2ca02c;stroke:#ffffff;stroke-width:0.75;" x="255.877109" xlink:href="#m9e0b4d6c6f" y="124.507204"/>
     <use style="fill:#2ca02c;stroke:#ffffff;stroke-width:0.75;" x="261.106724" xlink:href="#m9e0b4d6c6f" y="120.821364"/>
     <use style="fill:#2ca02c;stroke:#ffffff;stroke-width:0.75;" x="266.33634" xlink:href="#m9e0b4d6c6f" y="119.722655"/>
     <use style="fill:#2ca02c;stroke:#ffffff;stroke-width:0.75;" x="271.565956" xlink:href="#m9e0b4d6c6f" y="118.470802"/>
     <use style="fill:#2ca02c;stroke:#ffffff;stroke-width:0.75;" x="276.795572" xlink:href="#m9e0b4d6c6f" y="117.416361"/>
     <use style="fill:#2ca02c;stroke:#ffffff;stroke-width:0.75;" x="282.025187" xlink:href="#m9e0b4d6c6f" y="115.791243"/>
     <use style="fill:#2ca02c;stroke:#ffffff;stroke-width:0.75;" x="287.254803" xlink:href="#m9e0b4d6c6f" y="114.607565"/>
     <use style="fill:#2ca02c;stroke:#ffffff;stroke-width:0.75;" x="292.484419" xlink:href="#m9e0b4d6c6f" y="114.221977"/>
     <use style="fill:#2ca02c;stroke:#ffffff;stroke-width:0.75;" x="297.714035" xlink:href="#m9e0b4d6c6f" y="113.229497"/>
     <use style="fill:#2ca02c;stroke:#ffffff;stroke-width:0.75;" x="302.94365" xlink:href="#m9e0b4d6c6f" y="112.67955"/>
     <use style="fill:#2ca02c;stroke:#ffffff;stroke-width:0.75;" x="308.173266" xlink:href="#m9e0b4d6c6f" y="108.753428"/>
     <use style="fill:#2ca02c;stroke:#ffffff;stroke-width:0.75;" x="313.402882" xlink:href="#m9e0b4d6c6f" y="108.147665"/>
     <use style="fill:#2ca02c;stroke:#ffffff;stroke-width:0.75;" x="318.632498" xlink:href="#m9e0b4d6c6f" y="107.466645"/>
     <use style="fill:#2ca02c;stroke:#ffffff;stroke-width:0.75;" x="323.862113" xlink:href="#m9e0b4d6c6f" y="106.065243"/>
     <use style="fill:#2ca02c;stroke:#ffffff;stroke-width:0.75;" x="329.091729" xlink:href="#m9e0b4d6c6f" y="105.321242"/>
     <use style="fill:#2ca02c;stroke:#ffffff;stroke-width:0.75;" x="334.321345" xlink:href="#m9e0b4d6c6f" y="104.284367"/>
     <use style="fill:#2ca02c;stroke:#ffffff;stroke-width:0.75;" x="339.550961" xlink:href="#m9e0b4d6c6f" y="98.533875"/>
     <use style="fill:#2ca02c;stroke:#ffffff;stroke-width:0.75;" x="344.780576" xlink:href="#m9e0b4d6c6f" y="97.992635"/>
     <use style="fill:#2ca02c;stroke:#ffffff;stroke-width:0.75;" x="350.010192" xlink:href="#m9e0b4d6c6f" y="96.974528"/>
     <use style="fill:#2ca02c;stroke:#ffffff;stroke-width:0.75;" x="355.239808" xlink:href="#m9e0b4d6c6f" y="95.681177"/>
     <use style="fill:#2ca02c;stroke:#ffffff;stroke-width:0.75;" x="360.469424" xlink:href="#m9e0b4d6c6f" y="90.206165"/>
     <use style="fill:#2ca02c;stroke:#ffffff;stroke-width:0.75;" x="365.699039" xlink:href="#m9e0b4d6c6f" y="89.372576"/>
     <use style="fill:#2ca02c;stroke:#ffffff;stroke-width:0.75;" x="370.928655" xlink:href="#m9e0b4d6c6f" y="88.791017"/>
     <use style="fill:#2ca02c;stroke:#ffffff;stroke-width:0.75;" x="376.158271" xlink:href="#m9e0b4d6c6f" y="88.107765"/>
     <use style="fill:#2ca02c;stroke:#ffffff;stroke-width:0.75;" x="381.387887" xlink:href="#m9e0b4d6c6f" y="84.487141"/>
     <use style="fill:#2ca02c;stroke:#ffffff;stroke-width:0.75;" x="386.617502" xlink:href="#m9e0b4d6c6f" y="83.793725"/>
     <use style="fill:#2ca02c;stroke:#ffffff;stroke-width:0.75;" x="391.847118" xlink:href="#m9e0b4d6c6f" y="82.454915"/>
     <use style="fill:#2ca02c;stroke:#ffffff;stroke-width:0.75;" x="397.076734" xlink:href="#m9e0b4d6c6f" y="81.336401"/>
     <use style="fill:#2ca02c;stroke:#ffffff;stroke-width:0.75;" x="402.30635" xlink:href="#m9e0b4d6c6f" y="78.948101"/>
     <use style="fill:#2ca02c;stroke:#ffffff;stroke-width:0.75;" x="407.535965" xlink:href="#m9e0b4d6c6f" y="77.257932"/>
     <use style="fill:#2ca02c;stroke:#ffffff;stroke-width:0.75;" x="412.765581" xlink:href="#m9e0b4d6c6f" y="76.19374"/>
     <use style="fill:#2ca02c;stroke:#ffffff;stroke-width:0.75;" x="417.995197" xlink:href="#m9e0b4d6c6f" y="71.001171"/>
     <use style="fill:#2ca02c;stroke:#ffffff;stroke-width:0.75;" x="423.224813" xlink:href="#m9e0b4d6c6f" y="70.142094"/>
     <use style="fill:#2ca02c;stroke:#ffffff;stroke-width:0.75;" x="428.454428" xlink:href="#m9e0b4d6c6f" y="69.260981"/>
     <use style="fill:#2ca02c;stroke:#ffffff;stroke-width:0.75;" x="433.684044" xlink:href="#m9e0b4d6c6f" y="68.650267"/>
     <use style="fill:#2ca02c;stroke:#ffffff;stroke-width:0.75;" x="438.91366" xlink:href="#m9e0b4d6c6f" y="68.095881"/>
     <use style="fill:#2ca02c;stroke:#ffffff;stroke-width:0.75;" x="444.143276" xlink:href="#m9e0b4d6c6f" y="67.423588"/>
     <use style="fill:#2ca02c;stroke:#ffffff;stroke-width:0.75;" x="449.372891" xlink:href="#m9e0b4d6c6f" y="67.012792"/>
     <use style="fill:#2ca02c;stroke:#ffffff;stroke-width:0.75;" x="454.602507" xlink:href="#m9e0b4d6c6f" y="65.085376"/>
     <use style="fill:#2ca02c;stroke:#ffffff;stroke-width:0.75;" x="459.832123" xlink:href="#m9e0b4d6c6f" y="64.419528"/>
     <use style="fill:#2ca02c;stroke:#ffffff;stroke-width:0.75;" x="465.061739" xlink:href="#m9e0b4d6c6f" y="63.26066"/>
     <use style="fill:#2ca02c;stroke:#ffffff;stroke-width:0.75;" x="470.291354" xlink:href="#m9e0b4d6c6f" y="61.449616"/>
     <use style="fill:#2ca02c;stroke:#ffffff;stroke-width:0.75;" x="475.52097" xlink:href="#m9e0b4d6c6f" y="60.670725"/>
     <use style="fill:#2ca02c;stroke:#ffffff;stroke-width:0.75;" x="480.750586" xlink:href="#m9e0b4d6c6f" y="59.60022"/>
     <use style="fill:#2ca02c;stroke:#ffffff;stroke-width:0.75;" x="485.980201" xlink:href="#m9e0b4d6c6f" y="58.966398"/>
     <use style="fill:#2ca02c;stroke:#ffffff;stroke-width:0.75;" x="491.209817" xlink:href="#m9e0b4d6c6f" y="57.718543"/>
     <use style="fill:#2ca02c;stroke:#ffffff;stroke-width:0.75;" x="496.439433" xlink:href="#m9e0b4d6c6f" y="54.345218"/>
     <use style="fill:#2ca02c;stroke:#ffffff;stroke-width:0.75;" x="501.669049" xlink:href="#m9e0b4d6c6f" y="53.906884"/>
     <use style="fill:#2ca02c;stroke:#ffffff;stroke-width:0.75;" x="506.898664" xlink:href="#m9e0b4d6c6f" y="52.957985"/>
     <use style="fill:#2ca02c;stroke:#ffffff;stroke-width:0.75;" x="512.12828" xlink:href="#m9e0b4d6c6f" y="52.344734"/>
     <use style="fill:#2ca02c;stroke:#ffffff;stroke-width:0.75;" x="517.357896" xlink:href="#m9e0b4d6c6f" y="51.709252"/>
     <use style="fill:#2ca02c;stroke:#ffffff;stroke-width:0.75;" x="522.587512" xlink:href="#m9e0b4d6c6f" y="50.814989"/>
     <use style="fill:#2ca02c;stroke:#ffffff;stroke-width:0.75;" x="527.817127" xlink:href="#m9e0b4d6c6f" y="50.134034"/>
     <use style="fill:#2ca02c;stroke:#ffffff;stroke-width:0.75;" x="533.046743" xlink:href="#m9e0b4d6c6f" y="48.982502"/>
     <use style="fill:#2ca02c;stroke:#ffffff;stroke-width:0.75;" x="538.276359" xlink:href="#m9e0b4d6c6f" y="48.154125"/>
     <use style="fill:#2ca02c;stroke:#ffffff;stroke-width:0.75;" x="543.505975" xlink:href="#m9e0b4d6c6f" y="46.619018"/>
     <use style="fill:#2ca02c;stroke:#ffffff;stroke-width:0.75;" x="548.73559" xlink:href="#m9e0b4d6c6f" y="46.255827"/>
     <use style="fill:#2ca02c;stroke:#ffffff;stroke-width:0.75;" x="553.965206" xlink:href="#m9e0b4d6c6f" y="45.254158"/>
     <use style="fill:#2ca02c;stroke:#ffffff;stroke-width:0.75;" x="559.194822" xlink:href="#m9e0b4d6c6f" y="43.469958"/>
     <use style="fill:#2ca02c;stroke:#ffffff;stroke-width:0.75;" x="564.424438" xlink:href="#m9e0b4d6c6f" y="42.543523"/>
     <use style="fill:#2ca02c;stroke:#ffffff;stroke-width:0.75;" x="569.654053" xlink:href="#m9e0b4d6c6f" y="37.531993"/>
     <use style="fill:#2ca02c;stroke:#ffffff;stroke-width:0.75;" x="574.883669" xlink:href="#m9e0b4d6c6f" y="35.627039"/>
     <use style="fill:#2ca02c;stroke:#ffffff;stroke-width:0.75;" x="580.113285" xlink:href="#m9e0b4d6c6f" y="34.833579"/>
     <use style="fill:#2ca02c;stroke:#ffffff;stroke-width:0.75;" x="585.342901" xlink:href="#m9e0b4d6c6f" y="34.060636"/>
     <use style="fill:#2ca02c;stroke:#ffffff;stroke-width:0.75;" x="590.572516" xlink:href="#m9e0b4d6c6f" y="32.567882"/>
     <use style="fill:#2ca02c;stroke:#ffffff;stroke-width:0.75;" x="595.802132" xlink:href="#m9e0b4d6c6f" y="32.180012"/>
     <use style="fill:#2ca02c;stroke:#ffffff;stroke-width:0.75;" x="601.031748" xlink:href="#m9e0b4d6c6f" y="31.320094"/>
     <use style="fill:#2ca02c;stroke:#ffffff;stroke-width:0.75;" x="606.261364" xlink:href="#m9e0b4d6c6f" y="30.876539"/>
    </g>
   </g>
   <g id="line2d_11"/>
   <g id="line2d_12"/>
   <g id="line2d_13"/>
   <g id="patch_3">
    <path d="M 73.625 279 
L 631.625 279 
" style="fill:none;stroke:#cccccc;stroke-linecap:square;stroke-linejoin:miter;stroke-width:0.8;"/>
   </g>
   <g id="legend_1">
    <g id="patch_4">
     <path d="M 512.264844 104.423438 
L 621.125 104.423438 
Q 624.125 104.423438 624.125 101.423438 
L 624.125 17.7 
Q 624.125 14.7 621.125 14.7 
L 512.264844 14.7 
Q 509.264844 14.7 509.264844 17.7 
L 509.264844 101.423438 
Q 509.264844 104.423438 512.264844 104.423438 
z
" style="fill:#ffffff;opacity:0.8;stroke:#cccccc;stroke-linejoin:miter;"/>
    </g>
    <g id="text_16">
     <!-- Method -->
     <g style="fill:#262626;" transform="translate(541.68125 31.436719)scale(0.15 -0.15)">
      <defs>
       <path d="M 475 0 
L 475 4581 
L 1388 4581 
L 2472 1338 
Q 2622 884 2691 659 
Q 2769 909 2934 1394 
L 4031 4581 
L 4847 4581 
L 4847 0 
L 4263 0 
L 4263 3834 
L 2931 0 
L 2384 0 
L 1059 3900 
L 1059 0 
L 475 0 
z
" id="ArialMT-4d" transform="scale(0.015625)"/>
       <path d="M 422 0 
L 422 4581 
L 984 4581 
L 984 2938 
Q 1378 3394 1978 3394 
Q 2347 3394 2619 3248 
Q 2891 3103 3008 2847 
Q 3125 2591 3125 2103 
L 3125 0 
L 2563 0 
L 2563 2103 
Q 2563 2525 2380 2717 
Q 2197 2909 1863 2909 
Q 1613 2909 1392 2779 
Q 1172 2650 1078 2428 
Q 984 2206 984 1816 
L 984 0 
L 422 0 
z
" id="ArialMT-68" transform="scale(0.015625)"/>
       <path d="M 2575 0 
L 2575 419 
Q 2259 -75 1647 -75 
Q 1250 -75 917 144 
Q 584 363 401 755 
Q 219 1147 219 1656 
Q 219 2153 384 2558 
Q 550 2963 881 3178 
Q 1213 3394 1622 3394 
Q 1922 3394 2156 3267 
Q 2391 3141 2538 2938 
L 2538 4581 
L 3097 4581 
L 3097 0 
L 2575 0 
z
M 797 1656 
Q 797 1019 1065 703 
Q 1334 388 1700 388 
Q 2069 388 2326 689 
Q 2584 991 2584 1609 
Q 2584 2291 2321 2609 
Q 2059 2928 1675 2928 
Q 1300 2928 1048 2622 
Q 797 2316 797 1656 
z
" id="ArialMT-64" transform="scale(0.015625)"/>
      </defs>
      <use xlink:href="#ArialMT-4d"/>
      <use x="83.300781" xlink:href="#ArialMT-65"/>
      <use x="138.916016" xlink:href="#ArialMT-74"/>
      <use x="166.699219" xlink:href="#ArialMT-68"/>
      <use x="222.314453" xlink:href="#ArialMT-6f"/>
      <use x="277.929688" xlink:href="#ArialMT-64"/>
     </g>
    </g>
    <g id="line2d_14">
     <path d="M 515.264844 47.404688 
L 545.264844 47.404688 
" style="fill:none;stroke:#1f77b4;stroke-linecap:round;stroke-width:1.5;"/>
    </g>
    <g id="line2d_15">
     <g>
      <use style="fill:#1f77b4;stroke:#ffffff;stroke-width:0.75;" x="530.264844" xlink:href="#md87c17024d" y="47.404688"/>
     </g>
    </g>
    <g id="text_17">
     <!-- single -->
     <g style="fill:#262626;" transform="translate(557.264844 52.654688)scale(0.15 -0.15)">
      <defs>
       <path d="M 319 -275 
L 866 -356 
Q 900 -609 1056 -725 
Q 1266 -881 1628 -881 
Q 2019 -881 2231 -725 
Q 2444 -569 2519 -288 
Q 2563 -116 2559 434 
Q 2191 0 1641 0 
Q 956 0 581 494 
Q 206 988 206 1678 
Q 206 2153 378 2554 
Q 550 2956 876 3175 
Q 1203 3394 1644 3394 
Q 2231 3394 2613 2919 
L 2613 3319 
L 3131 3319 
L 3131 450 
Q 3131 -325 2973 -648 
Q 2816 -972 2473 -1159 
Q 2131 -1347 1631 -1347 
Q 1038 -1347 672 -1080 
Q 306 -813 319 -275 
z
M 784 1719 
Q 784 1066 1043 766 
Q 1303 466 1694 466 
Q 2081 466 2343 764 
Q 2606 1063 2606 1700 
Q 2606 2309 2336 2618 
Q 2066 2928 1684 2928 
Q 1309 2928 1046 2623 
Q 784 2319 784 1719 
z
" id="ArialMT-67" transform="scale(0.015625)"/>
      </defs>
      <use xlink:href="#ArialMT-73"/>
      <use x="50" xlink:href="#ArialMT-69"/>
      <use x="72.216797" xlink:href="#ArialMT-6e"/>
      <use x="127.832031" xlink:href="#ArialMT-67"/>
      <use x="183.447266" xlink:href="#ArialMT-6c"/>
      <use x="205.664062" xlink:href="#ArialMT-65"/>
     </g>
    </g>
    <g id="line2d_16">
     <path d="M 515.264844 68.798438 
L 545.264844 68.798438 
" style="fill:none;stroke:#ff7f0e;stroke-linecap:round;stroke-width:1.5;"/>
    </g>
    <g id="line2d_17">
     <g>
      <use style="fill:#ff7f0e;stroke:#ffffff;stroke-width:0.75;" x="530.264844" xlink:href="#m2f10ff7798" y="68.798438"/>
     </g>
    </g>
    <g id="text_18">
     <!-- complete -->
     <g style="fill:#262626;" transform="translate(557.264844 74.048438)scale(0.15 -0.15)">
      <defs>
       <path d="M 2588 1216 
L 3141 1144 
Q 3050 572 2676 248 
Q 2303 -75 1759 -75 
Q 1078 -75 664 370 
Q 250 816 250 1647 
Q 250 2184 428 2587 
Q 606 2991 970 3192 
Q 1334 3394 1763 3394 
Q 2303 3394 2647 3120 
Q 2991 2847 3088 2344 
L 2541 2259 
Q 2463 2594 2264 2762 
Q 2066 2931 1784 2931 
Q 1359 2931 1093 2626 
Q 828 2322 828 1663 
Q 828 994 1084 691 
Q 1341 388 1753 388 
Q 2084 388 2306 591 
Q 2528 794 2588 1216 
z
" id="ArialMT-63" transform="scale(0.015625)"/>
       <path d="M 422 0 
L 422 3319 
L 925 3319 
L 925 2853 
Q 1081 3097 1340 3245 
Q 1600 3394 1931 3394 
Q 2300 3394 2536 3241 
Q 2772 3088 2869 2813 
Q 3263 3394 3894 3394 
Q 4388 3394 4653 3120 
Q 4919 2847 4919 2278 
L 4919 0 
L 4359 0 
L 4359 2091 
Q 4359 2428 4304 2576 
Q 4250 2725 4106 2815 
Q 3963 2906 3769 2906 
Q 3419 2906 3187 2673 
Q 2956 2441 2956 1928 
L 2956 0 
L 2394 0 
L 2394 2156 
Q 2394 2531 2256 2718 
Q 2119 2906 1806 2906 
Q 1569 2906 1367 2781 
Q 1166 2656 1075 2415 
Q 984 2175 984 1722 
L 984 0 
L 422 0 
z
" id="ArialMT-6d" transform="scale(0.015625)"/>
       <path d="M 422 -1272 
L 422 3319 
L 934 3319 
L 934 2888 
Q 1116 3141 1344 3267 
Q 1572 3394 1897 3394 
Q 2322 3394 2647 3175 
Q 2972 2956 3137 2557 
Q 3303 2159 3303 1684 
Q 3303 1175 3120 767 
Q 2938 359 2589 142 
Q 2241 -75 1856 -75 
Q 1575 -75 1351 44 
Q 1128 163 984 344 
L 984 -1272 
L 422 -1272 
z
M 931 1641 
Q 931 1000 1190 694 
Q 1450 388 1819 388 
Q 2194 388 2461 705 
Q 2728 1022 2728 1688 
Q 2728 2322 2467 2637 
Q 2206 2953 1844 2953 
Q 1484 2953 1207 2617 
Q 931 2281 931 1641 
z
" id="ArialMT-70" transform="scale(0.015625)"/>
      </defs>
      <use xlink:href="#ArialMT-63"/>
      <use x="50" xlink:href="#ArialMT-6f"/>
      <use x="105.615234" xlink:href="#ArialMT-6d"/>
      <use x="188.916016" xlink:href="#ArialMT-70"/>
      <use x="244.53125" xlink:href="#ArialMT-6c"/>
      <use x="266.748047" xlink:href="#ArialMT-65"/>
      <use x="322.363281" xlink:href="#ArialMT-74"/>
      <use x="350.146484" xlink:href="#ArialMT-65"/>
     </g>
    </g>
    <g id="line2d_18">
     <path d="M 515.264844 90.016406 
L 545.264844 90.016406 
" style="fill:none;stroke:#2ca02c;stroke-linecap:round;stroke-width:1.5;"/>
    </g>
    <g id="line2d_19">
     <g>
      <use style="fill:#2ca02c;stroke:#ffffff;stroke-width:0.75;" x="530.264844" xlink:href="#m9e0b4d6c6f" y="90.016406"/>
     </g>
    </g>
    <g id="text_19">
     <!-- weighted -->
     <g style="fill:#262626;" transform="translate(557.264844 95.266406)scale(0.15 -0.15)">
      <use xlink:href="#ArialMT-77"/>
      <use x="72.216797" xlink:href="#ArialMT-65"/>
      <use x="127.832031" xlink:href="#ArialMT-69"/>
      <use x="150.048828" xlink:href="#ArialMT-67"/>
      <use x="205.664062" xlink:href="#ArialMT-68"/>
      <use x="261.279297" xlink:href="#ArialMT-74"/>
      <use x="289.0625" xlink:href="#ArialMT-65"/>
      <use x="344.677734" xlink:href="#ArialMT-64"/>
     </g>
    </g>
   </g>
  </g>
 </g>
 <defs>
  <clipPath id="pd57608f8ef">
   <rect height="271.8" width="558" x="73.625" y="7.2"/>
  </clipPath>
 </defs>
</svg>
