<?xml version="1.0" encoding="utf-8" standalone="no"?>
<!DOCTYPE svg PUBLIC "-//W3C//DTD SVG 1.1//EN"
  "http://www.w3.org/Graphics/SVG/1.1/DTD/svg11.dtd">
<svg height="328.913782pt" version="1.1" viewBox="0 0 613.800781 328.913782" width="613.800781pt" xmlns="http://www.w3.org/2000/svg" xmlns:xlink="http://www.w3.org/1999/xlink">
 <metadata>
  <rdf:RDF xmlns:cc="http://creativecommons.org/ns#" xmlns:dc="http://purl.org/dc/elements/1.1/" xmlns:rdf="http://www.w3.org/1999/02/22-rdf-syntax-ns#">
   <cc:Work>
    <dc:type rdf:resource="http://purl.org/dc/dcmitype/StillImage"/>
    <dc:date>2022-05-13T14:37:26.246081</dc:date>
    <dc:format>image/svg+xml</dc:format>
    <dc:creator>
     <cc:Agent>
      <dc:title>Matplotlib v3.4.3, https://matplotlib.org/</dc:title>
     </cc:Agent>
    </dc:creator>
   </cc:Work>
  </rdf:RDF>
 </metadata>
 <defs>
  <style type="text/css">*{stroke-linecap:butt;stroke-linejoin:round;}</style>
 </defs>
 <g id="figure_1">
  <g id="patch_1">
   <path d="M 0 328.913782 
L 613.800781 328.913782 
L 613.800781 0 
L 0 0 
z
" style="fill:#ffffff;"/>
  </g>
  <g id="axes_1">
   <g id="patch_2">
    <path d="M 48.600781 283.277844 
L 606.600781 283.277844 
L 606.600781 11.477844 
L 48.600781 11.477844 
z
" style="fill:#ffffff;"/>
   </g>
   <g id="matplotlib.axis_1">
    <g id="xtick_1">
     <g id="text_1">
      <!-- 0 -->
      <g style="fill:#262626;" transform="translate(59.334483 301.014563)scale(0.15 -0.15)">
       <defs>
        <path d="M 266 2259 
Q 266 3072 433 3567 
Q 600 4063 929 4331 
Q 1259 4600 1759 4600 
Q 2128 4600 2406 4451 
Q 2684 4303 2865 4023 
Q 3047 3744 3150 3342 
Q 3253 2941 3253 2259 
Q 3253 1453 3087 958 
Q 2922 463 2592 192 
Q 2263 -78 1759 -78 
Q 1097 -78 719 397 
Q 266 969 266 2259 
z
M 844 2259 
Q 844 1131 1108 757 
Q 1372 384 1759 384 
Q 2147 384 2411 759 
Q 2675 1134 2675 2259 
Q 2675 3391 2411 3762 
Q 2147 4134 1753 4134 
Q 1366 4134 1134 3806 
Q 844 3388 844 2259 
z
" id="ArialMT-30" transform="scale(0.015625)"/>
       </defs>
       <use xlink:href="#ArialMT-30"/>
      </g>
     </g>
    </g>
    <g id="xtick_2">
     <g id="text_2">
      <!-- 20 -->
      <g style="fill:#262626;" transform="translate(159.756095 301.014563)scale(0.15 -0.15)">
       <defs>
        <path d="M 3222 541 
L 3222 0 
L 194 0 
Q 188 203 259 391 
Q 375 700 629 1000 
Q 884 1300 1366 1694 
Q 2113 2306 2375 2664 
Q 2638 3022 2638 3341 
Q 2638 3675 2398 3904 
Q 2159 4134 1775 4134 
Q 1369 4134 1125 3890 
Q 881 3647 878 3216 
L 300 3275 
Q 359 3922 746 4261 
Q 1134 4600 1788 4600 
Q 2447 4600 2831 4234 
Q 3216 3869 3216 3328 
Q 3216 3053 3103 2787 
Q 2991 2522 2730 2228 
Q 2469 1934 1863 1422 
Q 1356 997 1212 845 
Q 1069 694 975 541 
L 3222 541 
z
" id="ArialMT-32" transform="scale(0.015625)"/>
       </defs>
       <use xlink:href="#ArialMT-32"/>
       <use x="55.615234" xlink:href="#ArialMT-30"/>
      </g>
     </g>
    </g>
    <g id="xtick_3">
     <g id="text_3">
      <!-- 40 -->
      <g style="fill:#262626;" transform="translate(264.34841 301.014563)scale(0.15 -0.15)">
       <defs>
        <path d="M 2069 0 
L 2069 1097 
L 81 1097 
L 81 1613 
L 2172 4581 
L 2631 4581 
L 2631 1613 
L 3250 1613 
L 3250 1097 
L 2631 1097 
L 2631 0 
L 2069 0 
z
M 2069 1613 
L 2069 3678 
L 634 1613 
L 2069 1613 
z
" id="ArialMT-34" transform="scale(0.015625)"/>
       </defs>
       <use xlink:href="#ArialMT-34"/>
       <use x="55.615234" xlink:href="#ArialMT-30"/>
      </g>
     </g>
    </g>
    <g id="xtick_4">
     <g id="text_4">
      <!-- 60 -->
      <g style="fill:#262626;" transform="translate(368.940725 301.014563)scale(0.15 -0.15)">
       <defs>
        <path d="M 3184 3459 
L 2625 3416 
Q 2550 3747 2413 3897 
Q 2184 4138 1850 4138 
Q 1581 4138 1378 3988 
Q 1113 3794 959 3422 
Q 806 3050 800 2363 
Q 1003 2672 1297 2822 
Q 1591 2972 1913 2972 
Q 2475 2972 2870 2558 
Q 3266 2144 3266 1488 
Q 3266 1056 3080 686 
Q 2894 316 2569 119 
Q 2244 -78 1831 -78 
Q 1128 -78 684 439 
Q 241 956 241 2144 
Q 241 3472 731 4075 
Q 1159 4600 1884 4600 
Q 2425 4600 2770 4297 
Q 3116 3994 3184 3459 
z
M 888 1484 
Q 888 1194 1011 928 
Q 1134 663 1356 523 
Q 1578 384 1822 384 
Q 2178 384 2434 671 
Q 2691 959 2691 1453 
Q 2691 1928 2437 2201 
Q 2184 2475 1800 2475 
Q 1419 2475 1153 2201 
Q 888 1928 888 1484 
z
" id="ArialMT-36" transform="scale(0.015625)"/>
       </defs>
       <use xlink:href="#ArialMT-36"/>
       <use x="55.615234" xlink:href="#ArialMT-30"/>
      </g>
     </g>
    </g>
    <g id="xtick_5">
     <g id="text_5">
      <!-- 80 -->
      <g style="fill:#262626;" transform="translate(473.533039 301.014563)scale(0.15 -0.15)">
       <defs>
        <path d="M 1131 2484 
Q 781 2613 612 2850 
Q 444 3088 444 3419 
Q 444 3919 803 4259 
Q 1163 4600 1759 4600 
Q 2359 4600 2725 4251 
Q 3091 3903 3091 3403 
Q 3091 3084 2923 2848 
Q 2756 2613 2416 2484 
Q 2838 2347 3058 2040 
Q 3278 1734 3278 1309 
Q 3278 722 2862 322 
Q 2447 -78 1769 -78 
Q 1091 -78 675 323 
Q 259 725 259 1325 
Q 259 1772 486 2073 
Q 713 2375 1131 2484 
z
M 1019 3438 
Q 1019 3113 1228 2906 
Q 1438 2700 1772 2700 
Q 2097 2700 2305 2904 
Q 2513 3109 2513 3406 
Q 2513 3716 2298 3927 
Q 2084 4138 1766 4138 
Q 1444 4138 1231 3931 
Q 1019 3725 1019 3438 
z
M 838 1322 
Q 838 1081 952 856 
Q 1066 631 1291 507 
Q 1516 384 1775 384 
Q 2178 384 2440 643 
Q 2703 903 2703 1303 
Q 2703 1709 2433 1975 
Q 2163 2241 1756 2241 
Q 1359 2241 1098 1978 
Q 838 1716 838 1322 
z
" id="ArialMT-38" transform="scale(0.015625)"/>
       </defs>
       <use xlink:href="#ArialMT-38"/>
       <use x="55.615234" xlink:href="#ArialMT-30"/>
      </g>
     </g>
    </g>
    <g id="xtick_6">
     <g id="text_6">
      <!-- 100 -->
      <g style="fill:#262626;" transform="translate(573.954651 301.014563)scale(0.15 -0.15)">
       <defs>
        <path d="M 2384 0 
L 1822 0 
L 1822 3584 
Q 1619 3391 1289 3197 
Q 959 3003 697 2906 
L 697 3450 
Q 1169 3672 1522 3987 
Q 1875 4303 2022 4600 
L 2384 4600 
L 2384 0 
z
" id="ArialMT-31" transform="scale(0.015625)"/>
       </defs>
       <use xlink:href="#ArialMT-31"/>
       <use x="55.615234" xlink:href="#ArialMT-30"/>
       <use x="111.230469" xlink:href="#ArialMT-30"/>
      </g>
     </g>
    </g>
    <g id="text_7">
     <!-- k -->
     <g style="fill:#262626;" transform="translate(323.850781 318.732532)scale(0.15 -0.15)">
      <defs>
       <path d="M 425 0 
L 425 4581 
L 988 4581 
L 988 1969 
L 2319 3319 
L 3047 3319 
L 1778 2088 
L 3175 0 
L 2481 0 
L 1384 1697 
L 988 1316 
L 988 0 
L 425 0 
z
" id="ArialMT-6b" transform="scale(0.015625)"/>
      </defs>
      <use xlink:href="#ArialMT-6b"/>
     </g>
    </g>
   </g>
   <g id="matplotlib.axis_2">
    <g id="ytick_1">
     <g id="line2d_1">
      <path clip-path="url(#p5be0e266d6)" d="M 48.600781 276.995591 
L 606.600781 276.995591 
" style="fill:none;stroke:#cccccc;stroke-linecap:round;stroke-width:0.8;"/>
     </g>
     <g id="text_8">
      <!-- 0 -->
      <g style="fill:#262626;" transform="translate(33.259375 282.36395)scale(0.15 -0.15)">
       <use xlink:href="#ArialMT-30"/>
      </g>
     </g>
    </g>
    <g id="ytick_2">
     <g id="line2d_2">
      <path clip-path="url(#p5be0e266d6)" d="M 48.600781 239.220272 
L 606.600781 239.220272 
" style="fill:none;stroke:#cccccc;stroke-linecap:round;stroke-width:0.8;"/>
     </g>
     <g id="text_9">
      <!-- 10 -->
      <g style="fill:#262626;" transform="translate(24.917969 244.588631)scale(0.15 -0.15)">
       <use xlink:href="#ArialMT-31"/>
       <use x="55.615234" xlink:href="#ArialMT-30"/>
      </g>
     </g>
    </g>
    <g id="ytick_3">
     <g id="line2d_3">
      <path clip-path="url(#p5be0e266d6)" d="M 48.600781 201.444953 
L 606.600781 201.444953 
" style="fill:none;stroke:#cccccc;stroke-linecap:round;stroke-width:0.8;"/>
     </g>
     <g id="text_10">
      <!-- 20 -->
      <g style="fill:#262626;" transform="translate(24.917969 206.813313)scale(0.15 -0.15)">
       <use xlink:href="#ArialMT-32"/>
       <use x="55.615234" xlink:href="#ArialMT-30"/>
      </g>
     </g>
    </g>
    <g id="ytick_4">
     <g id="line2d_4">
      <path clip-path="url(#p5be0e266d6)" d="M 48.600781 163.669634 
L 606.600781 163.669634 
" style="fill:none;stroke:#cccccc;stroke-linecap:round;stroke-width:0.8;"/>
     </g>
     <g id="text_11">
      <!-- 30 -->
      <g style="fill:#262626;" transform="translate(24.917969 169.037994)scale(0.15 -0.15)">
       <defs>
        <path d="M 269 1209 
L 831 1284 
Q 928 806 1161 595 
Q 1394 384 1728 384 
Q 2125 384 2398 659 
Q 2672 934 2672 1341 
Q 2672 1728 2419 1979 
Q 2166 2231 1775 2231 
Q 1616 2231 1378 2169 
L 1441 2663 
Q 1497 2656 1531 2656 
Q 1891 2656 2178 2843 
Q 2466 3031 2466 3422 
Q 2466 3731 2256 3934 
Q 2047 4138 1716 4138 
Q 1388 4138 1169 3931 
Q 950 3725 888 3313 
L 325 3413 
Q 428 3978 793 4289 
Q 1159 4600 1703 4600 
Q 2078 4600 2393 4439 
Q 2709 4278 2876 4000 
Q 3044 3722 3044 3409 
Q 3044 3113 2884 2869 
Q 2725 2625 2413 2481 
Q 2819 2388 3044 2092 
Q 3269 1797 3269 1353 
Q 3269 753 2831 336 
Q 2394 -81 1725 -81 
Q 1122 -81 723 278 
Q 325 638 269 1209 
z
" id="ArialMT-33" transform="scale(0.015625)"/>
       </defs>
       <use xlink:href="#ArialMT-33"/>
       <use x="55.615234" xlink:href="#ArialMT-30"/>
      </g>
     </g>
    </g>
    <g id="ytick_5">
     <g id="line2d_5">
      <path clip-path="url(#p5be0e266d6)" d="M 48.600781 125.894316 
L 606.600781 125.894316 
" style="fill:none;stroke:#cccccc;stroke-linecap:round;stroke-width:0.8;"/>
     </g>
     <g id="text_12">
      <!-- 40 -->
      <g style="fill:#262626;" transform="translate(24.917969 131.262675)scale(0.15 -0.15)">
       <use xlink:href="#ArialMT-34"/>
       <use x="55.615234" xlink:href="#ArialMT-30"/>
      </g>
     </g>
    </g>
    <g id="ytick_6">
     <g id="line2d_6">
      <path clip-path="url(#p5be0e266d6)" d="M 48.600781 88.118997 
L 606.600781 88.118997 
" style="fill:none;stroke:#cccccc;stroke-linecap:round;stroke-width:0.8;"/>
     </g>
     <g id="text_13">
      <!-- 50 -->
      <g style="fill:#262626;" transform="translate(24.917969 93.487356)scale(0.15 -0.15)">
       <defs>
        <path d="M 266 1200 
L 856 1250 
Q 922 819 1161 601 
Q 1400 384 1738 384 
Q 2144 384 2425 690 
Q 2706 997 2706 1503 
Q 2706 1984 2436 2262 
Q 2166 2541 1728 2541 
Q 1456 2541 1237 2417 
Q 1019 2294 894 2097 
L 366 2166 
L 809 4519 
L 3088 4519 
L 3088 3981 
L 1259 3981 
L 1013 2750 
Q 1425 3038 1878 3038 
Q 2478 3038 2890 2622 
Q 3303 2206 3303 1553 
Q 3303 931 2941 478 
Q 2500 -78 1738 -78 
Q 1113 -78 717 272 
Q 322 622 266 1200 
z
" id="ArialMT-35" transform="scale(0.015625)"/>
       </defs>
       <use xlink:href="#ArialMT-35"/>
       <use x="55.615234" xlink:href="#ArialMT-30"/>
      </g>
     </g>
    </g>
    <g id="ytick_7">
     <g id="line2d_7">
      <path clip-path="url(#p5be0e266d6)" d="M 48.600781 50.343678 
L 606.600781 50.343678 
" style="fill:none;stroke:#cccccc;stroke-linecap:round;stroke-width:0.8;"/>
     </g>
     <g id="text_14">
      <!-- 60 -->
      <g style="fill:#262626;" transform="translate(24.917969 55.712038)scale(0.15 -0.15)">
       <use xlink:href="#ArialMT-36"/>
       <use x="55.615234" xlink:href="#ArialMT-30"/>
      </g>
     </g>
    </g>
    <g id="ytick_8">
     <g id="line2d_8">
      <path clip-path="url(#p5be0e266d6)" d="M 48.600781 12.568359 
L 606.600781 12.568359 
" style="fill:none;stroke:#cccccc;stroke-linecap:round;stroke-width:0.8;"/>
     </g>
     <g id="text_15">
      <!-- 70 -->
      <g style="fill:#262626;" transform="translate(24.917969 17.936719)scale(0.15 -0.15)">
       <defs>
        <path d="M 303 3981 
L 303 4522 
L 3269 4522 
L 3269 4084 
Q 2831 3619 2401 2847 
Q 1972 2075 1738 1259 
Q 1569 684 1522 0 
L 944 0 
Q 953 541 1156 1306 
Q 1359 2072 1739 2783 
Q 2119 3494 2547 3981 
L 303 3981 
z
" id="ArialMT-37" transform="scale(0.015625)"/>
       </defs>
       <use xlink:href="#ArialMT-37"/>
       <use x="55.615234" xlink:href="#ArialMT-30"/>
      </g>
     </g>
    </g>
    <g id="text_16">
     <!-- CH Index -->
     <g style="fill:#262626;" transform="translate(17.936719 178.639953)rotate(-90)scale(0.15 -0.15)">
      <defs>
       <path d="M 3763 1606 
L 4369 1453 
Q 4178 706 3683 314 
Q 3188 -78 2472 -78 
Q 1731 -78 1267 223 
Q 803 525 561 1097 
Q 319 1669 319 2325 
Q 319 3041 592 3573 
Q 866 4106 1370 4382 
Q 1875 4659 2481 4659 
Q 3169 4659 3637 4309 
Q 4106 3959 4291 3325 
L 3694 3184 
Q 3534 3684 3231 3912 
Q 2928 4141 2469 4141 
Q 1941 4141 1586 3887 
Q 1231 3634 1087 3207 
Q 944 2781 944 2328 
Q 944 1744 1114 1308 
Q 1284 872 1643 656 
Q 2003 441 2422 441 
Q 2931 441 3284 734 
Q 3638 1028 3763 1606 
z
" id="ArialMT-43" transform="scale(0.015625)"/>
       <path d="M 513 0 
L 513 4581 
L 1119 4581 
L 1119 2700 
L 3500 2700 
L 3500 4581 
L 4106 4581 
L 4106 0 
L 3500 0 
L 3500 2159 
L 1119 2159 
L 1119 0 
L 513 0 
z
" id="ArialMT-48" transform="scale(0.015625)"/>
       <path id="ArialMT-20" transform="scale(0.015625)"/>
       <path d="M 597 0 
L 597 4581 
L 1203 4581 
L 1203 0 
L 597 0 
z
" id="ArialMT-49" transform="scale(0.015625)"/>
       <path d="M 422 0 
L 422 3319 
L 928 3319 
L 928 2847 
Q 1294 3394 1984 3394 
Q 2284 3394 2536 3286 
Q 2788 3178 2913 3003 
Q 3038 2828 3088 2588 
Q 3119 2431 3119 2041 
L 3119 0 
L 2556 0 
L 2556 2019 
Q 2556 2363 2490 2533 
Q 2425 2703 2258 2804 
Q 2091 2906 1866 2906 
Q 1506 2906 1245 2678 
Q 984 2450 984 1813 
L 984 0 
L 422 0 
z
" id="ArialMT-6e" transform="scale(0.015625)"/>
       <path d="M 2575 0 
L 2575 419 
Q 2259 -75 1647 -75 
Q 1250 -75 917 144 
Q 584 363 401 755 
Q 219 1147 219 1656 
Q 219 2153 384 2558 
Q 550 2963 881 3178 
Q 1213 3394 1622 3394 
Q 1922 3394 2156 3267 
Q 2391 3141 2538 2938 
L 2538 4581 
L 3097 4581 
L 3097 0 
L 2575 0 
z
M 797 1656 
Q 797 1019 1065 703 
Q 1334 388 1700 388 
Q 2069 388 2326 689 
Q 2584 991 2584 1609 
Q 2584 2291 2321 2609 
Q 2059 2928 1675 2928 
Q 1300 2928 1048 2622 
Q 797 2316 797 1656 
z
" id="ArialMT-64" transform="scale(0.015625)"/>
       <path d="M 2694 1069 
L 3275 997 
Q 3138 488 2766 206 
Q 2394 -75 1816 -75 
Q 1088 -75 661 373 
Q 234 822 234 1631 
Q 234 2469 665 2931 
Q 1097 3394 1784 3394 
Q 2450 3394 2872 2941 
Q 3294 2488 3294 1666 
Q 3294 1616 3291 1516 
L 816 1516 
Q 847 969 1125 678 
Q 1403 388 1819 388 
Q 2128 388 2347 550 
Q 2566 713 2694 1069 
z
M 847 1978 
L 2700 1978 
Q 2663 2397 2488 2606 
Q 2219 2931 1791 2931 
Q 1403 2931 1139 2672 
Q 875 2413 847 1978 
z
" id="ArialMT-65" transform="scale(0.015625)"/>
       <path d="M 47 0 
L 1259 1725 
L 138 3319 
L 841 3319 
L 1350 2541 
Q 1494 2319 1581 2169 
Q 1719 2375 1834 2534 
L 2394 3319 
L 3066 3319 
L 1919 1756 
L 3153 0 
L 2463 0 
L 1781 1031 
L 1600 1309 
L 728 0 
L 47 0 
z
" id="ArialMT-78" transform="scale(0.015625)"/>
      </defs>
      <use xlink:href="#ArialMT-43"/>
      <use x="72.216797" xlink:href="#ArialMT-48"/>
      <use x="144.433594" xlink:href="#ArialMT-20"/>
      <use x="172.216797" xlink:href="#ArialMT-49"/>
      <use x="200" xlink:href="#ArialMT-6e"/>
      <use x="255.615234" xlink:href="#ArialMT-64"/>
      <use x="311.230469" xlink:href="#ArialMT-65"/>
      <use x="366.845703" xlink:href="#ArialMT-78"/>
     </g>
    </g>
   </g>
   <g id="line2d_9">
    <path clip-path="url(#p5be0e266d6)" d="M 73.964418 270.923299 
L 79.194033 270.727064 
L 84.423649 270.819185 
L 89.653265 269.461131 
L 94.882881 269.813537 
L 100.112496 270.075551 
L 105.342112 270.291736 
L 110.571728 269.504409 
L 115.801344 269.650395 
L 121.030959 269.851469 
L 126.260575 270.02017 
L 131.490191 270.13179 
L 136.719807 269.860958 
L 141.949422 269.955796 
L 147.179038 269.99367 
L 152.408654 269.749141 
L 157.63827 269.555848 
L 162.867885 269.676547 
L 168.097501 269.776588 
L 173.327117 269.888627 
L 178.556733 269.97888 
L 183.786348 270.058385 
L 189.015964 270.112347 
L 194.24558 270.188309 
L 199.475195 270.237969 
L 204.704811 270.290411 
L 209.934427 270.337839 
L 215.164043 270.398717 
L 220.393658 270.460455 
L 225.623274 270.317439 
L 230.85289 270.371002 
L 236.082506 270.420791 
L 241.312121 270.445149 
L 246.541737 270.486858 
L 251.771353 270.521904 
L 257.000969 270.564565 
L 262.230584 270.611445 
L 267.4602 270.529404 
L 272.689816 270.438066 
L 277.919432 270.48273 
L 283.149047 270.523409 
L 288.378663 270.616718 
L 293.608279 270.637734 
L 298.837895 270.668063 
L 304.06751 270.701281 
L 309.297126 270.74227 
L 314.526742 270.768626 
L 319.756358 270.70711 
L 324.985973 270.737883 
L 330.215589 270.677939 
L 335.445205 270.701313 
L 340.674821 270.730182 
L 345.904436 270.650299 
L 351.134052 270.62652 
L 356.363668 270.533896 
L 361.593284 270.570273 
L 366.822899 270.554342 
L 372.052515 270.620228 
L 377.282131 270.645296 
L 382.511747 270.672717 
L 387.741362 270.685507 
L 392.970978 270.707321 
L 398.200594 270.727023 
L 403.43021 270.752701 
L 408.659825 270.711776 
L 413.889441 270.741234 
L 419.119057 270.690519 
L 424.348673 270.720456 
L 429.578288 270.741684 
L 434.807904 270.749913 
L 440.03752 270.761787 
L 445.267136 270.785562 
L 450.496751 270.801014 
L 455.726367 270.737369 
L 460.955983 270.749241 
L 466.185598 270.769189 
L 471.415214 270.778083 
L 476.64483 270.797877 
L 481.874446 270.814374 
L 487.104061 270.836496 
L 492.333677 270.854752 
L 497.563293 270.778693 
L 502.792909 270.793541 
L 508.022524 270.73575 
L 513.25214 270.751564 
L 518.481756 270.772221 
L 523.711372 270.787558 
L 528.940987 270.803932 
L 534.170603 270.809896 
L 539.400219 270.822414 
L 544.629835 270.830924 
L 549.85945 270.845112 
L 555.089066 270.858088 
L 560.318682 270.872565 
L 565.548298 270.792137 
L 570.777913 270.725628 
L 576.007529 270.693299 
L 581.237145 270.642167 
" style="fill:none;stroke:#1f77b4;stroke-linecap:round;stroke-width:1.5;"/>
    <defs>
     <path d="M 0 3 
C 0.795609 3 1.55874 2.683901 2.12132 2.12132 
C 2.683901 1.55874 3 0.795609 3 0 
C 3 -0.795609 2.683901 -1.55874 2.12132 -2.12132 
C 1.55874 -2.683901 0.795609 -3 0 -3 
C -0.795609 -3 -1.55874 -2.683901 -2.12132 -2.12132 
C -2.683901 -1.55874 -3 -0.795609 -3 0 
C -3 0.795609 -2.683901 1.55874 -2.12132 2.12132 
C -1.55874 2.683901 -0.795609 3 0 3 
z
" id="m55d649109c" style="stroke:#ffffff;stroke-width:0.75;"/>
    </defs>
    <g clip-path="url(#p5be0e266d6)">
     <use style="fill:#1f77b4;stroke:#ffffff;stroke-width:0.75;" x="73.964418" xlink:href="#m55d649109c" y="270.923299"/>
     <use style="fill:#1f77b4;stroke:#ffffff;stroke-width:0.75;" x="79.194033" xlink:href="#m55d649109c" y="270.727064"/>
     <use style="fill:#1f77b4;stroke:#ffffff;stroke-width:0.75;" x="84.423649" xlink:href="#m55d649109c" y="270.819185"/>
     <use style="fill:#1f77b4;stroke:#ffffff;stroke-width:0.75;" x="89.653265" xlink:href="#m55d649109c" y="269.461131"/>
     <use style="fill:#1f77b4;stroke:#ffffff;stroke-width:0.75;" x="94.882881" xlink:href="#m55d649109c" y="269.813537"/>
     <use style="fill:#1f77b4;stroke:#ffffff;stroke-width:0.75;" x="100.112496" xlink:href="#m55d649109c" y="270.075551"/>
     <use style="fill:#1f77b4;stroke:#ffffff;stroke-width:0.75;" x="105.342112" xlink:href="#m55d649109c" y="270.291736"/>
     <use style="fill:#1f77b4;stroke:#ffffff;stroke-width:0.75;" x="110.571728" xlink:href="#m55d649109c" y="269.504409"/>
     <use style="fill:#1f77b4;stroke:#ffffff;stroke-width:0.75;" x="115.801344" xlink:href="#m55d649109c" y="269.650395"/>
     <use style="fill:#1f77b4;stroke:#ffffff;stroke-width:0.75;" x="121.030959" xlink:href="#m55d649109c" y="269.851469"/>
     <use style="fill:#1f77b4;stroke:#ffffff;stroke-width:0.75;" x="126.260575" xlink:href="#m55d649109c" y="270.02017"/>
     <use style="fill:#1f77b4;stroke:#ffffff;stroke-width:0.75;" x="131.490191" xlink:href="#m55d649109c" y="270.13179"/>
     <use style="fill:#1f77b4;stroke:#ffffff;stroke-width:0.75;" x="136.719807" xlink:href="#m55d649109c" y="269.860958"/>
     <use style="fill:#1f77b4;stroke:#ffffff;stroke-width:0.75;" x="141.949422" xlink:href="#m55d649109c" y="269.955796"/>
     <use style="fill:#1f77b4;stroke:#ffffff;stroke-width:0.75;" x="147.179038" xlink:href="#m55d649109c" y="269.99367"/>
     <use style="fill:#1f77b4;stroke:#ffffff;stroke-width:0.75;" x="152.408654" xlink:href="#m55d649109c" y="269.749141"/>
     <use style="fill:#1f77b4;stroke:#ffffff;stroke-width:0.75;" x="157.63827" xlink:href="#m55d649109c" y="269.555848"/>
     <use style="fill:#1f77b4;stroke:#ffffff;stroke-width:0.75;" x="162.867885" xlink:href="#m55d649109c" y="269.676547"/>
     <use style="fill:#1f77b4;stroke:#ffffff;stroke-width:0.75;" x="168.097501" xlink:href="#m55d649109c" y="269.776588"/>
     <use style="fill:#1f77b4;stroke:#ffffff;stroke-width:0.75;" x="173.327117" xlink:href="#m55d649109c" y="269.888627"/>
     <use style="fill:#1f77b4;stroke:#ffffff;stroke-width:0.75;" x="178.556733" xlink:href="#m55d649109c" y="269.97888"/>
     <use style="fill:#1f77b4;stroke:#ffffff;stroke-width:0.75;" x="183.786348" xlink:href="#m55d649109c" y="270.058385"/>
     <use style="fill:#1f77b4;stroke:#ffffff;stroke-width:0.75;" x="189.015964" xlink:href="#m55d649109c" y="270.112347"/>
     <use style="fill:#1f77b4;stroke:#ffffff;stroke-width:0.75;" x="194.24558" xlink:href="#m55d649109c" y="270.188309"/>
     <use style="fill:#1f77b4;stroke:#ffffff;stroke-width:0.75;" x="199.475195" xlink:href="#m55d649109c" y="270.237969"/>
     <use style="fill:#1f77b4;stroke:#ffffff;stroke-width:0.75;" x="204.704811" xlink:href="#m55d649109c" y="270.290411"/>
     <use style="fill:#1f77b4;stroke:#ffffff;stroke-width:0.75;" x="209.934427" xlink:href="#m55d649109c" y="270.337839"/>
     <use style="fill:#1f77b4;stroke:#ffffff;stroke-width:0.75;" x="215.164043" xlink:href="#m55d649109c" y="270.398717"/>
     <use style="fill:#1f77b4;stroke:#ffffff;stroke-width:0.75;" x="220.393658" xlink:href="#m55d649109c" y="270.460455"/>
     <use style="fill:#1f77b4;stroke:#ffffff;stroke-width:0.75;" x="225.623274" xlink:href="#m55d649109c" y="270.317439"/>
     <use style="fill:#1f77b4;stroke:#ffffff;stroke-width:0.75;" x="230.85289" xlink:href="#m55d649109c" y="270.371002"/>
     <use style="fill:#1f77b4;stroke:#ffffff;stroke-width:0.75;" x="236.082506" xlink:href="#m55d649109c" y="270.420791"/>
     <use style="fill:#1f77b4;stroke:#ffffff;stroke-width:0.75;" x="241.312121" xlink:href="#m55d649109c" y="270.445149"/>
     <use style="fill:#1f77b4;stroke:#ffffff;stroke-width:0.75;" x="246.541737" xlink:href="#m55d649109c" y="270.486858"/>
     <use style="fill:#1f77b4;stroke:#ffffff;stroke-width:0.75;" x="251.771353" xlink:href="#m55d649109c" y="270.521904"/>
     <use style="fill:#1f77b4;stroke:#ffffff;stroke-width:0.75;" x="257.000969" xlink:href="#m55d649109c" y="270.564565"/>
     <use style="fill:#1f77b4;stroke:#ffffff;stroke-width:0.75;" x="262.230584" xlink:href="#m55d649109c" y="270.611445"/>
     <use style="fill:#1f77b4;stroke:#ffffff;stroke-width:0.75;" x="267.4602" xlink:href="#m55d649109c" y="270.529404"/>
     <use style="fill:#1f77b4;stroke:#ffffff;stroke-width:0.75;" x="272.689816" xlink:href="#m55d649109c" y="270.438066"/>
     <use style="fill:#1f77b4;stroke:#ffffff;stroke-width:0.75;" x="277.919432" xlink:href="#m55d649109c" y="270.48273"/>
     <use style="fill:#1f77b4;stroke:#ffffff;stroke-width:0.75;" x="283.149047" xlink:href="#m55d649109c" y="270.523409"/>
     <use style="fill:#1f77b4;stroke:#ffffff;stroke-width:0.75;" x="288.378663" xlink:href="#m55d649109c" y="270.616718"/>
     <use style="fill:#1f77b4;stroke:#ffffff;stroke-width:0.75;" x="293.608279" xlink:href="#m55d649109c" y="270.637734"/>
     <use style="fill:#1f77b4;stroke:#ffffff;stroke-width:0.75;" x="298.837895" xlink:href="#m55d649109c" y="270.668063"/>
     <use style="fill:#1f77b4;stroke:#ffffff;stroke-width:0.75;" x="304.06751" xlink:href="#m55d649109c" y="270.701281"/>
     <use style="fill:#1f77b4;stroke:#ffffff;stroke-width:0.75;" x="309.297126" xlink:href="#m55d649109c" y="270.74227"/>
     <use style="fill:#1f77b4;stroke:#ffffff;stroke-width:0.75;" x="314.526742" xlink:href="#m55d649109c" y="270.768626"/>
     <use style="fill:#1f77b4;stroke:#ffffff;stroke-width:0.75;" x="319.756358" xlink:href="#m55d649109c" y="270.70711"/>
     <use style="fill:#1f77b4;stroke:#ffffff;stroke-width:0.75;" x="324.985973" xlink:href="#m55d649109c" y="270.737883"/>
     <use style="fill:#1f77b4;stroke:#ffffff;stroke-width:0.75;" x="330.215589" xlink:href="#m55d649109c" y="270.677939"/>
     <use style="fill:#1f77b4;stroke:#ffffff;stroke-width:0.75;" x="335.445205" xlink:href="#m55d649109c" y="270.701313"/>
     <use style="fill:#1f77b4;stroke:#ffffff;stroke-width:0.75;" x="340.674821" xlink:href="#m55d649109c" y="270.730182"/>
     <use style="fill:#1f77b4;stroke:#ffffff;stroke-width:0.75;" x="345.904436" xlink:href="#m55d649109c" y="270.650299"/>
     <use style="fill:#1f77b4;stroke:#ffffff;stroke-width:0.75;" x="351.134052" xlink:href="#m55d649109c" y="270.62652"/>
     <use style="fill:#1f77b4;stroke:#ffffff;stroke-width:0.75;" x="356.363668" xlink:href="#m55d649109c" y="270.533896"/>
     <use style="fill:#1f77b4;stroke:#ffffff;stroke-width:0.75;" x="361.593284" xlink:href="#m55d649109c" y="270.570273"/>
     <use style="fill:#1f77b4;stroke:#ffffff;stroke-width:0.75;" x="366.822899" xlink:href="#m55d649109c" y="270.554342"/>
     <use style="fill:#1f77b4;stroke:#ffffff;stroke-width:0.75;" x="372.052515" xlink:href="#m55d649109c" y="270.620228"/>
     <use style="fill:#1f77b4;stroke:#ffffff;stroke-width:0.75;" x="377.282131" xlink:href="#m55d649109c" y="270.645296"/>
     <use style="fill:#1f77b4;stroke:#ffffff;stroke-width:0.75;" x="382.511747" xlink:href="#m55d649109c" y="270.672717"/>
     <use style="fill:#1f77b4;stroke:#ffffff;stroke-width:0.75;" x="387.741362" xlink:href="#m55d649109c" y="270.685507"/>
     <use style="fill:#1f77b4;stroke:#ffffff;stroke-width:0.75;" x="392.970978" xlink:href="#m55d649109c" y="270.707321"/>
     <use style="fill:#1f77b4;stroke:#ffffff;stroke-width:0.75;" x="398.200594" xlink:href="#m55d649109c" y="270.727023"/>
     <use style="fill:#1f77b4;stroke:#ffffff;stroke-width:0.75;" x="403.43021" xlink:href="#m55d649109c" y="270.752701"/>
     <use style="fill:#1f77b4;stroke:#ffffff;stroke-width:0.75;" x="408.659825" xlink:href="#m55d649109c" y="270.711776"/>
     <use style="fill:#1f77b4;stroke:#ffffff;stroke-width:0.75;" x="413.889441" xlink:href="#m55d649109c" y="270.741234"/>
     <use style="fill:#1f77b4;stroke:#ffffff;stroke-width:0.75;" x="419.119057" xlink:href="#m55d649109c" y="270.690519"/>
     <use style="fill:#1f77b4;stroke:#ffffff;stroke-width:0.75;" x="424.348673" xlink:href="#m55d649109c" y="270.720456"/>
     <use style="fill:#1f77b4;stroke:#ffffff;stroke-width:0.75;" x="429.578288" xlink:href="#m55d649109c" y="270.741684"/>
     <use style="fill:#1f77b4;stroke:#ffffff;stroke-width:0.75;" x="434.807904" xlink:href="#m55d649109c" y="270.749913"/>
     <use style="fill:#1f77b4;stroke:#ffffff;stroke-width:0.75;" x="440.03752" xlink:href="#m55d649109c" y="270.761787"/>
     <use style="fill:#1f77b4;stroke:#ffffff;stroke-width:0.75;" x="445.267136" xlink:href="#m55d649109c" y="270.785562"/>
     <use style="fill:#1f77b4;stroke:#ffffff;stroke-width:0.75;" x="450.496751" xlink:href="#m55d649109c" y="270.801014"/>
     <use style="fill:#1f77b4;stroke:#ffffff;stroke-width:0.75;" x="455.726367" xlink:href="#m55d649109c" y="270.737369"/>
     <use style="fill:#1f77b4;stroke:#ffffff;stroke-width:0.75;" x="460.955983" xlink:href="#m55d649109c" y="270.749241"/>
     <use style="fill:#1f77b4;stroke:#ffffff;stroke-width:0.75;" x="466.185598" xlink:href="#m55d649109c" y="270.769189"/>
     <use style="fill:#1f77b4;stroke:#ffffff;stroke-width:0.75;" x="471.415214" xlink:href="#m55d649109c" y="270.778083"/>
     <use style="fill:#1f77b4;stroke:#ffffff;stroke-width:0.75;" x="476.64483" xlink:href="#m55d649109c" y="270.797877"/>
     <use style="fill:#1f77b4;stroke:#ffffff;stroke-width:0.75;" x="481.874446" xlink:href="#m55d649109c" y="270.814374"/>
     <use style="fill:#1f77b4;stroke:#ffffff;stroke-width:0.75;" x="487.104061" xlink:href="#m55d649109c" y="270.836496"/>
     <use style="fill:#1f77b4;stroke:#ffffff;stroke-width:0.75;" x="492.333677" xlink:href="#m55d649109c" y="270.854752"/>
     <use style="fill:#1f77b4;stroke:#ffffff;stroke-width:0.75;" x="497.563293" xlink:href="#m55d649109c" y="270.778693"/>
     <use style="fill:#1f77b4;stroke:#ffffff;stroke-width:0.75;" x="502.792909" xlink:href="#m55d649109c" y="270.793541"/>
     <use style="fill:#1f77b4;stroke:#ffffff;stroke-width:0.75;" x="508.022524" xlink:href="#m55d649109c" y="270.73575"/>
     <use style="fill:#1f77b4;stroke:#ffffff;stroke-width:0.75;" x="513.25214" xlink:href="#m55d649109c" y="270.751564"/>
     <use style="fill:#1f77b4;stroke:#ffffff;stroke-width:0.75;" x="518.481756" xlink:href="#m55d649109c" y="270.772221"/>
     <use style="fill:#1f77b4;stroke:#ffffff;stroke-width:0.75;" x="523.711372" xlink:href="#m55d649109c" y="270.787558"/>
     <use style="fill:#1f77b4;stroke:#ffffff;stroke-width:0.75;" x="528.940987" xlink:href="#m55d649109c" y="270.803932"/>
     <use style="fill:#1f77b4;stroke:#ffffff;stroke-width:0.75;" x="534.170603" xlink:href="#m55d649109c" y="270.809896"/>
     <use style="fill:#1f77b4;stroke:#ffffff;stroke-width:0.75;" x="539.400219" xlink:href="#m55d649109c" y="270.822414"/>
     <use style="fill:#1f77b4;stroke:#ffffff;stroke-width:0.75;" x="544.629835" xlink:href="#m55d649109c" y="270.830924"/>
     <use style="fill:#1f77b4;stroke:#ffffff;stroke-width:0.75;" x="549.85945" xlink:href="#m55d649109c" y="270.845112"/>
     <use style="fill:#1f77b4;stroke:#ffffff;stroke-width:0.75;" x="555.089066" xlink:href="#m55d649109c" y="270.858088"/>
     <use style="fill:#1f77b4;stroke:#ffffff;stroke-width:0.75;" x="560.318682" xlink:href="#m55d649109c" y="270.872565"/>
     <use style="fill:#1f77b4;stroke:#ffffff;stroke-width:0.75;" x="565.548298" xlink:href="#m55d649109c" y="270.792137"/>
     <use style="fill:#1f77b4;stroke:#ffffff;stroke-width:0.75;" x="570.777913" xlink:href="#m55d649109c" y="270.725628"/>
     <use style="fill:#1f77b4;stroke:#ffffff;stroke-width:0.75;" x="576.007529" xlink:href="#m55d649109c" y="270.693299"/>
     <use style="fill:#1f77b4;stroke:#ffffff;stroke-width:0.75;" x="581.237145" xlink:href="#m55d649109c" y="270.642167"/>
    </g>
   </g>
   <g id="line2d_10">
    <path clip-path="url(#p5be0e266d6)" d="M 73.964418 23.832389 
L 79.194033 103.633109 
L 84.423649 108.113183 
L 89.653265 107.956661 
L 94.882881 107.318785 
L 100.112496 113.986047 
L 105.342112 135.658628 
L 110.571728 148.174665 
L 115.801344 155.490418 
L 121.030959 164.273529 
L 126.260575 168.908651 
L 131.490191 174.63286 
L 136.719807 181.318027 
L 141.949422 186.283066 
L 147.179038 184.700203 
L 152.408654 186.747107 
L 157.63827 191.28888 
L 162.867885 193.198345 
L 168.097501 196.035765 
L 173.327117 194.735653 
L 178.556733 197.295033 
L 183.786348 200.172231 
L 189.015964 202.715199 
L 194.24558 202.772247 
L 199.475195 202.724846 
L 204.704811 204.765853 
L 209.934427 206.023222 
L 215.164043 207.044319 
L 220.393658 208.662634 
L 225.623274 210.421994 
L 230.85289 212.097711 
L 236.082506 213.420413 
L 241.312121 213.723921 
L 246.541737 214.925273 
L 251.771353 215.329241 
L 257.000969 216.613496 
L 262.230584 217.72387 
L 267.4602 218.6713 
L 272.689816 219.425831 
L 277.919432 220.315113 
L 283.149047 221.011755 
L 288.378663 221.966716 
L 293.608279 222.782865 
L 298.837895 222.315929 
L 304.06751 222.646067 
L 309.297126 223.115729 
L 314.526742 223.374922 
L 319.756358 224.086665 
L 324.985973 224.387895 
L 330.215589 224.577802 
L 335.445205 225.04388 
L 340.674821 225.588185 
L 345.904436 226.317788 
L 351.134052 226.892619 
L 356.363668 227.280436 
L 361.593284 227.803503 
L 366.822899 228.436069 
L 372.052515 229.128926 
L 377.282131 229.713837 
L 382.511747 230.068369 
L 387.741362 230.195692 
L 392.970978 230.670812 
L 398.200594 230.953568 
L 403.43021 231.48722 
L 408.659825 231.782058 
L 413.889441 232.085668 
L 419.119057 232.652117 
L 424.348673 233.004952 
L 429.578288 233.19624 
L 434.807904 233.536831 
L 440.03752 233.946648 
L 445.267136 234.417949 
L 450.496751 234.761748 
L 455.726367 235.099318 
L 460.955983 235.369484 
L 466.185598 235.708283 
L 471.415214 236.10406 
L 476.64483 236.445036 
L 481.874446 236.766328 
L 487.104061 236.935993 
L 492.333677 237.247081 
L 497.563293 237.53006 
L 502.792909 237.693739 
L 508.022524 237.926158 
L 513.25214 238.304651 
L 518.481756 238.53467 
L 523.711372 238.734461 
L 528.940987 238.962985 
L 534.170603 239.102086 
L 539.400219 239.407264 
L 544.629835 239.622236 
L 549.85945 239.874921 
L 555.089066 240.16662 
L 560.318682 240.283498 
L 565.548298 240.543197 
L 570.777913 240.681558 
L 576.007529 240.814636 
L 581.237145 241.043548 
" style="fill:none;stroke:#ff7f0e;stroke-linecap:round;stroke-width:1.5;"/>
    <defs>
     <path d="M 0 3 
C 0.795609 3 1.55874 2.683901 2.12132 2.12132 
C 2.683901 1.55874 3 0.795609 3 0 
C 3 -0.795609 2.683901 -1.55874 2.12132 -2.12132 
C 1.55874 -2.683901 0.795609 -3 0 -3 
C -0.795609 -3 -1.55874 -2.683901 -2.12132 -2.12132 
C -2.683901 -1.55874 -3 -0.795609 -3 0 
C -3 0.795609 -2.683901 1.55874 -2.12132 2.12132 
C -1.55874 2.683901 -0.795609 3 0 3 
z
" id="m9a095c95bf" style="stroke:#ffffff;stroke-width:0.75;"/>
    </defs>
    <g clip-path="url(#p5be0e266d6)">
     <use style="fill:#ff7f0e;stroke:#ffffff;stroke-width:0.75;" x="73.964418" xlink:href="#m9a095c95bf" y="23.832389"/>
     <use style="fill:#ff7f0e;stroke:#ffffff;stroke-width:0.75;" x="79.194033" xlink:href="#m9a095c95bf" y="103.633109"/>
     <use style="fill:#ff7f0e;stroke:#ffffff;stroke-width:0.75;" x="84.423649" xlink:href="#m9a095c95bf" y="108.113183"/>
     <use style="fill:#ff7f0e;stroke:#ffffff;stroke-width:0.75;" x="89.653265" xlink:href="#m9a095c95bf" y="107.956661"/>
     <use style="fill:#ff7f0e;stroke:#ffffff;stroke-width:0.75;" x="94.882881" xlink:href="#m9a095c95bf" y="107.318785"/>
     <use style="fill:#ff7f0e;stroke:#ffffff;stroke-width:0.75;" x="100.112496" xlink:href="#m9a095c95bf" y="113.986047"/>
     <use style="fill:#ff7f0e;stroke:#ffffff;stroke-width:0.75;" x="105.342112" xlink:href="#m9a095c95bf" y="135.658628"/>
     <use style="fill:#ff7f0e;stroke:#ffffff;stroke-width:0.75;" x="110.571728" xlink:href="#m9a095c95bf" y="148.174665"/>
     <use style="fill:#ff7f0e;stroke:#ffffff;stroke-width:0.75;" x="115.801344" xlink:href="#m9a095c95bf" y="155.490418"/>
     <use style="fill:#ff7f0e;stroke:#ffffff;stroke-width:0.75;" x="121.030959" xlink:href="#m9a095c95bf" y="164.273529"/>
     <use style="fill:#ff7f0e;stroke:#ffffff;stroke-width:0.75;" x="126.260575" xlink:href="#m9a095c95bf" y="168.908651"/>
     <use style="fill:#ff7f0e;stroke:#ffffff;stroke-width:0.75;" x="131.490191" xlink:href="#m9a095c95bf" y="174.63286"/>
     <use style="fill:#ff7f0e;stroke:#ffffff;stroke-width:0.75;" x="136.719807" xlink:href="#m9a095c95bf" y="181.318027"/>
     <use style="fill:#ff7f0e;stroke:#ffffff;stroke-width:0.75;" x="141.949422" xlink:href="#m9a095c95bf" y="186.283066"/>
     <use style="fill:#ff7f0e;stroke:#ffffff;stroke-width:0.75;" x="147.179038" xlink:href="#m9a095c95bf" y="184.700203"/>
     <use style="fill:#ff7f0e;stroke:#ffffff;stroke-width:0.75;" x="152.408654" xlink:href="#m9a095c95bf" y="186.747107"/>
     <use style="fill:#ff7f0e;stroke:#ffffff;stroke-width:0.75;" x="157.63827" xlink:href="#m9a095c95bf" y="191.28888"/>
     <use style="fill:#ff7f0e;stroke:#ffffff;stroke-width:0.75;" x="162.867885" xlink:href="#m9a095c95bf" y="193.198345"/>
     <use style="fill:#ff7f0e;stroke:#ffffff;stroke-width:0.75;" x="168.097501" xlink:href="#m9a095c95bf" y="196.035765"/>
     <use style="fill:#ff7f0e;stroke:#ffffff;stroke-width:0.75;" x="173.327117" xlink:href="#m9a095c95bf" y="194.735653"/>
     <use style="fill:#ff7f0e;stroke:#ffffff;stroke-width:0.75;" x="178.556733" xlink:href="#m9a095c95bf" y="197.295033"/>
     <use style="fill:#ff7f0e;stroke:#ffffff;stroke-width:0.75;" x="183.786348" xlink:href="#m9a095c95bf" y="200.172231"/>
     <use style="fill:#ff7f0e;stroke:#ffffff;stroke-width:0.75;" x="189.015964" xlink:href="#m9a095c95bf" y="202.715199"/>
     <use style="fill:#ff7f0e;stroke:#ffffff;stroke-width:0.75;" x="194.24558" xlink:href="#m9a095c95bf" y="202.772247"/>
     <use style="fill:#ff7f0e;stroke:#ffffff;stroke-width:0.75;" x="199.475195" xlink:href="#m9a095c95bf" y="202.724846"/>
     <use style="fill:#ff7f0e;stroke:#ffffff;stroke-width:0.75;" x="204.704811" xlink:href="#m9a095c95bf" y="204.765853"/>
     <use style="fill:#ff7f0e;stroke:#ffffff;stroke-width:0.75;" x="209.934427" xlink:href="#m9a095c95bf" y="206.023222"/>
     <use style="fill:#ff7f0e;stroke:#ffffff;stroke-width:0.75;" x="215.164043" xlink:href="#m9a095c95bf" y="207.044319"/>
     <use style="fill:#ff7f0e;stroke:#ffffff;stroke-width:0.75;" x="220.393658" xlink:href="#m9a095c95bf" y="208.662634"/>
     <use style="fill:#ff7f0e;stroke:#ffffff;stroke-width:0.75;" x="225.623274" xlink:href="#m9a095c95bf" y="210.421994"/>
     <use style="fill:#ff7f0e;stroke:#ffffff;stroke-width:0.75;" x="230.85289" xlink:href="#m9a095c95bf" y="212.097711"/>
     <use style="fill:#ff7f0e;stroke:#ffffff;stroke-width:0.75;" x="236.082506" xlink:href="#m9a095c95bf" y="213.420413"/>
     <use style="fill:#ff7f0e;stroke:#ffffff;stroke-width:0.75;" x="241.312121" xlink:href="#m9a095c95bf" y="213.723921"/>
     <use style="fill:#ff7f0e;stroke:#ffffff;stroke-width:0.75;" x="246.541737" xlink:href="#m9a095c95bf" y="214.925273"/>
     <use style="fill:#ff7f0e;stroke:#ffffff;stroke-width:0.75;" x="251.771353" xlink:href="#m9a095c95bf" y="215.329241"/>
     <use style="fill:#ff7f0e;stroke:#ffffff;stroke-width:0.75;" x="257.000969" xlink:href="#m9a095c95bf" y="216.613496"/>
     <use style="fill:#ff7f0e;stroke:#ffffff;stroke-width:0.75;" x="262.230584" xlink:href="#m9a095c95bf" y="217.72387"/>
     <use style="fill:#ff7f0e;stroke:#ffffff;stroke-width:0.75;" x="267.4602" xlink:href="#m9a095c95bf" y="218.6713"/>
     <use style="fill:#ff7f0e;stroke:#ffffff;stroke-width:0.75;" x="272.689816" xlink:href="#m9a095c95bf" y="219.425831"/>
     <use style="fill:#ff7f0e;stroke:#ffffff;stroke-width:0.75;" x="277.919432" xlink:href="#m9a095c95bf" y="220.315113"/>
     <use style="fill:#ff7f0e;stroke:#ffffff;stroke-width:0.75;" x="283.149047" xlink:href="#m9a095c95bf" y="221.011755"/>
     <use style="fill:#ff7f0e;stroke:#ffffff;stroke-width:0.75;" x="288.378663" xlink:href="#m9a095c95bf" y="221.966716"/>
     <use style="fill:#ff7f0e;stroke:#ffffff;stroke-width:0.75;" x="293.608279" xlink:href="#m9a095c95bf" y="222.782865"/>
     <use style="fill:#ff7f0e;stroke:#ffffff;stroke-width:0.75;" x="298.837895" xlink:href="#m9a095c95bf" y="222.315929"/>
     <use style="fill:#ff7f0e;stroke:#ffffff;stroke-width:0.75;" x="304.06751" xlink:href="#m9a095c95bf" y="222.646067"/>
     <use style="fill:#ff7f0e;stroke:#ffffff;stroke-width:0.75;" x="309.297126" xlink:href="#m9a095c95bf" y="223.115729"/>
     <use style="fill:#ff7f0e;stroke:#ffffff;stroke-width:0.75;" x="314.526742" xlink:href="#m9a095c95bf" y="223.374922"/>
     <use style="fill:#ff7f0e;stroke:#ffffff;stroke-width:0.75;" x="319.756358" xlink:href="#m9a095c95bf" y="224.086665"/>
     <use style="fill:#ff7f0e;stroke:#ffffff;stroke-width:0.75;" x="324.985973" xlink:href="#m9a095c95bf" y="224.387895"/>
     <use style="fill:#ff7f0e;stroke:#ffffff;stroke-width:0.75;" x="330.215589" xlink:href="#m9a095c95bf" y="224.577802"/>
     <use style="fill:#ff7f0e;stroke:#ffffff;stroke-width:0.75;" x="335.445205" xlink:href="#m9a095c95bf" y="225.04388"/>
     <use style="fill:#ff7f0e;stroke:#ffffff;stroke-width:0.75;" x="340.674821" xlink:href="#m9a095c95bf" y="225.588185"/>
     <use style="fill:#ff7f0e;stroke:#ffffff;stroke-width:0.75;" x="345.904436" xlink:href="#m9a095c95bf" y="226.317788"/>
     <use style="fill:#ff7f0e;stroke:#ffffff;stroke-width:0.75;" x="351.134052" xlink:href="#m9a095c95bf" y="226.892619"/>
     <use style="fill:#ff7f0e;stroke:#ffffff;stroke-width:0.75;" x="356.363668" xlink:href="#m9a095c95bf" y="227.280436"/>
     <use style="fill:#ff7f0e;stroke:#ffffff;stroke-width:0.75;" x="361.593284" xlink:href="#m9a095c95bf" y="227.803503"/>
     <use style="fill:#ff7f0e;stroke:#ffffff;stroke-width:0.75;" x="366.822899" xlink:href="#m9a095c95bf" y="228.436069"/>
     <use style="fill:#ff7f0e;stroke:#ffffff;stroke-width:0.75;" x="372.052515" xlink:href="#m9a095c95bf" y="229.128926"/>
     <use style="fill:#ff7f0e;stroke:#ffffff;stroke-width:0.75;" x="377.282131" xlink:href="#m9a095c95bf" y="229.713837"/>
     <use style="fill:#ff7f0e;stroke:#ffffff;stroke-width:0.75;" x="382.511747" xlink:href="#m9a095c95bf" y="230.068369"/>
     <use style="fill:#ff7f0e;stroke:#ffffff;stroke-width:0.75;" x="387.741362" xlink:href="#m9a095c95bf" y="230.195692"/>
     <use style="fill:#ff7f0e;stroke:#ffffff;stroke-width:0.75;" x="392.970978" xlink:href="#m9a095c95bf" y="230.670812"/>
     <use style="fill:#ff7f0e;stroke:#ffffff;stroke-width:0.75;" x="398.200594" xlink:href="#m9a095c95bf" y="230.953568"/>
     <use style="fill:#ff7f0e;stroke:#ffffff;stroke-width:0.75;" x="403.43021" xlink:href="#m9a095c95bf" y="231.48722"/>
     <use style="fill:#ff7f0e;stroke:#ffffff;stroke-width:0.75;" x="408.659825" xlink:href="#m9a095c95bf" y="231.782058"/>
     <use style="fill:#ff7f0e;stroke:#ffffff;stroke-width:0.75;" x="413.889441" xlink:href="#m9a095c95bf" y="232.085668"/>
     <use style="fill:#ff7f0e;stroke:#ffffff;stroke-width:0.75;" x="419.119057" xlink:href="#m9a095c95bf" y="232.652117"/>
     <use style="fill:#ff7f0e;stroke:#ffffff;stroke-width:0.75;" x="424.348673" xlink:href="#m9a095c95bf" y="233.004952"/>
     <use style="fill:#ff7f0e;stroke:#ffffff;stroke-width:0.75;" x="429.578288" xlink:href="#m9a095c95bf" y="233.19624"/>
     <use style="fill:#ff7f0e;stroke:#ffffff;stroke-width:0.75;" x="434.807904" xlink:href="#m9a095c95bf" y="233.536831"/>
     <use style="fill:#ff7f0e;stroke:#ffffff;stroke-width:0.75;" x="440.03752" xlink:href="#m9a095c95bf" y="233.946648"/>
     <use style="fill:#ff7f0e;stroke:#ffffff;stroke-width:0.75;" x="445.267136" xlink:href="#m9a095c95bf" y="234.417949"/>
     <use style="fill:#ff7f0e;stroke:#ffffff;stroke-width:0.75;" x="450.496751" xlink:href="#m9a095c95bf" y="234.761748"/>
     <use style="fill:#ff7f0e;stroke:#ffffff;stroke-width:0.75;" x="455.726367" xlink:href="#m9a095c95bf" y="235.099318"/>
     <use style="fill:#ff7f0e;stroke:#ffffff;stroke-width:0.75;" x="460.955983" xlink:href="#m9a095c95bf" y="235.369484"/>
     <use style="fill:#ff7f0e;stroke:#ffffff;stroke-width:0.75;" x="466.185598" xlink:href="#m9a095c95bf" y="235.708283"/>
     <use style="fill:#ff7f0e;stroke:#ffffff;stroke-width:0.75;" x="471.415214" xlink:href="#m9a095c95bf" y="236.10406"/>
     <use style="fill:#ff7f0e;stroke:#ffffff;stroke-width:0.75;" x="476.64483" xlink:href="#m9a095c95bf" y="236.445036"/>
     <use style="fill:#ff7f0e;stroke:#ffffff;stroke-width:0.75;" x="481.874446" xlink:href="#m9a095c95bf" y="236.766328"/>
     <use style="fill:#ff7f0e;stroke:#ffffff;stroke-width:0.75;" x="487.104061" xlink:href="#m9a095c95bf" y="236.935993"/>
     <use style="fill:#ff7f0e;stroke:#ffffff;stroke-width:0.75;" x="492.333677" xlink:href="#m9a095c95bf" y="237.247081"/>
     <use style="fill:#ff7f0e;stroke:#ffffff;stroke-width:0.75;" x="497.563293" xlink:href="#m9a095c95bf" y="237.53006"/>
     <use style="fill:#ff7f0e;stroke:#ffffff;stroke-width:0.75;" x="502.792909" xlink:href="#m9a095c95bf" y="237.693739"/>
     <use style="fill:#ff7f0e;stroke:#ffffff;stroke-width:0.75;" x="508.022524" xlink:href="#m9a095c95bf" y="237.926158"/>
     <use style="fill:#ff7f0e;stroke:#ffffff;stroke-width:0.75;" x="513.25214" xlink:href="#m9a095c95bf" y="238.304651"/>
     <use style="fill:#ff7f0e;stroke:#ffffff;stroke-width:0.75;" x="518.481756" xlink:href="#m9a095c95bf" y="238.53467"/>
     <use style="fill:#ff7f0e;stroke:#ffffff;stroke-width:0.75;" x="523.711372" xlink:href="#m9a095c95bf" y="238.734461"/>
     <use style="fill:#ff7f0e;stroke:#ffffff;stroke-width:0.75;" x="528.940987" xlink:href="#m9a095c95bf" y="238.962985"/>
     <use style="fill:#ff7f0e;stroke:#ffffff;stroke-width:0.75;" x="534.170603" xlink:href="#m9a095c95bf" y="239.102086"/>
     <use style="fill:#ff7f0e;stroke:#ffffff;stroke-width:0.75;" x="539.400219" xlink:href="#m9a095c95bf" y="239.407264"/>
     <use style="fill:#ff7f0e;stroke:#ffffff;stroke-width:0.75;" x="544.629835" xlink:href="#m9a095c95bf" y="239.622236"/>
     <use style="fill:#ff7f0e;stroke:#ffffff;stroke-width:0.75;" x="549.85945" xlink:href="#m9a095c95bf" y="239.874921"/>
     <use style="fill:#ff7f0e;stroke:#ffffff;stroke-width:0.75;" x="555.089066" xlink:href="#m9a095c95bf" y="240.16662"/>
     <use style="fill:#ff7f0e;stroke:#ffffff;stroke-width:0.75;" x="560.318682" xlink:href="#m9a095c95bf" y="240.283498"/>
     <use style="fill:#ff7f0e;stroke:#ffffff;stroke-width:0.75;" x="565.548298" xlink:href="#m9a095c95bf" y="240.543197"/>
     <use style="fill:#ff7f0e;stroke:#ffffff;stroke-width:0.75;" x="570.777913" xlink:href="#m9a095c95bf" y="240.681558"/>
     <use style="fill:#ff7f0e;stroke:#ffffff;stroke-width:0.75;" x="576.007529" xlink:href="#m9a095c95bf" y="240.814636"/>
     <use style="fill:#ff7f0e;stroke:#ffffff;stroke-width:0.75;" x="581.237145" xlink:href="#m9a095c95bf" y="241.043548"/>
    </g>
   </g>
   <g id="line2d_11">
    <path clip-path="url(#p5be0e266d6)" d="M 73.964418 269.74517 
L 79.194033 269.362779 
L 84.423649 152.138809 
L 89.653265 161.842561 
L 94.882881 162.175954 
L 100.112496 178.708302 
L 105.342112 151.33793 
L 110.571728 166.430831 
L 115.801344 178.165863 
L 121.030959 187.205613 
L 126.260575 193.93045 
L 131.490191 197.673656 
L 136.719807 202.539526 
L 141.949422 199.916731 
L 147.179038 203.708446 
L 152.408654 207.737744 
L 157.63827 211.473749 
L 162.867885 214.137081 
L 168.097501 208.998014 
L 173.327117 211.991121 
L 178.556733 209.523581 
L 183.786348 206.117873 
L 189.015964 208.678115 
L 194.24558 210.284687 
L 199.475195 210.598423 
L 204.704811 212.862205 
L 209.934427 214.713589 
L 215.164043 216.566914 
L 220.393658 216.707119 
L 225.623274 217.987474 
L 230.85289 219.284489 
L 236.082506 219.37812 
L 241.312121 220.643101 
L 246.541737 221.764124 
L 251.771353 222.905664 
L 257.000969 223.740427 
L 262.230584 224.710845 
L 267.4602 225.951952 
L 272.689816 226.89001 
L 277.919432 227.951044 
L 283.149047 227.683672 
L 288.378663 228.652886 
L 293.608279 229.549501 
L 298.837895 230.148762 
L 304.06751 230.949433 
L 309.297126 231.614814 
L 314.526742 230.658332 
L 319.756358 231.462106 
L 324.985973 232.0769 
L 330.215589 232.57785 
L 335.445205 231.725864 
L 340.674821 232.352613 
L 345.904436 233.03331 
L 351.134052 233.657726 
L 356.363668 233.377082 
L 361.593284 233.968245 
L 366.822899 234.349846 
L 372.052515 234.780636 
L 377.282131 234.834576 
L 382.511747 235.079502 
L 387.741362 235.488565 
L 392.970978 234.745312 
L 398.200594 235.198491 
L 403.43021 235.631168 
L 408.659825 236.122111 
L 413.889441 236.612805 
L 419.119057 237.058213 
L 424.348673 237.557113 
L 429.578288 237.658749 
L 434.807904 238.070768 
L 440.03752 238.349331 
L 445.267136 238.459963 
L 450.496751 238.815573 
L 455.726367 239.09156 
L 460.955983 239.462889 
L 466.185598 239.680698 
L 471.415214 239.397761 
L 476.64483 239.794352 
L 481.874446 240.064464 
L 487.104061 240.403154 
L 492.333677 240.728382 
L 497.563293 240.988371 
L 502.792909 241.288384 
L 508.022524 241.47917 
L 513.25214 241.734196 
L 518.481756 241.832614 
L 523.711372 242.174905 
L 528.940987 242.376171 
L 534.170603 242.410225 
L 539.400219 242.618549 
L 544.629835 241.983351 
L 549.85945 241.988284 
L 555.089066 242.217901 
L 560.318682 242.446516 
L 565.548298 242.52584 
L 570.777913 242.822273 
L 576.007529 243.019608 
L 581.237145 243.293954 
" style="fill:none;stroke:#2ca02c;stroke-linecap:round;stroke-width:1.5;"/>
    <defs>
     <path d="M 0 3 
C 0.795609 3 1.55874 2.683901 2.12132 2.12132 
C 2.683901 1.55874 3 0.795609 3 0 
C 3 -0.795609 2.683901 -1.55874 2.12132 -2.12132 
C 1.55874 -2.683901 0.795609 -3 0 -3 
C -0.795609 -3 -1.55874 -2.683901 -2.12132 -2.12132 
C -2.683901 -1.55874 -3 -0.795609 -3 0 
C -3 0.795609 -2.683901 1.55874 -2.12132 2.12132 
C -1.55874 2.683901 -0.795609 3 0 3 
z
" id="mea22003cae" style="stroke:#ffffff;stroke-width:0.75;"/>
    </defs>
    <g clip-path="url(#p5be0e266d6)">
     <use style="fill:#2ca02c;stroke:#ffffff;stroke-width:0.75;" x="73.964418" xlink:href="#mea22003cae" y="269.74517"/>
     <use style="fill:#2ca02c;stroke:#ffffff;stroke-width:0.75;" x="79.194033" xlink:href="#mea22003cae" y="269.362779"/>
     <use style="fill:#2ca02c;stroke:#ffffff;stroke-width:0.75;" x="84.423649" xlink:href="#mea22003cae" y="152.138809"/>
     <use style="fill:#2ca02c;stroke:#ffffff;stroke-width:0.75;" x="89.653265" xlink:href="#mea22003cae" y="161.842561"/>
     <use style="fill:#2ca02c;stroke:#ffffff;stroke-width:0.75;" x="94.882881" xlink:href="#mea22003cae" y="162.175954"/>
     <use style="fill:#2ca02c;stroke:#ffffff;stroke-width:0.75;" x="100.112496" xlink:href="#mea22003cae" y="178.708302"/>
     <use style="fill:#2ca02c;stroke:#ffffff;stroke-width:0.75;" x="105.342112" xlink:href="#mea22003cae" y="151.33793"/>
     <use style="fill:#2ca02c;stroke:#ffffff;stroke-width:0.75;" x="110.571728" xlink:href="#mea22003cae" y="166.430831"/>
     <use style="fill:#2ca02c;stroke:#ffffff;stroke-width:0.75;" x="115.801344" xlink:href="#mea22003cae" y="178.165863"/>
     <use style="fill:#2ca02c;stroke:#ffffff;stroke-width:0.75;" x="121.030959" xlink:href="#mea22003cae" y="187.205613"/>
     <use style="fill:#2ca02c;stroke:#ffffff;stroke-width:0.75;" x="126.260575" xlink:href="#mea22003cae" y="193.93045"/>
     <use style="fill:#2ca02c;stroke:#ffffff;stroke-width:0.75;" x="131.490191" xlink:href="#mea22003cae" y="197.673656"/>
     <use style="fill:#2ca02c;stroke:#ffffff;stroke-width:0.75;" x="136.719807" xlink:href="#mea22003cae" y="202.539526"/>
     <use style="fill:#2ca02c;stroke:#ffffff;stroke-width:0.75;" x="141.949422" xlink:href="#mea22003cae" y="199.916731"/>
     <use style="fill:#2ca02c;stroke:#ffffff;stroke-width:0.75;" x="147.179038" xlink:href="#mea22003cae" y="203.708446"/>
     <use style="fill:#2ca02c;stroke:#ffffff;stroke-width:0.75;" x="152.408654" xlink:href="#mea22003cae" y="207.737744"/>
     <use style="fill:#2ca02c;stroke:#ffffff;stroke-width:0.75;" x="157.63827" xlink:href="#mea22003cae" y="211.473749"/>
     <use style="fill:#2ca02c;stroke:#ffffff;stroke-width:0.75;" x="162.867885" xlink:href="#mea22003cae" y="214.137081"/>
     <use style="fill:#2ca02c;stroke:#ffffff;stroke-width:0.75;" x="168.097501" xlink:href="#mea22003cae" y="208.998014"/>
     <use style="fill:#2ca02c;stroke:#ffffff;stroke-width:0.75;" x="173.327117" xlink:href="#mea22003cae" y="211.991121"/>
     <use style="fill:#2ca02c;stroke:#ffffff;stroke-width:0.75;" x="178.556733" xlink:href="#mea22003cae" y="209.523581"/>
     <use style="fill:#2ca02c;stroke:#ffffff;stroke-width:0.75;" x="183.786348" xlink:href="#mea22003cae" y="206.117873"/>
     <use style="fill:#2ca02c;stroke:#ffffff;stroke-width:0.75;" x="189.015964" xlink:href="#mea22003cae" y="208.678115"/>
     <use style="fill:#2ca02c;stroke:#ffffff;stroke-width:0.75;" x="194.24558" xlink:href="#mea22003cae" y="210.284687"/>
     <use style="fill:#2ca02c;stroke:#ffffff;stroke-width:0.75;" x="199.475195" xlink:href="#mea22003cae" y="210.598423"/>
     <use style="fill:#2ca02c;stroke:#ffffff;stroke-width:0.75;" x="204.704811" xlink:href="#mea22003cae" y="212.862205"/>
     <use style="fill:#2ca02c;stroke:#ffffff;stroke-width:0.75;" x="209.934427" xlink:href="#mea22003cae" y="214.713589"/>
     <use style="fill:#2ca02c;stroke:#ffffff;stroke-width:0.75;" x="215.164043" xlink:href="#mea22003cae" y="216.566914"/>
     <use style="fill:#2ca02c;stroke:#ffffff;stroke-width:0.75;" x="220.393658" xlink:href="#mea22003cae" y="216.707119"/>
     <use style="fill:#2ca02c;stroke:#ffffff;stroke-width:0.75;" x="225.623274" xlink:href="#mea22003cae" y="217.987474"/>
     <use style="fill:#2ca02c;stroke:#ffffff;stroke-width:0.75;" x="230.85289" xlink:href="#mea22003cae" y="219.284489"/>
     <use style="fill:#2ca02c;stroke:#ffffff;stroke-width:0.75;" x="236.082506" xlink:href="#mea22003cae" y="219.37812"/>
     <use style="fill:#2ca02c;stroke:#ffffff;stroke-width:0.75;" x="241.312121" xlink:href="#mea22003cae" y="220.643101"/>
     <use style="fill:#2ca02c;stroke:#ffffff;stroke-width:0.75;" x="246.541737" xlink:href="#mea22003cae" y="221.764124"/>
     <use style="fill:#2ca02c;stroke:#ffffff;stroke-width:0.75;" x="251.771353" xlink:href="#mea22003cae" y="222.905664"/>
     <use style="fill:#2ca02c;stroke:#ffffff;stroke-width:0.75;" x="257.000969" xlink:href="#mea22003cae" y="223.740427"/>
     <use style="fill:#2ca02c;stroke:#ffffff;stroke-width:0.75;" x="262.230584" xlink:href="#mea22003cae" y="224.710845"/>
     <use style="fill:#2ca02c;stroke:#ffffff;stroke-width:0.75;" x="267.4602" xlink:href="#mea22003cae" y="225.951952"/>
     <use style="fill:#2ca02c;stroke:#ffffff;stroke-width:0.75;" x="272.689816" xlink:href="#mea22003cae" y="226.89001"/>
     <use style="fill:#2ca02c;stroke:#ffffff;stroke-width:0.75;" x="277.919432" xlink:href="#mea22003cae" y="227.951044"/>
     <use style="fill:#2ca02c;stroke:#ffffff;stroke-width:0.75;" x="283.149047" xlink:href="#mea22003cae" y="227.683672"/>
     <use style="fill:#2ca02c;stroke:#ffffff;stroke-width:0.75;" x="288.378663" xlink:href="#mea22003cae" y="228.652886"/>
     <use style="fill:#2ca02c;stroke:#ffffff;stroke-width:0.75;" x="293.608279" xlink:href="#mea22003cae" y="229.549501"/>
     <use style="fill:#2ca02c;stroke:#ffffff;stroke-width:0.75;" x="298.837895" xlink:href="#mea22003cae" y="230.148762"/>
     <use style="fill:#2ca02c;stroke:#ffffff;stroke-width:0.75;" x="304.06751" xlink:href="#mea22003cae" y="230.949433"/>
     <use style="fill:#2ca02c;stroke:#ffffff;stroke-width:0.75;" x="309.297126" xlink:href="#mea22003cae" y="231.614814"/>
     <use style="fill:#2ca02c;stroke:#ffffff;stroke-width:0.75;" x="314.526742" xlink:href="#mea22003cae" y="230.658332"/>
     <use style="fill:#2ca02c;stroke:#ffffff;stroke-width:0.75;" x="319.756358" xlink:href="#mea22003cae" y="231.462106"/>
     <use style="fill:#2ca02c;stroke:#ffffff;stroke-width:0.75;" x="324.985973" xlink:href="#mea22003cae" y="232.0769"/>
     <use style="fill:#2ca02c;stroke:#ffffff;stroke-width:0.75;" x="330.215589" xlink:href="#mea22003cae" y="232.57785"/>
     <use style="fill:#2ca02c;stroke:#ffffff;stroke-width:0.75;" x="335.445205" xlink:href="#mea22003cae" y="231.725864"/>
     <use style="fill:#2ca02c;stroke:#ffffff;stroke-width:0.75;" x="340.674821" xlink:href="#mea22003cae" y="232.352613"/>
     <use style="fill:#2ca02c;stroke:#ffffff;stroke-width:0.75;" x="345.904436" xlink:href="#mea22003cae" y="233.03331"/>
     <use style="fill:#2ca02c;stroke:#ffffff;stroke-width:0.75;" x="351.134052" xlink:href="#mea22003cae" y="233.657726"/>
     <use style="fill:#2ca02c;stroke:#ffffff;stroke-width:0.75;" x="356.363668" xlink:href="#mea22003cae" y="233.377082"/>
     <use style="fill:#2ca02c;stroke:#ffffff;stroke-width:0.75;" x="361.593284" xlink:href="#mea22003cae" y="233.968245"/>
     <use style="fill:#2ca02c;stroke:#ffffff;stroke-width:0.75;" x="366.822899" xlink:href="#mea22003cae" y="234.349846"/>
     <use style="fill:#2ca02c;stroke:#ffffff;stroke-width:0.75;" x="372.052515" xlink:href="#mea22003cae" y="234.780636"/>
     <use style="fill:#2ca02c;stroke:#ffffff;stroke-width:0.75;" x="377.282131" xlink:href="#mea22003cae" y="234.834576"/>
     <use style="fill:#2ca02c;stroke:#ffffff;stroke-width:0.75;" x="382.511747" xlink:href="#mea22003cae" y="235.079502"/>
     <use style="fill:#2ca02c;stroke:#ffffff;stroke-width:0.75;" x="387.741362" xlink:href="#mea22003cae" y="235.488565"/>
     <use style="fill:#2ca02c;stroke:#ffffff;stroke-width:0.75;" x="392.970978" xlink:href="#mea22003cae" y="234.745312"/>
     <use style="fill:#2ca02c;stroke:#ffffff;stroke-width:0.75;" x="398.200594" xlink:href="#mea22003cae" y="235.198491"/>
     <use style="fill:#2ca02c;stroke:#ffffff;stroke-width:0.75;" x="403.43021" xlink:href="#mea22003cae" y="235.631168"/>
     <use style="fill:#2ca02c;stroke:#ffffff;stroke-width:0.75;" x="408.659825" xlink:href="#mea22003cae" y="236.122111"/>
     <use style="fill:#2ca02c;stroke:#ffffff;stroke-width:0.75;" x="413.889441" xlink:href="#mea22003cae" y="236.612805"/>
     <use style="fill:#2ca02c;stroke:#ffffff;stroke-width:0.75;" x="419.119057" xlink:href="#mea22003cae" y="237.058213"/>
     <use style="fill:#2ca02c;stroke:#ffffff;stroke-width:0.75;" x="424.348673" xlink:href="#mea22003cae" y="237.557113"/>
     <use style="fill:#2ca02c;stroke:#ffffff;stroke-width:0.75;" x="429.578288" xlink:href="#mea22003cae" y="237.658749"/>
     <use style="fill:#2ca02c;stroke:#ffffff;stroke-width:0.75;" x="434.807904" xlink:href="#mea22003cae" y="238.070768"/>
     <use style="fill:#2ca02c;stroke:#ffffff;stroke-width:0.75;" x="440.03752" xlink:href="#mea22003cae" y="238.349331"/>
     <use style="fill:#2ca02c;stroke:#ffffff;stroke-width:0.75;" x="445.267136" xlink:href="#mea22003cae" y="238.459963"/>
     <use style="fill:#2ca02c;stroke:#ffffff;stroke-width:0.75;" x="450.496751" xlink:href="#mea22003cae" y="238.815573"/>
     <use style="fill:#2ca02c;stroke:#ffffff;stroke-width:0.75;" x="455.726367" xlink:href="#mea22003cae" y="239.09156"/>
     <use style="fill:#2ca02c;stroke:#ffffff;stroke-width:0.75;" x="460.955983" xlink:href="#mea22003cae" y="239.462889"/>
     <use style="fill:#2ca02c;stroke:#ffffff;stroke-width:0.75;" x="466.185598" xlink:href="#mea22003cae" y="239.680698"/>
     <use style="fill:#2ca02c;stroke:#ffffff;stroke-width:0.75;" x="471.415214" xlink:href="#mea22003cae" y="239.397761"/>
     <use style="fill:#2ca02c;stroke:#ffffff;stroke-width:0.75;" x="476.64483" xlink:href="#mea22003cae" y="239.794352"/>
     <use style="fill:#2ca02c;stroke:#ffffff;stroke-width:0.75;" x="481.874446" xlink:href="#mea22003cae" y="240.064464"/>
     <use style="fill:#2ca02c;stroke:#ffffff;stroke-width:0.75;" x="487.104061" xlink:href="#mea22003cae" y="240.403154"/>
     <use style="fill:#2ca02c;stroke:#ffffff;stroke-width:0.75;" x="492.333677" xlink:href="#mea22003cae" y="240.728382"/>
     <use style="fill:#2ca02c;stroke:#ffffff;stroke-width:0.75;" x="497.563293" xlink:href="#mea22003cae" y="240.988371"/>
     <use style="fill:#2ca02c;stroke:#ffffff;stroke-width:0.75;" x="502.792909" xlink:href="#mea22003cae" y="241.288384"/>
     <use style="fill:#2ca02c;stroke:#ffffff;stroke-width:0.75;" x="508.022524" xlink:href="#mea22003cae" y="241.47917"/>
     <use style="fill:#2ca02c;stroke:#ffffff;stroke-width:0.75;" x="513.25214" xlink:href="#mea22003cae" y="241.734196"/>
     <use style="fill:#2ca02c;stroke:#ffffff;stroke-width:0.75;" x="518.481756" xlink:href="#mea22003cae" y="241.832614"/>
     <use style="fill:#2ca02c;stroke:#ffffff;stroke-width:0.75;" x="523.711372" xlink:href="#mea22003cae" y="242.174905"/>
     <use style="fill:#2ca02c;stroke:#ffffff;stroke-width:0.75;" x="528.940987" xlink:href="#mea22003cae" y="242.376171"/>
     <use style="fill:#2ca02c;stroke:#ffffff;stroke-width:0.75;" x="534.170603" xlink:href="#mea22003cae" y="242.410225"/>
     <use style="fill:#2ca02c;stroke:#ffffff;stroke-width:0.75;" x="539.400219" xlink:href="#mea22003cae" y="242.618549"/>
     <use style="fill:#2ca02c;stroke:#ffffff;stroke-width:0.75;" x="544.629835" xlink:href="#mea22003cae" y="241.983351"/>
     <use style="fill:#2ca02c;stroke:#ffffff;stroke-width:0.75;" x="549.85945" xlink:href="#mea22003cae" y="241.988284"/>
     <use style="fill:#2ca02c;stroke:#ffffff;stroke-width:0.75;" x="555.089066" xlink:href="#mea22003cae" y="242.217901"/>
     <use style="fill:#2ca02c;stroke:#ffffff;stroke-width:0.75;" x="560.318682" xlink:href="#mea22003cae" y="242.446516"/>
     <use style="fill:#2ca02c;stroke:#ffffff;stroke-width:0.75;" x="565.548298" xlink:href="#mea22003cae" y="242.52584"/>
     <use style="fill:#2ca02c;stroke:#ffffff;stroke-width:0.75;" x="570.777913" xlink:href="#mea22003cae" y="242.822273"/>
     <use style="fill:#2ca02c;stroke:#ffffff;stroke-width:0.75;" x="576.007529" xlink:href="#mea22003cae" y="243.019608"/>
     <use style="fill:#2ca02c;stroke:#ffffff;stroke-width:0.75;" x="581.237145" xlink:href="#mea22003cae" y="243.293954"/>
    </g>
   </g>
   <g id="line2d_12"/>
   <g id="line2d_13"/>
   <g id="line2d_14"/>
   <g id="patch_3">
    <path d="M 48.600781 283.277844 
L 606.600781 283.277844 
" style="fill:none;stroke:#cccccc;stroke-linecap:square;stroke-linejoin:miter;stroke-width:0.8;"/>
   </g>
   <g id="legend_1">
    <g id="patch_4">
     <path d="M 487.240625 108.701282 
L 596.100781 108.701282 
Q 599.100781 108.701282 599.100781 105.701282 
L 599.100781 21.977844 
Q 599.100781 18.977844 596.100781 18.977844 
L 487.240625 18.977844 
Q 484.240625 18.977844 484.240625 21.977844 
L 484.240625 105.701282 
Q 484.240625 108.701282 487.240625 108.701282 
z
" style="fill:#ffffff;opacity:0.8;stroke:#cccccc;stroke-linejoin:miter;"/>
    </g>
    <g id="text_17">
     <!-- Method -->
     <g style="fill:#262626;" transform="translate(516.657031 35.714563)scale(0.15 -0.15)">
      <defs>
       <path d="M 475 0 
L 475 4581 
L 1388 4581 
L 2472 1338 
Q 2622 884 2691 659 
Q 2769 909 2934 1394 
L 4031 4581 
L 4847 4581 
L 4847 0 
L 4263 0 
L 4263 3834 
L 2931 0 
L 2384 0 
L 1059 3900 
L 1059 0 
L 475 0 
z
" id="ArialMT-4d" transform="scale(0.015625)"/>
       <path d="M 1650 503 
L 1731 6 
Q 1494 -44 1306 -44 
Q 1000 -44 831 53 
Q 663 150 594 308 
Q 525 466 525 972 
L 525 2881 
L 113 2881 
L 113 3319 
L 525 3319 
L 525 4141 
L 1084 4478 
L 1084 3319 
L 1650 3319 
L 1650 2881 
L 1084 2881 
L 1084 941 
Q 1084 700 1114 631 
Q 1144 563 1211 522 
Q 1278 481 1403 481 
Q 1497 481 1650 503 
z
" id="ArialMT-74" transform="scale(0.015625)"/>
       <path d="M 422 0 
L 422 4581 
L 984 4581 
L 984 2938 
Q 1378 3394 1978 3394 
Q 2347 3394 2619 3248 
Q 2891 3103 3008 2847 
Q 3125 2591 3125 2103 
L 3125 0 
L 2563 0 
L 2563 2103 
Q 2563 2525 2380 2717 
Q 2197 2909 1863 2909 
Q 1613 2909 1392 2779 
Q 1172 2650 1078 2428 
Q 984 2206 984 1816 
L 984 0 
L 422 0 
z
" id="ArialMT-68" transform="scale(0.015625)"/>
       <path d="M 213 1659 
Q 213 2581 725 3025 
Q 1153 3394 1769 3394 
Q 2453 3394 2887 2945 
Q 3322 2497 3322 1706 
Q 3322 1066 3130 698 
Q 2938 331 2570 128 
Q 2203 -75 1769 -75 
Q 1072 -75 642 372 
Q 213 819 213 1659 
z
M 791 1659 
Q 791 1022 1069 705 
Q 1347 388 1769 388 
Q 2188 388 2466 706 
Q 2744 1025 2744 1678 
Q 2744 2294 2464 2611 
Q 2184 2928 1769 2928 
Q 1347 2928 1069 2612 
Q 791 2297 791 1659 
z
" id="ArialMT-6f" transform="scale(0.015625)"/>
      </defs>
      <use xlink:href="#ArialMT-4d"/>
      <use x="83.300781" xlink:href="#ArialMT-65"/>
      <use x="138.916016" xlink:href="#ArialMT-74"/>
      <use x="166.699219" xlink:href="#ArialMT-68"/>
      <use x="222.314453" xlink:href="#ArialMT-6f"/>
      <use x="277.929688" xlink:href="#ArialMT-64"/>
     </g>
    </g>
    <g id="line2d_15">
     <path d="M 490.240625 51.682532 
L 520.240625 51.682532 
" style="fill:none;stroke:#1f77b4;stroke-linecap:round;stroke-width:1.5;"/>
    </g>
    <g id="line2d_16">
     <g>
      <use style="fill:#1f77b4;stroke:#ffffff;stroke-width:0.75;" x="505.240625" xlink:href="#m55d649109c" y="51.682532"/>
     </g>
    </g>
    <g id="text_18">
     <!-- single -->
     <g style="fill:#262626;" transform="translate(532.240625 56.932532)scale(0.15 -0.15)">
      <defs>
       <path d="M 197 991 
L 753 1078 
Q 800 744 1014 566 
Q 1228 388 1613 388 
Q 2000 388 2187 545 
Q 2375 703 2375 916 
Q 2375 1106 2209 1216 
Q 2094 1291 1634 1406 
Q 1016 1563 777 1677 
Q 538 1791 414 1992 
Q 291 2194 291 2438 
Q 291 2659 392 2848 
Q 494 3038 669 3163 
Q 800 3259 1026 3326 
Q 1253 3394 1513 3394 
Q 1903 3394 2198 3281 
Q 2494 3169 2634 2976 
Q 2775 2784 2828 2463 
L 2278 2388 
Q 2241 2644 2061 2787 
Q 1881 2931 1553 2931 
Q 1166 2931 1000 2803 
Q 834 2675 834 2503 
Q 834 2394 903 2306 
Q 972 2216 1119 2156 
Q 1203 2125 1616 2013 
Q 2213 1853 2448 1751 
Q 2684 1650 2818 1456 
Q 2953 1263 2953 975 
Q 2953 694 2789 445 
Q 2625 197 2315 61 
Q 2006 -75 1616 -75 
Q 969 -75 630 194 
Q 291 463 197 991 
z
" id="ArialMT-73" transform="scale(0.015625)"/>
       <path d="M 425 3934 
L 425 4581 
L 988 4581 
L 988 3934 
L 425 3934 
z
M 425 0 
L 425 3319 
L 988 3319 
L 988 0 
L 425 0 
z
" id="ArialMT-69" transform="scale(0.015625)"/>
       <path d="M 319 -275 
L 866 -356 
Q 900 -609 1056 -725 
Q 1266 -881 1628 -881 
Q 2019 -881 2231 -725 
Q 2444 -569 2519 -288 
Q 2563 -116 2559 434 
Q 2191 0 1641 0 
Q 956 0 581 494 
Q 206 988 206 1678 
Q 206 2153 378 2554 
Q 550 2956 876 3175 
Q 1203 3394 1644 3394 
Q 2231 3394 2613 2919 
L 2613 3319 
L 3131 3319 
L 3131 450 
Q 3131 -325 2973 -648 
Q 2816 -972 2473 -1159 
Q 2131 -1347 1631 -1347 
Q 1038 -1347 672 -1080 
Q 306 -813 319 -275 
z
M 784 1719 
Q 784 1066 1043 766 
Q 1303 466 1694 466 
Q 2081 466 2343 764 
Q 2606 1063 2606 1700 
Q 2606 2309 2336 2618 
Q 2066 2928 1684 2928 
Q 1309 2928 1046 2623 
Q 784 2319 784 1719 
z
" id="ArialMT-67" transform="scale(0.015625)"/>
       <path d="M 409 0 
L 409 4581 
L 972 4581 
L 972 0 
L 409 0 
z
" id="ArialMT-6c" transform="scale(0.015625)"/>
      </defs>
      <use xlink:href="#ArialMT-73"/>
      <use x="50" xlink:href="#ArialMT-69"/>
      <use x="72.216797" xlink:href="#ArialMT-6e"/>
      <use x="127.832031" xlink:href="#ArialMT-67"/>
      <use x="183.447266" xlink:href="#ArialMT-6c"/>
      <use x="205.664062" xlink:href="#ArialMT-65"/>
     </g>
    </g>
    <g id="line2d_17">
     <path d="M 490.240625 73.076282 
L 520.240625 73.076282 
" style="fill:none;stroke:#ff7f0e;stroke-linecap:round;stroke-width:1.5;"/>
    </g>
    <g id="line2d_18">
     <g>
      <use style="fill:#ff7f0e;stroke:#ffffff;stroke-width:0.75;" x="505.240625" xlink:href="#m9a095c95bf" y="73.076282"/>
     </g>
    </g>
    <g id="text_19">
     <!-- complete -->
     <g style="fill:#262626;" transform="translate(532.240625 78.326282)scale(0.15 -0.15)">
      <defs>
       <path d="M 2588 1216 
L 3141 1144 
Q 3050 572 2676 248 
Q 2303 -75 1759 -75 
Q 1078 -75 664 370 
Q 250 816 250 1647 
Q 250 2184 428 2587 
Q 606 2991 970 3192 
Q 1334 3394 1763 3394 
Q 2303 3394 2647 3120 
Q 2991 2847 3088 2344 
L 2541 2259 
Q 2463 2594 2264 2762 
Q 2066 2931 1784 2931 
Q 1359 2931 1093 2626 
Q 828 2322 828 1663 
Q 828 994 1084 691 
Q 1341 388 1753 388 
Q 2084 388 2306 591 
Q 2528 794 2588 1216 
z
" id="ArialMT-63" transform="scale(0.015625)"/>
       <path d="M 422 0 
L 422 3319 
L 925 3319 
L 925 2853 
Q 1081 3097 1340 3245 
Q 1600 3394 1931 3394 
Q 2300 3394 2536 3241 
Q 2772 3088 2869 2813 
Q 3263 3394 3894 3394 
Q 4388 3394 4653 3120 
Q 4919 2847 4919 2278 
L 4919 0 
L 4359 0 
L 4359 2091 
Q 4359 2428 4304 2576 
Q 4250 2725 4106 2815 
Q 3963 2906 3769 2906 
Q 3419 2906 3187 2673 
Q 2956 2441 2956 1928 
L 2956 0 
L 2394 0 
L 2394 2156 
Q 2394 2531 2256 2718 
Q 2119 2906 1806 2906 
Q 1569 2906 1367 2781 
Q 1166 2656 1075 2415 
Q 984 2175 984 1722 
L 984 0 
L 422 0 
z
" id="ArialMT-6d" transform="scale(0.015625)"/>
       <path d="M 422 -1272 
L 422 3319 
L 934 3319 
L 934 2888 
Q 1116 3141 1344 3267 
Q 1572 3394 1897 3394 
Q 2322 3394 2647 3175 
Q 2972 2956 3137 2557 
Q 3303 2159 3303 1684 
Q 3303 1175 3120 767 
Q 2938 359 2589 142 
Q 2241 -75 1856 -75 
Q 1575 -75 1351 44 
Q 1128 163 984 344 
L 984 -1272 
L 422 -1272 
z
M 931 1641 
Q 931 1000 1190 694 
Q 1450 388 1819 388 
Q 2194 388 2461 705 
Q 2728 1022 2728 1688 
Q 2728 2322 2467 2637 
Q 2206 2953 1844 2953 
Q 1484 2953 1207 2617 
Q 931 2281 931 1641 
z
" id="ArialMT-70" transform="scale(0.015625)"/>
      </defs>
      <use xlink:href="#ArialMT-63"/>
      <use x="50" xlink:href="#ArialMT-6f"/>
      <use x="105.615234" xlink:href="#ArialMT-6d"/>
      <use x="188.916016" xlink:href="#ArialMT-70"/>
      <use x="244.53125" xlink:href="#ArialMT-6c"/>
      <use x="266.748047" xlink:href="#ArialMT-65"/>
      <use x="322.363281" xlink:href="#ArialMT-74"/>
      <use x="350.146484" xlink:href="#ArialMT-65"/>
     </g>
    </g>
    <g id="line2d_19">
     <path d="M 490.240625 94.29425 
L 520.240625 94.29425 
" style="fill:none;stroke:#2ca02c;stroke-linecap:round;stroke-width:1.5;"/>
    </g>
    <g id="line2d_20">
     <g>
      <use style="fill:#2ca02c;stroke:#ffffff;stroke-width:0.75;" x="505.240625" xlink:href="#mea22003cae" y="94.29425"/>
     </g>
    </g>
    <g id="text_20">
     <!-- weighted -->
     <g style="fill:#262626;" transform="translate(532.240625 99.54425)scale(0.15 -0.15)">
      <defs>
       <path d="M 1034 0 
L 19 3319 
L 600 3319 
L 1128 1403 
L 1325 691 
Q 1338 744 1497 1375 
L 2025 3319 
L 2603 3319 
L 3100 1394 
L 3266 759 
L 3456 1400 
L 4025 3319 
L 4572 3319 
L 3534 0 
L 2950 0 
L 2422 1988 
L 2294 2553 
L 1622 0 
L 1034 0 
z
" id="ArialMT-77" transform="scale(0.015625)"/>
      </defs>
      <use xlink:href="#ArialMT-77"/>
      <use x="72.216797" xlink:href="#ArialMT-65"/>
      <use x="127.832031" xlink:href="#ArialMT-69"/>
      <use x="150.048828" xlink:href="#ArialMT-67"/>
      <use x="205.664062" xlink:href="#ArialMT-68"/>
      <use x="261.279297" xlink:href="#ArialMT-74"/>
      <use x="289.0625" xlink:href="#ArialMT-65"/>
      <use x="344.677734" xlink:href="#ArialMT-64"/>
     </g>
    </g>
   </g>
  </g>
 </g>
 <defs>
  <clipPath id="p5be0e266d6">
   <rect height="271.8" width="558" x="48.600781" y="11.477844"/>
  </clipPath>
 </defs>
</svg>
