<?xml version="1.0" encoding="utf-8" standalone="no"?>
<!DOCTYPE svg PUBLIC "-//W3C//DTD SVG 1.1//EN"
  "http://www.w3.org/Graphics/SVG/1.1/DTD/svg11.dtd">
<svg height="325.474134pt" version="1.1" viewBox="0 0 622.142187 325.474134" width="622.142187pt" xmlns="http://www.w3.org/2000/svg" xmlns:xlink="http://www.w3.org/1999/xlink">
 <metadata>
  <rdf:RDF xmlns:cc="http://creativecommons.org/ns#" xmlns:dc="http://purl.org/dc/elements/1.1/" xmlns:rdf="http://www.w3.org/1999/02/22-rdf-syntax-ns#">
   <cc:Work>
    <dc:type rdf:resource="http://purl.org/dc/dcmitype/StillImage"/>
    <dc:date>2022-05-13T14:17:26.958526</dc:date>
    <dc:format>image/svg+xml</dc:format>
    <dc:creator>
     <cc:Agent>
      <dc:title>Matplotlib v3.4.3, https://matplotlib.org/</dc:title>
     </cc:Agent>
    </dc:creator>
   </cc:Work>
  </rdf:RDF>
 </metadata>
 <defs>
  <style type="text/css">*{stroke-linecap:butt;stroke-linejoin:round;}</style>
 </defs>
 <g id="figure_1">
  <g id="patch_1">
   <path d="M 0 325.474134 
L 622.142187 325.474134 
L 622.142187 0 
L 0 0 
z
" style="fill:#ffffff;"/>
  </g>
  <g id="axes_1">
   <g id="patch_2">
    <path d="M 56.942188 279.838197 
L 614.942188 279.838197 
L 614.942188 8.038197 
L 56.942188 8.038197 
z
" style="fill:#ffffff;"/>
   </g>
   <g id="matplotlib.axis_1">
    <g id="xtick_1">
     <g id="text_1">
      <!-- 0 -->
      <g style="fill:#262626;" transform="translate(67.675889 297.574916)scale(0.15 -0.15)">
       <defs>
        <path d="M 266 2259 
Q 266 3072 433 3567 
Q 600 4063 929 4331 
Q 1259 4600 1759 4600 
Q 2128 4600 2406 4451 
Q 2684 4303 2865 4023 
Q 3047 3744 3150 3342 
Q 3253 2941 3253 2259 
Q 3253 1453 3087 958 
Q 2922 463 2592 192 
Q 2263 -78 1759 -78 
Q 1097 -78 719 397 
Q 266 969 266 2259 
z
M 844 2259 
Q 844 1131 1108 757 
Q 1372 384 1759 384 
Q 2147 384 2411 759 
Q 2675 1134 2675 2259 
Q 2675 3391 2411 3762 
Q 2147 4134 1753 4134 
Q 1366 4134 1134 3806 
Q 844 3388 844 2259 
z
" id="ArialMT-30" transform="scale(0.015625)"/>
       </defs>
       <use xlink:href="#ArialMT-30"/>
      </g>
     </g>
    </g>
    <g id="xtick_2">
     <g id="text_2">
      <!-- 20 -->
      <g style="fill:#262626;" transform="translate(168.097501 297.574916)scale(0.15 -0.15)">
       <defs>
        <path d="M 3222 541 
L 3222 0 
L 194 0 
Q 188 203 259 391 
Q 375 700 629 1000 
Q 884 1300 1366 1694 
Q 2113 2306 2375 2664 
Q 2638 3022 2638 3341 
Q 2638 3675 2398 3904 
Q 2159 4134 1775 4134 
Q 1369 4134 1125 3890 
Q 881 3647 878 3216 
L 300 3275 
Q 359 3922 746 4261 
Q 1134 4600 1788 4600 
Q 2447 4600 2831 4234 
Q 3216 3869 3216 3328 
Q 3216 3053 3103 2787 
Q 2991 2522 2730 2228 
Q 2469 1934 1863 1422 
Q 1356 997 1212 845 
Q 1069 694 975 541 
L 3222 541 
z
" id="ArialMT-32" transform="scale(0.015625)"/>
       </defs>
       <use xlink:href="#ArialMT-32"/>
       <use x="55.615234" xlink:href="#ArialMT-30"/>
      </g>
     </g>
    </g>
    <g id="xtick_3">
     <g id="text_3">
      <!-- 40 -->
      <g style="fill:#262626;" transform="translate(272.689816 297.574916)scale(0.15 -0.15)">
       <defs>
        <path d="M 2069 0 
L 2069 1097 
L 81 1097 
L 81 1613 
L 2172 4581 
L 2631 4581 
L 2631 1613 
L 3250 1613 
L 3250 1097 
L 2631 1097 
L 2631 0 
L 2069 0 
z
M 2069 1613 
L 2069 3678 
L 634 1613 
L 2069 1613 
z
" id="ArialMT-34" transform="scale(0.015625)"/>
       </defs>
       <use xlink:href="#ArialMT-34"/>
       <use x="55.615234" xlink:href="#ArialMT-30"/>
      </g>
     </g>
    </g>
    <g id="xtick_4">
     <g id="text_4">
      <!-- 60 -->
      <g style="fill:#262626;" transform="translate(377.282131 297.574916)scale(0.15 -0.15)">
       <defs>
        <path d="M 3184 3459 
L 2625 3416 
Q 2550 3747 2413 3897 
Q 2184 4138 1850 4138 
Q 1581 4138 1378 3988 
Q 1113 3794 959 3422 
Q 806 3050 800 2363 
Q 1003 2672 1297 2822 
Q 1591 2972 1913 2972 
Q 2475 2972 2870 2558 
Q 3266 2144 3266 1488 
Q 3266 1056 3080 686 
Q 2894 316 2569 119 
Q 2244 -78 1831 -78 
Q 1128 -78 684 439 
Q 241 956 241 2144 
Q 241 3472 731 4075 
Q 1159 4600 1884 4600 
Q 2425 4600 2770 4297 
Q 3116 3994 3184 3459 
z
M 888 1484 
Q 888 1194 1011 928 
Q 1134 663 1356 523 
Q 1578 384 1822 384 
Q 2178 384 2434 671 
Q 2691 959 2691 1453 
Q 2691 1928 2437 2201 
Q 2184 2475 1800 2475 
Q 1419 2475 1153 2201 
Q 888 1928 888 1484 
z
" id="ArialMT-36" transform="scale(0.015625)"/>
       </defs>
       <use xlink:href="#ArialMT-36"/>
       <use x="55.615234" xlink:href="#ArialMT-30"/>
      </g>
     </g>
    </g>
    <g id="xtick_5">
     <g id="text_5">
      <!-- 80 -->
      <g style="fill:#262626;" transform="translate(481.874446 297.574916)scale(0.15 -0.15)">
       <defs>
        <path d="M 1131 2484 
Q 781 2613 612 2850 
Q 444 3088 444 3419 
Q 444 3919 803 4259 
Q 1163 4600 1759 4600 
Q 2359 4600 2725 4251 
Q 3091 3903 3091 3403 
Q 3091 3084 2923 2848 
Q 2756 2613 2416 2484 
Q 2838 2347 3058 2040 
Q 3278 1734 3278 1309 
Q 3278 722 2862 322 
Q 2447 -78 1769 -78 
Q 1091 -78 675 323 
Q 259 725 259 1325 
Q 259 1772 486 2073 
Q 713 2375 1131 2484 
z
M 1019 3438 
Q 1019 3113 1228 2906 
Q 1438 2700 1772 2700 
Q 2097 2700 2305 2904 
Q 2513 3109 2513 3406 
Q 2513 3716 2298 3927 
Q 2084 4138 1766 4138 
Q 1444 4138 1231 3931 
Q 1019 3725 1019 3438 
z
M 838 1322 
Q 838 1081 952 856 
Q 1066 631 1291 507 
Q 1516 384 1775 384 
Q 2178 384 2440 643 
Q 2703 903 2703 1303 
Q 2703 1709 2433 1975 
Q 2163 2241 1756 2241 
Q 1359 2241 1098 1978 
Q 838 1716 838 1322 
z
" id="ArialMT-38" transform="scale(0.015625)"/>
       </defs>
       <use xlink:href="#ArialMT-38"/>
       <use x="55.615234" xlink:href="#ArialMT-30"/>
      </g>
     </g>
    </g>
    <g id="xtick_6">
     <g id="text_6">
      <!-- 100 -->
      <g style="fill:#262626;" transform="translate(582.296058 297.574916)scale(0.15 -0.15)">
       <defs>
        <path d="M 2384 0 
L 1822 0 
L 1822 3584 
Q 1619 3391 1289 3197 
Q 959 3003 697 2906 
L 697 3450 
Q 1169 3672 1522 3987 
Q 1875 4303 2022 4600 
L 2384 4600 
L 2384 0 
z
" id="ArialMT-31" transform="scale(0.015625)"/>
       </defs>
       <use xlink:href="#ArialMT-31"/>
       <use x="55.615234" xlink:href="#ArialMT-30"/>
       <use x="111.230469" xlink:href="#ArialMT-30"/>
      </g>
     </g>
    </g>
    <g id="text_7">
     <!-- k -->
     <g style="fill:#262626;" transform="translate(332.192187 315.292884)scale(0.15 -0.15)">
      <defs>
       <path d="M 425 0 
L 425 4581 
L 988 4581 
L 988 1969 
L 2319 3319 
L 3047 3319 
L 1778 2088 
L 3175 0 
L 2481 0 
L 1384 1697 
L 988 1316 
L 988 0 
L 425 0 
z
" id="ArialMT-6b" transform="scale(0.015625)"/>
      </defs>
      <use xlink:href="#ArialMT-6b"/>
     </g>
    </g>
   </g>
   <g id="matplotlib.axis_2">
    <g id="ytick_1">
     <g id="line2d_1">
      <path clip-path="url(#p73c04c5031)" d="M 56.942188 250.614736 
L 614.942188 250.614736 
" style="fill:none;stroke:#cccccc;stroke-linecap:round;stroke-width:0.8;"/>
     </g>
     <g id="text_8">
      <!-- 20 -->
      <g style="fill:#262626;" transform="translate(33.259375 255.983095)scale(0.15 -0.15)">
       <use xlink:href="#ArialMT-32"/>
       <use x="55.615234" xlink:href="#ArialMT-30"/>
      </g>
     </g>
    </g>
    <g id="ytick_2">
     <g id="line2d_2">
      <path clip-path="url(#p73c04c5031)" d="M 56.942188 210.94034 
L 614.942188 210.94034 
" style="fill:none;stroke:#cccccc;stroke-linecap:round;stroke-width:0.8;"/>
     </g>
     <g id="text_9">
      <!-- 40 -->
      <g style="fill:#262626;" transform="translate(33.259375 216.308699)scale(0.15 -0.15)">
       <use xlink:href="#ArialMT-34"/>
       <use x="55.615234" xlink:href="#ArialMT-30"/>
      </g>
     </g>
    </g>
    <g id="ytick_3">
     <g id="line2d_3">
      <path clip-path="url(#p73c04c5031)" d="M 56.942188 171.265944 
L 614.942188 171.265944 
" style="fill:none;stroke:#cccccc;stroke-linecap:round;stroke-width:0.8;"/>
     </g>
     <g id="text_10">
      <!-- 60 -->
      <g style="fill:#262626;" transform="translate(33.259375 176.634303)scale(0.15 -0.15)">
       <use xlink:href="#ArialMT-36"/>
       <use x="55.615234" xlink:href="#ArialMT-30"/>
      </g>
     </g>
    </g>
    <g id="ytick_4">
     <g id="line2d_4">
      <path clip-path="url(#p73c04c5031)" d="M 56.942188 131.591548 
L 614.942188 131.591548 
" style="fill:none;stroke:#cccccc;stroke-linecap:round;stroke-width:0.8;"/>
     </g>
     <g id="text_11">
      <!-- 80 -->
      <g style="fill:#262626;" transform="translate(33.259375 136.959907)scale(0.15 -0.15)">
       <use xlink:href="#ArialMT-38"/>
       <use x="55.615234" xlink:href="#ArialMT-30"/>
      </g>
     </g>
    </g>
    <g id="ytick_5">
     <g id="line2d_5">
      <path clip-path="url(#p73c04c5031)" d="M 56.942188 91.917151 
L 614.942188 91.917151 
" style="fill:none;stroke:#cccccc;stroke-linecap:round;stroke-width:0.8;"/>
     </g>
     <g id="text_12">
      <!-- 100 -->
      <g style="fill:#262626;" transform="translate(24.917969 97.285511)scale(0.15 -0.15)">
       <use xlink:href="#ArialMT-31"/>
       <use x="55.615234" xlink:href="#ArialMT-30"/>
       <use x="111.230469" xlink:href="#ArialMT-30"/>
      </g>
     </g>
    </g>
    <g id="ytick_6">
     <g id="line2d_6">
      <path clip-path="url(#p73c04c5031)" d="M 56.942188 52.242755 
L 614.942188 52.242755 
" style="fill:none;stroke:#cccccc;stroke-linecap:round;stroke-width:0.8;"/>
     </g>
     <g id="text_13">
      <!-- 120 -->
      <g style="fill:#262626;" transform="translate(24.917969 57.611115)scale(0.15 -0.15)">
       <use xlink:href="#ArialMT-31"/>
       <use x="55.615234" xlink:href="#ArialMT-32"/>
       <use x="111.230469" xlink:href="#ArialMT-30"/>
      </g>
     </g>
    </g>
    <g id="ytick_7">
     <g id="line2d_7">
      <path clip-path="url(#p73c04c5031)" d="M 56.942188 12.568359 
L 614.942188 12.568359 
" style="fill:none;stroke:#cccccc;stroke-linecap:round;stroke-width:0.8;"/>
     </g>
     <g id="text_14">
      <!-- 140 -->
      <g style="fill:#262626;" transform="translate(24.917969 17.936719)scale(0.15 -0.15)">
       <use xlink:href="#ArialMT-31"/>
       <use x="55.615234" xlink:href="#ArialMT-34"/>
       <use x="111.230469" xlink:href="#ArialMT-30"/>
      </g>
     </g>
    </g>
    <g id="text_15">
     <!-- CH Index -->
     <g style="fill:#262626;" transform="translate(17.936719 175.200306)rotate(-90)scale(0.15 -0.15)">
      <defs>
       <path d="M 3763 1606 
L 4369 1453 
Q 4178 706 3683 314 
Q 3188 -78 2472 -78 
Q 1731 -78 1267 223 
Q 803 525 561 1097 
Q 319 1669 319 2325 
Q 319 3041 592 3573 
Q 866 4106 1370 4382 
Q 1875 4659 2481 4659 
Q 3169 4659 3637 4309 
Q 4106 3959 4291 3325 
L 3694 3184 
Q 3534 3684 3231 3912 
Q 2928 4141 2469 4141 
Q 1941 4141 1586 3887 
Q 1231 3634 1087 3207 
Q 944 2781 944 2328 
Q 944 1744 1114 1308 
Q 1284 872 1643 656 
Q 2003 441 2422 441 
Q 2931 441 3284 734 
Q 3638 1028 3763 1606 
z
" id="ArialMT-43" transform="scale(0.015625)"/>
       <path d="M 513 0 
L 513 4581 
L 1119 4581 
L 1119 2700 
L 3500 2700 
L 3500 4581 
L 4106 4581 
L 4106 0 
L 3500 0 
L 3500 2159 
L 1119 2159 
L 1119 0 
L 513 0 
z
" id="ArialMT-48" transform="scale(0.015625)"/>
       <path id="ArialMT-20" transform="scale(0.015625)"/>
       <path d="M 597 0 
L 597 4581 
L 1203 4581 
L 1203 0 
L 597 0 
z
" id="ArialMT-49" transform="scale(0.015625)"/>
       <path d="M 422 0 
L 422 3319 
L 928 3319 
L 928 2847 
Q 1294 3394 1984 3394 
Q 2284 3394 2536 3286 
Q 2788 3178 2913 3003 
Q 3038 2828 3088 2588 
Q 3119 2431 3119 2041 
L 3119 0 
L 2556 0 
L 2556 2019 
Q 2556 2363 2490 2533 
Q 2425 2703 2258 2804 
Q 2091 2906 1866 2906 
Q 1506 2906 1245 2678 
Q 984 2450 984 1813 
L 984 0 
L 422 0 
z
" id="ArialMT-6e" transform="scale(0.015625)"/>
       <path d="M 2575 0 
L 2575 419 
Q 2259 -75 1647 -75 
Q 1250 -75 917 144 
Q 584 363 401 755 
Q 219 1147 219 1656 
Q 219 2153 384 2558 
Q 550 2963 881 3178 
Q 1213 3394 1622 3394 
Q 1922 3394 2156 3267 
Q 2391 3141 2538 2938 
L 2538 4581 
L 3097 4581 
L 3097 0 
L 2575 0 
z
M 797 1656 
Q 797 1019 1065 703 
Q 1334 388 1700 388 
Q 2069 388 2326 689 
Q 2584 991 2584 1609 
Q 2584 2291 2321 2609 
Q 2059 2928 1675 2928 
Q 1300 2928 1048 2622 
Q 797 2316 797 1656 
z
" id="ArialMT-64" transform="scale(0.015625)"/>
       <path d="M 2694 1069 
L 3275 997 
Q 3138 488 2766 206 
Q 2394 -75 1816 -75 
Q 1088 -75 661 373 
Q 234 822 234 1631 
Q 234 2469 665 2931 
Q 1097 3394 1784 3394 
Q 2450 3394 2872 2941 
Q 3294 2488 3294 1666 
Q 3294 1616 3291 1516 
L 816 1516 
Q 847 969 1125 678 
Q 1403 388 1819 388 
Q 2128 388 2347 550 
Q 2566 713 2694 1069 
z
M 847 1978 
L 2700 1978 
Q 2663 2397 2488 2606 
Q 2219 2931 1791 2931 
Q 1403 2931 1139 2672 
Q 875 2413 847 1978 
z
" id="ArialMT-65" transform="scale(0.015625)"/>
       <path d="M 47 0 
L 1259 1725 
L 138 3319 
L 841 3319 
L 1350 2541 
Q 1494 2319 1581 2169 
Q 1719 2375 1834 2534 
L 2394 3319 
L 3066 3319 
L 1919 1756 
L 3153 0 
L 2463 0 
L 1781 1031 
L 1600 1309 
L 728 0 
L 47 0 
z
" id="ArialMT-78" transform="scale(0.015625)"/>
      </defs>
      <use xlink:href="#ArialMT-43"/>
      <use x="72.216797" xlink:href="#ArialMT-48"/>
      <use x="144.433594" xlink:href="#ArialMT-20"/>
      <use x="172.216797" xlink:href="#ArialMT-49"/>
      <use x="200" xlink:href="#ArialMT-6e"/>
      <use x="255.615234" xlink:href="#ArialMT-64"/>
      <use x="311.230469" xlink:href="#ArialMT-65"/>
      <use x="366.845703" xlink:href="#ArialMT-78"/>
     </g>
    </g>
   </g>
   <g id="line2d_8">
    <path clip-path="url(#p73c04c5031)" d="M 82.305824 20.392742 
L 87.53544 57.383662 
L 92.765055 97.505591 
L 97.994671 116.612036 
L 103.224287 131.772908 
L 108.453903 145.027573 
L 113.683518 157.682621 
L 118.913134 167.943158 
L 124.14275 175.966191 
L 129.372366 182.786702 
L 134.601981 188.785109 
L 139.831597 193.951517 
L 145.061213 198.889404 
L 150.290829 202.242867 
L 155.520444 206.448106 
L 160.75006 209.733684 
L 165.979676 212.458341 
L 171.209292 215.213716 
L 176.438907 218.243129 
L 181.668523 220.513172 
L 186.898139 222.776142 
L 192.127755 224.634791 
L 197.35737 227.459876 
L 202.586986 228.793996 
L 207.816602 230.423781 
L 213.046217 232.333999 
L 218.275833 233.49873 
L 223.505449 235.28274 
L 228.735065 236.502829 
L 233.96468 237.794116 
L 239.194296 239.136896 
L 244.423912 240.084437 
L 249.653528 240.885143 
L 254.883143 242.04131 
L 260.112759 242.977817 
L 265.342375 244.29183 
L 270.571991 244.588994 
L 275.801606 245.75687 
L 281.031222 246.762544 
L 286.260838 247.442811 
L 291.490454 248.230909 
L 296.720069 248.988433 
L 301.949685 249.366856 
L 307.179301 250.416787 
L 312.408917 250.735866 
L 317.638532 251.707535 
L 322.868148 251.721074 
L 328.097764 252.719663 
L 333.32738 253.406747 
L 338.556995 253.859637 
L 343.786611 254.157329 
L 349.016227 254.875217 
L 354.245843 255.302675 
L 359.475458 255.942388 
L 364.705074 256.246328 
L 369.93469 256.709459 
L 375.164306 256.802321 
L 380.393921 257.32767 
L 385.623537 257.744041 
L 390.853153 258.121455 
L 396.082769 258.569651 
L 401.312384 258.849718 
L 406.542 259.234302 
L 411.771616 259.523736 
L 417.001232 260.144036 
L 422.230847 260.281689 
L 427.460463 260.684173 
L 432.690079 260.911728 
L 437.919695 261.190259 
L 443.14931 261.547642 
L 448.378926 261.87637 
L 453.608542 262.028572 
L 458.838158 262.432858 
L 464.067773 262.485826 
L 469.297389 262.87529 
L 474.527005 263.221538 
L 479.75662 263.44705 
L 484.986236 263.604121 
L 490.215852 263.917852 
L 495.445468 264.130102 
L 500.675083 264.376829 
L 505.904699 264.582517 
L 511.134315 264.821479 
L 516.363931 265.055708 
L 521.593546 265.15535 
L 526.823162 265.439109 
L 532.052778 265.69238 
L 537.282394 265.888312 
L 542.512009 266.058434 
L 547.741625 265.960176 
L 552.971241 266.300608 
L 558.200857 266.476764 
L 563.430472 266.674019 
L 568.660088 266.903437 
L 573.889704 267.018326 
L 579.11932 267.152931 
L 584.348935 267.373238 
L 589.578551 267.483651 
" style="fill:none;stroke:#4e79a7;stroke-linecap:round;stroke-width:1.5;"/>
    <defs>
     <path d="M 0 3 
C 0.795609 3 1.55874 2.683901 2.12132 2.12132 
C 2.683901 1.55874 3 0.795609 3 0 
C 3 -0.795609 2.683901 -1.55874 2.12132 -2.12132 
C 1.55874 -2.683901 0.795609 -3 0 -3 
C -0.795609 -3 -1.55874 -2.683901 -2.12132 -2.12132 
C -2.683901 -1.55874 -3 -0.795609 -3 0 
C -3 0.795609 -2.683901 1.55874 -2.12132 2.12132 
C -1.55874 2.683901 -0.795609 3 0 3 
z
" id="m645ee10640" style="stroke:#ffffff;stroke-width:0.75;"/>
    </defs>
    <g clip-path="url(#p73c04c5031)">
     <use style="fill:#4e79a7;stroke:#ffffff;stroke-width:0.75;" x="82.305824" xlink:href="#m645ee10640" y="20.392742"/>
     <use style="fill:#4e79a7;stroke:#ffffff;stroke-width:0.75;" x="87.53544" xlink:href="#m645ee10640" y="57.383662"/>
     <use style="fill:#4e79a7;stroke:#ffffff;stroke-width:0.75;" x="92.765055" xlink:href="#m645ee10640" y="97.505591"/>
     <use style="fill:#4e79a7;stroke:#ffffff;stroke-width:0.75;" x="97.994671" xlink:href="#m645ee10640" y="116.612036"/>
     <use style="fill:#4e79a7;stroke:#ffffff;stroke-width:0.75;" x="103.224287" xlink:href="#m645ee10640" y="131.772908"/>
     <use style="fill:#4e79a7;stroke:#ffffff;stroke-width:0.75;" x="108.453903" xlink:href="#m645ee10640" y="145.027573"/>
     <use style="fill:#4e79a7;stroke:#ffffff;stroke-width:0.75;" x="113.683518" xlink:href="#m645ee10640" y="157.682621"/>
     <use style="fill:#4e79a7;stroke:#ffffff;stroke-width:0.75;" x="118.913134" xlink:href="#m645ee10640" y="167.943158"/>
     <use style="fill:#4e79a7;stroke:#ffffff;stroke-width:0.75;" x="124.14275" xlink:href="#m645ee10640" y="175.966191"/>
     <use style="fill:#4e79a7;stroke:#ffffff;stroke-width:0.75;" x="129.372366" xlink:href="#m645ee10640" y="182.786702"/>
     <use style="fill:#4e79a7;stroke:#ffffff;stroke-width:0.75;" x="134.601981" xlink:href="#m645ee10640" y="188.785109"/>
     <use style="fill:#4e79a7;stroke:#ffffff;stroke-width:0.75;" x="139.831597" xlink:href="#m645ee10640" y="193.951517"/>
     <use style="fill:#4e79a7;stroke:#ffffff;stroke-width:0.75;" x="145.061213" xlink:href="#m645ee10640" y="198.889404"/>
     <use style="fill:#4e79a7;stroke:#ffffff;stroke-width:0.75;" x="150.290829" xlink:href="#m645ee10640" y="202.242867"/>
     <use style="fill:#4e79a7;stroke:#ffffff;stroke-width:0.75;" x="155.520444" xlink:href="#m645ee10640" y="206.448106"/>
     <use style="fill:#4e79a7;stroke:#ffffff;stroke-width:0.75;" x="160.75006" xlink:href="#m645ee10640" y="209.733684"/>
     <use style="fill:#4e79a7;stroke:#ffffff;stroke-width:0.75;" x="165.979676" xlink:href="#m645ee10640" y="212.458341"/>
     <use style="fill:#4e79a7;stroke:#ffffff;stroke-width:0.75;" x="171.209292" xlink:href="#m645ee10640" y="215.213716"/>
     <use style="fill:#4e79a7;stroke:#ffffff;stroke-width:0.75;" x="176.438907" xlink:href="#m645ee10640" y="218.243129"/>
     <use style="fill:#4e79a7;stroke:#ffffff;stroke-width:0.75;" x="181.668523" xlink:href="#m645ee10640" y="220.513172"/>
     <use style="fill:#4e79a7;stroke:#ffffff;stroke-width:0.75;" x="186.898139" xlink:href="#m645ee10640" y="222.776142"/>
     <use style="fill:#4e79a7;stroke:#ffffff;stroke-width:0.75;" x="192.127755" xlink:href="#m645ee10640" y="224.634791"/>
     <use style="fill:#4e79a7;stroke:#ffffff;stroke-width:0.75;" x="197.35737" xlink:href="#m645ee10640" y="227.459876"/>
     <use style="fill:#4e79a7;stroke:#ffffff;stroke-width:0.75;" x="202.586986" xlink:href="#m645ee10640" y="228.793996"/>
     <use style="fill:#4e79a7;stroke:#ffffff;stroke-width:0.75;" x="207.816602" xlink:href="#m645ee10640" y="230.423781"/>
     <use style="fill:#4e79a7;stroke:#ffffff;stroke-width:0.75;" x="213.046217" xlink:href="#m645ee10640" y="232.333999"/>
     <use style="fill:#4e79a7;stroke:#ffffff;stroke-width:0.75;" x="218.275833" xlink:href="#m645ee10640" y="233.49873"/>
     <use style="fill:#4e79a7;stroke:#ffffff;stroke-width:0.75;" x="223.505449" xlink:href="#m645ee10640" y="235.28274"/>
     <use style="fill:#4e79a7;stroke:#ffffff;stroke-width:0.75;" x="228.735065" xlink:href="#m645ee10640" y="236.502829"/>
     <use style="fill:#4e79a7;stroke:#ffffff;stroke-width:0.75;" x="233.96468" xlink:href="#m645ee10640" y="237.794116"/>
     <use style="fill:#4e79a7;stroke:#ffffff;stroke-width:0.75;" x="239.194296" xlink:href="#m645ee10640" y="239.136896"/>
     <use style="fill:#4e79a7;stroke:#ffffff;stroke-width:0.75;" x="244.423912" xlink:href="#m645ee10640" y="240.084437"/>
     <use style="fill:#4e79a7;stroke:#ffffff;stroke-width:0.75;" x="249.653528" xlink:href="#m645ee10640" y="240.885143"/>
     <use style="fill:#4e79a7;stroke:#ffffff;stroke-width:0.75;" x="254.883143" xlink:href="#m645ee10640" y="242.04131"/>
     <use style="fill:#4e79a7;stroke:#ffffff;stroke-width:0.75;" x="260.112759" xlink:href="#m645ee10640" y="242.977817"/>
     <use style="fill:#4e79a7;stroke:#ffffff;stroke-width:0.75;" x="265.342375" xlink:href="#m645ee10640" y="244.29183"/>
     <use style="fill:#4e79a7;stroke:#ffffff;stroke-width:0.75;" x="270.571991" xlink:href="#m645ee10640" y="244.588994"/>
     <use style="fill:#4e79a7;stroke:#ffffff;stroke-width:0.75;" x="275.801606" xlink:href="#m645ee10640" y="245.75687"/>
     <use style="fill:#4e79a7;stroke:#ffffff;stroke-width:0.75;" x="281.031222" xlink:href="#m645ee10640" y="246.762544"/>
     <use style="fill:#4e79a7;stroke:#ffffff;stroke-width:0.75;" x="286.260838" xlink:href="#m645ee10640" y="247.442811"/>
     <use style="fill:#4e79a7;stroke:#ffffff;stroke-width:0.75;" x="291.490454" xlink:href="#m645ee10640" y="248.230909"/>
     <use style="fill:#4e79a7;stroke:#ffffff;stroke-width:0.75;" x="296.720069" xlink:href="#m645ee10640" y="248.988433"/>
     <use style="fill:#4e79a7;stroke:#ffffff;stroke-width:0.75;" x="301.949685" xlink:href="#m645ee10640" y="249.366856"/>
     <use style="fill:#4e79a7;stroke:#ffffff;stroke-width:0.75;" x="307.179301" xlink:href="#m645ee10640" y="250.416787"/>
     <use style="fill:#4e79a7;stroke:#ffffff;stroke-width:0.75;" x="312.408917" xlink:href="#m645ee10640" y="250.735866"/>
     <use style="fill:#4e79a7;stroke:#ffffff;stroke-width:0.75;" x="317.638532" xlink:href="#m645ee10640" y="251.707535"/>
     <use style="fill:#4e79a7;stroke:#ffffff;stroke-width:0.75;" x="322.868148" xlink:href="#m645ee10640" y="251.721074"/>
     <use style="fill:#4e79a7;stroke:#ffffff;stroke-width:0.75;" x="328.097764" xlink:href="#m645ee10640" y="252.719663"/>
     <use style="fill:#4e79a7;stroke:#ffffff;stroke-width:0.75;" x="333.32738" xlink:href="#m645ee10640" y="253.406747"/>
     <use style="fill:#4e79a7;stroke:#ffffff;stroke-width:0.75;" x="338.556995" xlink:href="#m645ee10640" y="253.859637"/>
     <use style="fill:#4e79a7;stroke:#ffffff;stroke-width:0.75;" x="343.786611" xlink:href="#m645ee10640" y="254.157329"/>
     <use style="fill:#4e79a7;stroke:#ffffff;stroke-width:0.75;" x="349.016227" xlink:href="#m645ee10640" y="254.875217"/>
     <use style="fill:#4e79a7;stroke:#ffffff;stroke-width:0.75;" x="354.245843" xlink:href="#m645ee10640" y="255.302675"/>
     <use style="fill:#4e79a7;stroke:#ffffff;stroke-width:0.75;" x="359.475458" xlink:href="#m645ee10640" y="255.942388"/>
     <use style="fill:#4e79a7;stroke:#ffffff;stroke-width:0.75;" x="364.705074" xlink:href="#m645ee10640" y="256.246328"/>
     <use style="fill:#4e79a7;stroke:#ffffff;stroke-width:0.75;" x="369.93469" xlink:href="#m645ee10640" y="256.709459"/>
     <use style="fill:#4e79a7;stroke:#ffffff;stroke-width:0.75;" x="375.164306" xlink:href="#m645ee10640" y="256.802321"/>
     <use style="fill:#4e79a7;stroke:#ffffff;stroke-width:0.75;" x="380.393921" xlink:href="#m645ee10640" y="257.32767"/>
     <use style="fill:#4e79a7;stroke:#ffffff;stroke-width:0.75;" x="385.623537" xlink:href="#m645ee10640" y="257.744041"/>
     <use style="fill:#4e79a7;stroke:#ffffff;stroke-width:0.75;" x="390.853153" xlink:href="#m645ee10640" y="258.121455"/>
     <use style="fill:#4e79a7;stroke:#ffffff;stroke-width:0.75;" x="396.082769" xlink:href="#m645ee10640" y="258.569651"/>
     <use style="fill:#4e79a7;stroke:#ffffff;stroke-width:0.75;" x="401.312384" xlink:href="#m645ee10640" y="258.849718"/>
     <use style="fill:#4e79a7;stroke:#ffffff;stroke-width:0.75;" x="406.542" xlink:href="#m645ee10640" y="259.234302"/>
     <use style="fill:#4e79a7;stroke:#ffffff;stroke-width:0.75;" x="411.771616" xlink:href="#m645ee10640" y="259.523736"/>
     <use style="fill:#4e79a7;stroke:#ffffff;stroke-width:0.75;" x="417.001232" xlink:href="#m645ee10640" y="260.144036"/>
     <use style="fill:#4e79a7;stroke:#ffffff;stroke-width:0.75;" x="422.230847" xlink:href="#m645ee10640" y="260.281689"/>
     <use style="fill:#4e79a7;stroke:#ffffff;stroke-width:0.75;" x="427.460463" xlink:href="#m645ee10640" y="260.684173"/>
     <use style="fill:#4e79a7;stroke:#ffffff;stroke-width:0.75;" x="432.690079" xlink:href="#m645ee10640" y="260.911728"/>
     <use style="fill:#4e79a7;stroke:#ffffff;stroke-width:0.75;" x="437.919695" xlink:href="#m645ee10640" y="261.190259"/>
     <use style="fill:#4e79a7;stroke:#ffffff;stroke-width:0.75;" x="443.14931" xlink:href="#m645ee10640" y="261.547642"/>
     <use style="fill:#4e79a7;stroke:#ffffff;stroke-width:0.75;" x="448.378926" xlink:href="#m645ee10640" y="261.87637"/>
     <use style="fill:#4e79a7;stroke:#ffffff;stroke-width:0.75;" x="453.608542" xlink:href="#m645ee10640" y="262.028572"/>
     <use style="fill:#4e79a7;stroke:#ffffff;stroke-width:0.75;" x="458.838158" xlink:href="#m645ee10640" y="262.432858"/>
     <use style="fill:#4e79a7;stroke:#ffffff;stroke-width:0.75;" x="464.067773" xlink:href="#m645ee10640" y="262.485826"/>
     <use style="fill:#4e79a7;stroke:#ffffff;stroke-width:0.75;" x="469.297389" xlink:href="#m645ee10640" y="262.87529"/>
     <use style="fill:#4e79a7;stroke:#ffffff;stroke-width:0.75;" x="474.527005" xlink:href="#m645ee10640" y="263.221538"/>
     <use style="fill:#4e79a7;stroke:#ffffff;stroke-width:0.75;" x="479.75662" xlink:href="#m645ee10640" y="263.44705"/>
     <use style="fill:#4e79a7;stroke:#ffffff;stroke-width:0.75;" x="484.986236" xlink:href="#m645ee10640" y="263.604121"/>
     <use style="fill:#4e79a7;stroke:#ffffff;stroke-width:0.75;" x="490.215852" xlink:href="#m645ee10640" y="263.917852"/>
     <use style="fill:#4e79a7;stroke:#ffffff;stroke-width:0.75;" x="495.445468" xlink:href="#m645ee10640" y="264.130102"/>
     <use style="fill:#4e79a7;stroke:#ffffff;stroke-width:0.75;" x="500.675083" xlink:href="#m645ee10640" y="264.376829"/>
     <use style="fill:#4e79a7;stroke:#ffffff;stroke-width:0.75;" x="505.904699" xlink:href="#m645ee10640" y="264.582517"/>
     <use style="fill:#4e79a7;stroke:#ffffff;stroke-width:0.75;" x="511.134315" xlink:href="#m645ee10640" y="264.821479"/>
     <use style="fill:#4e79a7;stroke:#ffffff;stroke-width:0.75;" x="516.363931" xlink:href="#m645ee10640" y="265.055708"/>
     <use style="fill:#4e79a7;stroke:#ffffff;stroke-width:0.75;" x="521.593546" xlink:href="#m645ee10640" y="265.15535"/>
     <use style="fill:#4e79a7;stroke:#ffffff;stroke-width:0.75;" x="526.823162" xlink:href="#m645ee10640" y="265.439109"/>
     <use style="fill:#4e79a7;stroke:#ffffff;stroke-width:0.75;" x="532.052778" xlink:href="#m645ee10640" y="265.69238"/>
     <use style="fill:#4e79a7;stroke:#ffffff;stroke-width:0.75;" x="537.282394" xlink:href="#m645ee10640" y="265.888312"/>
     <use style="fill:#4e79a7;stroke:#ffffff;stroke-width:0.75;" x="542.512009" xlink:href="#m645ee10640" y="266.058434"/>
     <use style="fill:#4e79a7;stroke:#ffffff;stroke-width:0.75;" x="547.741625" xlink:href="#m645ee10640" y="265.960176"/>
     <use style="fill:#4e79a7;stroke:#ffffff;stroke-width:0.75;" x="552.971241" xlink:href="#m645ee10640" y="266.300608"/>
     <use style="fill:#4e79a7;stroke:#ffffff;stroke-width:0.75;" x="558.200857" xlink:href="#m645ee10640" y="266.476764"/>
     <use style="fill:#4e79a7;stroke:#ffffff;stroke-width:0.75;" x="563.430472" xlink:href="#m645ee10640" y="266.674019"/>
     <use style="fill:#4e79a7;stroke:#ffffff;stroke-width:0.75;" x="568.660088" xlink:href="#m645ee10640" y="266.903437"/>
     <use style="fill:#4e79a7;stroke:#ffffff;stroke-width:0.75;" x="573.889704" xlink:href="#m645ee10640" y="267.018326"/>
     <use style="fill:#4e79a7;stroke:#ffffff;stroke-width:0.75;" x="579.11932" xlink:href="#m645ee10640" y="267.152931"/>
     <use style="fill:#4e79a7;stroke:#ffffff;stroke-width:0.75;" x="584.348935" xlink:href="#m645ee10640" y="267.373238"/>
     <use style="fill:#4e79a7;stroke:#ffffff;stroke-width:0.75;" x="589.578551" xlink:href="#m645ee10640" y="267.483651"/>
    </g>
   </g>
   <g id="patch_3">
    <path d="M 56.942188 279.838197 
L 614.942188 279.838197 
" style="fill:none;stroke:#cccccc;stroke-linecap:square;stroke-linejoin:miter;stroke-width:0.8;"/>
   </g>
  </g>
 </g>
 <defs>
  <clipPath id="p73c04c5031">
   <rect height="271.8" width="558" x="56.942188" y="8.038197"/>
  </clipPath>
 </defs>
</svg>
