<?xml version="1.0" encoding="utf-8" standalone="no"?>
<!DOCTYPE svg PUBLIC "-//W3C//DTD SVG 1.1//EN"
  "http://www.w3.org/Graphics/SVG/1.1/DTD/svg11.dtd">
<svg height="324.635938pt" version="1.1" viewBox="0 0 914.070312 324.635938" width="914.070312pt" xmlns="http://www.w3.org/2000/svg" xmlns:xlink="http://www.w3.org/1999/xlink">
 <metadata>
  <rdf:RDF xmlns:cc="http://creativecommons.org/ns#" xmlns:dc="http://purl.org/dc/elements/1.1/" xmlns:rdf="http://www.w3.org/1999/02/22-rdf-syntax-ns#">
   <cc:Work>
    <dc:type rdf:resource="http://purl.org/dc/dcmitype/StillImage"/>
    <dc:date>2022-05-13T14:50:03.342344</dc:date>
    <dc:format>image/svg+xml</dc:format>
    <dc:creator>
     <cc:Agent>
      <dc:title>Matplotlib v3.4.3, https://matplotlib.org/</dc:title>
     </cc:Agent>
    </dc:creator>
   </cc:Work>
  </rdf:RDF>
 </metadata>
 <defs>
  <style type="text/css">*{stroke-linecap:butt;stroke-linejoin:round;}</style>
 </defs>
 <g id="figure_1">
  <g id="patch_1">
   <path d="M 0 324.635938 
L 914.070312 324.635938 
L 914.070312 0 
L 0 0 
z
" style="fill:#ffffff;"/>
  </g>
  <g id="axes_1">
   <g id="patch_2">
    <path d="M 69.870312 279 
L 906.870312 279 
L 906.870312 7.2 
L 69.870312 7.2 
z
" style="fill:#ffffff;"/>
   </g>
   <g id="matplotlib.axis_1">
    <g id="xtick_1">
     <g id="text_1">
      <!-- 0 -->
      <g style="fill:#262626;" transform="translate(88.056217 296.736719)scale(0.15 -0.15)">
       <defs>
        <path d="M 266 2259 
Q 266 3072 433 3567 
Q 600 4063 929 4331 
Q 1259 4600 1759 4600 
Q 2128 4600 2406 4451 
Q 2684 4303 2865 4023 
Q 3047 3744 3150 3342 
Q 3253 2941 3253 2259 
Q 3253 1453 3087 958 
Q 2922 463 2592 192 
Q 2263 -78 1759 -78 
Q 1097 -78 719 397 
Q 266 969 266 2259 
z
M 844 2259 
Q 844 1131 1108 757 
Q 1372 384 1759 384 
Q 2147 384 2411 759 
Q 2675 1134 2675 2259 
Q 2675 3391 2411 3762 
Q 2147 4134 1753 4134 
Q 1366 4134 1134 3806 
Q 844 3388 844 2259 
z
" id="ArialMT-30" transform="scale(0.015625)"/>
       </defs>
       <use xlink:href="#ArialMT-30"/>
      </g>
     </g>
    </g>
    <g id="xtick_2">
     <g id="text_2">
      <!-- 20 -->
      <g style="fill:#262626;" transform="translate(240.773986 296.736719)scale(0.15 -0.15)">
       <defs>
        <path d="M 3222 541 
L 3222 0 
L 194 0 
Q 188 203 259 391 
Q 375 700 629 1000 
Q 884 1300 1366 1694 
Q 2113 2306 2375 2664 
Q 2638 3022 2638 3341 
Q 2638 3675 2398 3904 
Q 2159 4134 1775 4134 
Q 1369 4134 1125 3890 
Q 881 3647 878 3216 
L 300 3275 
Q 359 3922 746 4261 
Q 1134 4600 1788 4600 
Q 2447 4600 2831 4234 
Q 3216 3869 3216 3328 
Q 3216 3053 3103 2787 
Q 2991 2522 2730 2228 
Q 2469 1934 1863 1422 
Q 1356 997 1212 845 
Q 1069 694 975 541 
L 3222 541 
z
" id="ArialMT-32" transform="scale(0.015625)"/>
       </defs>
       <use xlink:href="#ArialMT-32"/>
       <use x="55.615234" xlink:href="#ArialMT-30"/>
      </g>
     </g>
    </g>
    <g id="xtick_3">
     <g id="text_3">
      <!-- 40 -->
      <g style="fill:#262626;" transform="translate(397.662458 296.736719)scale(0.15 -0.15)">
       <defs>
        <path d="M 2069 0 
L 2069 1097 
L 81 1097 
L 81 1613 
L 2172 4581 
L 2631 4581 
L 2631 1613 
L 3250 1613 
L 3250 1097 
L 2631 1097 
L 2631 0 
L 2069 0 
z
M 2069 1613 
L 2069 3678 
L 634 1613 
L 2069 1613 
z
" id="ArialMT-34" transform="scale(0.015625)"/>
       </defs>
       <use xlink:href="#ArialMT-34"/>
       <use x="55.615234" xlink:href="#ArialMT-30"/>
      </g>
     </g>
    </g>
    <g id="xtick_4">
     <g id="text_4">
      <!-- 60 -->
      <g style="fill:#262626;" transform="translate(554.550931 296.736719)scale(0.15 -0.15)">
       <defs>
        <path d="M 3184 3459 
L 2625 3416 
Q 2550 3747 2413 3897 
Q 2184 4138 1850 4138 
Q 1581 4138 1378 3988 
Q 1113 3794 959 3422 
Q 806 3050 800 2363 
Q 1003 2672 1297 2822 
Q 1591 2972 1913 2972 
Q 2475 2972 2870 2558 
Q 3266 2144 3266 1488 
Q 3266 1056 3080 686 
Q 2894 316 2569 119 
Q 2244 -78 1831 -78 
Q 1128 -78 684 439 
Q 241 956 241 2144 
Q 241 3472 731 4075 
Q 1159 4600 1884 4600 
Q 2425 4600 2770 4297 
Q 3116 3994 3184 3459 
z
M 888 1484 
Q 888 1194 1011 928 
Q 1134 663 1356 523 
Q 1578 384 1822 384 
Q 2178 384 2434 671 
Q 2691 959 2691 1453 
Q 2691 1928 2437 2201 
Q 2184 2475 1800 2475 
Q 1419 2475 1153 2201 
Q 888 1928 888 1484 
z
" id="ArialMT-36" transform="scale(0.015625)"/>
       </defs>
       <use xlink:href="#ArialMT-36"/>
       <use x="55.615234" xlink:href="#ArialMT-30"/>
      </g>
     </g>
    </g>
    <g id="xtick_5">
     <g id="text_5">
      <!-- 80 -->
      <g style="fill:#262626;" transform="translate(711.439403 296.736719)scale(0.15 -0.15)">
       <defs>
        <path d="M 1131 2484 
Q 781 2613 612 2850 
Q 444 3088 444 3419 
Q 444 3919 803 4259 
Q 1163 4600 1759 4600 
Q 2359 4600 2725 4251 
Q 3091 3903 3091 3403 
Q 3091 3084 2923 2848 
Q 2756 2613 2416 2484 
Q 2838 2347 3058 2040 
Q 3278 1734 3278 1309 
Q 3278 722 2862 322 
Q 2447 -78 1769 -78 
Q 1091 -78 675 323 
Q 259 725 259 1325 
Q 259 1772 486 2073 
Q 713 2375 1131 2484 
z
M 1019 3438 
Q 1019 3113 1228 2906 
Q 1438 2700 1772 2700 
Q 2097 2700 2305 2904 
Q 2513 3109 2513 3406 
Q 2513 3716 2298 3927 
Q 2084 4138 1766 4138 
Q 1444 4138 1231 3931 
Q 1019 3725 1019 3438 
z
M 838 1322 
Q 838 1081 952 856 
Q 1066 631 1291 507 
Q 1516 384 1775 384 
Q 2178 384 2440 643 
Q 2703 903 2703 1303 
Q 2703 1709 2433 1975 
Q 2163 2241 1756 2241 
Q 1359 2241 1098 1978 
Q 838 1716 838 1322 
z
" id="ArialMT-38" transform="scale(0.015625)"/>
       </defs>
       <use xlink:href="#ArialMT-38"/>
       <use x="55.615234" xlink:href="#ArialMT-30"/>
      </g>
     </g>
    </g>
    <g id="xtick_6">
     <g id="text_6">
      <!-- 100 -->
      <g style="fill:#262626;" transform="translate(864.157172 296.736719)scale(0.15 -0.15)">
       <defs>
        <path d="M 2384 0 
L 1822 0 
L 1822 3584 
Q 1619 3391 1289 3197 
Q 959 3003 697 2906 
L 697 3450 
Q 1169 3672 1522 3987 
Q 1875 4303 2022 4600 
L 2384 4600 
L 2384 0 
z
" id="ArialMT-31" transform="scale(0.015625)"/>
       </defs>
       <use xlink:href="#ArialMT-31"/>
       <use x="55.615234" xlink:href="#ArialMT-30"/>
       <use x="111.230469" xlink:href="#ArialMT-30"/>
      </g>
     </g>
    </g>
    <g id="text_7">
     <!-- k -->
     <g style="fill:#262626;" transform="translate(484.620313 314.454688)scale(0.15 -0.15)">
      <defs>
       <path d="M 425 0 
L 425 4581 
L 988 4581 
L 988 1969 
L 2319 3319 
L 3047 3319 
L 1778 2088 
L 3175 0 
L 2481 0 
L 1384 1697 
L 988 1316 
L 988 0 
L 425 0 
z
" id="ArialMT-6b" transform="scale(0.015625)"/>
      </defs>
      <use xlink:href="#ArialMT-6b"/>
     </g>
    </g>
   </g>
   <g id="matplotlib.axis_2">
    <g id="ytick_1">
     <g id="line2d_1">
      <path clip-path="url(#p812264f531)" d="M 69.870312 262.226246 
L 906.870312 262.226246 
" style="fill:none;stroke:#cccccc;stroke-linecap:round;stroke-width:0.8;"/>
     </g>
     <g id="text_8">
      <!-- −0.15 -->
      <g style="fill:#262626;" transform="translate(24.917969 267.594606)scale(0.15 -0.15)">
       <defs>
        <path d="M 3381 1997 
L 356 1997 
L 356 2522 
L 3381 2522 
L 3381 1997 
z
" id="ArialMT-2212" transform="scale(0.015625)"/>
        <path d="M 581 0 
L 581 641 
L 1222 641 
L 1222 0 
L 581 0 
z
" id="ArialMT-2e" transform="scale(0.015625)"/>
        <path d="M 266 1200 
L 856 1250 
Q 922 819 1161 601 
Q 1400 384 1738 384 
Q 2144 384 2425 690 
Q 2706 997 2706 1503 
Q 2706 1984 2436 2262 
Q 2166 2541 1728 2541 
Q 1456 2541 1237 2417 
Q 1019 2294 894 2097 
L 366 2166 
L 809 4519 
L 3088 4519 
L 3088 3981 
L 1259 3981 
L 1013 2750 
Q 1425 3038 1878 3038 
Q 2478 3038 2890 2622 
Q 3303 2206 3303 1553 
Q 3303 931 2941 478 
Q 2500 -78 1738 -78 
Q 1113 -78 717 272 
Q 322 622 266 1200 
z
" id="ArialMT-35" transform="scale(0.015625)"/>
       </defs>
       <use xlink:href="#ArialMT-2212"/>
       <use x="58.398438" xlink:href="#ArialMT-30"/>
       <use x="114.013672" xlink:href="#ArialMT-2e"/>
       <use x="141.796875" xlink:href="#ArialMT-31"/>
       <use x="197.412109" xlink:href="#ArialMT-35"/>
      </g>
     </g>
    </g>
    <g id="ytick_2">
     <g id="line2d_2">
      <path clip-path="url(#p812264f531)" d="M 69.870312 229.283589 
L 906.870312 229.283589 
" style="fill:none;stroke:#cccccc;stroke-linecap:round;stroke-width:0.8;"/>
     </g>
     <g id="text_9">
      <!-- −0.10 -->
      <g style="fill:#262626;" transform="translate(24.917969 234.651948)scale(0.15 -0.15)">
       <use xlink:href="#ArialMT-2212"/>
       <use x="58.398438" xlink:href="#ArialMT-30"/>
       <use x="114.013672" xlink:href="#ArialMT-2e"/>
       <use x="141.796875" xlink:href="#ArialMT-31"/>
       <use x="197.412109" xlink:href="#ArialMT-30"/>
      </g>
     </g>
    </g>
    <g id="ytick_3">
     <g id="line2d_3">
      <path clip-path="url(#p812264f531)" d="M 69.870312 196.340932 
L 906.870312 196.340932 
" style="fill:none;stroke:#cccccc;stroke-linecap:round;stroke-width:0.8;"/>
     </g>
     <g id="text_10">
      <!-- −0.05 -->
      <g style="fill:#262626;" transform="translate(24.917969 201.709291)scale(0.15 -0.15)">
       <use xlink:href="#ArialMT-2212"/>
       <use x="58.398438" xlink:href="#ArialMT-30"/>
       <use x="114.013672" xlink:href="#ArialMT-2e"/>
       <use x="141.796875" xlink:href="#ArialMT-30"/>
       <use x="197.412109" xlink:href="#ArialMT-35"/>
      </g>
     </g>
    </g>
    <g id="ytick_4">
     <g id="line2d_4">
      <path clip-path="url(#p812264f531)" d="M 69.870312 163.398275 
L 906.870312 163.398275 
" style="fill:none;stroke:#cccccc;stroke-linecap:round;stroke-width:0.8;"/>
     </g>
     <g id="text_11">
      <!-- 0.00 -->
      <g style="fill:#262626;" transform="translate(33.678906 168.766634)scale(0.15 -0.15)">
       <use xlink:href="#ArialMT-30"/>
       <use x="55.615234" xlink:href="#ArialMT-2e"/>
       <use x="83.398438" xlink:href="#ArialMT-30"/>
       <use x="139.013672" xlink:href="#ArialMT-30"/>
      </g>
     </g>
    </g>
    <g id="ytick_5">
     <g id="line2d_5">
      <path clip-path="url(#p812264f531)" d="M 69.870312 130.455618 
L 906.870312 130.455618 
" style="fill:none;stroke:#cccccc;stroke-linecap:round;stroke-width:0.8;"/>
     </g>
     <g id="text_12">
      <!-- 0.05 -->
      <g style="fill:#262626;" transform="translate(33.678906 135.823977)scale(0.15 -0.15)">
       <use xlink:href="#ArialMT-30"/>
       <use x="55.615234" xlink:href="#ArialMT-2e"/>
       <use x="83.398438" xlink:href="#ArialMT-30"/>
       <use x="139.013672" xlink:href="#ArialMT-35"/>
      </g>
     </g>
    </g>
    <g id="ytick_6">
     <g id="line2d_6">
      <path clip-path="url(#p812264f531)" d="M 69.870312 97.512961 
L 906.870312 97.512961 
" style="fill:none;stroke:#cccccc;stroke-linecap:round;stroke-width:0.8;"/>
     </g>
     <g id="text_13">
      <!-- 0.10 -->
      <g style="fill:#262626;" transform="translate(33.678906 102.88132)scale(0.15 -0.15)">
       <use xlink:href="#ArialMT-30"/>
       <use x="55.615234" xlink:href="#ArialMT-2e"/>
       <use x="83.398438" xlink:href="#ArialMT-31"/>
       <use x="139.013672" xlink:href="#ArialMT-30"/>
      </g>
     </g>
    </g>
    <g id="ytick_7">
     <g id="line2d_7">
      <path clip-path="url(#p812264f531)" d="M 69.870312 64.570303 
L 906.870312 64.570303 
" style="fill:none;stroke:#cccccc;stroke-linecap:round;stroke-width:0.8;"/>
     </g>
     <g id="text_14">
      <!-- 0.15 -->
      <g style="fill:#262626;" transform="translate(33.678906 69.938663)scale(0.15 -0.15)">
       <use xlink:href="#ArialMT-30"/>
       <use x="55.615234" xlink:href="#ArialMT-2e"/>
       <use x="83.398438" xlink:href="#ArialMT-31"/>
       <use x="139.013672" xlink:href="#ArialMT-35"/>
      </g>
     </g>
    </g>
    <g id="ytick_8">
     <g id="line2d_8">
      <path clip-path="url(#p812264f531)" d="M 69.870312 31.627646 
L 906.870312 31.627646 
" style="fill:none;stroke:#cccccc;stroke-linecap:round;stroke-width:0.8;"/>
     </g>
     <g id="text_15">
      <!-- 0.20 -->
      <g style="fill:#262626;" transform="translate(33.678906 36.996006)scale(0.15 -0.15)">
       <use xlink:href="#ArialMT-30"/>
       <use x="55.615234" xlink:href="#ArialMT-2e"/>
       <use x="83.398438" xlink:href="#ArialMT-32"/>
       <use x="139.013672" xlink:href="#ArialMT-30"/>
      </g>
     </g>
    </g>
    <g id="text_16">
     <!-- Silhouette Score -->
     <g style="fill:#262626;" transform="translate(17.936719 198.13125)rotate(-90)scale(0.15 -0.15)">
      <defs>
       <path d="M 288 1472 
L 859 1522 
Q 900 1178 1048 958 
Q 1197 738 1509 602 
Q 1822 466 2213 466 
Q 2559 466 2825 569 
Q 3091 672 3220 851 
Q 3350 1031 3350 1244 
Q 3350 1459 3225 1620 
Q 3100 1781 2813 1891 
Q 2628 1963 1997 2114 
Q 1366 2266 1113 2400 
Q 784 2572 623 2826 
Q 463 3081 463 3397 
Q 463 3744 659 4045 
Q 856 4347 1234 4503 
Q 1613 4659 2075 4659 
Q 2584 4659 2973 4495 
Q 3363 4331 3572 4012 
Q 3781 3694 3797 3291 
L 3216 3247 
Q 3169 3681 2898 3903 
Q 2628 4125 2100 4125 
Q 1550 4125 1298 3923 
Q 1047 3722 1047 3438 
Q 1047 3191 1225 3031 
Q 1400 2872 2139 2705 
Q 2878 2538 3153 2413 
Q 3553 2228 3743 1945 
Q 3934 1663 3934 1294 
Q 3934 928 3725 604 
Q 3516 281 3123 101 
Q 2731 -78 2241 -78 
Q 1619 -78 1198 103 
Q 778 284 539 648 
Q 300 1013 288 1472 
z
" id="ArialMT-53" transform="scale(0.015625)"/>
       <path d="M 425 3934 
L 425 4581 
L 988 4581 
L 988 3934 
L 425 3934 
z
M 425 0 
L 425 3319 
L 988 3319 
L 988 0 
L 425 0 
z
" id="ArialMT-69" transform="scale(0.015625)"/>
       <path d="M 409 0 
L 409 4581 
L 972 4581 
L 972 0 
L 409 0 
z
" id="ArialMT-6c" transform="scale(0.015625)"/>
       <path d="M 422 0 
L 422 4581 
L 984 4581 
L 984 2938 
Q 1378 3394 1978 3394 
Q 2347 3394 2619 3248 
Q 2891 3103 3008 2847 
Q 3125 2591 3125 2103 
L 3125 0 
L 2563 0 
L 2563 2103 
Q 2563 2525 2380 2717 
Q 2197 2909 1863 2909 
Q 1613 2909 1392 2779 
Q 1172 2650 1078 2428 
Q 984 2206 984 1816 
L 984 0 
L 422 0 
z
" id="ArialMT-68" transform="scale(0.015625)"/>
       <path d="M 213 1659 
Q 213 2581 725 3025 
Q 1153 3394 1769 3394 
Q 2453 3394 2887 2945 
Q 3322 2497 3322 1706 
Q 3322 1066 3130 698 
Q 2938 331 2570 128 
Q 2203 -75 1769 -75 
Q 1072 -75 642 372 
Q 213 819 213 1659 
z
M 791 1659 
Q 791 1022 1069 705 
Q 1347 388 1769 388 
Q 2188 388 2466 706 
Q 2744 1025 2744 1678 
Q 2744 2294 2464 2611 
Q 2184 2928 1769 2928 
Q 1347 2928 1069 2612 
Q 791 2297 791 1659 
z
" id="ArialMT-6f" transform="scale(0.015625)"/>
       <path d="M 2597 0 
L 2597 488 
Q 2209 -75 1544 -75 
Q 1250 -75 995 37 
Q 741 150 617 320 
Q 494 491 444 738 
Q 409 903 409 1263 
L 409 3319 
L 972 3319 
L 972 1478 
Q 972 1038 1006 884 
Q 1059 663 1231 536 
Q 1403 409 1656 409 
Q 1909 409 2131 539 
Q 2353 669 2445 892 
Q 2538 1116 2538 1541 
L 2538 3319 
L 3100 3319 
L 3100 0 
L 2597 0 
z
" id="ArialMT-75" transform="scale(0.015625)"/>
       <path d="M 2694 1069 
L 3275 997 
Q 3138 488 2766 206 
Q 2394 -75 1816 -75 
Q 1088 -75 661 373 
Q 234 822 234 1631 
Q 234 2469 665 2931 
Q 1097 3394 1784 3394 
Q 2450 3394 2872 2941 
Q 3294 2488 3294 1666 
Q 3294 1616 3291 1516 
L 816 1516 
Q 847 969 1125 678 
Q 1403 388 1819 388 
Q 2128 388 2347 550 
Q 2566 713 2694 1069 
z
M 847 1978 
L 2700 1978 
Q 2663 2397 2488 2606 
Q 2219 2931 1791 2931 
Q 1403 2931 1139 2672 
Q 875 2413 847 1978 
z
" id="ArialMT-65" transform="scale(0.015625)"/>
       <path d="M 1650 503 
L 1731 6 
Q 1494 -44 1306 -44 
Q 1000 -44 831 53 
Q 663 150 594 308 
Q 525 466 525 972 
L 525 2881 
L 113 2881 
L 113 3319 
L 525 3319 
L 525 4141 
L 1084 4478 
L 1084 3319 
L 1650 3319 
L 1650 2881 
L 1084 2881 
L 1084 941 
Q 1084 700 1114 631 
Q 1144 563 1211 522 
Q 1278 481 1403 481 
Q 1497 481 1650 503 
z
" id="ArialMT-74" transform="scale(0.015625)"/>
       <path id="ArialMT-20" transform="scale(0.015625)"/>
       <path d="M 2588 1216 
L 3141 1144 
Q 3050 572 2676 248 
Q 2303 -75 1759 -75 
Q 1078 -75 664 370 
Q 250 816 250 1647 
Q 250 2184 428 2587 
Q 606 2991 970 3192 
Q 1334 3394 1763 3394 
Q 2303 3394 2647 3120 
Q 2991 2847 3088 2344 
L 2541 2259 
Q 2463 2594 2264 2762 
Q 2066 2931 1784 2931 
Q 1359 2931 1093 2626 
Q 828 2322 828 1663 
Q 828 994 1084 691 
Q 1341 388 1753 388 
Q 2084 388 2306 591 
Q 2528 794 2588 1216 
z
" id="ArialMT-63" transform="scale(0.015625)"/>
       <path d="M 416 0 
L 416 3319 
L 922 3319 
L 922 2816 
Q 1116 3169 1280 3281 
Q 1444 3394 1641 3394 
Q 1925 3394 2219 3213 
L 2025 2691 
Q 1819 2813 1613 2813 
Q 1428 2813 1281 2702 
Q 1134 2591 1072 2394 
Q 978 2094 978 1738 
L 978 0 
L 416 0 
z
" id="ArialMT-72" transform="scale(0.015625)"/>
      </defs>
      <use xlink:href="#ArialMT-53"/>
      <use x="66.699219" xlink:href="#ArialMT-69"/>
      <use x="88.916016" xlink:href="#ArialMT-6c"/>
      <use x="111.132812" xlink:href="#ArialMT-68"/>
      <use x="166.748047" xlink:href="#ArialMT-6f"/>
      <use x="222.363281" xlink:href="#ArialMT-75"/>
      <use x="277.978516" xlink:href="#ArialMT-65"/>
      <use x="333.59375" xlink:href="#ArialMT-74"/>
      <use x="361.376953" xlink:href="#ArialMT-74"/>
      <use x="389.160156" xlink:href="#ArialMT-65"/>
      <use x="444.775391" xlink:href="#ArialMT-20"/>
      <use x="472.558594" xlink:href="#ArialMT-53"/>
      <use x="539.257812" xlink:href="#ArialMT-63"/>
      <use x="589.257812" xlink:href="#ArialMT-6f"/>
      <use x="644.873047" xlink:href="#ArialMT-72"/>
      <use x="678.173828" xlink:href="#ArialMT-65"/>
     </g>
    </g>
   </g>
   <g id="line2d_9">
    <path clip-path="url(#p812264f531)" d="M 107.915767 19.554545 
L 115.760191 39.504939 
L 123.604614 58.360787 
L 131.449038 77.890957 
L 139.293462 85.916484 
L 147.137885 95.197682 
L 154.982309 104.964954 
L 162.826732 106.173145 
L 170.671156 108.076048 
L 178.51558 118.279494 
L 186.360003 127.42126 
L 194.204427 133.128641 
L 202.04885 142.902485 
L 209.893274 146.97272 
L 217.737698 148.380419 
L 225.582121 150.295758 
L 233.426545 153.403916 
L 241.270969 155.424418 
L 249.115392 156.996639 
L 256.959816 163.289896 
L 264.804239 166.112185 
L 272.648663 167.649939 
L 280.493087 170.03702 
L 288.33751 174.342806 
L 296.181934 177.298013 
L 304.026357 178.909667 
L 311.870781 181.041283 
L 319.715205 185.562655 
L 327.559628 191.907039 
L 335.404052 194.312142 
L 343.248476 198.807989 
L 351.092899 202.381867 
L 358.937323 202.597169 
L 366.781746 204.683256 
L 374.62617 205.71767 
L 382.470594 208.28906 
L 390.315017 212.026948 
L 398.159441 212.968423 
L 406.003865 212.617002 
L 413.848288 216.950932 
L 421.692712 218.770402 
L 429.537135 219.41188 
L 437.381559 219.929333 
L 445.225983 222.928557 
L 453.070406 224.243287 
L 460.91483 226.943827 
L 468.759253 229.020059 
L 476.603677 230.285302 
L 484.448101 231.992549 
L 492.292524 231.764716 
L 500.136948 232.678614 
L 507.981372 233.597704 
L 515.825795 233.023985 
L 523.670219 233.113392 
L 531.514642 233.709992 
L 539.359066 238.187619 
L 547.20349 238.671768 
L 555.047913 240.877356 
L 562.892337 243.253506 
L 570.73676 244.824349 
L 578.581184 245.088107 
L 586.425608 246.012383 
L 594.270031 246.567655 
L 602.114455 247.826926 
L 609.958879 248.523365 
L 617.803302 251.719136 
L 625.647726 252.392421 
L 633.492149 254.71933 
L 641.336573 255.746081 
L 649.180997 255.994603 
L 657.02542 256.200063 
L 664.869844 257.507872 
L 672.714268 258.160951 
L 680.558691 258.174716 
L 688.403115 258.488525 
L 696.247538 258.84565 
L 704.091962 259.039115 
L 711.936386 259.382134 
L 719.780809 259.923426 
L 727.625233 261.103283 
L 735.469656 261.538438 
L 743.31408 261.405379 
L 751.158504 261.630501 
L 759.002927 261.918713 
L 766.847351 263.013989 
L 774.691775 263.844339 
L 782.536198 264.412644 
L 790.380622 264.652487 
L 798.225045 265.14413 
L 806.069469 265.539704 
L 813.913893 265.73994 
L 821.758316 266.25817 
L 829.60274 266.483987 
L 837.447163 266.645455 
L 845.291587 265.795189 
L 853.136011 265.469687 
L 860.980434 266.183023 
L 868.824858 265.67765 
" style="fill:none;stroke:#1f77b4;stroke-linecap:round;stroke-width:1.5;"/>
    <defs>
     <path d="M 0 3 
C 0.795609 3 1.55874 2.683901 2.12132 2.12132 
C 2.683901 1.55874 3 0.795609 3 0 
C 3 -0.795609 2.683901 -1.55874 2.12132 -2.12132 
C 1.55874 -2.683901 0.795609 -3 0 -3 
C -0.795609 -3 -1.55874 -2.683901 -2.12132 -2.12132 
C -2.683901 -1.55874 -3 -0.795609 -3 0 
C -3 0.795609 -2.683901 1.55874 -2.12132 2.12132 
C -1.55874 2.683901 -0.795609 3 0 3 
z
" id="md0995aa311" style="stroke:#ffffff;stroke-width:0.75;"/>
    </defs>
    <g clip-path="url(#p812264f531)">
     <use style="fill:#1f77b4;stroke:#ffffff;stroke-width:0.75;" x="107.915767" xlink:href="#md0995aa311" y="19.554545"/>
     <use style="fill:#1f77b4;stroke:#ffffff;stroke-width:0.75;" x="115.760191" xlink:href="#md0995aa311" y="39.504939"/>
     <use style="fill:#1f77b4;stroke:#ffffff;stroke-width:0.75;" x="123.604614" xlink:href="#md0995aa311" y="58.360787"/>
     <use style="fill:#1f77b4;stroke:#ffffff;stroke-width:0.75;" x="131.449038" xlink:href="#md0995aa311" y="77.890957"/>
     <use style="fill:#1f77b4;stroke:#ffffff;stroke-width:0.75;" x="139.293462" xlink:href="#md0995aa311" y="85.916484"/>
     <use style="fill:#1f77b4;stroke:#ffffff;stroke-width:0.75;" x="147.137885" xlink:href="#md0995aa311" y="95.197682"/>
     <use style="fill:#1f77b4;stroke:#ffffff;stroke-width:0.75;" x="154.982309" xlink:href="#md0995aa311" y="104.964954"/>
     <use style="fill:#1f77b4;stroke:#ffffff;stroke-width:0.75;" x="162.826732" xlink:href="#md0995aa311" y="106.173145"/>
     <use style="fill:#1f77b4;stroke:#ffffff;stroke-width:0.75;" x="170.671156" xlink:href="#md0995aa311" y="108.076048"/>
     <use style="fill:#1f77b4;stroke:#ffffff;stroke-width:0.75;" x="178.51558" xlink:href="#md0995aa311" y="118.279494"/>
     <use style="fill:#1f77b4;stroke:#ffffff;stroke-width:0.75;" x="186.360003" xlink:href="#md0995aa311" y="127.42126"/>
     <use style="fill:#1f77b4;stroke:#ffffff;stroke-width:0.75;" x="194.204427" xlink:href="#md0995aa311" y="133.128641"/>
     <use style="fill:#1f77b4;stroke:#ffffff;stroke-width:0.75;" x="202.04885" xlink:href="#md0995aa311" y="142.902485"/>
     <use style="fill:#1f77b4;stroke:#ffffff;stroke-width:0.75;" x="209.893274" xlink:href="#md0995aa311" y="146.97272"/>
     <use style="fill:#1f77b4;stroke:#ffffff;stroke-width:0.75;" x="217.737698" xlink:href="#md0995aa311" y="148.380419"/>
     <use style="fill:#1f77b4;stroke:#ffffff;stroke-width:0.75;" x="225.582121" xlink:href="#md0995aa311" y="150.295758"/>
     <use style="fill:#1f77b4;stroke:#ffffff;stroke-width:0.75;" x="233.426545" xlink:href="#md0995aa311" y="153.403916"/>
     <use style="fill:#1f77b4;stroke:#ffffff;stroke-width:0.75;" x="241.270969" xlink:href="#md0995aa311" y="155.424418"/>
     <use style="fill:#1f77b4;stroke:#ffffff;stroke-width:0.75;" x="249.115392" xlink:href="#md0995aa311" y="156.996639"/>
     <use style="fill:#1f77b4;stroke:#ffffff;stroke-width:0.75;" x="256.959816" xlink:href="#md0995aa311" y="163.289896"/>
     <use style="fill:#1f77b4;stroke:#ffffff;stroke-width:0.75;" x="264.804239" xlink:href="#md0995aa311" y="166.112185"/>
     <use style="fill:#1f77b4;stroke:#ffffff;stroke-width:0.75;" x="272.648663" xlink:href="#md0995aa311" y="167.649939"/>
     <use style="fill:#1f77b4;stroke:#ffffff;stroke-width:0.75;" x="280.493087" xlink:href="#md0995aa311" y="170.03702"/>
     <use style="fill:#1f77b4;stroke:#ffffff;stroke-width:0.75;" x="288.33751" xlink:href="#md0995aa311" y="174.342806"/>
     <use style="fill:#1f77b4;stroke:#ffffff;stroke-width:0.75;" x="296.181934" xlink:href="#md0995aa311" y="177.298013"/>
     <use style="fill:#1f77b4;stroke:#ffffff;stroke-width:0.75;" x="304.026357" xlink:href="#md0995aa311" y="178.909667"/>
     <use style="fill:#1f77b4;stroke:#ffffff;stroke-width:0.75;" x="311.870781" xlink:href="#md0995aa311" y="181.041283"/>
     <use style="fill:#1f77b4;stroke:#ffffff;stroke-width:0.75;" x="319.715205" xlink:href="#md0995aa311" y="185.562655"/>
     <use style="fill:#1f77b4;stroke:#ffffff;stroke-width:0.75;" x="327.559628" xlink:href="#md0995aa311" y="191.907039"/>
     <use style="fill:#1f77b4;stroke:#ffffff;stroke-width:0.75;" x="335.404052" xlink:href="#md0995aa311" y="194.312142"/>
     <use style="fill:#1f77b4;stroke:#ffffff;stroke-width:0.75;" x="343.248476" xlink:href="#md0995aa311" y="198.807989"/>
     <use style="fill:#1f77b4;stroke:#ffffff;stroke-width:0.75;" x="351.092899" xlink:href="#md0995aa311" y="202.381867"/>
     <use style="fill:#1f77b4;stroke:#ffffff;stroke-width:0.75;" x="358.937323" xlink:href="#md0995aa311" y="202.597169"/>
     <use style="fill:#1f77b4;stroke:#ffffff;stroke-width:0.75;" x="366.781746" xlink:href="#md0995aa311" y="204.683256"/>
     <use style="fill:#1f77b4;stroke:#ffffff;stroke-width:0.75;" x="374.62617" xlink:href="#md0995aa311" y="205.71767"/>
     <use style="fill:#1f77b4;stroke:#ffffff;stroke-width:0.75;" x="382.470594" xlink:href="#md0995aa311" y="208.28906"/>
     <use style="fill:#1f77b4;stroke:#ffffff;stroke-width:0.75;" x="390.315017" xlink:href="#md0995aa311" y="212.026948"/>
     <use style="fill:#1f77b4;stroke:#ffffff;stroke-width:0.75;" x="398.159441" xlink:href="#md0995aa311" y="212.968423"/>
     <use style="fill:#1f77b4;stroke:#ffffff;stroke-width:0.75;" x="406.003865" xlink:href="#md0995aa311" y="212.617002"/>
     <use style="fill:#1f77b4;stroke:#ffffff;stroke-width:0.75;" x="413.848288" xlink:href="#md0995aa311" y="216.950932"/>
     <use style="fill:#1f77b4;stroke:#ffffff;stroke-width:0.75;" x="421.692712" xlink:href="#md0995aa311" y="218.770402"/>
     <use style="fill:#1f77b4;stroke:#ffffff;stroke-width:0.75;" x="429.537135" xlink:href="#md0995aa311" y="219.41188"/>
     <use style="fill:#1f77b4;stroke:#ffffff;stroke-width:0.75;" x="437.381559" xlink:href="#md0995aa311" y="219.929333"/>
     <use style="fill:#1f77b4;stroke:#ffffff;stroke-width:0.75;" x="445.225983" xlink:href="#md0995aa311" y="222.928557"/>
     <use style="fill:#1f77b4;stroke:#ffffff;stroke-width:0.75;" x="453.070406" xlink:href="#md0995aa311" y="224.243287"/>
     <use style="fill:#1f77b4;stroke:#ffffff;stroke-width:0.75;" x="460.91483" xlink:href="#md0995aa311" y="226.943827"/>
     <use style="fill:#1f77b4;stroke:#ffffff;stroke-width:0.75;" x="468.759253" xlink:href="#md0995aa311" y="229.020059"/>
     <use style="fill:#1f77b4;stroke:#ffffff;stroke-width:0.75;" x="476.603677" xlink:href="#md0995aa311" y="230.285302"/>
     <use style="fill:#1f77b4;stroke:#ffffff;stroke-width:0.75;" x="484.448101" xlink:href="#md0995aa311" y="231.992549"/>
     <use style="fill:#1f77b4;stroke:#ffffff;stroke-width:0.75;" x="492.292524" xlink:href="#md0995aa311" y="231.764716"/>
     <use style="fill:#1f77b4;stroke:#ffffff;stroke-width:0.75;" x="500.136948" xlink:href="#md0995aa311" y="232.678614"/>
     <use style="fill:#1f77b4;stroke:#ffffff;stroke-width:0.75;" x="507.981372" xlink:href="#md0995aa311" y="233.597704"/>
     <use style="fill:#1f77b4;stroke:#ffffff;stroke-width:0.75;" x="515.825795" xlink:href="#md0995aa311" y="233.023985"/>
     <use style="fill:#1f77b4;stroke:#ffffff;stroke-width:0.75;" x="523.670219" xlink:href="#md0995aa311" y="233.113392"/>
     <use style="fill:#1f77b4;stroke:#ffffff;stroke-width:0.75;" x="531.514642" xlink:href="#md0995aa311" y="233.709992"/>
     <use style="fill:#1f77b4;stroke:#ffffff;stroke-width:0.75;" x="539.359066" xlink:href="#md0995aa311" y="238.187619"/>
     <use style="fill:#1f77b4;stroke:#ffffff;stroke-width:0.75;" x="547.20349" xlink:href="#md0995aa311" y="238.671768"/>
     <use style="fill:#1f77b4;stroke:#ffffff;stroke-width:0.75;" x="555.047913" xlink:href="#md0995aa311" y="240.877356"/>
     <use style="fill:#1f77b4;stroke:#ffffff;stroke-width:0.75;" x="562.892337" xlink:href="#md0995aa311" y="243.253506"/>
     <use style="fill:#1f77b4;stroke:#ffffff;stroke-width:0.75;" x="570.73676" xlink:href="#md0995aa311" y="244.824349"/>
     <use style="fill:#1f77b4;stroke:#ffffff;stroke-width:0.75;" x="578.581184" xlink:href="#md0995aa311" y="245.088107"/>
     <use style="fill:#1f77b4;stroke:#ffffff;stroke-width:0.75;" x="586.425608" xlink:href="#md0995aa311" y="246.012383"/>
     <use style="fill:#1f77b4;stroke:#ffffff;stroke-width:0.75;" x="594.270031" xlink:href="#md0995aa311" y="246.567655"/>
     <use style="fill:#1f77b4;stroke:#ffffff;stroke-width:0.75;" x="602.114455" xlink:href="#md0995aa311" y="247.826926"/>
     <use style="fill:#1f77b4;stroke:#ffffff;stroke-width:0.75;" x="609.958879" xlink:href="#md0995aa311" y="248.523365"/>
     <use style="fill:#1f77b4;stroke:#ffffff;stroke-width:0.75;" x="617.803302" xlink:href="#md0995aa311" y="251.719136"/>
     <use style="fill:#1f77b4;stroke:#ffffff;stroke-width:0.75;" x="625.647726" xlink:href="#md0995aa311" y="252.392421"/>
     <use style="fill:#1f77b4;stroke:#ffffff;stroke-width:0.75;" x="633.492149" xlink:href="#md0995aa311" y="254.71933"/>
     <use style="fill:#1f77b4;stroke:#ffffff;stroke-width:0.75;" x="641.336573" xlink:href="#md0995aa311" y="255.746081"/>
     <use style="fill:#1f77b4;stroke:#ffffff;stroke-width:0.75;" x="649.180997" xlink:href="#md0995aa311" y="255.994603"/>
     <use style="fill:#1f77b4;stroke:#ffffff;stroke-width:0.75;" x="657.02542" xlink:href="#md0995aa311" y="256.200063"/>
     <use style="fill:#1f77b4;stroke:#ffffff;stroke-width:0.75;" x="664.869844" xlink:href="#md0995aa311" y="257.507872"/>
     <use style="fill:#1f77b4;stroke:#ffffff;stroke-width:0.75;" x="672.714268" xlink:href="#md0995aa311" y="258.160951"/>
     <use style="fill:#1f77b4;stroke:#ffffff;stroke-width:0.75;" x="680.558691" xlink:href="#md0995aa311" y="258.174716"/>
     <use style="fill:#1f77b4;stroke:#ffffff;stroke-width:0.75;" x="688.403115" xlink:href="#md0995aa311" y="258.488525"/>
     <use style="fill:#1f77b4;stroke:#ffffff;stroke-width:0.75;" x="696.247538" xlink:href="#md0995aa311" y="258.84565"/>
     <use style="fill:#1f77b4;stroke:#ffffff;stroke-width:0.75;" x="704.091962" xlink:href="#md0995aa311" y="259.039115"/>
     <use style="fill:#1f77b4;stroke:#ffffff;stroke-width:0.75;" x="711.936386" xlink:href="#md0995aa311" y="259.382134"/>
     <use style="fill:#1f77b4;stroke:#ffffff;stroke-width:0.75;" x="719.780809" xlink:href="#md0995aa311" y="259.923426"/>
     <use style="fill:#1f77b4;stroke:#ffffff;stroke-width:0.75;" x="727.625233" xlink:href="#md0995aa311" y="261.103283"/>
     <use style="fill:#1f77b4;stroke:#ffffff;stroke-width:0.75;" x="735.469656" xlink:href="#md0995aa311" y="261.538438"/>
     <use style="fill:#1f77b4;stroke:#ffffff;stroke-width:0.75;" x="743.31408" xlink:href="#md0995aa311" y="261.405379"/>
     <use style="fill:#1f77b4;stroke:#ffffff;stroke-width:0.75;" x="751.158504" xlink:href="#md0995aa311" y="261.630501"/>
     <use style="fill:#1f77b4;stroke:#ffffff;stroke-width:0.75;" x="759.002927" xlink:href="#md0995aa311" y="261.918713"/>
     <use style="fill:#1f77b4;stroke:#ffffff;stroke-width:0.75;" x="766.847351" xlink:href="#md0995aa311" y="263.013989"/>
     <use style="fill:#1f77b4;stroke:#ffffff;stroke-width:0.75;" x="774.691775" xlink:href="#md0995aa311" y="263.844339"/>
     <use style="fill:#1f77b4;stroke:#ffffff;stroke-width:0.75;" x="782.536198" xlink:href="#md0995aa311" y="264.412644"/>
     <use style="fill:#1f77b4;stroke:#ffffff;stroke-width:0.75;" x="790.380622" xlink:href="#md0995aa311" y="264.652487"/>
     <use style="fill:#1f77b4;stroke:#ffffff;stroke-width:0.75;" x="798.225045" xlink:href="#md0995aa311" y="265.14413"/>
     <use style="fill:#1f77b4;stroke:#ffffff;stroke-width:0.75;" x="806.069469" xlink:href="#md0995aa311" y="265.539704"/>
     <use style="fill:#1f77b4;stroke:#ffffff;stroke-width:0.75;" x="813.913893" xlink:href="#md0995aa311" y="265.73994"/>
     <use style="fill:#1f77b4;stroke:#ffffff;stroke-width:0.75;" x="821.758316" xlink:href="#md0995aa311" y="266.25817"/>
     <use style="fill:#1f77b4;stroke:#ffffff;stroke-width:0.75;" x="829.60274" xlink:href="#md0995aa311" y="266.483987"/>
     <use style="fill:#1f77b4;stroke:#ffffff;stroke-width:0.75;" x="837.447163" xlink:href="#md0995aa311" y="266.645455"/>
     <use style="fill:#1f77b4;stroke:#ffffff;stroke-width:0.75;" x="845.291587" xlink:href="#md0995aa311" y="265.795189"/>
     <use style="fill:#1f77b4;stroke:#ffffff;stroke-width:0.75;" x="853.136011" xlink:href="#md0995aa311" y="265.469687"/>
     <use style="fill:#1f77b4;stroke:#ffffff;stroke-width:0.75;" x="860.980434" xlink:href="#md0995aa311" y="266.183023"/>
     <use style="fill:#1f77b4;stroke:#ffffff;stroke-width:0.75;" x="868.824858" xlink:href="#md0995aa311" y="265.67765"/>
    </g>
   </g>
   <g id="line2d_10">
    <path clip-path="url(#p812264f531)" d="M 107.915767 137.617521 
L 115.760191 137.685468 
L 123.604614 141.243022 
L 131.449038 142.720908 
L 139.293462 142.63552 
L 147.137885 146.106137 
L 154.982309 146.958706 
L 162.826732 149.264683 
L 170.671156 152.538667 
L 178.51558 154.878196 
L 186.360003 156.917083 
L 194.204427 156.69732 
L 202.04885 156.711921 
L 209.893274 156.715798 
L 217.737698 157.915815 
L 225.582121 156.347929 
L 233.426545 156.406619 
L 241.270969 157.849985 
L 249.115392 157.604642 
L 256.959816 157.331845 
L 264.804239 156.622725 
L 272.648663 156.828688 
L 280.493087 156.537855 
L 288.33751 155.722644 
L 296.181934 153.807117 
L 304.026357 155.213756 
L 311.870781 157.178863 
L 319.715205 156.434546 
L 327.559628 156.477787 
L 335.404052 156.470484 
L 343.248476 156.361037 
L 351.092899 156.069821 
L 358.937323 155.719669 
L 366.781746 155.183173 
L 374.62617 154.099229 
L 382.470594 153.895118 
L 390.315017 153.358147 
L 398.159441 153.168739 
L 406.003865 153.032087 
L 413.848288 152.956283 
L 421.692712 152.759738 
L 429.537135 152.343982 
L 437.381559 152.071933 
L 445.225983 151.23631 
L 453.070406 154.412554 
L 460.91483 153.923808 
L 468.759253 153.458493 
L 476.603677 153.673784 
L 484.448101 153.880938 
L 492.292524 153.666863 
L 500.136948 153.144322 
L 507.981372 153.599756 
L 515.825795 153.393445 
L 523.670219 153.270613 
L 531.514642 152.989748 
L 539.359066 152.454601 
L 547.20349 152.274361 
L 555.047913 152.295719 
L 562.892337 152.158825 
L 570.73676 151.817852 
L 578.581184 151.488854 
L 586.425608 151.053806 
L 594.270031 150.646445 
L 602.114455 151.099389 
L 609.958879 150.807073 
L 617.803302 150.624215 
L 625.647726 150.659629 
L 633.492149 150.297549 
L 641.336573 149.778536 
L 649.180997 150.116678 
L 657.02542 149.732311 
L 664.869844 149.590643 
L 672.714268 149.102718 
L 680.558691 148.758195 
L 688.403115 148.649721 
L 696.247538 148.305512 
L 704.091962 148.451818 
L 711.936386 148.539871 
L 719.780809 148.147144 
L 727.625233 147.883216 
L 735.469656 147.671065 
L 743.31408 147.275716 
L 751.158504 147.210985 
L 759.002927 146.731545 
L 766.847351 146.813361 
L 774.691775 146.384421 
L 782.536198 147.022264 
L 790.380622 146.875023 
L 798.225045 146.575039 
L 806.069469 146.351907 
L 813.913893 146.026282 
L 821.758316 145.968901 
L 829.60274 145.946211 
L 837.447163 145.50419 
L 845.291587 145.212982 
L 853.136011 144.996417 
L 860.980434 144.732845 
L 868.824858 145.074801 
" style="fill:none;stroke:#ff7f0e;stroke-linecap:round;stroke-width:1.5;"/>
    <defs>
     <path d="M 0 3 
C 0.795609 3 1.55874 2.683901 2.12132 2.12132 
C 2.683901 1.55874 3 0.795609 3 0 
C 3 -0.795609 2.683901 -1.55874 2.12132 -2.12132 
C 1.55874 -2.683901 0.795609 -3 0 -3 
C -0.795609 -3 -1.55874 -2.683901 -2.12132 -2.12132 
C -2.683901 -1.55874 -3 -0.795609 -3 0 
C -3 0.795609 -2.683901 1.55874 -2.12132 2.12132 
C -1.55874 2.683901 -0.795609 3 0 3 
z
" id="me908d7916f" style="stroke:#ffffff;stroke-width:0.75;"/>
    </defs>
    <g clip-path="url(#p812264f531)">
     <use style="fill:#ff7f0e;stroke:#ffffff;stroke-width:0.75;" x="107.915767" xlink:href="#me908d7916f" y="137.617521"/>
     <use style="fill:#ff7f0e;stroke:#ffffff;stroke-width:0.75;" x="115.760191" xlink:href="#me908d7916f" y="137.685468"/>
     <use style="fill:#ff7f0e;stroke:#ffffff;stroke-width:0.75;" x="123.604614" xlink:href="#me908d7916f" y="141.243022"/>
     <use style="fill:#ff7f0e;stroke:#ffffff;stroke-width:0.75;" x="131.449038" xlink:href="#me908d7916f" y="142.720908"/>
     <use style="fill:#ff7f0e;stroke:#ffffff;stroke-width:0.75;" x="139.293462" xlink:href="#me908d7916f" y="142.63552"/>
     <use style="fill:#ff7f0e;stroke:#ffffff;stroke-width:0.75;" x="147.137885" xlink:href="#me908d7916f" y="146.106137"/>
     <use style="fill:#ff7f0e;stroke:#ffffff;stroke-width:0.75;" x="154.982309" xlink:href="#me908d7916f" y="146.958706"/>
     <use style="fill:#ff7f0e;stroke:#ffffff;stroke-width:0.75;" x="162.826732" xlink:href="#me908d7916f" y="149.264683"/>
     <use style="fill:#ff7f0e;stroke:#ffffff;stroke-width:0.75;" x="170.671156" xlink:href="#me908d7916f" y="152.538667"/>
     <use style="fill:#ff7f0e;stroke:#ffffff;stroke-width:0.75;" x="178.51558" xlink:href="#me908d7916f" y="154.878196"/>
     <use style="fill:#ff7f0e;stroke:#ffffff;stroke-width:0.75;" x="186.360003" xlink:href="#me908d7916f" y="156.917083"/>
     <use style="fill:#ff7f0e;stroke:#ffffff;stroke-width:0.75;" x="194.204427" xlink:href="#me908d7916f" y="156.69732"/>
     <use style="fill:#ff7f0e;stroke:#ffffff;stroke-width:0.75;" x="202.04885" xlink:href="#me908d7916f" y="156.711921"/>
     <use style="fill:#ff7f0e;stroke:#ffffff;stroke-width:0.75;" x="209.893274" xlink:href="#me908d7916f" y="156.715798"/>
     <use style="fill:#ff7f0e;stroke:#ffffff;stroke-width:0.75;" x="217.737698" xlink:href="#me908d7916f" y="157.915815"/>
     <use style="fill:#ff7f0e;stroke:#ffffff;stroke-width:0.75;" x="225.582121" xlink:href="#me908d7916f" y="156.347929"/>
     <use style="fill:#ff7f0e;stroke:#ffffff;stroke-width:0.75;" x="233.426545" xlink:href="#me908d7916f" y="156.406619"/>
     <use style="fill:#ff7f0e;stroke:#ffffff;stroke-width:0.75;" x="241.270969" xlink:href="#me908d7916f" y="157.849985"/>
     <use style="fill:#ff7f0e;stroke:#ffffff;stroke-width:0.75;" x="249.115392" xlink:href="#me908d7916f" y="157.604642"/>
     <use style="fill:#ff7f0e;stroke:#ffffff;stroke-width:0.75;" x="256.959816" xlink:href="#me908d7916f" y="157.331845"/>
     <use style="fill:#ff7f0e;stroke:#ffffff;stroke-width:0.75;" x="264.804239" xlink:href="#me908d7916f" y="156.622725"/>
     <use style="fill:#ff7f0e;stroke:#ffffff;stroke-width:0.75;" x="272.648663" xlink:href="#me908d7916f" y="156.828688"/>
     <use style="fill:#ff7f0e;stroke:#ffffff;stroke-width:0.75;" x="280.493087" xlink:href="#me908d7916f" y="156.537855"/>
     <use style="fill:#ff7f0e;stroke:#ffffff;stroke-width:0.75;" x="288.33751" xlink:href="#me908d7916f" y="155.722644"/>
     <use style="fill:#ff7f0e;stroke:#ffffff;stroke-width:0.75;" x="296.181934" xlink:href="#me908d7916f" y="153.807117"/>
     <use style="fill:#ff7f0e;stroke:#ffffff;stroke-width:0.75;" x="304.026357" xlink:href="#me908d7916f" y="155.213756"/>
     <use style="fill:#ff7f0e;stroke:#ffffff;stroke-width:0.75;" x="311.870781" xlink:href="#me908d7916f" y="157.178863"/>
     <use style="fill:#ff7f0e;stroke:#ffffff;stroke-width:0.75;" x="319.715205" xlink:href="#me908d7916f" y="156.434546"/>
     <use style="fill:#ff7f0e;stroke:#ffffff;stroke-width:0.75;" x="327.559628" xlink:href="#me908d7916f" y="156.477787"/>
     <use style="fill:#ff7f0e;stroke:#ffffff;stroke-width:0.75;" x="335.404052" xlink:href="#me908d7916f" y="156.470484"/>
     <use style="fill:#ff7f0e;stroke:#ffffff;stroke-width:0.75;" x="343.248476" xlink:href="#me908d7916f" y="156.361037"/>
     <use style="fill:#ff7f0e;stroke:#ffffff;stroke-width:0.75;" x="351.092899" xlink:href="#me908d7916f" y="156.069821"/>
     <use style="fill:#ff7f0e;stroke:#ffffff;stroke-width:0.75;" x="358.937323" xlink:href="#me908d7916f" y="155.719669"/>
     <use style="fill:#ff7f0e;stroke:#ffffff;stroke-width:0.75;" x="366.781746" xlink:href="#me908d7916f" y="155.183173"/>
     <use style="fill:#ff7f0e;stroke:#ffffff;stroke-width:0.75;" x="374.62617" xlink:href="#me908d7916f" y="154.099229"/>
     <use style="fill:#ff7f0e;stroke:#ffffff;stroke-width:0.75;" x="382.470594" xlink:href="#me908d7916f" y="153.895118"/>
     <use style="fill:#ff7f0e;stroke:#ffffff;stroke-width:0.75;" x="390.315017" xlink:href="#me908d7916f" y="153.358147"/>
     <use style="fill:#ff7f0e;stroke:#ffffff;stroke-width:0.75;" x="398.159441" xlink:href="#me908d7916f" y="153.168739"/>
     <use style="fill:#ff7f0e;stroke:#ffffff;stroke-width:0.75;" x="406.003865" xlink:href="#me908d7916f" y="153.032087"/>
     <use style="fill:#ff7f0e;stroke:#ffffff;stroke-width:0.75;" x="413.848288" xlink:href="#me908d7916f" y="152.956283"/>
     <use style="fill:#ff7f0e;stroke:#ffffff;stroke-width:0.75;" x="421.692712" xlink:href="#me908d7916f" y="152.759738"/>
     <use style="fill:#ff7f0e;stroke:#ffffff;stroke-width:0.75;" x="429.537135" xlink:href="#me908d7916f" y="152.343982"/>
     <use style="fill:#ff7f0e;stroke:#ffffff;stroke-width:0.75;" x="437.381559" xlink:href="#me908d7916f" y="152.071933"/>
     <use style="fill:#ff7f0e;stroke:#ffffff;stroke-width:0.75;" x="445.225983" xlink:href="#me908d7916f" y="151.23631"/>
     <use style="fill:#ff7f0e;stroke:#ffffff;stroke-width:0.75;" x="453.070406" xlink:href="#me908d7916f" y="154.412554"/>
     <use style="fill:#ff7f0e;stroke:#ffffff;stroke-width:0.75;" x="460.91483" xlink:href="#me908d7916f" y="153.923808"/>
     <use style="fill:#ff7f0e;stroke:#ffffff;stroke-width:0.75;" x="468.759253" xlink:href="#me908d7916f" y="153.458493"/>
     <use style="fill:#ff7f0e;stroke:#ffffff;stroke-width:0.75;" x="476.603677" xlink:href="#me908d7916f" y="153.673784"/>
     <use style="fill:#ff7f0e;stroke:#ffffff;stroke-width:0.75;" x="484.448101" xlink:href="#me908d7916f" y="153.880938"/>
     <use style="fill:#ff7f0e;stroke:#ffffff;stroke-width:0.75;" x="492.292524" xlink:href="#me908d7916f" y="153.666863"/>
     <use style="fill:#ff7f0e;stroke:#ffffff;stroke-width:0.75;" x="500.136948" xlink:href="#me908d7916f" y="153.144322"/>
     <use style="fill:#ff7f0e;stroke:#ffffff;stroke-width:0.75;" x="507.981372" xlink:href="#me908d7916f" y="153.599756"/>
     <use style="fill:#ff7f0e;stroke:#ffffff;stroke-width:0.75;" x="515.825795" xlink:href="#me908d7916f" y="153.393445"/>
     <use style="fill:#ff7f0e;stroke:#ffffff;stroke-width:0.75;" x="523.670219" xlink:href="#me908d7916f" y="153.270613"/>
     <use style="fill:#ff7f0e;stroke:#ffffff;stroke-width:0.75;" x="531.514642" xlink:href="#me908d7916f" y="152.989748"/>
     <use style="fill:#ff7f0e;stroke:#ffffff;stroke-width:0.75;" x="539.359066" xlink:href="#me908d7916f" y="152.454601"/>
     <use style="fill:#ff7f0e;stroke:#ffffff;stroke-width:0.75;" x="547.20349" xlink:href="#me908d7916f" y="152.274361"/>
     <use style="fill:#ff7f0e;stroke:#ffffff;stroke-width:0.75;" x="555.047913" xlink:href="#me908d7916f" y="152.295719"/>
     <use style="fill:#ff7f0e;stroke:#ffffff;stroke-width:0.75;" x="562.892337" xlink:href="#me908d7916f" y="152.158825"/>
     <use style="fill:#ff7f0e;stroke:#ffffff;stroke-width:0.75;" x="570.73676" xlink:href="#me908d7916f" y="151.817852"/>
     <use style="fill:#ff7f0e;stroke:#ffffff;stroke-width:0.75;" x="578.581184" xlink:href="#me908d7916f" y="151.488854"/>
     <use style="fill:#ff7f0e;stroke:#ffffff;stroke-width:0.75;" x="586.425608" xlink:href="#me908d7916f" y="151.053806"/>
     <use style="fill:#ff7f0e;stroke:#ffffff;stroke-width:0.75;" x="594.270031" xlink:href="#me908d7916f" y="150.646445"/>
     <use style="fill:#ff7f0e;stroke:#ffffff;stroke-width:0.75;" x="602.114455" xlink:href="#me908d7916f" y="151.099389"/>
     <use style="fill:#ff7f0e;stroke:#ffffff;stroke-width:0.75;" x="609.958879" xlink:href="#me908d7916f" y="150.807073"/>
     <use style="fill:#ff7f0e;stroke:#ffffff;stroke-width:0.75;" x="617.803302" xlink:href="#me908d7916f" y="150.624215"/>
     <use style="fill:#ff7f0e;stroke:#ffffff;stroke-width:0.75;" x="625.647726" xlink:href="#me908d7916f" y="150.659629"/>
     <use style="fill:#ff7f0e;stroke:#ffffff;stroke-width:0.75;" x="633.492149" xlink:href="#me908d7916f" y="150.297549"/>
     <use style="fill:#ff7f0e;stroke:#ffffff;stroke-width:0.75;" x="641.336573" xlink:href="#me908d7916f" y="149.778536"/>
     <use style="fill:#ff7f0e;stroke:#ffffff;stroke-width:0.75;" x="649.180997" xlink:href="#me908d7916f" y="150.116678"/>
     <use style="fill:#ff7f0e;stroke:#ffffff;stroke-width:0.75;" x="657.02542" xlink:href="#me908d7916f" y="149.732311"/>
     <use style="fill:#ff7f0e;stroke:#ffffff;stroke-width:0.75;" x="664.869844" xlink:href="#me908d7916f" y="149.590643"/>
     <use style="fill:#ff7f0e;stroke:#ffffff;stroke-width:0.75;" x="672.714268" xlink:href="#me908d7916f" y="149.102718"/>
     <use style="fill:#ff7f0e;stroke:#ffffff;stroke-width:0.75;" x="680.558691" xlink:href="#me908d7916f" y="148.758195"/>
     <use style="fill:#ff7f0e;stroke:#ffffff;stroke-width:0.75;" x="688.403115" xlink:href="#me908d7916f" y="148.649721"/>
     <use style="fill:#ff7f0e;stroke:#ffffff;stroke-width:0.75;" x="696.247538" xlink:href="#me908d7916f" y="148.305512"/>
     <use style="fill:#ff7f0e;stroke:#ffffff;stroke-width:0.75;" x="704.091962" xlink:href="#me908d7916f" y="148.451818"/>
     <use style="fill:#ff7f0e;stroke:#ffffff;stroke-width:0.75;" x="711.936386" xlink:href="#me908d7916f" y="148.539871"/>
     <use style="fill:#ff7f0e;stroke:#ffffff;stroke-width:0.75;" x="719.780809" xlink:href="#me908d7916f" y="148.147144"/>
     <use style="fill:#ff7f0e;stroke:#ffffff;stroke-width:0.75;" x="727.625233" xlink:href="#me908d7916f" y="147.883216"/>
     <use style="fill:#ff7f0e;stroke:#ffffff;stroke-width:0.75;" x="735.469656" xlink:href="#me908d7916f" y="147.671065"/>
     <use style="fill:#ff7f0e;stroke:#ffffff;stroke-width:0.75;" x="743.31408" xlink:href="#me908d7916f" y="147.275716"/>
     <use style="fill:#ff7f0e;stroke:#ffffff;stroke-width:0.75;" x="751.158504" xlink:href="#me908d7916f" y="147.210985"/>
     <use style="fill:#ff7f0e;stroke:#ffffff;stroke-width:0.75;" x="759.002927" xlink:href="#me908d7916f" y="146.731545"/>
     <use style="fill:#ff7f0e;stroke:#ffffff;stroke-width:0.75;" x="766.847351" xlink:href="#me908d7916f" y="146.813361"/>
     <use style="fill:#ff7f0e;stroke:#ffffff;stroke-width:0.75;" x="774.691775" xlink:href="#me908d7916f" y="146.384421"/>
     <use style="fill:#ff7f0e;stroke:#ffffff;stroke-width:0.75;" x="782.536198" xlink:href="#me908d7916f" y="147.022264"/>
     <use style="fill:#ff7f0e;stroke:#ffffff;stroke-width:0.75;" x="790.380622" xlink:href="#me908d7916f" y="146.875023"/>
     <use style="fill:#ff7f0e;stroke:#ffffff;stroke-width:0.75;" x="798.225045" xlink:href="#me908d7916f" y="146.575039"/>
     <use style="fill:#ff7f0e;stroke:#ffffff;stroke-width:0.75;" x="806.069469" xlink:href="#me908d7916f" y="146.351907"/>
     <use style="fill:#ff7f0e;stroke:#ffffff;stroke-width:0.75;" x="813.913893" xlink:href="#me908d7916f" y="146.026282"/>
     <use style="fill:#ff7f0e;stroke:#ffffff;stroke-width:0.75;" x="821.758316" xlink:href="#me908d7916f" y="145.968901"/>
     <use style="fill:#ff7f0e;stroke:#ffffff;stroke-width:0.75;" x="829.60274" xlink:href="#me908d7916f" y="145.946211"/>
     <use style="fill:#ff7f0e;stroke:#ffffff;stroke-width:0.75;" x="837.447163" xlink:href="#me908d7916f" y="145.50419"/>
     <use style="fill:#ff7f0e;stroke:#ffffff;stroke-width:0.75;" x="845.291587" xlink:href="#me908d7916f" y="145.212982"/>
     <use style="fill:#ff7f0e;stroke:#ffffff;stroke-width:0.75;" x="853.136011" xlink:href="#me908d7916f" y="144.996417"/>
     <use style="fill:#ff7f0e;stroke:#ffffff;stroke-width:0.75;" x="860.980434" xlink:href="#me908d7916f" y="144.732845"/>
     <use style="fill:#ff7f0e;stroke:#ffffff;stroke-width:0.75;" x="868.824858" xlink:href="#me908d7916f" y="145.074801"/>
    </g>
   </g>
   <g id="line2d_11">
    <path clip-path="url(#p812264f531)" d="M 107.915767 27.561008 
L 115.760191 41.394958 
L 123.604614 114.770926 
L 131.449038 113.145422 
L 139.293462 129.862698 
L 147.137885 130.639832 
L 154.982309 130.131933 
L 162.826732 131.275052 
L 170.671156 132.782896 
L 178.51558 135.115711 
L 186.360003 135.779665 
L 194.204427 141.883618 
L 202.04885 142.460816 
L 209.893274 140.545455 
L 217.737698 140.28258 
L 225.582121 141.361853 
L 233.426545 144.293314 
L 241.270969 146.62115 
L 249.115392 143.259749 
L 256.959816 144.2972 
L 264.804239 143.448716 
L 272.648663 140.814935 
L 280.493087 140.807595 
L 288.33751 140.229195 
L 296.181934 141.916921 
L 304.026357 142.335078 
L 311.870781 142.946366 
L 319.715205 142.932889 
L 327.559628 142.343336 
L 335.404052 142.920392 
L 343.248476 142.63347 
L 351.092899 142.757723 
L 358.937323 143.076074 
L 366.781746 144.116233 
L 374.62617 143.978075 
L 382.470594 144.223382 
L 390.315017 143.701261 
L 398.159441 144.827937 
L 406.003865 145.026639 
L 413.848288 145.606133 
L 421.692712 144.693958 
L 429.537135 145.124704 
L 437.381559 145.001993 
L 445.225983 145.167283 
L 453.070406 144.912935 
L 460.91483 145.552684 
L 468.759253 143.622529 
L 476.603677 143.85157 
L 484.448101 143.417918 
L 492.292524 143.03966 
L 500.136948 140.993873 
L 507.981372 140.876997 
L 515.825795 141.791257 
L 523.670219 141.991698 
L 531.514642 140.317239 
L 539.359066 140.499449 
L 547.20349 140.244383 
L 555.047913 140.38351 
L 562.892337 141.850144 
L 570.73676 141.191511 
L 578.581184 140.888367 
L 586.425608 138.432843 
L 594.270031 138.843794 
L 602.114455 138.811164 
L 609.958879 138.70537 
L 617.803302 138.7594 
L 625.647726 138.936153 
L 633.492149 139.41535 
L 641.336573 139.978979 
L 649.180997 140.387211 
L 657.02542 140.25833 
L 664.869844 140.454528 
L 672.714268 141.101992 
L 680.558691 141.389149 
L 688.403115 142.21611 
L 696.247538 141.760222 
L 704.091962 142.265869 
L 711.936386 142.425146 
L 719.780809 142.530203 
L 727.625233 142.688878 
L 735.469656 142.892255 
L 743.31408 142.871565 
L 751.158504 142.85679 
L 759.002927 142.836704 
L 766.847351 143.154042 
L 774.691775 143.173721 
L 782.536198 143.391427 
L 790.380622 142.987562 
L 798.225045 142.56878 
L 806.069469 142.845525 
L 813.913893 139.793434 
L 821.758316 139.450884 
L 829.60274 139.221061 
L 837.447163 140.404145 
L 845.291587 139.676527 
L 853.136011 139.852227 
L 860.980434 139.811706 
L 868.824858 140.045162 
" style="fill:none;stroke:#2ca02c;stroke-linecap:round;stroke-width:1.5;"/>
    <defs>
     <path d="M 0 3 
C 0.795609 3 1.55874 2.683901 2.12132 2.12132 
C 2.683901 1.55874 3 0.795609 3 0 
C 3 -0.795609 2.683901 -1.55874 2.12132 -2.12132 
C 1.55874 -2.683901 0.795609 -3 0 -3 
C -0.795609 -3 -1.55874 -2.683901 -2.12132 -2.12132 
C -2.683901 -1.55874 -3 -0.795609 -3 0 
C -3 0.795609 -2.683901 1.55874 -2.12132 2.12132 
C -1.55874 2.683901 -0.795609 3 0 3 
z
" id="ma7c99b2548" style="stroke:#ffffff;stroke-width:0.75;"/>
    </defs>
    <g clip-path="url(#p812264f531)">
     <use style="fill:#2ca02c;stroke:#ffffff;stroke-width:0.75;" x="107.915767" xlink:href="#ma7c99b2548" y="27.561008"/>
     <use style="fill:#2ca02c;stroke:#ffffff;stroke-width:0.75;" x="115.760191" xlink:href="#ma7c99b2548" y="41.394958"/>
     <use style="fill:#2ca02c;stroke:#ffffff;stroke-width:0.75;" x="123.604614" xlink:href="#ma7c99b2548" y="114.770926"/>
     <use style="fill:#2ca02c;stroke:#ffffff;stroke-width:0.75;" x="131.449038" xlink:href="#ma7c99b2548" y="113.145422"/>
     <use style="fill:#2ca02c;stroke:#ffffff;stroke-width:0.75;" x="139.293462" xlink:href="#ma7c99b2548" y="129.862698"/>
     <use style="fill:#2ca02c;stroke:#ffffff;stroke-width:0.75;" x="147.137885" xlink:href="#ma7c99b2548" y="130.639832"/>
     <use style="fill:#2ca02c;stroke:#ffffff;stroke-width:0.75;" x="154.982309" xlink:href="#ma7c99b2548" y="130.131933"/>
     <use style="fill:#2ca02c;stroke:#ffffff;stroke-width:0.75;" x="162.826732" xlink:href="#ma7c99b2548" y="131.275052"/>
     <use style="fill:#2ca02c;stroke:#ffffff;stroke-width:0.75;" x="170.671156" xlink:href="#ma7c99b2548" y="132.782896"/>
     <use style="fill:#2ca02c;stroke:#ffffff;stroke-width:0.75;" x="178.51558" xlink:href="#ma7c99b2548" y="135.115711"/>
     <use style="fill:#2ca02c;stroke:#ffffff;stroke-width:0.75;" x="186.360003" xlink:href="#ma7c99b2548" y="135.779665"/>
     <use style="fill:#2ca02c;stroke:#ffffff;stroke-width:0.75;" x="194.204427" xlink:href="#ma7c99b2548" y="141.883618"/>
     <use style="fill:#2ca02c;stroke:#ffffff;stroke-width:0.75;" x="202.04885" xlink:href="#ma7c99b2548" y="142.460816"/>
     <use style="fill:#2ca02c;stroke:#ffffff;stroke-width:0.75;" x="209.893274" xlink:href="#ma7c99b2548" y="140.545455"/>
     <use style="fill:#2ca02c;stroke:#ffffff;stroke-width:0.75;" x="217.737698" xlink:href="#ma7c99b2548" y="140.28258"/>
     <use style="fill:#2ca02c;stroke:#ffffff;stroke-width:0.75;" x="225.582121" xlink:href="#ma7c99b2548" y="141.361853"/>
     <use style="fill:#2ca02c;stroke:#ffffff;stroke-width:0.75;" x="233.426545" xlink:href="#ma7c99b2548" y="144.293314"/>
     <use style="fill:#2ca02c;stroke:#ffffff;stroke-width:0.75;" x="241.270969" xlink:href="#ma7c99b2548" y="146.62115"/>
     <use style="fill:#2ca02c;stroke:#ffffff;stroke-width:0.75;" x="249.115392" xlink:href="#ma7c99b2548" y="143.259749"/>
     <use style="fill:#2ca02c;stroke:#ffffff;stroke-width:0.75;" x="256.959816" xlink:href="#ma7c99b2548" y="144.2972"/>
     <use style="fill:#2ca02c;stroke:#ffffff;stroke-width:0.75;" x="264.804239" xlink:href="#ma7c99b2548" y="143.448716"/>
     <use style="fill:#2ca02c;stroke:#ffffff;stroke-width:0.75;" x="272.648663" xlink:href="#ma7c99b2548" y="140.814935"/>
     <use style="fill:#2ca02c;stroke:#ffffff;stroke-width:0.75;" x="280.493087" xlink:href="#ma7c99b2548" y="140.807595"/>
     <use style="fill:#2ca02c;stroke:#ffffff;stroke-width:0.75;" x="288.33751" xlink:href="#ma7c99b2548" y="140.229195"/>
     <use style="fill:#2ca02c;stroke:#ffffff;stroke-width:0.75;" x="296.181934" xlink:href="#ma7c99b2548" y="141.916921"/>
     <use style="fill:#2ca02c;stroke:#ffffff;stroke-width:0.75;" x="304.026357" xlink:href="#ma7c99b2548" y="142.335078"/>
     <use style="fill:#2ca02c;stroke:#ffffff;stroke-width:0.75;" x="311.870781" xlink:href="#ma7c99b2548" y="142.946366"/>
     <use style="fill:#2ca02c;stroke:#ffffff;stroke-width:0.75;" x="319.715205" xlink:href="#ma7c99b2548" y="142.932889"/>
     <use style="fill:#2ca02c;stroke:#ffffff;stroke-width:0.75;" x="327.559628" xlink:href="#ma7c99b2548" y="142.343336"/>
     <use style="fill:#2ca02c;stroke:#ffffff;stroke-width:0.75;" x="335.404052" xlink:href="#ma7c99b2548" y="142.920392"/>
     <use style="fill:#2ca02c;stroke:#ffffff;stroke-width:0.75;" x="343.248476" xlink:href="#ma7c99b2548" y="142.63347"/>
     <use style="fill:#2ca02c;stroke:#ffffff;stroke-width:0.75;" x="351.092899" xlink:href="#ma7c99b2548" y="142.757723"/>
     <use style="fill:#2ca02c;stroke:#ffffff;stroke-width:0.75;" x="358.937323" xlink:href="#ma7c99b2548" y="143.076074"/>
     <use style="fill:#2ca02c;stroke:#ffffff;stroke-width:0.75;" x="366.781746" xlink:href="#ma7c99b2548" y="144.116233"/>
     <use style="fill:#2ca02c;stroke:#ffffff;stroke-width:0.75;" x="374.62617" xlink:href="#ma7c99b2548" y="143.978075"/>
     <use style="fill:#2ca02c;stroke:#ffffff;stroke-width:0.75;" x="382.470594" xlink:href="#ma7c99b2548" y="144.223382"/>
     <use style="fill:#2ca02c;stroke:#ffffff;stroke-width:0.75;" x="390.315017" xlink:href="#ma7c99b2548" y="143.701261"/>
     <use style="fill:#2ca02c;stroke:#ffffff;stroke-width:0.75;" x="398.159441" xlink:href="#ma7c99b2548" y="144.827937"/>
     <use style="fill:#2ca02c;stroke:#ffffff;stroke-width:0.75;" x="406.003865" xlink:href="#ma7c99b2548" y="145.026639"/>
     <use style="fill:#2ca02c;stroke:#ffffff;stroke-width:0.75;" x="413.848288" xlink:href="#ma7c99b2548" y="145.606133"/>
     <use style="fill:#2ca02c;stroke:#ffffff;stroke-width:0.75;" x="421.692712" xlink:href="#ma7c99b2548" y="144.693958"/>
     <use style="fill:#2ca02c;stroke:#ffffff;stroke-width:0.75;" x="429.537135" xlink:href="#ma7c99b2548" y="145.124704"/>
     <use style="fill:#2ca02c;stroke:#ffffff;stroke-width:0.75;" x="437.381559" xlink:href="#ma7c99b2548" y="145.001993"/>
     <use style="fill:#2ca02c;stroke:#ffffff;stroke-width:0.75;" x="445.225983" xlink:href="#ma7c99b2548" y="145.167283"/>
     <use style="fill:#2ca02c;stroke:#ffffff;stroke-width:0.75;" x="453.070406" xlink:href="#ma7c99b2548" y="144.912935"/>
     <use style="fill:#2ca02c;stroke:#ffffff;stroke-width:0.75;" x="460.91483" xlink:href="#ma7c99b2548" y="145.552684"/>
     <use style="fill:#2ca02c;stroke:#ffffff;stroke-width:0.75;" x="468.759253" xlink:href="#ma7c99b2548" y="143.622529"/>
     <use style="fill:#2ca02c;stroke:#ffffff;stroke-width:0.75;" x="476.603677" xlink:href="#ma7c99b2548" y="143.85157"/>
     <use style="fill:#2ca02c;stroke:#ffffff;stroke-width:0.75;" x="484.448101" xlink:href="#ma7c99b2548" y="143.417918"/>
     <use style="fill:#2ca02c;stroke:#ffffff;stroke-width:0.75;" x="492.292524" xlink:href="#ma7c99b2548" y="143.03966"/>
     <use style="fill:#2ca02c;stroke:#ffffff;stroke-width:0.75;" x="500.136948" xlink:href="#ma7c99b2548" y="140.993873"/>
     <use style="fill:#2ca02c;stroke:#ffffff;stroke-width:0.75;" x="507.981372" xlink:href="#ma7c99b2548" y="140.876997"/>
     <use style="fill:#2ca02c;stroke:#ffffff;stroke-width:0.75;" x="515.825795" xlink:href="#ma7c99b2548" y="141.791257"/>
     <use style="fill:#2ca02c;stroke:#ffffff;stroke-width:0.75;" x="523.670219" xlink:href="#ma7c99b2548" y="141.991698"/>
     <use style="fill:#2ca02c;stroke:#ffffff;stroke-width:0.75;" x="531.514642" xlink:href="#ma7c99b2548" y="140.317239"/>
     <use style="fill:#2ca02c;stroke:#ffffff;stroke-width:0.75;" x="539.359066" xlink:href="#ma7c99b2548" y="140.499449"/>
     <use style="fill:#2ca02c;stroke:#ffffff;stroke-width:0.75;" x="547.20349" xlink:href="#ma7c99b2548" y="140.244383"/>
     <use style="fill:#2ca02c;stroke:#ffffff;stroke-width:0.75;" x="555.047913" xlink:href="#ma7c99b2548" y="140.38351"/>
     <use style="fill:#2ca02c;stroke:#ffffff;stroke-width:0.75;" x="562.892337" xlink:href="#ma7c99b2548" y="141.850144"/>
     <use style="fill:#2ca02c;stroke:#ffffff;stroke-width:0.75;" x="570.73676" xlink:href="#ma7c99b2548" y="141.191511"/>
     <use style="fill:#2ca02c;stroke:#ffffff;stroke-width:0.75;" x="578.581184" xlink:href="#ma7c99b2548" y="140.888367"/>
     <use style="fill:#2ca02c;stroke:#ffffff;stroke-width:0.75;" x="586.425608" xlink:href="#ma7c99b2548" y="138.432843"/>
     <use style="fill:#2ca02c;stroke:#ffffff;stroke-width:0.75;" x="594.270031" xlink:href="#ma7c99b2548" y="138.843794"/>
     <use style="fill:#2ca02c;stroke:#ffffff;stroke-width:0.75;" x="602.114455" xlink:href="#ma7c99b2548" y="138.811164"/>
     <use style="fill:#2ca02c;stroke:#ffffff;stroke-width:0.75;" x="609.958879" xlink:href="#ma7c99b2548" y="138.70537"/>
     <use style="fill:#2ca02c;stroke:#ffffff;stroke-width:0.75;" x="617.803302" xlink:href="#ma7c99b2548" y="138.7594"/>
     <use style="fill:#2ca02c;stroke:#ffffff;stroke-width:0.75;" x="625.647726" xlink:href="#ma7c99b2548" y="138.936153"/>
     <use style="fill:#2ca02c;stroke:#ffffff;stroke-width:0.75;" x="633.492149" xlink:href="#ma7c99b2548" y="139.41535"/>
     <use style="fill:#2ca02c;stroke:#ffffff;stroke-width:0.75;" x="641.336573" xlink:href="#ma7c99b2548" y="139.978979"/>
     <use style="fill:#2ca02c;stroke:#ffffff;stroke-width:0.75;" x="649.180997" xlink:href="#ma7c99b2548" y="140.387211"/>
     <use style="fill:#2ca02c;stroke:#ffffff;stroke-width:0.75;" x="657.02542" xlink:href="#ma7c99b2548" y="140.25833"/>
     <use style="fill:#2ca02c;stroke:#ffffff;stroke-width:0.75;" x="664.869844" xlink:href="#ma7c99b2548" y="140.454528"/>
     <use style="fill:#2ca02c;stroke:#ffffff;stroke-width:0.75;" x="672.714268" xlink:href="#ma7c99b2548" y="141.101992"/>
     <use style="fill:#2ca02c;stroke:#ffffff;stroke-width:0.75;" x="680.558691" xlink:href="#ma7c99b2548" y="141.389149"/>
     <use style="fill:#2ca02c;stroke:#ffffff;stroke-width:0.75;" x="688.403115" xlink:href="#ma7c99b2548" y="142.21611"/>
     <use style="fill:#2ca02c;stroke:#ffffff;stroke-width:0.75;" x="696.247538" xlink:href="#ma7c99b2548" y="141.760222"/>
     <use style="fill:#2ca02c;stroke:#ffffff;stroke-width:0.75;" x="704.091962" xlink:href="#ma7c99b2548" y="142.265869"/>
     <use style="fill:#2ca02c;stroke:#ffffff;stroke-width:0.75;" x="711.936386" xlink:href="#ma7c99b2548" y="142.425146"/>
     <use style="fill:#2ca02c;stroke:#ffffff;stroke-width:0.75;" x="719.780809" xlink:href="#ma7c99b2548" y="142.530203"/>
     <use style="fill:#2ca02c;stroke:#ffffff;stroke-width:0.75;" x="727.625233" xlink:href="#ma7c99b2548" y="142.688878"/>
     <use style="fill:#2ca02c;stroke:#ffffff;stroke-width:0.75;" x="735.469656" xlink:href="#ma7c99b2548" y="142.892255"/>
     <use style="fill:#2ca02c;stroke:#ffffff;stroke-width:0.75;" x="743.31408" xlink:href="#ma7c99b2548" y="142.871565"/>
     <use style="fill:#2ca02c;stroke:#ffffff;stroke-width:0.75;" x="751.158504" xlink:href="#ma7c99b2548" y="142.85679"/>
     <use style="fill:#2ca02c;stroke:#ffffff;stroke-width:0.75;" x="759.002927" xlink:href="#ma7c99b2548" y="142.836704"/>
     <use style="fill:#2ca02c;stroke:#ffffff;stroke-width:0.75;" x="766.847351" xlink:href="#ma7c99b2548" y="143.154042"/>
     <use style="fill:#2ca02c;stroke:#ffffff;stroke-width:0.75;" x="774.691775" xlink:href="#ma7c99b2548" y="143.173721"/>
     <use style="fill:#2ca02c;stroke:#ffffff;stroke-width:0.75;" x="782.536198" xlink:href="#ma7c99b2548" y="143.391427"/>
     <use style="fill:#2ca02c;stroke:#ffffff;stroke-width:0.75;" x="790.380622" xlink:href="#ma7c99b2548" y="142.987562"/>
     <use style="fill:#2ca02c;stroke:#ffffff;stroke-width:0.75;" x="798.225045" xlink:href="#ma7c99b2548" y="142.56878"/>
     <use style="fill:#2ca02c;stroke:#ffffff;stroke-width:0.75;" x="806.069469" xlink:href="#ma7c99b2548" y="142.845525"/>
     <use style="fill:#2ca02c;stroke:#ffffff;stroke-width:0.75;" x="813.913893" xlink:href="#ma7c99b2548" y="139.793434"/>
     <use style="fill:#2ca02c;stroke:#ffffff;stroke-width:0.75;" x="821.758316" xlink:href="#ma7c99b2548" y="139.450884"/>
     <use style="fill:#2ca02c;stroke:#ffffff;stroke-width:0.75;" x="829.60274" xlink:href="#ma7c99b2548" y="139.221061"/>
     <use style="fill:#2ca02c;stroke:#ffffff;stroke-width:0.75;" x="837.447163" xlink:href="#ma7c99b2548" y="140.404145"/>
     <use style="fill:#2ca02c;stroke:#ffffff;stroke-width:0.75;" x="845.291587" xlink:href="#ma7c99b2548" y="139.676527"/>
     <use style="fill:#2ca02c;stroke:#ffffff;stroke-width:0.75;" x="853.136011" xlink:href="#ma7c99b2548" y="139.852227"/>
     <use style="fill:#2ca02c;stroke:#ffffff;stroke-width:0.75;" x="860.980434" xlink:href="#ma7c99b2548" y="139.811706"/>
     <use style="fill:#2ca02c;stroke:#ffffff;stroke-width:0.75;" x="868.824858" xlink:href="#ma7c99b2548" y="140.045162"/>
    </g>
   </g>
   <g id="line2d_12"/>
   <g id="line2d_13"/>
   <g id="line2d_14"/>
   <g id="patch_3">
    <path d="M 69.870312 279 
L 906.870313 279 
" style="fill:none;stroke:#cccccc;stroke-linecap:square;stroke-linejoin:miter;stroke-width:0.8;"/>
   </g>
   <g id="legend_1">
    <g id="patch_4">
     <path d="M 787.510156 104.423438 
L 896.370312 104.423438 
Q 899.370312 104.423438 899.370312 101.423438 
L 899.370312 17.7 
Q 899.370312 14.7 896.370312 14.7 
L 787.510156 14.7 
Q 784.510156 14.7 784.510156 17.7 
L 784.510156 101.423438 
Q 784.510156 104.423438 787.510156 104.423438 
z
" style="fill:#ffffff;opacity:0.8;stroke:#cccccc;stroke-linejoin:miter;"/>
    </g>
    <g id="text_17">
     <!-- Method -->
     <g style="fill:#262626;" transform="translate(816.926562 31.436719)scale(0.15 -0.15)">
      <defs>
       <path d="M 475 0 
L 475 4581 
L 1388 4581 
L 2472 1338 
Q 2622 884 2691 659 
Q 2769 909 2934 1394 
L 4031 4581 
L 4847 4581 
L 4847 0 
L 4263 0 
L 4263 3834 
L 2931 0 
L 2384 0 
L 1059 3900 
L 1059 0 
L 475 0 
z
" id="ArialMT-4d" transform="scale(0.015625)"/>
       <path d="M 2575 0 
L 2575 419 
Q 2259 -75 1647 -75 
Q 1250 -75 917 144 
Q 584 363 401 755 
Q 219 1147 219 1656 
Q 219 2153 384 2558 
Q 550 2963 881 3178 
Q 1213 3394 1622 3394 
Q 1922 3394 2156 3267 
Q 2391 3141 2538 2938 
L 2538 4581 
L 3097 4581 
L 3097 0 
L 2575 0 
z
M 797 1656 
Q 797 1019 1065 703 
Q 1334 388 1700 388 
Q 2069 388 2326 689 
Q 2584 991 2584 1609 
Q 2584 2291 2321 2609 
Q 2059 2928 1675 2928 
Q 1300 2928 1048 2622 
Q 797 2316 797 1656 
z
" id="ArialMT-64" transform="scale(0.015625)"/>
      </defs>
      <use xlink:href="#ArialMT-4d"/>
      <use x="83.300781" xlink:href="#ArialMT-65"/>
      <use x="138.916016" xlink:href="#ArialMT-74"/>
      <use x="166.699219" xlink:href="#ArialMT-68"/>
      <use x="222.314453" xlink:href="#ArialMT-6f"/>
      <use x="277.929688" xlink:href="#ArialMT-64"/>
     </g>
    </g>
    <g id="line2d_15">
     <path d="M 790.510156 47.404688 
L 820.510156 47.404688 
" style="fill:none;stroke:#1f77b4;stroke-linecap:round;stroke-width:1.5;"/>
    </g>
    <g id="line2d_16">
     <g>
      <use style="fill:#1f77b4;stroke:#ffffff;stroke-width:0.75;" x="805.510156" xlink:href="#md0995aa311" y="47.404688"/>
     </g>
    </g>
    <g id="text_18">
     <!-- single -->
     <g style="fill:#262626;" transform="translate(832.510156 52.654688)scale(0.15 -0.15)">
      <defs>
       <path d="M 197 991 
L 753 1078 
Q 800 744 1014 566 
Q 1228 388 1613 388 
Q 2000 388 2187 545 
Q 2375 703 2375 916 
Q 2375 1106 2209 1216 
Q 2094 1291 1634 1406 
Q 1016 1563 777 1677 
Q 538 1791 414 1992 
Q 291 2194 291 2438 
Q 291 2659 392 2848 
Q 494 3038 669 3163 
Q 800 3259 1026 3326 
Q 1253 3394 1513 3394 
Q 1903 3394 2198 3281 
Q 2494 3169 2634 2976 
Q 2775 2784 2828 2463 
L 2278 2388 
Q 2241 2644 2061 2787 
Q 1881 2931 1553 2931 
Q 1166 2931 1000 2803 
Q 834 2675 834 2503 
Q 834 2394 903 2306 
Q 972 2216 1119 2156 
Q 1203 2125 1616 2013 
Q 2213 1853 2448 1751 
Q 2684 1650 2818 1456 
Q 2953 1263 2953 975 
Q 2953 694 2789 445 
Q 2625 197 2315 61 
Q 2006 -75 1616 -75 
Q 969 -75 630 194 
Q 291 463 197 991 
z
" id="ArialMT-73" transform="scale(0.015625)"/>
       <path d="M 422 0 
L 422 3319 
L 928 3319 
L 928 2847 
Q 1294 3394 1984 3394 
Q 2284 3394 2536 3286 
Q 2788 3178 2913 3003 
Q 3038 2828 3088 2588 
Q 3119 2431 3119 2041 
L 3119 0 
L 2556 0 
L 2556 2019 
Q 2556 2363 2490 2533 
Q 2425 2703 2258 2804 
Q 2091 2906 1866 2906 
Q 1506 2906 1245 2678 
Q 984 2450 984 1813 
L 984 0 
L 422 0 
z
" id="ArialMT-6e" transform="scale(0.015625)"/>
       <path d="M 319 -275 
L 866 -356 
Q 900 -609 1056 -725 
Q 1266 -881 1628 -881 
Q 2019 -881 2231 -725 
Q 2444 -569 2519 -288 
Q 2563 -116 2559 434 
Q 2191 0 1641 0 
Q 956 0 581 494 
Q 206 988 206 1678 
Q 206 2153 378 2554 
Q 550 2956 876 3175 
Q 1203 3394 1644 3394 
Q 2231 3394 2613 2919 
L 2613 3319 
L 3131 3319 
L 3131 450 
Q 3131 -325 2973 -648 
Q 2816 -972 2473 -1159 
Q 2131 -1347 1631 -1347 
Q 1038 -1347 672 -1080 
Q 306 -813 319 -275 
z
M 784 1719 
Q 784 1066 1043 766 
Q 1303 466 1694 466 
Q 2081 466 2343 764 
Q 2606 1063 2606 1700 
Q 2606 2309 2336 2618 
Q 2066 2928 1684 2928 
Q 1309 2928 1046 2623 
Q 784 2319 784 1719 
z
" id="ArialMT-67" transform="scale(0.015625)"/>
      </defs>
      <use xlink:href="#ArialMT-73"/>
      <use x="50" xlink:href="#ArialMT-69"/>
      <use x="72.216797" xlink:href="#ArialMT-6e"/>
      <use x="127.832031" xlink:href="#ArialMT-67"/>
      <use x="183.447266" xlink:href="#ArialMT-6c"/>
      <use x="205.664062" xlink:href="#ArialMT-65"/>
     </g>
    </g>
    <g id="line2d_17">
     <path d="M 790.510156 68.798438 
L 820.510156 68.798438 
" style="fill:none;stroke:#ff7f0e;stroke-linecap:round;stroke-width:1.5;"/>
    </g>
    <g id="line2d_18">
     <g>
      <use style="fill:#ff7f0e;stroke:#ffffff;stroke-width:0.75;" x="805.510156" xlink:href="#me908d7916f" y="68.798438"/>
     </g>
    </g>
    <g id="text_19">
     <!-- complete -->
     <g style="fill:#262626;" transform="translate(832.510156 74.048438)scale(0.15 -0.15)">
      <defs>
       <path d="M 422 0 
L 422 3319 
L 925 3319 
L 925 2853 
Q 1081 3097 1340 3245 
Q 1600 3394 1931 3394 
Q 2300 3394 2536 3241 
Q 2772 3088 2869 2813 
Q 3263 3394 3894 3394 
Q 4388 3394 4653 3120 
Q 4919 2847 4919 2278 
L 4919 0 
L 4359 0 
L 4359 2091 
Q 4359 2428 4304 2576 
Q 4250 2725 4106 2815 
Q 3963 2906 3769 2906 
Q 3419 2906 3187 2673 
Q 2956 2441 2956 1928 
L 2956 0 
L 2394 0 
L 2394 2156 
Q 2394 2531 2256 2718 
Q 2119 2906 1806 2906 
Q 1569 2906 1367 2781 
Q 1166 2656 1075 2415 
Q 984 2175 984 1722 
L 984 0 
L 422 0 
z
" id="ArialMT-6d" transform="scale(0.015625)"/>
       <path d="M 422 -1272 
L 422 3319 
L 934 3319 
L 934 2888 
Q 1116 3141 1344 3267 
Q 1572 3394 1897 3394 
Q 2322 3394 2647 3175 
Q 2972 2956 3137 2557 
Q 3303 2159 3303 1684 
Q 3303 1175 3120 767 
Q 2938 359 2589 142 
Q 2241 -75 1856 -75 
Q 1575 -75 1351 44 
Q 1128 163 984 344 
L 984 -1272 
L 422 -1272 
z
M 931 1641 
Q 931 1000 1190 694 
Q 1450 388 1819 388 
Q 2194 388 2461 705 
Q 2728 1022 2728 1688 
Q 2728 2322 2467 2637 
Q 2206 2953 1844 2953 
Q 1484 2953 1207 2617 
Q 931 2281 931 1641 
z
" id="ArialMT-70" transform="scale(0.015625)"/>
      </defs>
      <use xlink:href="#ArialMT-63"/>
      <use x="50" xlink:href="#ArialMT-6f"/>
      <use x="105.615234" xlink:href="#ArialMT-6d"/>
      <use x="188.916016" xlink:href="#ArialMT-70"/>
      <use x="244.53125" xlink:href="#ArialMT-6c"/>
      <use x="266.748047" xlink:href="#ArialMT-65"/>
      <use x="322.363281" xlink:href="#ArialMT-74"/>
      <use x="350.146484" xlink:href="#ArialMT-65"/>
     </g>
    </g>
    <g id="line2d_19">
     <path d="M 790.510156 90.016406 
L 820.510156 90.016406 
" style="fill:none;stroke:#2ca02c;stroke-linecap:round;stroke-width:1.5;"/>
    </g>
    <g id="line2d_20">
     <g>
      <use style="fill:#2ca02c;stroke:#ffffff;stroke-width:0.75;" x="805.510156" xlink:href="#ma7c99b2548" y="90.016406"/>
     </g>
    </g>
    <g id="text_20">
     <!-- weighted -->
     <g style="fill:#262626;" transform="translate(832.510156 95.266406)scale(0.15 -0.15)">
      <defs>
       <path d="M 1034 0 
L 19 3319 
L 600 3319 
L 1128 1403 
L 1325 691 
Q 1338 744 1497 1375 
L 2025 3319 
L 2603 3319 
L 3100 1394 
L 3266 759 
L 3456 1400 
L 4025 3319 
L 4572 3319 
L 3534 0 
L 2950 0 
L 2422 1988 
L 2294 2553 
L 1622 0 
L 1034 0 
z
" id="ArialMT-77" transform="scale(0.015625)"/>
      </defs>
      <use xlink:href="#ArialMT-77"/>
      <use x="72.216797" xlink:href="#ArialMT-65"/>
      <use x="127.832031" xlink:href="#ArialMT-69"/>
      <use x="150.048828" xlink:href="#ArialMT-67"/>
      <use x="205.664062" xlink:href="#ArialMT-68"/>
      <use x="261.279297" xlink:href="#ArialMT-74"/>
      <use x="289.0625" xlink:href="#ArialMT-65"/>
      <use x="344.677734" xlink:href="#ArialMT-64"/>
     </g>
    </g>
   </g>
  </g>
 </g>
 <defs>
  <clipPath id="p812264f531">
   <rect height="271.8" width="837" x="69.870312" y="7.2"/>
  </clipPath>
 </defs>
</svg>
