<?xml version="1.0" encoding="utf-8" standalone="no"?>
<!DOCTYPE svg PUBLIC "-//W3C//DTD SVG 1.1//EN"
  "http://www.w3.org/Graphics/SVG/1.1/DTD/svg11.dtd">
<svg height="324.635938pt" version="1.1" viewBox="0 0 362.270099 324.635938" width="362.270099pt" xmlns="http://www.w3.org/2000/svg" xmlns:xlink="http://www.w3.org/1999/xlink">
 <metadata>
  <rdf:RDF xmlns:cc="http://creativecommons.org/ns#" xmlns:dc="http://purl.org/dc/elements/1.1/" xmlns:rdf="http://www.w3.org/1999/02/22-rdf-syntax-ns#">
   <cc:Work>
    <dc:type rdf:resource="http://purl.org/dc/dcmitype/StillImage"/>
    <dc:date>2022-05-13T17:44:38.636579</dc:date>
    <dc:format>image/svg+xml</dc:format>
    <dc:creator>
     <cc:Agent>
      <dc:title>Matplotlib v3.4.3, https://matplotlib.org/</dc:title>
     </cc:Agent>
    </dc:creator>
   </cc:Work>
  </rdf:RDF>
 </metadata>
 <defs>
  <style type="text/css">*{stroke-linecap:butt;stroke-linejoin:round;}</style>
 </defs>
 <g id="figure_1">
  <g id="patch_1">
   <path d="M 0 324.635938 
L 362.270099 324.635938 
L 362.270099 0 
L 0 0 
z
" style="fill:#ffffff;"/>
  </g>
  <g id="axes_1">
   <g id="patch_2">
    <path d="M 73.625 279 
L 352.625 279 
L 352.625 7.2 
L 73.625 7.2 
z
" style="fill:#ffffff;"/>
   </g>
   <g id="matplotlib.axis_1">
    <g id="xtick_1">
     <g id="text_1">
      <!-- 0 -->
      <g style="fill:#262626;" transform="translate(76.906499 296.736719)scale(0.15 -0.15)">
       <defs>
        <path d="M 266 2259 
Q 266 3072 433 3567 
Q 600 4063 929 4331 
Q 1259 4600 1759 4600 
Q 2128 4600 2406 4451 
Q 2684 4303 2865 4023 
Q 3047 3744 3150 3342 
Q 3253 2941 3253 2259 
Q 3253 1453 3087 958 
Q 2922 463 2592 192 
Q 2263 -78 1759 -78 
Q 1097 -78 719 397 
Q 266 969 266 2259 
z
M 844 2259 
Q 844 1131 1108 757 
Q 1372 384 1759 384 
Q 2147 384 2411 759 
Q 2675 1134 2675 2259 
Q 2675 3391 2411 3762 
Q 2147 4134 1753 4134 
Q 1366 4134 1134 3806 
Q 844 3388 844 2259 
z
" id="ArialMT-30" transform="scale(0.015625)"/>
       </defs>
       <use xlink:href="#ArialMT-30"/>
      </g>
     </g>
    </g>
    <g id="xtick_2">
     <g id="text_2">
      <!-- 20 -->
      <g style="fill:#262626;" transform="translate(125.031954 296.736719)scale(0.15 -0.15)">
       <defs>
        <path d="M 3222 541 
L 3222 0 
L 194 0 
Q 188 203 259 391 
Q 375 700 629 1000 
Q 884 1300 1366 1694 
Q 2113 2306 2375 2664 
Q 2638 3022 2638 3341 
Q 2638 3675 2398 3904 
Q 2159 4134 1775 4134 
Q 1369 4134 1125 3890 
Q 881 3647 878 3216 
L 300 3275 
Q 359 3922 746 4261 
Q 1134 4600 1788 4600 
Q 2447 4600 2831 4234 
Q 3216 3869 3216 3328 
Q 3216 3053 3103 2787 
Q 2991 2522 2730 2228 
Q 2469 1934 1863 1422 
Q 1356 997 1212 845 
Q 1069 694 975 541 
L 3222 541 
z
" id="ArialMT-32" transform="scale(0.015625)"/>
       </defs>
       <use xlink:href="#ArialMT-32"/>
       <use x="55.615234" xlink:href="#ArialMT-30"/>
      </g>
     </g>
    </g>
    <g id="xtick_3">
     <g id="text_3">
      <!-- 40 -->
      <g style="fill:#262626;" transform="translate(177.328111 296.736719)scale(0.15 -0.15)">
       <defs>
        <path d="M 2069 0 
L 2069 1097 
L 81 1097 
L 81 1613 
L 2172 4581 
L 2631 4581 
L 2631 1613 
L 3250 1613 
L 3250 1097 
L 2631 1097 
L 2631 0 
L 2069 0 
z
M 2069 1613 
L 2069 3678 
L 634 1613 
L 2069 1613 
z
" id="ArialMT-34" transform="scale(0.015625)"/>
       </defs>
       <use xlink:href="#ArialMT-34"/>
       <use x="55.615234" xlink:href="#ArialMT-30"/>
      </g>
     </g>
    </g>
    <g id="xtick_4">
     <g id="text_4">
      <!-- 60 -->
      <g style="fill:#262626;" transform="translate(229.624269 296.736719)scale(0.15 -0.15)">
       <defs>
        <path d="M 3184 3459 
L 2625 3416 
Q 2550 3747 2413 3897 
Q 2184 4138 1850 4138 
Q 1581 4138 1378 3988 
Q 1113 3794 959 3422 
Q 806 3050 800 2363 
Q 1003 2672 1297 2822 
Q 1591 2972 1913 2972 
Q 2475 2972 2870 2558 
Q 3266 2144 3266 1488 
Q 3266 1056 3080 686 
Q 2894 316 2569 119 
Q 2244 -78 1831 -78 
Q 1128 -78 684 439 
Q 241 956 241 2144 
Q 241 3472 731 4075 
Q 1159 4600 1884 4600 
Q 2425 4600 2770 4297 
Q 3116 3994 3184 3459 
z
M 888 1484 
Q 888 1194 1011 928 
Q 1134 663 1356 523 
Q 1578 384 1822 384 
Q 2178 384 2434 671 
Q 2691 959 2691 1453 
Q 2691 1928 2437 2201 
Q 2184 2475 1800 2475 
Q 1419 2475 1153 2201 
Q 888 1928 888 1484 
z
" id="ArialMT-36" transform="scale(0.015625)"/>
       </defs>
       <use xlink:href="#ArialMT-36"/>
       <use x="55.615234" xlink:href="#ArialMT-30"/>
      </g>
     </g>
    </g>
    <g id="xtick_5">
     <g id="text_5">
      <!-- 80 -->
      <g style="fill:#262626;" transform="translate(281.920426 296.736719)scale(0.15 -0.15)">
       <defs>
        <path d="M 1131 2484 
Q 781 2613 612 2850 
Q 444 3088 444 3419 
Q 444 3919 803 4259 
Q 1163 4600 1759 4600 
Q 2359 4600 2725 4251 
Q 3091 3903 3091 3403 
Q 3091 3084 2923 2848 
Q 2756 2613 2416 2484 
Q 2838 2347 3058 2040 
Q 3278 1734 3278 1309 
Q 3278 722 2862 322 
Q 2447 -78 1769 -78 
Q 1091 -78 675 323 
Q 259 725 259 1325 
Q 259 1772 486 2073 
Q 713 2375 1131 2484 
z
M 1019 3438 
Q 1019 3113 1228 2906 
Q 1438 2700 1772 2700 
Q 2097 2700 2305 2904 
Q 2513 3109 2513 3406 
Q 2513 3716 2298 3927 
Q 2084 4138 1766 4138 
Q 1444 4138 1231 3931 
Q 1019 3725 1019 3438 
z
M 838 1322 
Q 838 1081 952 856 
Q 1066 631 1291 507 
Q 1516 384 1775 384 
Q 2178 384 2440 643 
Q 2703 903 2703 1303 
Q 2703 1709 2433 1975 
Q 2163 2241 1756 2241 
Q 1359 2241 1098 1978 
Q 838 1716 838 1322 
z
" id="ArialMT-38" transform="scale(0.015625)"/>
       </defs>
       <use xlink:href="#ArialMT-38"/>
       <use x="55.615234" xlink:href="#ArialMT-30"/>
      </g>
     </g>
    </g>
    <g id="xtick_6">
     <g id="text_6">
      <!-- 100 -->
      <g style="fill:#262626;" transform="translate(330.04588 296.736719)scale(0.15 -0.15)">
       <defs>
        <path d="M 2384 0 
L 1822 0 
L 1822 3584 
Q 1619 3391 1289 3197 
Q 959 3003 697 2906 
L 697 3450 
Q 1169 3672 1522 3987 
Q 1875 4303 2022 4600 
L 2384 4600 
L 2384 0 
z
" id="ArialMT-31" transform="scale(0.015625)"/>
       </defs>
       <use xlink:href="#ArialMT-31"/>
       <use x="55.615234" xlink:href="#ArialMT-30"/>
       <use x="111.230469" xlink:href="#ArialMT-30"/>
      </g>
     </g>
    </g>
    <g id="text_7">
     <!-- k -->
     <g style="fill:#262626;" transform="translate(209.375 314.454688)scale(0.15 -0.15)">
      <defs>
       <path d="M 425 0 
L 425 4581 
L 988 4581 
L 988 1969 
L 2319 3319 
L 3047 3319 
L 1778 2088 
L 3175 0 
L 2481 0 
L 1384 1697 
L 988 1316 
L 988 0 
L 425 0 
z
" id="ArialMT-6b" transform="scale(0.015625)"/>
      </defs>
      <use xlink:href="#ArialMT-6b"/>
     </g>
    </g>
   </g>
   <g id="matplotlib.axis_2">
    <g id="ytick_1">
     <g id="line2d_1">
      <path clip-path="url(#pf5fe824d84)" d="M 73.625 276.502475 
L 352.625 276.502475 
" style="fill:none;stroke:#cccccc;stroke-linecap:round;stroke-width:0.8;"/>
     </g>
     <g id="text_8">
      <!-- 30000 -->
      <g style="fill:#262626;" transform="translate(24.917969 281.870834)scale(0.15 -0.15)">
       <defs>
        <path d="M 269 1209 
L 831 1284 
Q 928 806 1161 595 
Q 1394 384 1728 384 
Q 2125 384 2398 659 
Q 2672 934 2672 1341 
Q 2672 1728 2419 1979 
Q 2166 2231 1775 2231 
Q 1616 2231 1378 2169 
L 1441 2663 
Q 1497 2656 1531 2656 
Q 1891 2656 2178 2843 
Q 2466 3031 2466 3422 
Q 2466 3731 2256 3934 
Q 2047 4138 1716 4138 
Q 1388 4138 1169 3931 
Q 950 3725 888 3313 
L 325 3413 
Q 428 3978 793 4289 
Q 1159 4600 1703 4600 
Q 2078 4600 2393 4439 
Q 2709 4278 2876 4000 
Q 3044 3722 3044 3409 
Q 3044 3113 2884 2869 
Q 2725 2625 2413 2481 
Q 2819 2388 3044 2092 
Q 3269 1797 3269 1353 
Q 3269 753 2831 336 
Q 2394 -81 1725 -81 
Q 1122 -81 723 278 
Q 325 638 269 1209 
z
" id="ArialMT-33" transform="scale(0.015625)"/>
       </defs>
       <use xlink:href="#ArialMT-33"/>
       <use x="55.615234" xlink:href="#ArialMT-30"/>
       <use x="111.230469" xlink:href="#ArialMT-30"/>
       <use x="166.845703" xlink:href="#ArialMT-30"/>
       <use x="222.460938" xlink:href="#ArialMT-30"/>
      </g>
     </g>
    </g>
    <g id="ytick_2">
     <g id="line2d_2">
      <path clip-path="url(#pf5fe824d84)" d="M 73.625 225.300973 
L 352.625 225.300973 
" style="fill:none;stroke:#cccccc;stroke-linecap:round;stroke-width:0.8;"/>
     </g>
     <g id="text_9">
      <!-- 32000 -->
      <g style="fill:#262626;" transform="translate(24.917969 230.669333)scale(0.15 -0.15)">
       <use xlink:href="#ArialMT-33"/>
       <use x="55.615234" xlink:href="#ArialMT-32"/>
       <use x="111.230469" xlink:href="#ArialMT-30"/>
       <use x="166.845703" xlink:href="#ArialMT-30"/>
       <use x="222.460938" xlink:href="#ArialMT-30"/>
      </g>
     </g>
    </g>
    <g id="ytick_3">
     <g id="line2d_3">
      <path clip-path="url(#pf5fe824d84)" d="M 73.625 174.099472 
L 352.625 174.099472 
" style="fill:none;stroke:#cccccc;stroke-linecap:round;stroke-width:0.8;"/>
     </g>
     <g id="text_10">
      <!-- 34000 -->
      <g style="fill:#262626;" transform="translate(24.917969 179.467831)scale(0.15 -0.15)">
       <use xlink:href="#ArialMT-33"/>
       <use x="55.615234" xlink:href="#ArialMT-34"/>
       <use x="111.230469" xlink:href="#ArialMT-30"/>
       <use x="166.845703" xlink:href="#ArialMT-30"/>
       <use x="222.460938" xlink:href="#ArialMT-30"/>
      </g>
     </g>
    </g>
    <g id="ytick_4">
     <g id="line2d_4">
      <path clip-path="url(#pf5fe824d84)" d="M 73.625 122.89797 
L 352.625 122.89797 
" style="fill:none;stroke:#cccccc;stroke-linecap:round;stroke-width:0.8;"/>
     </g>
     <g id="text_11">
      <!-- 36000 -->
      <g style="fill:#262626;" transform="translate(24.917969 128.266329)scale(0.15 -0.15)">
       <use xlink:href="#ArialMT-33"/>
       <use x="55.615234" xlink:href="#ArialMT-36"/>
       <use x="111.230469" xlink:href="#ArialMT-30"/>
       <use x="166.845703" xlink:href="#ArialMT-30"/>
       <use x="222.460938" xlink:href="#ArialMT-30"/>
      </g>
     </g>
    </g>
    <g id="ytick_5">
     <g id="line2d_5">
      <path clip-path="url(#pf5fe824d84)" d="M 73.625 71.696468 
L 352.625 71.696468 
" style="fill:none;stroke:#cccccc;stroke-linecap:round;stroke-width:0.8;"/>
     </g>
     <g id="text_12">
      <!-- 38000 -->
      <g style="fill:#262626;" transform="translate(24.917969 77.064828)scale(0.15 -0.15)">
       <use xlink:href="#ArialMT-33"/>
       <use x="55.615234" xlink:href="#ArialMT-38"/>
       <use x="111.230469" xlink:href="#ArialMT-30"/>
       <use x="166.845703" xlink:href="#ArialMT-30"/>
       <use x="222.460938" xlink:href="#ArialMT-30"/>
      </g>
     </g>
    </g>
    <g id="ytick_6">
     <g id="line2d_6">
      <path clip-path="url(#pf5fe824d84)" d="M 73.625 20.494967 
L 352.625 20.494967 
" style="fill:none;stroke:#cccccc;stroke-linecap:round;stroke-width:0.8;"/>
     </g>
     <g id="text_13">
      <!-- 40000 -->
      <g style="fill:#262626;" transform="translate(24.917969 25.863326)scale(0.15 -0.15)">
       <use xlink:href="#ArialMT-34"/>
       <use x="55.615234" xlink:href="#ArialMT-30"/>
       <use x="111.230469" xlink:href="#ArialMT-30"/>
       <use x="166.845703" xlink:href="#ArialMT-30"/>
       <use x="222.460938" xlink:href="#ArialMT-30"/>
      </g>
     </g>
    </g>
    <g id="text_14">
     <!-- Within-Cluster Variation -->
     <g style="fill:#262626;" transform="translate(17.936719 221.319141)rotate(-90)scale(0.15 -0.15)">
      <defs>
       <path d="M 1294 0 
L 78 4581 
L 700 4581 
L 1397 1578 
Q 1509 1106 1591 641 
Q 1766 1375 1797 1488 
L 2669 4581 
L 3400 4581 
L 4056 2263 
Q 4303 1400 4413 641 
Q 4500 1075 4641 1638 
L 5359 4581 
L 5969 4581 
L 4713 0 
L 4128 0 
L 3163 3491 
Q 3041 3928 3019 4028 
Q 2947 3713 2884 3491 
L 1913 0 
L 1294 0 
z
" id="ArialMT-57" transform="scale(0.015625)"/>
       <path d="M 425 3934 
L 425 4581 
L 988 4581 
L 988 3934 
L 425 3934 
z
M 425 0 
L 425 3319 
L 988 3319 
L 988 0 
L 425 0 
z
" id="ArialMT-69" transform="scale(0.015625)"/>
       <path d="M 1650 503 
L 1731 6 
Q 1494 -44 1306 -44 
Q 1000 -44 831 53 
Q 663 150 594 308 
Q 525 466 525 972 
L 525 2881 
L 113 2881 
L 113 3319 
L 525 3319 
L 525 4141 
L 1084 4478 
L 1084 3319 
L 1650 3319 
L 1650 2881 
L 1084 2881 
L 1084 941 
Q 1084 700 1114 631 
Q 1144 563 1211 522 
Q 1278 481 1403 481 
Q 1497 481 1650 503 
z
" id="ArialMT-74" transform="scale(0.015625)"/>
       <path d="M 422 0 
L 422 4581 
L 984 4581 
L 984 2938 
Q 1378 3394 1978 3394 
Q 2347 3394 2619 3248 
Q 2891 3103 3008 2847 
Q 3125 2591 3125 2103 
L 3125 0 
L 2563 0 
L 2563 2103 
Q 2563 2525 2380 2717 
Q 2197 2909 1863 2909 
Q 1613 2909 1392 2779 
Q 1172 2650 1078 2428 
Q 984 2206 984 1816 
L 984 0 
L 422 0 
z
" id="ArialMT-68" transform="scale(0.015625)"/>
       <path d="M 422 0 
L 422 3319 
L 928 3319 
L 928 2847 
Q 1294 3394 1984 3394 
Q 2284 3394 2536 3286 
Q 2788 3178 2913 3003 
Q 3038 2828 3088 2588 
Q 3119 2431 3119 2041 
L 3119 0 
L 2556 0 
L 2556 2019 
Q 2556 2363 2490 2533 
Q 2425 2703 2258 2804 
Q 2091 2906 1866 2906 
Q 1506 2906 1245 2678 
Q 984 2450 984 1813 
L 984 0 
L 422 0 
z
" id="ArialMT-6e" transform="scale(0.015625)"/>
       <path d="M 203 1375 
L 203 1941 
L 1931 1941 
L 1931 1375 
L 203 1375 
z
" id="ArialMT-2d" transform="scale(0.015625)"/>
       <path d="M 3763 1606 
L 4369 1453 
Q 4178 706 3683 314 
Q 3188 -78 2472 -78 
Q 1731 -78 1267 223 
Q 803 525 561 1097 
Q 319 1669 319 2325 
Q 319 3041 592 3573 
Q 866 4106 1370 4382 
Q 1875 4659 2481 4659 
Q 3169 4659 3637 4309 
Q 4106 3959 4291 3325 
L 3694 3184 
Q 3534 3684 3231 3912 
Q 2928 4141 2469 4141 
Q 1941 4141 1586 3887 
Q 1231 3634 1087 3207 
Q 944 2781 944 2328 
Q 944 1744 1114 1308 
Q 1284 872 1643 656 
Q 2003 441 2422 441 
Q 2931 441 3284 734 
Q 3638 1028 3763 1606 
z
" id="ArialMT-43" transform="scale(0.015625)"/>
       <path d="M 409 0 
L 409 4581 
L 972 4581 
L 972 0 
L 409 0 
z
" id="ArialMT-6c" transform="scale(0.015625)"/>
       <path d="M 2597 0 
L 2597 488 
Q 2209 -75 1544 -75 
Q 1250 -75 995 37 
Q 741 150 617 320 
Q 494 491 444 738 
Q 409 903 409 1263 
L 409 3319 
L 972 3319 
L 972 1478 
Q 972 1038 1006 884 
Q 1059 663 1231 536 
Q 1403 409 1656 409 
Q 1909 409 2131 539 
Q 2353 669 2445 892 
Q 2538 1116 2538 1541 
L 2538 3319 
L 3100 3319 
L 3100 0 
L 2597 0 
z
" id="ArialMT-75" transform="scale(0.015625)"/>
       <path d="M 197 991 
L 753 1078 
Q 800 744 1014 566 
Q 1228 388 1613 388 
Q 2000 388 2187 545 
Q 2375 703 2375 916 
Q 2375 1106 2209 1216 
Q 2094 1291 1634 1406 
Q 1016 1563 777 1677 
Q 538 1791 414 1992 
Q 291 2194 291 2438 
Q 291 2659 392 2848 
Q 494 3038 669 3163 
Q 800 3259 1026 3326 
Q 1253 3394 1513 3394 
Q 1903 3394 2198 3281 
Q 2494 3169 2634 2976 
Q 2775 2784 2828 2463 
L 2278 2388 
Q 2241 2644 2061 2787 
Q 1881 2931 1553 2931 
Q 1166 2931 1000 2803 
Q 834 2675 834 2503 
Q 834 2394 903 2306 
Q 972 2216 1119 2156 
Q 1203 2125 1616 2013 
Q 2213 1853 2448 1751 
Q 2684 1650 2818 1456 
Q 2953 1263 2953 975 
Q 2953 694 2789 445 
Q 2625 197 2315 61 
Q 2006 -75 1616 -75 
Q 969 -75 630 194 
Q 291 463 197 991 
z
" id="ArialMT-73" transform="scale(0.015625)"/>
       <path d="M 2694 1069 
L 3275 997 
Q 3138 488 2766 206 
Q 2394 -75 1816 -75 
Q 1088 -75 661 373 
Q 234 822 234 1631 
Q 234 2469 665 2931 
Q 1097 3394 1784 3394 
Q 2450 3394 2872 2941 
Q 3294 2488 3294 1666 
Q 3294 1616 3291 1516 
L 816 1516 
Q 847 969 1125 678 
Q 1403 388 1819 388 
Q 2128 388 2347 550 
Q 2566 713 2694 1069 
z
M 847 1978 
L 2700 1978 
Q 2663 2397 2488 2606 
Q 2219 2931 1791 2931 
Q 1403 2931 1139 2672 
Q 875 2413 847 1978 
z
" id="ArialMT-65" transform="scale(0.015625)"/>
       <path d="M 416 0 
L 416 3319 
L 922 3319 
L 922 2816 
Q 1116 3169 1280 3281 
Q 1444 3394 1641 3394 
Q 1925 3394 2219 3213 
L 2025 2691 
Q 1819 2813 1613 2813 
Q 1428 2813 1281 2702 
Q 1134 2591 1072 2394 
Q 978 2094 978 1738 
L 978 0 
L 416 0 
z
" id="ArialMT-72" transform="scale(0.015625)"/>
       <path id="ArialMT-20" transform="scale(0.015625)"/>
       <path d="M 1803 0 
L 28 4581 
L 684 4581 
L 1875 1253 
Q 2019 853 2116 503 
Q 2222 878 2363 1253 
L 3600 4581 
L 4219 4581 
L 2425 0 
L 1803 0 
z
" id="ArialMT-56" transform="scale(0.015625)"/>
       <path d="M 2588 409 
Q 2275 144 1986 34 
Q 1697 -75 1366 -75 
Q 819 -75 525 192 
Q 231 459 231 875 
Q 231 1119 342 1320 
Q 453 1522 633 1644 
Q 813 1766 1038 1828 
Q 1203 1872 1538 1913 
Q 2219 1994 2541 2106 
Q 2544 2222 2544 2253 
Q 2544 2597 2384 2738 
Q 2169 2928 1744 2928 
Q 1347 2928 1158 2789 
Q 969 2650 878 2297 
L 328 2372 
Q 403 2725 575 2942 
Q 747 3159 1072 3276 
Q 1397 3394 1825 3394 
Q 2250 3394 2515 3294 
Q 2781 3194 2906 3042 
Q 3031 2891 3081 2659 
Q 3109 2516 3109 2141 
L 3109 1391 
Q 3109 606 3145 398 
Q 3181 191 3288 0 
L 2700 0 
Q 2613 175 2588 409 
z
M 2541 1666 
Q 2234 1541 1622 1453 
Q 1275 1403 1131 1340 
Q 988 1278 909 1158 
Q 831 1038 831 891 
Q 831 666 1001 516 
Q 1172 366 1500 366 
Q 1825 366 2078 508 
Q 2331 650 2450 897 
Q 2541 1088 2541 1459 
L 2541 1666 
z
" id="ArialMT-61" transform="scale(0.015625)"/>
       <path d="M 213 1659 
Q 213 2581 725 3025 
Q 1153 3394 1769 3394 
Q 2453 3394 2887 2945 
Q 3322 2497 3322 1706 
Q 3322 1066 3130 698 
Q 2938 331 2570 128 
Q 2203 -75 1769 -75 
Q 1072 -75 642 372 
Q 213 819 213 1659 
z
M 791 1659 
Q 791 1022 1069 705 
Q 1347 388 1769 388 
Q 2188 388 2466 706 
Q 2744 1025 2744 1678 
Q 2744 2294 2464 2611 
Q 2184 2928 1769 2928 
Q 1347 2928 1069 2612 
Q 791 2297 791 1659 
z
" id="ArialMT-6f" transform="scale(0.015625)"/>
      </defs>
      <use xlink:href="#ArialMT-57"/>
      <use x="94.384766" xlink:href="#ArialMT-69"/>
      <use x="116.601562" xlink:href="#ArialMT-74"/>
      <use x="144.384766" xlink:href="#ArialMT-68"/>
      <use x="200" xlink:href="#ArialMT-69"/>
      <use x="222.216797" xlink:href="#ArialMT-6e"/>
      <use x="277.832031" xlink:href="#ArialMT-2d"/>
      <use x="311.132812" xlink:href="#ArialMT-43"/>
      <use x="383.349609" xlink:href="#ArialMT-6c"/>
      <use x="405.566406" xlink:href="#ArialMT-75"/>
      <use x="461.181641" xlink:href="#ArialMT-73"/>
      <use x="511.181641" xlink:href="#ArialMT-74"/>
      <use x="538.964844" xlink:href="#ArialMT-65"/>
      <use x="594.580078" xlink:href="#ArialMT-72"/>
      <use x="627.880859" xlink:href="#ArialMT-20"/>
      <use x="655.664062" xlink:href="#ArialMT-56"/>
      <use x="714.988281" xlink:href="#ArialMT-61"/>
      <use x="770.603516" xlink:href="#ArialMT-72"/>
      <use x="803.904297" xlink:href="#ArialMT-69"/>
      <use x="826.121094" xlink:href="#ArialMT-61"/>
      <use x="881.736328" xlink:href="#ArialMT-74"/>
      <use x="909.519531" xlink:href="#ArialMT-69"/>
      <use x="931.736328" xlink:href="#ArialMT-6f"/>
      <use x="987.351562" xlink:href="#ArialMT-6e"/>
     </g>
    </g>
   </g>
   <g id="line2d_7">
    <path clip-path="url(#pf5fe824d84)" d="M 86.306818 19.554545 
L 88.921626 47.762063 
L 91.536434 66.131895 
L 94.151242 78.633674 
L 96.76605 89.80595 
L 99.380858 99.615779 
L 101.995665 107.807017 
L 104.610473 114.977944 
L 107.225281 121.504544 
L 109.840089 126.88002 
L 112.454897 130.559485 
L 115.069705 134.814428 
L 117.684513 140.234488 
L 120.299321 143.345197 
L 122.914128 146.794036 
L 125.528936 150.699526 
L 128.143744 153.3803 
L 130.758552 156.509504 
L 133.37336 158.55347 
L 135.988168 162.911835 
L 138.602976 163.883468 
L 141.217784 166.301822 
L 143.832591 168.636577 
L 146.447399 170.720719 
L 149.062207 174.730047 
L 151.677015 175.870874 
L 154.291823 177.731546 
L 156.906631 179.428905 
L 159.521439 182.21138 
L 162.136246 183.380663 
L 164.751054 186.381749 
L 167.365862 188.057849 
L 169.98067 189.534347 
L 172.595478 190.546427 
L 175.210286 192.915527 
L 177.825094 194.815803 
L 180.439902 197.168114 
L 183.054709 196.852611 
L 185.669517 198.949246 
L 188.284325 201.925547 
L 190.899133 201.449642 
L 193.513941 203.89025 
L 196.128749 204.966772 
L 198.743557 207.076603 
L 201.358365 209.46803 
L 203.973172 210.55012 
L 206.58798 211.35528 
L 209.202788 212.123034 
L 211.817596 213.110105 
L 214.432404 214.682271 
L 217.047212 216.107214 
L 219.66202 217.000502 
L 222.276828 221.367592 
L 224.891635 219.824247 
L 227.506443 220.648131 
L 230.121251 222.374034 
L 232.736059 223.432656 
L 235.350867 225.009415 
L 237.965675 226.015237 
L 240.580483 226.110362 
L 243.195291 228.820319 
L 245.810098 229.016587 
L 248.424906 231.126795 
L 251.039714 232.663573 
L 253.654522 232.926809 
L 256.26933 234.135779 
L 258.884138 236.04413 
L 261.498946 235.993248 
L 264.113754 237.845033 
L 266.728561 238.896648 
L 269.343369 240.052858 
L 271.958177 240.191063 
L 274.572985 241.356036 
L 277.187793 241.852252 
L 279.802601 245.621789 
L 282.417409 243.901878 
L 285.032216 246.276113 
L 287.647024 245.623702 
L 290.261832 248.075908 
L 292.87664 249.069541 
L 295.491448 250.12179 
L 298.106256 249.826415 
L 300.721064 251.799672 
L 303.335872 253.181724 
L 305.950679 253.717037 
L 308.565487 255.197175 
L 311.180295 256.614546 
L 313.795103 256.13464 
L 316.409911 257.948439 
L 319.024719 259.725642 
L 321.639527 258.612793 
L 324.254335 260.176715 
L 326.869142 262.011385 
L 329.48395 261.849172 
L 332.098758 263.824069 
L 334.713566 263.293724 
L 337.328374 265.630936 
L 339.943182 266.645455 
" style="fill:none;stroke:#4e79a7;stroke-linecap:round;stroke-width:1.5;"/>
    <defs>
     <path d="M 0 3 
C 0.795609 3 1.55874 2.683901 2.12132 2.12132 
C 2.683901 1.55874 3 0.795609 3 0 
C 3 -0.795609 2.683901 -1.55874 2.12132 -2.12132 
C 1.55874 -2.683901 0.795609 -3 0 -3 
C -0.795609 -3 -1.55874 -2.683901 -2.12132 -2.12132 
C -2.683901 -1.55874 -3 -0.795609 -3 0 
C -3 0.795609 -2.683901 1.55874 -2.12132 2.12132 
C -1.55874 2.683901 -0.795609 3 0 3 
z
" id="m556fcbd9b7" style="stroke:#ffffff;stroke-width:0.75;"/>
    </defs>
    <g clip-path="url(#pf5fe824d84)">
     <use style="fill:#4e79a7;stroke:#ffffff;stroke-width:0.75;" x="86.306818" xlink:href="#m556fcbd9b7" y="19.554545"/>
     <use style="fill:#4e79a7;stroke:#ffffff;stroke-width:0.75;" x="88.921626" xlink:href="#m556fcbd9b7" y="47.762063"/>
     <use style="fill:#4e79a7;stroke:#ffffff;stroke-width:0.75;" x="91.536434" xlink:href="#m556fcbd9b7" y="66.131895"/>
     <use style="fill:#4e79a7;stroke:#ffffff;stroke-width:0.75;" x="94.151242" xlink:href="#m556fcbd9b7" y="78.633674"/>
     <use style="fill:#4e79a7;stroke:#ffffff;stroke-width:0.75;" x="96.76605" xlink:href="#m556fcbd9b7" y="89.80595"/>
     <use style="fill:#4e79a7;stroke:#ffffff;stroke-width:0.75;" x="99.380858" xlink:href="#m556fcbd9b7" y="99.615779"/>
     <use style="fill:#4e79a7;stroke:#ffffff;stroke-width:0.75;" x="101.995665" xlink:href="#m556fcbd9b7" y="107.807017"/>
     <use style="fill:#4e79a7;stroke:#ffffff;stroke-width:0.75;" x="104.610473" xlink:href="#m556fcbd9b7" y="114.977944"/>
     <use style="fill:#4e79a7;stroke:#ffffff;stroke-width:0.75;" x="107.225281" xlink:href="#m556fcbd9b7" y="121.504544"/>
     <use style="fill:#4e79a7;stroke:#ffffff;stroke-width:0.75;" x="109.840089" xlink:href="#m556fcbd9b7" y="126.88002"/>
     <use style="fill:#4e79a7;stroke:#ffffff;stroke-width:0.75;" x="112.454897" xlink:href="#m556fcbd9b7" y="130.559485"/>
     <use style="fill:#4e79a7;stroke:#ffffff;stroke-width:0.75;" x="115.069705" xlink:href="#m556fcbd9b7" y="134.814428"/>
     <use style="fill:#4e79a7;stroke:#ffffff;stroke-width:0.75;" x="117.684513" xlink:href="#m556fcbd9b7" y="140.234488"/>
     <use style="fill:#4e79a7;stroke:#ffffff;stroke-width:0.75;" x="120.299321" xlink:href="#m556fcbd9b7" y="143.345197"/>
     <use style="fill:#4e79a7;stroke:#ffffff;stroke-width:0.75;" x="122.914128" xlink:href="#m556fcbd9b7" y="146.794036"/>
     <use style="fill:#4e79a7;stroke:#ffffff;stroke-width:0.75;" x="125.528936" xlink:href="#m556fcbd9b7" y="150.699526"/>
     <use style="fill:#4e79a7;stroke:#ffffff;stroke-width:0.75;" x="128.143744" xlink:href="#m556fcbd9b7" y="153.3803"/>
     <use style="fill:#4e79a7;stroke:#ffffff;stroke-width:0.75;" x="130.758552" xlink:href="#m556fcbd9b7" y="156.509504"/>
     <use style="fill:#4e79a7;stroke:#ffffff;stroke-width:0.75;" x="133.37336" xlink:href="#m556fcbd9b7" y="158.55347"/>
     <use style="fill:#4e79a7;stroke:#ffffff;stroke-width:0.75;" x="135.988168" xlink:href="#m556fcbd9b7" y="162.911835"/>
     <use style="fill:#4e79a7;stroke:#ffffff;stroke-width:0.75;" x="138.602976" xlink:href="#m556fcbd9b7" y="163.883468"/>
     <use style="fill:#4e79a7;stroke:#ffffff;stroke-width:0.75;" x="141.217784" xlink:href="#m556fcbd9b7" y="166.301822"/>
     <use style="fill:#4e79a7;stroke:#ffffff;stroke-width:0.75;" x="143.832591" xlink:href="#m556fcbd9b7" y="168.636577"/>
     <use style="fill:#4e79a7;stroke:#ffffff;stroke-width:0.75;" x="146.447399" xlink:href="#m556fcbd9b7" y="170.720719"/>
     <use style="fill:#4e79a7;stroke:#ffffff;stroke-width:0.75;" x="149.062207" xlink:href="#m556fcbd9b7" y="174.730047"/>
     <use style="fill:#4e79a7;stroke:#ffffff;stroke-width:0.75;" x="151.677015" xlink:href="#m556fcbd9b7" y="175.870874"/>
     <use style="fill:#4e79a7;stroke:#ffffff;stroke-width:0.75;" x="154.291823" xlink:href="#m556fcbd9b7" y="177.731546"/>
     <use style="fill:#4e79a7;stroke:#ffffff;stroke-width:0.75;" x="156.906631" xlink:href="#m556fcbd9b7" y="179.428905"/>
     <use style="fill:#4e79a7;stroke:#ffffff;stroke-width:0.75;" x="159.521439" xlink:href="#m556fcbd9b7" y="182.21138"/>
     <use style="fill:#4e79a7;stroke:#ffffff;stroke-width:0.75;" x="162.136246" xlink:href="#m556fcbd9b7" y="183.380663"/>
     <use style="fill:#4e79a7;stroke:#ffffff;stroke-width:0.75;" x="164.751054" xlink:href="#m556fcbd9b7" y="186.381749"/>
     <use style="fill:#4e79a7;stroke:#ffffff;stroke-width:0.75;" x="167.365862" xlink:href="#m556fcbd9b7" y="188.057849"/>
     <use style="fill:#4e79a7;stroke:#ffffff;stroke-width:0.75;" x="169.98067" xlink:href="#m556fcbd9b7" y="189.534347"/>
     <use style="fill:#4e79a7;stroke:#ffffff;stroke-width:0.75;" x="172.595478" xlink:href="#m556fcbd9b7" y="190.546427"/>
     <use style="fill:#4e79a7;stroke:#ffffff;stroke-width:0.75;" x="175.210286" xlink:href="#m556fcbd9b7" y="192.915527"/>
     <use style="fill:#4e79a7;stroke:#ffffff;stroke-width:0.75;" x="177.825094" xlink:href="#m556fcbd9b7" y="194.815803"/>
     <use style="fill:#4e79a7;stroke:#ffffff;stroke-width:0.75;" x="180.439902" xlink:href="#m556fcbd9b7" y="197.168114"/>
     <use style="fill:#4e79a7;stroke:#ffffff;stroke-width:0.75;" x="183.054709" xlink:href="#m556fcbd9b7" y="196.852611"/>
     <use style="fill:#4e79a7;stroke:#ffffff;stroke-width:0.75;" x="185.669517" xlink:href="#m556fcbd9b7" y="198.949246"/>
     <use style="fill:#4e79a7;stroke:#ffffff;stroke-width:0.75;" x="188.284325" xlink:href="#m556fcbd9b7" y="201.925547"/>
     <use style="fill:#4e79a7;stroke:#ffffff;stroke-width:0.75;" x="190.899133" xlink:href="#m556fcbd9b7" y="201.449642"/>
     <use style="fill:#4e79a7;stroke:#ffffff;stroke-width:0.75;" x="193.513941" xlink:href="#m556fcbd9b7" y="203.89025"/>
     <use style="fill:#4e79a7;stroke:#ffffff;stroke-width:0.75;" x="196.128749" xlink:href="#m556fcbd9b7" y="204.966772"/>
     <use style="fill:#4e79a7;stroke:#ffffff;stroke-width:0.75;" x="198.743557" xlink:href="#m556fcbd9b7" y="207.076603"/>
     <use style="fill:#4e79a7;stroke:#ffffff;stroke-width:0.75;" x="201.358365" xlink:href="#m556fcbd9b7" y="209.46803"/>
     <use style="fill:#4e79a7;stroke:#ffffff;stroke-width:0.75;" x="203.973172" xlink:href="#m556fcbd9b7" y="210.55012"/>
     <use style="fill:#4e79a7;stroke:#ffffff;stroke-width:0.75;" x="206.58798" xlink:href="#m556fcbd9b7" y="211.35528"/>
     <use style="fill:#4e79a7;stroke:#ffffff;stroke-width:0.75;" x="209.202788" xlink:href="#m556fcbd9b7" y="212.123034"/>
     <use style="fill:#4e79a7;stroke:#ffffff;stroke-width:0.75;" x="211.817596" xlink:href="#m556fcbd9b7" y="213.110105"/>
     <use style="fill:#4e79a7;stroke:#ffffff;stroke-width:0.75;" x="214.432404" xlink:href="#m556fcbd9b7" y="214.682271"/>
     <use style="fill:#4e79a7;stroke:#ffffff;stroke-width:0.75;" x="217.047212" xlink:href="#m556fcbd9b7" y="216.107214"/>
     <use style="fill:#4e79a7;stroke:#ffffff;stroke-width:0.75;" x="219.66202" xlink:href="#m556fcbd9b7" y="217.000502"/>
     <use style="fill:#4e79a7;stroke:#ffffff;stroke-width:0.75;" x="222.276828" xlink:href="#m556fcbd9b7" y="221.367592"/>
     <use style="fill:#4e79a7;stroke:#ffffff;stroke-width:0.75;" x="224.891635" xlink:href="#m556fcbd9b7" y="219.824247"/>
     <use style="fill:#4e79a7;stroke:#ffffff;stroke-width:0.75;" x="227.506443" xlink:href="#m556fcbd9b7" y="220.648131"/>
     <use style="fill:#4e79a7;stroke:#ffffff;stroke-width:0.75;" x="230.121251" xlink:href="#m556fcbd9b7" y="222.374034"/>
     <use style="fill:#4e79a7;stroke:#ffffff;stroke-width:0.75;" x="232.736059" xlink:href="#m556fcbd9b7" y="223.432656"/>
     <use style="fill:#4e79a7;stroke:#ffffff;stroke-width:0.75;" x="235.350867" xlink:href="#m556fcbd9b7" y="225.009415"/>
     <use style="fill:#4e79a7;stroke:#ffffff;stroke-width:0.75;" x="237.965675" xlink:href="#m556fcbd9b7" y="226.015237"/>
     <use style="fill:#4e79a7;stroke:#ffffff;stroke-width:0.75;" x="240.580483" xlink:href="#m556fcbd9b7" y="226.110362"/>
     <use style="fill:#4e79a7;stroke:#ffffff;stroke-width:0.75;" x="243.195291" xlink:href="#m556fcbd9b7" y="228.820319"/>
     <use style="fill:#4e79a7;stroke:#ffffff;stroke-width:0.75;" x="245.810098" xlink:href="#m556fcbd9b7" y="229.016587"/>
     <use style="fill:#4e79a7;stroke:#ffffff;stroke-width:0.75;" x="248.424906" xlink:href="#m556fcbd9b7" y="231.126795"/>
     <use style="fill:#4e79a7;stroke:#ffffff;stroke-width:0.75;" x="251.039714" xlink:href="#m556fcbd9b7" y="232.663573"/>
     <use style="fill:#4e79a7;stroke:#ffffff;stroke-width:0.75;" x="253.654522" xlink:href="#m556fcbd9b7" y="232.926809"/>
     <use style="fill:#4e79a7;stroke:#ffffff;stroke-width:0.75;" x="256.26933" xlink:href="#m556fcbd9b7" y="234.135779"/>
     <use style="fill:#4e79a7;stroke:#ffffff;stroke-width:0.75;" x="258.884138" xlink:href="#m556fcbd9b7" y="236.04413"/>
     <use style="fill:#4e79a7;stroke:#ffffff;stroke-width:0.75;" x="261.498946" xlink:href="#m556fcbd9b7" y="235.993248"/>
     <use style="fill:#4e79a7;stroke:#ffffff;stroke-width:0.75;" x="264.113754" xlink:href="#m556fcbd9b7" y="237.845033"/>
     <use style="fill:#4e79a7;stroke:#ffffff;stroke-width:0.75;" x="266.728561" xlink:href="#m556fcbd9b7" y="238.896648"/>
     <use style="fill:#4e79a7;stroke:#ffffff;stroke-width:0.75;" x="269.343369" xlink:href="#m556fcbd9b7" y="240.052858"/>
     <use style="fill:#4e79a7;stroke:#ffffff;stroke-width:0.75;" x="271.958177" xlink:href="#m556fcbd9b7" y="240.191063"/>
     <use style="fill:#4e79a7;stroke:#ffffff;stroke-width:0.75;" x="274.572985" xlink:href="#m556fcbd9b7" y="241.356036"/>
     <use style="fill:#4e79a7;stroke:#ffffff;stroke-width:0.75;" x="277.187793" xlink:href="#m556fcbd9b7" y="241.852252"/>
     <use style="fill:#4e79a7;stroke:#ffffff;stroke-width:0.75;" x="279.802601" xlink:href="#m556fcbd9b7" y="245.621789"/>
     <use style="fill:#4e79a7;stroke:#ffffff;stroke-width:0.75;" x="282.417409" xlink:href="#m556fcbd9b7" y="243.901878"/>
     <use style="fill:#4e79a7;stroke:#ffffff;stroke-width:0.75;" x="285.032216" xlink:href="#m556fcbd9b7" y="246.276113"/>
     <use style="fill:#4e79a7;stroke:#ffffff;stroke-width:0.75;" x="287.647024" xlink:href="#m556fcbd9b7" y="245.623702"/>
     <use style="fill:#4e79a7;stroke:#ffffff;stroke-width:0.75;" x="290.261832" xlink:href="#m556fcbd9b7" y="248.075908"/>
     <use style="fill:#4e79a7;stroke:#ffffff;stroke-width:0.75;" x="292.87664" xlink:href="#m556fcbd9b7" y="249.069541"/>
     <use style="fill:#4e79a7;stroke:#ffffff;stroke-width:0.75;" x="295.491448" xlink:href="#m556fcbd9b7" y="250.12179"/>
     <use style="fill:#4e79a7;stroke:#ffffff;stroke-width:0.75;" x="298.106256" xlink:href="#m556fcbd9b7" y="249.826415"/>
     <use style="fill:#4e79a7;stroke:#ffffff;stroke-width:0.75;" x="300.721064" xlink:href="#m556fcbd9b7" y="251.799672"/>
     <use style="fill:#4e79a7;stroke:#ffffff;stroke-width:0.75;" x="303.335872" xlink:href="#m556fcbd9b7" y="253.181724"/>
     <use style="fill:#4e79a7;stroke:#ffffff;stroke-width:0.75;" x="305.950679" xlink:href="#m556fcbd9b7" y="253.717037"/>
     <use style="fill:#4e79a7;stroke:#ffffff;stroke-width:0.75;" x="308.565487" xlink:href="#m556fcbd9b7" y="255.197175"/>
     <use style="fill:#4e79a7;stroke:#ffffff;stroke-width:0.75;" x="311.180295" xlink:href="#m556fcbd9b7" y="256.614546"/>
     <use style="fill:#4e79a7;stroke:#ffffff;stroke-width:0.75;" x="313.795103" xlink:href="#m556fcbd9b7" y="256.13464"/>
     <use style="fill:#4e79a7;stroke:#ffffff;stroke-width:0.75;" x="316.409911" xlink:href="#m556fcbd9b7" y="257.948439"/>
     <use style="fill:#4e79a7;stroke:#ffffff;stroke-width:0.75;" x="319.024719" xlink:href="#m556fcbd9b7" y="259.725642"/>
     <use style="fill:#4e79a7;stroke:#ffffff;stroke-width:0.75;" x="321.639527" xlink:href="#m556fcbd9b7" y="258.612793"/>
     <use style="fill:#4e79a7;stroke:#ffffff;stroke-width:0.75;" x="324.254335" xlink:href="#m556fcbd9b7" y="260.176715"/>
     <use style="fill:#4e79a7;stroke:#ffffff;stroke-width:0.75;" x="326.869142" xlink:href="#m556fcbd9b7" y="262.011385"/>
     <use style="fill:#4e79a7;stroke:#ffffff;stroke-width:0.75;" x="329.48395" xlink:href="#m556fcbd9b7" y="261.849172"/>
     <use style="fill:#4e79a7;stroke:#ffffff;stroke-width:0.75;" x="332.098758" xlink:href="#m556fcbd9b7" y="263.824069"/>
     <use style="fill:#4e79a7;stroke:#ffffff;stroke-width:0.75;" x="334.713566" xlink:href="#m556fcbd9b7" y="263.293724"/>
     <use style="fill:#4e79a7;stroke:#ffffff;stroke-width:0.75;" x="337.328374" xlink:href="#m556fcbd9b7" y="265.630936"/>
     <use style="fill:#4e79a7;stroke:#ffffff;stroke-width:0.75;" x="339.943182" xlink:href="#m556fcbd9b7" y="266.645455"/>
    </g>
   </g>
   <g id="patch_3">
    <path d="M 73.625 279 
L 352.625 279 
" style="fill:none;stroke:#cccccc;stroke-linecap:square;stroke-linejoin:miter;stroke-width:0.8;"/>
   </g>
  </g>
 </g>
 <defs>
  <clipPath id="pf5fe824d84">
   <rect height="271.8" width="279" x="73.625" y="7.2"/>
  </clipPath>
 </defs>
</svg>
