<?xml version="1.0" encoding="utf-8" standalone="no"?>
<!DOCTYPE svg PUBLIC "-//W3C//DTD SVG 1.1//EN"
  "http://www.w3.org/Graphics/SVG/1.1/DTD/svg11.dtd">
<svg height="324.635938pt" version="1.1" viewBox="0 0 638.825 324.635938" width="638.825pt" xmlns="http://www.w3.org/2000/svg" xmlns:xlink="http://www.w3.org/1999/xlink">
 <metadata>
  <rdf:RDF xmlns:cc="http://creativecommons.org/ns#" xmlns:dc="http://purl.org/dc/elements/1.1/" xmlns:rdf="http://www.w3.org/1999/02/22-rdf-syntax-ns#">
   <cc:Work>
    <dc:type rdf:resource="http://purl.org/dc/dcmitype/StillImage"/>
    <dc:date>2022-05-13T18:13:16.665345</dc:date>
    <dc:format>image/svg+xml</dc:format>
    <dc:creator>
     <cc:Agent>
      <dc:title>Matplotlib v3.4.3, https://matplotlib.org/</dc:title>
     </cc:Agent>
    </dc:creator>
   </cc:Work>
  </rdf:RDF>
 </metadata>
 <defs>
  <style type="text/css">*{stroke-linecap:butt;stroke-linejoin:round;}</style>
 </defs>
 <g id="figure_1">
  <g id="patch_1">
   <path d="M 0 324.635938 
L 638.825 324.635938 
L 638.825 0 
L 0 0 
z
" style="fill:#ffffff;"/>
  </g>
  <g id="axes_1">
   <g id="patch_2">
    <path d="M 73.625 279 
L 631.625 279 
L 631.625 7.2 
L 73.625 7.2 
z
" style="fill:#ffffff;"/>
   </g>
   <g id="matplotlib.axis_1">
    <g id="xtick_1">
     <g id="text_1">
      <!-- 0 -->
      <g style="fill:#262626;" transform="translate(84.358702 296.736719)scale(0.15 -0.15)">
       <defs>
        <path d="M 266 2259 
Q 266 3072 433 3567 
Q 600 4063 929 4331 
Q 1259 4600 1759 4600 
Q 2128 4600 2406 4451 
Q 2684 4303 2865 4023 
Q 3047 3744 3150 3342 
Q 3253 2941 3253 2259 
Q 3253 1453 3087 958 
Q 2922 463 2592 192 
Q 2263 -78 1759 -78 
Q 1097 -78 719 397 
Q 266 969 266 2259 
z
M 844 2259 
Q 844 1131 1108 757 
Q 1372 384 1759 384 
Q 2147 384 2411 759 
Q 2675 1134 2675 2259 
Q 2675 3391 2411 3762 
Q 2147 4134 1753 4134 
Q 1366 4134 1134 3806 
Q 844 3388 844 2259 
z
" id="ArialMT-30" transform="scale(0.015625)"/>
       </defs>
       <use xlink:href="#ArialMT-30"/>
      </g>
     </g>
    </g>
    <g id="xtick_2">
     <g id="text_2">
      <!-- 20 -->
      <g style="fill:#262626;" transform="translate(184.780314 296.736719)scale(0.15 -0.15)">
       <defs>
        <path d="M 3222 541 
L 3222 0 
L 194 0 
Q 188 203 259 391 
Q 375 700 629 1000 
Q 884 1300 1366 1694 
Q 2113 2306 2375 2664 
Q 2638 3022 2638 3341 
Q 2638 3675 2398 3904 
Q 2159 4134 1775 4134 
Q 1369 4134 1125 3890 
Q 881 3647 878 3216 
L 300 3275 
Q 359 3922 746 4261 
Q 1134 4600 1788 4600 
Q 2447 4600 2831 4234 
Q 3216 3869 3216 3328 
Q 3216 3053 3103 2787 
Q 2991 2522 2730 2228 
Q 2469 1934 1863 1422 
Q 1356 997 1212 845 
Q 1069 694 975 541 
L 3222 541 
z
" id="ArialMT-32" transform="scale(0.015625)"/>
       </defs>
       <use xlink:href="#ArialMT-32"/>
       <use x="55.615234" xlink:href="#ArialMT-30"/>
      </g>
     </g>
    </g>
    <g id="xtick_3">
     <g id="text_3">
      <!-- 40 -->
      <g style="fill:#262626;" transform="translate(289.372628 296.736719)scale(0.15 -0.15)">
       <defs>
        <path d="M 2069 0 
L 2069 1097 
L 81 1097 
L 81 1613 
L 2172 4581 
L 2631 4581 
L 2631 1613 
L 3250 1613 
L 3250 1097 
L 2631 1097 
L 2631 0 
L 2069 0 
z
M 2069 1613 
L 2069 3678 
L 634 1613 
L 2069 1613 
z
" id="ArialMT-34" transform="scale(0.015625)"/>
       </defs>
       <use xlink:href="#ArialMT-34"/>
       <use x="55.615234" xlink:href="#ArialMT-30"/>
      </g>
     </g>
    </g>
    <g id="xtick_4">
     <g id="text_4">
      <!-- 60 -->
      <g style="fill:#262626;" transform="translate(393.964943 296.736719)scale(0.15 -0.15)">
       <defs>
        <path d="M 3184 3459 
L 2625 3416 
Q 2550 3747 2413 3897 
Q 2184 4138 1850 4138 
Q 1581 4138 1378 3988 
Q 1113 3794 959 3422 
Q 806 3050 800 2363 
Q 1003 2672 1297 2822 
Q 1591 2972 1913 2972 
Q 2475 2972 2870 2558 
Q 3266 2144 3266 1488 
Q 3266 1056 3080 686 
Q 2894 316 2569 119 
Q 2244 -78 1831 -78 
Q 1128 -78 684 439 
Q 241 956 241 2144 
Q 241 3472 731 4075 
Q 1159 4600 1884 4600 
Q 2425 4600 2770 4297 
Q 3116 3994 3184 3459 
z
M 888 1484 
Q 888 1194 1011 928 
Q 1134 663 1356 523 
Q 1578 384 1822 384 
Q 2178 384 2434 671 
Q 2691 959 2691 1453 
Q 2691 1928 2437 2201 
Q 2184 2475 1800 2475 
Q 1419 2475 1153 2201 
Q 888 1928 888 1484 
z
" id="ArialMT-36" transform="scale(0.015625)"/>
       </defs>
       <use xlink:href="#ArialMT-36"/>
       <use x="55.615234" xlink:href="#ArialMT-30"/>
      </g>
     </g>
    </g>
    <g id="xtick_5">
     <g id="text_5">
      <!-- 80 -->
      <g style="fill:#262626;" transform="translate(498.557258 296.736719)scale(0.15 -0.15)">
       <defs>
        <path d="M 1131 2484 
Q 781 2613 612 2850 
Q 444 3088 444 3419 
Q 444 3919 803 4259 
Q 1163 4600 1759 4600 
Q 2359 4600 2725 4251 
Q 3091 3903 3091 3403 
Q 3091 3084 2923 2848 
Q 2756 2613 2416 2484 
Q 2838 2347 3058 2040 
Q 3278 1734 3278 1309 
Q 3278 722 2862 322 
Q 2447 -78 1769 -78 
Q 1091 -78 675 323 
Q 259 725 259 1325 
Q 259 1772 486 2073 
Q 713 2375 1131 2484 
z
M 1019 3438 
Q 1019 3113 1228 2906 
Q 1438 2700 1772 2700 
Q 2097 2700 2305 2904 
Q 2513 3109 2513 3406 
Q 2513 3716 2298 3927 
Q 2084 4138 1766 4138 
Q 1444 4138 1231 3931 
Q 1019 3725 1019 3438 
z
M 838 1322 
Q 838 1081 952 856 
Q 1066 631 1291 507 
Q 1516 384 1775 384 
Q 2178 384 2440 643 
Q 2703 903 2703 1303 
Q 2703 1709 2433 1975 
Q 2163 2241 1756 2241 
Q 1359 2241 1098 1978 
Q 838 1716 838 1322 
z
" id="ArialMT-38" transform="scale(0.015625)"/>
       </defs>
       <use xlink:href="#ArialMT-38"/>
       <use x="55.615234" xlink:href="#ArialMT-30"/>
      </g>
     </g>
    </g>
    <g id="xtick_6">
     <g id="text_6">
      <!-- 100 -->
      <g style="fill:#262626;" transform="translate(598.97887 296.736719)scale(0.15 -0.15)">
       <defs>
        <path d="M 2384 0 
L 1822 0 
L 1822 3584 
Q 1619 3391 1289 3197 
Q 959 3003 697 2906 
L 697 3450 
Q 1169 3672 1522 3987 
Q 1875 4303 2022 4600 
L 2384 4600 
L 2384 0 
z
" id="ArialMT-31" transform="scale(0.015625)"/>
       </defs>
       <use xlink:href="#ArialMT-31"/>
       <use x="55.615234" xlink:href="#ArialMT-30"/>
       <use x="111.230469" xlink:href="#ArialMT-30"/>
      </g>
     </g>
    </g>
    <g id="text_7">
     <!-- k -->
     <g style="fill:#262626;" transform="translate(348.875 314.454688)scale(0.15 -0.15)">
      <defs>
       <path d="M 425 0 
L 425 4581 
L 988 4581 
L 988 1969 
L 2319 3319 
L 3047 3319 
L 1778 2088 
L 3175 0 
L 2481 0 
L 1384 1697 
L 988 1316 
L 988 0 
L 425 0 
z
" id="ArialMT-6b" transform="scale(0.015625)"/>
      </defs>
      <use xlink:href="#ArialMT-6b"/>
     </g>
    </g>
   </g>
   <g id="matplotlib.axis_2">
    <g id="ytick_1">
     <g id="line2d_1">
      <path clip-path="url(#p6e7ec2abeb)" d="M 73.625 265.885003 
L 631.625 265.885003 
" style="fill:none;stroke:#cccccc;stroke-linecap:round;stroke-width:0.8;"/>
     </g>
     <g id="text_8">
      <!-- 32000 -->
      <g style="fill:#262626;" transform="translate(24.917969 271.253362)scale(0.15 -0.15)">
       <defs>
        <path d="M 269 1209 
L 831 1284 
Q 928 806 1161 595 
Q 1394 384 1728 384 
Q 2125 384 2398 659 
Q 2672 934 2672 1341 
Q 2672 1728 2419 1979 
Q 2166 2231 1775 2231 
Q 1616 2231 1378 2169 
L 1441 2663 
Q 1497 2656 1531 2656 
Q 1891 2656 2178 2843 
Q 2466 3031 2466 3422 
Q 2466 3731 2256 3934 
Q 2047 4138 1716 4138 
Q 1388 4138 1169 3931 
Q 950 3725 888 3313 
L 325 3413 
Q 428 3978 793 4289 
Q 1159 4600 1703 4600 
Q 2078 4600 2393 4439 
Q 2709 4278 2876 4000 
Q 3044 3722 3044 3409 
Q 3044 3113 2884 2869 
Q 2725 2625 2413 2481 
Q 2819 2388 3044 2092 
Q 3269 1797 3269 1353 
Q 3269 753 2831 336 
Q 2394 -81 1725 -81 
Q 1122 -81 723 278 
Q 325 638 269 1209 
z
" id="ArialMT-33" transform="scale(0.015625)"/>
       </defs>
       <use xlink:href="#ArialMT-33"/>
       <use x="55.615234" xlink:href="#ArialMT-32"/>
       <use x="111.230469" xlink:href="#ArialMT-30"/>
       <use x="166.845703" xlink:href="#ArialMT-30"/>
       <use x="222.460938" xlink:href="#ArialMT-30"/>
      </g>
     </g>
    </g>
    <g id="ytick_2">
     <g id="line2d_2">
      <path clip-path="url(#p6e7ec2abeb)" d="M 73.625 216.756981 
L 631.625 216.756981 
" style="fill:none;stroke:#cccccc;stroke-linecap:round;stroke-width:0.8;"/>
     </g>
     <g id="text_9">
      <!-- 34000 -->
      <g style="fill:#262626;" transform="translate(24.917969 222.12534)scale(0.15 -0.15)">
       <use xlink:href="#ArialMT-33"/>
       <use x="55.615234" xlink:href="#ArialMT-34"/>
       <use x="111.230469" xlink:href="#ArialMT-30"/>
       <use x="166.845703" xlink:href="#ArialMT-30"/>
       <use x="222.460938" xlink:href="#ArialMT-30"/>
      </g>
     </g>
    </g>
    <g id="ytick_3">
     <g id="line2d_3">
      <path clip-path="url(#p6e7ec2abeb)" d="M 73.625 167.628958 
L 631.625 167.628958 
" style="fill:none;stroke:#cccccc;stroke-linecap:round;stroke-width:0.8;"/>
     </g>
     <g id="text_10">
      <!-- 36000 -->
      <g style="fill:#262626;" transform="translate(24.917969 172.997318)scale(0.15 -0.15)">
       <use xlink:href="#ArialMT-33"/>
       <use x="55.615234" xlink:href="#ArialMT-36"/>
       <use x="111.230469" xlink:href="#ArialMT-30"/>
       <use x="166.845703" xlink:href="#ArialMT-30"/>
       <use x="222.460938" xlink:href="#ArialMT-30"/>
      </g>
     </g>
    </g>
    <g id="ytick_4">
     <g id="line2d_4">
      <path clip-path="url(#p6e7ec2abeb)" d="M 73.625 118.500936 
L 631.625 118.500936 
" style="fill:none;stroke:#cccccc;stroke-linecap:round;stroke-width:0.8;"/>
     </g>
     <g id="text_11">
      <!-- 38000 -->
      <g style="fill:#262626;" transform="translate(24.917969 123.869295)scale(0.15 -0.15)">
       <use xlink:href="#ArialMT-33"/>
       <use x="55.615234" xlink:href="#ArialMT-38"/>
       <use x="111.230469" xlink:href="#ArialMT-30"/>
       <use x="166.845703" xlink:href="#ArialMT-30"/>
       <use x="222.460938" xlink:href="#ArialMT-30"/>
      </g>
     </g>
    </g>
    <g id="ytick_5">
     <g id="line2d_5">
      <path clip-path="url(#p6e7ec2abeb)" d="M 73.625 69.372914 
L 631.625 69.372914 
" style="fill:none;stroke:#cccccc;stroke-linecap:round;stroke-width:0.8;"/>
     </g>
     <g id="text_12">
      <!-- 40000 -->
      <g style="fill:#262626;" transform="translate(24.917969 74.741273)scale(0.15 -0.15)">
       <use xlink:href="#ArialMT-34"/>
       <use x="55.615234" xlink:href="#ArialMT-30"/>
       <use x="111.230469" xlink:href="#ArialMT-30"/>
       <use x="166.845703" xlink:href="#ArialMT-30"/>
       <use x="222.460938" xlink:href="#ArialMT-30"/>
      </g>
     </g>
    </g>
    <g id="ytick_6">
     <g id="line2d_6">
      <path clip-path="url(#p6e7ec2abeb)" d="M 73.625 20.244892 
L 631.625 20.244892 
" style="fill:none;stroke:#cccccc;stroke-linecap:round;stroke-width:0.8;"/>
     </g>
     <g id="text_13">
      <!-- 42000 -->
      <g style="fill:#262626;" transform="translate(24.917969 25.613251)scale(0.15 -0.15)">
       <use xlink:href="#ArialMT-34"/>
       <use x="55.615234" xlink:href="#ArialMT-32"/>
       <use x="111.230469" xlink:href="#ArialMT-30"/>
       <use x="166.845703" xlink:href="#ArialMT-30"/>
       <use x="222.460938" xlink:href="#ArialMT-30"/>
      </g>
     </g>
    </g>
    <g id="text_14">
     <!-- Within-Cluster Variation -->
     <g style="fill:#262626;" transform="translate(17.936719 221.319141)rotate(-90)scale(0.15 -0.15)">
      <defs>
       <path d="M 1294 0 
L 78 4581 
L 700 4581 
L 1397 1578 
Q 1509 1106 1591 641 
Q 1766 1375 1797 1488 
L 2669 4581 
L 3400 4581 
L 4056 2263 
Q 4303 1400 4413 641 
Q 4500 1075 4641 1638 
L 5359 4581 
L 5969 4581 
L 4713 0 
L 4128 0 
L 3163 3491 
Q 3041 3928 3019 4028 
Q 2947 3713 2884 3491 
L 1913 0 
L 1294 0 
z
" id="ArialMT-57" transform="scale(0.015625)"/>
       <path d="M 425 3934 
L 425 4581 
L 988 4581 
L 988 3934 
L 425 3934 
z
M 425 0 
L 425 3319 
L 988 3319 
L 988 0 
L 425 0 
z
" id="ArialMT-69" transform="scale(0.015625)"/>
       <path d="M 1650 503 
L 1731 6 
Q 1494 -44 1306 -44 
Q 1000 -44 831 53 
Q 663 150 594 308 
Q 525 466 525 972 
L 525 2881 
L 113 2881 
L 113 3319 
L 525 3319 
L 525 4141 
L 1084 4478 
L 1084 3319 
L 1650 3319 
L 1650 2881 
L 1084 2881 
L 1084 941 
Q 1084 700 1114 631 
Q 1144 563 1211 522 
Q 1278 481 1403 481 
Q 1497 481 1650 503 
z
" id="ArialMT-74" transform="scale(0.015625)"/>
       <path d="M 422 0 
L 422 4581 
L 984 4581 
L 984 2938 
Q 1378 3394 1978 3394 
Q 2347 3394 2619 3248 
Q 2891 3103 3008 2847 
Q 3125 2591 3125 2103 
L 3125 0 
L 2563 0 
L 2563 2103 
Q 2563 2525 2380 2717 
Q 2197 2909 1863 2909 
Q 1613 2909 1392 2779 
Q 1172 2650 1078 2428 
Q 984 2206 984 1816 
L 984 0 
L 422 0 
z
" id="ArialMT-68" transform="scale(0.015625)"/>
       <path d="M 422 0 
L 422 3319 
L 928 3319 
L 928 2847 
Q 1294 3394 1984 3394 
Q 2284 3394 2536 3286 
Q 2788 3178 2913 3003 
Q 3038 2828 3088 2588 
Q 3119 2431 3119 2041 
L 3119 0 
L 2556 0 
L 2556 2019 
Q 2556 2363 2490 2533 
Q 2425 2703 2258 2804 
Q 2091 2906 1866 2906 
Q 1506 2906 1245 2678 
Q 984 2450 984 1813 
L 984 0 
L 422 0 
z
" id="ArialMT-6e" transform="scale(0.015625)"/>
       <path d="M 203 1375 
L 203 1941 
L 1931 1941 
L 1931 1375 
L 203 1375 
z
" id="ArialMT-2d" transform="scale(0.015625)"/>
       <path d="M 3763 1606 
L 4369 1453 
Q 4178 706 3683 314 
Q 3188 -78 2472 -78 
Q 1731 -78 1267 223 
Q 803 525 561 1097 
Q 319 1669 319 2325 
Q 319 3041 592 3573 
Q 866 4106 1370 4382 
Q 1875 4659 2481 4659 
Q 3169 4659 3637 4309 
Q 4106 3959 4291 3325 
L 3694 3184 
Q 3534 3684 3231 3912 
Q 2928 4141 2469 4141 
Q 1941 4141 1586 3887 
Q 1231 3634 1087 3207 
Q 944 2781 944 2328 
Q 944 1744 1114 1308 
Q 1284 872 1643 656 
Q 2003 441 2422 441 
Q 2931 441 3284 734 
Q 3638 1028 3763 1606 
z
" id="ArialMT-43" transform="scale(0.015625)"/>
       <path d="M 409 0 
L 409 4581 
L 972 4581 
L 972 0 
L 409 0 
z
" id="ArialMT-6c" transform="scale(0.015625)"/>
       <path d="M 2597 0 
L 2597 488 
Q 2209 -75 1544 -75 
Q 1250 -75 995 37 
Q 741 150 617 320 
Q 494 491 444 738 
Q 409 903 409 1263 
L 409 3319 
L 972 3319 
L 972 1478 
Q 972 1038 1006 884 
Q 1059 663 1231 536 
Q 1403 409 1656 409 
Q 1909 409 2131 539 
Q 2353 669 2445 892 
Q 2538 1116 2538 1541 
L 2538 3319 
L 3100 3319 
L 3100 0 
L 2597 0 
z
" id="ArialMT-75" transform="scale(0.015625)"/>
       <path d="M 197 991 
L 753 1078 
Q 800 744 1014 566 
Q 1228 388 1613 388 
Q 2000 388 2187 545 
Q 2375 703 2375 916 
Q 2375 1106 2209 1216 
Q 2094 1291 1634 1406 
Q 1016 1563 777 1677 
Q 538 1791 414 1992 
Q 291 2194 291 2438 
Q 291 2659 392 2848 
Q 494 3038 669 3163 
Q 800 3259 1026 3326 
Q 1253 3394 1513 3394 
Q 1903 3394 2198 3281 
Q 2494 3169 2634 2976 
Q 2775 2784 2828 2463 
L 2278 2388 
Q 2241 2644 2061 2787 
Q 1881 2931 1553 2931 
Q 1166 2931 1000 2803 
Q 834 2675 834 2503 
Q 834 2394 903 2306 
Q 972 2216 1119 2156 
Q 1203 2125 1616 2013 
Q 2213 1853 2448 1751 
Q 2684 1650 2818 1456 
Q 2953 1263 2953 975 
Q 2953 694 2789 445 
Q 2625 197 2315 61 
Q 2006 -75 1616 -75 
Q 969 -75 630 194 
Q 291 463 197 991 
z
" id="ArialMT-73" transform="scale(0.015625)"/>
       <path d="M 2694 1069 
L 3275 997 
Q 3138 488 2766 206 
Q 2394 -75 1816 -75 
Q 1088 -75 661 373 
Q 234 822 234 1631 
Q 234 2469 665 2931 
Q 1097 3394 1784 3394 
Q 2450 3394 2872 2941 
Q 3294 2488 3294 1666 
Q 3294 1616 3291 1516 
L 816 1516 
Q 847 969 1125 678 
Q 1403 388 1819 388 
Q 2128 388 2347 550 
Q 2566 713 2694 1069 
z
M 847 1978 
L 2700 1978 
Q 2663 2397 2488 2606 
Q 2219 2931 1791 2931 
Q 1403 2931 1139 2672 
Q 875 2413 847 1978 
z
" id="ArialMT-65" transform="scale(0.015625)"/>
       <path d="M 416 0 
L 416 3319 
L 922 3319 
L 922 2816 
Q 1116 3169 1280 3281 
Q 1444 3394 1641 3394 
Q 1925 3394 2219 3213 
L 2025 2691 
Q 1819 2813 1613 2813 
Q 1428 2813 1281 2702 
Q 1134 2591 1072 2394 
Q 978 2094 978 1738 
L 978 0 
L 416 0 
z
" id="ArialMT-72" transform="scale(0.015625)"/>
       <path id="ArialMT-20" transform="scale(0.015625)"/>
       <path d="M 1803 0 
L 28 4581 
L 684 4581 
L 1875 1253 
Q 2019 853 2116 503 
Q 2222 878 2363 1253 
L 3600 4581 
L 4219 4581 
L 2425 0 
L 1803 0 
z
" id="ArialMT-56" transform="scale(0.015625)"/>
       <path d="M 2588 409 
Q 2275 144 1986 34 
Q 1697 -75 1366 -75 
Q 819 -75 525 192 
Q 231 459 231 875 
Q 231 1119 342 1320 
Q 453 1522 633 1644 
Q 813 1766 1038 1828 
Q 1203 1872 1538 1913 
Q 2219 1994 2541 2106 
Q 2544 2222 2544 2253 
Q 2544 2597 2384 2738 
Q 2169 2928 1744 2928 
Q 1347 2928 1158 2789 
Q 969 2650 878 2297 
L 328 2372 
Q 403 2725 575 2942 
Q 747 3159 1072 3276 
Q 1397 3394 1825 3394 
Q 2250 3394 2515 3294 
Q 2781 3194 2906 3042 
Q 3031 2891 3081 2659 
Q 3109 2516 3109 2141 
L 3109 1391 
Q 3109 606 3145 398 
Q 3181 191 3288 0 
L 2700 0 
Q 2613 175 2588 409 
z
M 2541 1666 
Q 2234 1541 1622 1453 
Q 1275 1403 1131 1340 
Q 988 1278 909 1158 
Q 831 1038 831 891 
Q 831 666 1001 516 
Q 1172 366 1500 366 
Q 1825 366 2078 508 
Q 2331 650 2450 897 
Q 2541 1088 2541 1459 
L 2541 1666 
z
" id="ArialMT-61" transform="scale(0.015625)"/>
       <path d="M 213 1659 
Q 213 2581 725 3025 
Q 1153 3394 1769 3394 
Q 2453 3394 2887 2945 
Q 3322 2497 3322 1706 
Q 3322 1066 3130 698 
Q 2938 331 2570 128 
Q 2203 -75 1769 -75 
Q 1072 -75 642 372 
Q 213 819 213 1659 
z
M 791 1659 
Q 791 1022 1069 705 
Q 1347 388 1769 388 
Q 2188 388 2466 706 
Q 2744 1025 2744 1678 
Q 2744 2294 2464 2611 
Q 2184 2928 1769 2928 
Q 1347 2928 1069 2612 
Q 791 2297 791 1659 
z
" id="ArialMT-6f" transform="scale(0.015625)"/>
      </defs>
      <use xlink:href="#ArialMT-57"/>
      <use x="94.384766" xlink:href="#ArialMT-69"/>
      <use x="116.601562" xlink:href="#ArialMT-74"/>
      <use x="144.384766" xlink:href="#ArialMT-68"/>
      <use x="200" xlink:href="#ArialMT-69"/>
      <use x="222.216797" xlink:href="#ArialMT-6e"/>
      <use x="277.832031" xlink:href="#ArialMT-2d"/>
      <use x="311.132812" xlink:href="#ArialMT-43"/>
      <use x="383.349609" xlink:href="#ArialMT-6c"/>
      <use x="405.566406" xlink:href="#ArialMT-75"/>
      <use x="461.181641" xlink:href="#ArialMT-73"/>
      <use x="511.181641" xlink:href="#ArialMT-74"/>
      <use x="538.964844" xlink:href="#ArialMT-65"/>
      <use x="594.580078" xlink:href="#ArialMT-72"/>
      <use x="627.880859" xlink:href="#ArialMT-20"/>
      <use x="655.664062" xlink:href="#ArialMT-56"/>
      <use x="714.988281" xlink:href="#ArialMT-61"/>
      <use x="770.603516" xlink:href="#ArialMT-72"/>
      <use x="803.904297" xlink:href="#ArialMT-69"/>
      <use x="826.121094" xlink:href="#ArialMT-61"/>
      <use x="881.736328" xlink:href="#ArialMT-74"/>
      <use x="909.519531" xlink:href="#ArialMT-69"/>
      <use x="931.736328" xlink:href="#ArialMT-6f"/>
      <use x="987.351562" xlink:href="#ArialMT-6e"/>
     </g>
    </g>
   </g>
   <g id="line2d_7">
    <path clip-path="url(#p6e7ec2abeb)" d="M 98.988636 19.554545 
L 104.218252 20.190823 
L 109.447868 20.862278 
L 114.677484 22.105214 
L 119.907099 22.785293 
L 125.136715 23.445844 
L 130.366331 24.005817 
L 135.595947 24.588357 
L 140.825562 25.997815 
L 146.055178 26.583067 
L 151.284794 27.174713 
L 156.51441 27.760626 
L 161.744025 28.892558 
L 166.973641 30.056759 
L 172.203257 30.605417 
L 177.432873 31.157932 
L 182.662488 32.289272 
L 187.892104 32.827001 
L 193.12172 33.475259 
L 198.351336 34.104446 
L 203.580951 34.718953 
L 208.810567 35.322061 
L 214.040183 35.916772 
L 219.269799 36.474599 
L 224.499414 37.040039 
L 229.72903 38.246235 
L 234.958646 38.961513 
L 240.188261 39.516317 
L 245.417877 40.098746 
L 250.647493 40.652207 
L 255.877109 41.257365 
L 261.106724 41.874697 
L 266.33634 42.937961 
L 271.565956 43.49182 
L 276.795572 44.02296 
L 282.025187 45.114329 
L 287.254803 45.650713 
L 292.484419 47.042775 
L 297.714035 48.129443 
L 302.94365 49.14525 
L 308.173266 49.639902 
L 313.402882 50.192041 
L 318.632498 50.707794 
L 323.862113 51.764585 
L 329.091729 52.322081 
L 334.321345 53.530067 
L 339.550961 54.090226 
L 344.780576 55.279794 
L 350.010192 55.788146 
L 355.239808 56.288142 
L 360.469424 56.83332 
L 365.699039 57.405564 
L 370.928655 57.944402 
L 376.158271 58.448229 
L 381.387887 58.941372 
L 386.617502 59.471338 
L 391.847118 60.057219 
L 397.076734 60.867269 
L 402.30635 61.399424 
L 407.535965 61.909805 
L 412.765581 62.438767 
L 417.995197 63.038172 
L 423.224813 63.315603 
L 428.454428 63.799712 
L 433.684044 64.784452 
L 438.91366 65.365739 
L 444.143276 65.876256 
L 449.372891 66.425759 
L 454.602507 66.993115 
L 459.832123 68.231037 
L 465.061739 68.805696 
L 470.291354 69.918322 
L 475.52097 70.410927 
L 480.750586 70.926031 
L 485.980201 71.443142 
L 491.209817 71.98405 
L 496.439433 72.573892 
L 501.669049 73.108074 
L 506.898664 73.599979 
L 512.12828 74.497978 
L 517.357896 75.094472 
L 522.587512 75.616095 
L 527.817127 76.098329 
L 533.046743 76.659178 
L 538.276359 77.701741 
L 543.505975 78.760756 
L 548.73559 80.118742 
L 553.965206 80.644129 
L 559.194822 81.219128 
L 564.424438 81.816759 
L 569.654053 82.834638 
L 574.883669 84.01882 
L 580.113285 84.502651 
L 585.342901 85.463548 
L 590.572516 85.957829 
L 595.802132 86.510051 
L 601.031748 87.453168 
L 606.261364 88.264595 
" style="fill:none;stroke:#1f77b4;stroke-linecap:round;stroke-width:1.5;"/>
    <defs>
     <path d="M 0 3 
C 0.795609 3 1.55874 2.683901 2.12132 2.12132 
C 2.683901 1.55874 3 0.795609 3 0 
C 3 -0.795609 2.683901 -1.55874 2.12132 -2.12132 
C 1.55874 -2.683901 0.795609 -3 0 -3 
C -0.795609 -3 -1.55874 -2.683901 -2.12132 -2.12132 
C -2.683901 -1.55874 -3 -0.795609 -3 0 
C -3 0.795609 -2.683901 1.55874 -2.12132 2.12132 
C -1.55874 2.683901 -0.795609 3 0 3 
z
" id="mc498c28e71" style="stroke:#ffffff;stroke-width:0.75;"/>
    </defs>
    <g clip-path="url(#p6e7ec2abeb)">
     <use style="fill:#1f77b4;stroke:#ffffff;stroke-width:0.75;" x="98.988636" xlink:href="#mc498c28e71" y="19.554545"/>
     <use style="fill:#1f77b4;stroke:#ffffff;stroke-width:0.75;" x="104.218252" xlink:href="#mc498c28e71" y="20.190823"/>
     <use style="fill:#1f77b4;stroke:#ffffff;stroke-width:0.75;" x="109.447868" xlink:href="#mc498c28e71" y="20.862278"/>
     <use style="fill:#1f77b4;stroke:#ffffff;stroke-width:0.75;" x="114.677484" xlink:href="#mc498c28e71" y="22.105214"/>
     <use style="fill:#1f77b4;stroke:#ffffff;stroke-width:0.75;" x="119.907099" xlink:href="#mc498c28e71" y="22.785293"/>
     <use style="fill:#1f77b4;stroke:#ffffff;stroke-width:0.75;" x="125.136715" xlink:href="#mc498c28e71" y="23.445844"/>
     <use style="fill:#1f77b4;stroke:#ffffff;stroke-width:0.75;" x="130.366331" xlink:href="#mc498c28e71" y="24.005817"/>
     <use style="fill:#1f77b4;stroke:#ffffff;stroke-width:0.75;" x="135.595947" xlink:href="#mc498c28e71" y="24.588357"/>
     <use style="fill:#1f77b4;stroke:#ffffff;stroke-width:0.75;" x="140.825562" xlink:href="#mc498c28e71" y="25.997815"/>
     <use style="fill:#1f77b4;stroke:#ffffff;stroke-width:0.75;" x="146.055178" xlink:href="#mc498c28e71" y="26.583067"/>
     <use style="fill:#1f77b4;stroke:#ffffff;stroke-width:0.75;" x="151.284794" xlink:href="#mc498c28e71" y="27.174713"/>
     <use style="fill:#1f77b4;stroke:#ffffff;stroke-width:0.75;" x="156.51441" xlink:href="#mc498c28e71" y="27.760626"/>
     <use style="fill:#1f77b4;stroke:#ffffff;stroke-width:0.75;" x="161.744025" xlink:href="#mc498c28e71" y="28.892558"/>
     <use style="fill:#1f77b4;stroke:#ffffff;stroke-width:0.75;" x="166.973641" xlink:href="#mc498c28e71" y="30.056759"/>
     <use style="fill:#1f77b4;stroke:#ffffff;stroke-width:0.75;" x="172.203257" xlink:href="#mc498c28e71" y="30.605417"/>
     <use style="fill:#1f77b4;stroke:#ffffff;stroke-width:0.75;" x="177.432873" xlink:href="#mc498c28e71" y="31.157932"/>
     <use style="fill:#1f77b4;stroke:#ffffff;stroke-width:0.75;" x="182.662488" xlink:href="#mc498c28e71" y="32.289272"/>
     <use style="fill:#1f77b4;stroke:#ffffff;stroke-width:0.75;" x="187.892104" xlink:href="#mc498c28e71" y="32.827001"/>
     <use style="fill:#1f77b4;stroke:#ffffff;stroke-width:0.75;" x="193.12172" xlink:href="#mc498c28e71" y="33.475259"/>
     <use style="fill:#1f77b4;stroke:#ffffff;stroke-width:0.75;" x="198.351336" xlink:href="#mc498c28e71" y="34.104446"/>
     <use style="fill:#1f77b4;stroke:#ffffff;stroke-width:0.75;" x="203.580951" xlink:href="#mc498c28e71" y="34.718953"/>
     <use style="fill:#1f77b4;stroke:#ffffff;stroke-width:0.75;" x="208.810567" xlink:href="#mc498c28e71" y="35.322061"/>
     <use style="fill:#1f77b4;stroke:#ffffff;stroke-width:0.75;" x="214.040183" xlink:href="#mc498c28e71" y="35.916772"/>
     <use style="fill:#1f77b4;stroke:#ffffff;stroke-width:0.75;" x="219.269799" xlink:href="#mc498c28e71" y="36.474599"/>
     <use style="fill:#1f77b4;stroke:#ffffff;stroke-width:0.75;" x="224.499414" xlink:href="#mc498c28e71" y="37.040039"/>
     <use style="fill:#1f77b4;stroke:#ffffff;stroke-width:0.75;" x="229.72903" xlink:href="#mc498c28e71" y="38.246235"/>
     <use style="fill:#1f77b4;stroke:#ffffff;stroke-width:0.75;" x="234.958646" xlink:href="#mc498c28e71" y="38.961513"/>
     <use style="fill:#1f77b4;stroke:#ffffff;stroke-width:0.75;" x="240.188261" xlink:href="#mc498c28e71" y="39.516317"/>
     <use style="fill:#1f77b4;stroke:#ffffff;stroke-width:0.75;" x="245.417877" xlink:href="#mc498c28e71" y="40.098746"/>
     <use style="fill:#1f77b4;stroke:#ffffff;stroke-width:0.75;" x="250.647493" xlink:href="#mc498c28e71" y="40.652207"/>
     <use style="fill:#1f77b4;stroke:#ffffff;stroke-width:0.75;" x="255.877109" xlink:href="#mc498c28e71" y="41.257365"/>
     <use style="fill:#1f77b4;stroke:#ffffff;stroke-width:0.75;" x="261.106724" xlink:href="#mc498c28e71" y="41.874697"/>
     <use style="fill:#1f77b4;stroke:#ffffff;stroke-width:0.75;" x="266.33634" xlink:href="#mc498c28e71" y="42.937961"/>
     <use style="fill:#1f77b4;stroke:#ffffff;stroke-width:0.75;" x="271.565956" xlink:href="#mc498c28e71" y="43.49182"/>
     <use style="fill:#1f77b4;stroke:#ffffff;stroke-width:0.75;" x="276.795572" xlink:href="#mc498c28e71" y="44.02296"/>
     <use style="fill:#1f77b4;stroke:#ffffff;stroke-width:0.75;" x="282.025187" xlink:href="#mc498c28e71" y="45.114329"/>
     <use style="fill:#1f77b4;stroke:#ffffff;stroke-width:0.75;" x="287.254803" xlink:href="#mc498c28e71" y="45.650713"/>
     <use style="fill:#1f77b4;stroke:#ffffff;stroke-width:0.75;" x="292.484419" xlink:href="#mc498c28e71" y="47.042775"/>
     <use style="fill:#1f77b4;stroke:#ffffff;stroke-width:0.75;" x="297.714035" xlink:href="#mc498c28e71" y="48.129443"/>
     <use style="fill:#1f77b4;stroke:#ffffff;stroke-width:0.75;" x="302.94365" xlink:href="#mc498c28e71" y="49.14525"/>
     <use style="fill:#1f77b4;stroke:#ffffff;stroke-width:0.75;" x="308.173266" xlink:href="#mc498c28e71" y="49.639902"/>
     <use style="fill:#1f77b4;stroke:#ffffff;stroke-width:0.75;" x="313.402882" xlink:href="#mc498c28e71" y="50.192041"/>
     <use style="fill:#1f77b4;stroke:#ffffff;stroke-width:0.75;" x="318.632498" xlink:href="#mc498c28e71" y="50.707794"/>
     <use style="fill:#1f77b4;stroke:#ffffff;stroke-width:0.75;" x="323.862113" xlink:href="#mc498c28e71" y="51.764585"/>
     <use style="fill:#1f77b4;stroke:#ffffff;stroke-width:0.75;" x="329.091729" xlink:href="#mc498c28e71" y="52.322081"/>
     <use style="fill:#1f77b4;stroke:#ffffff;stroke-width:0.75;" x="334.321345" xlink:href="#mc498c28e71" y="53.530067"/>
     <use style="fill:#1f77b4;stroke:#ffffff;stroke-width:0.75;" x="339.550961" xlink:href="#mc498c28e71" y="54.090226"/>
     <use style="fill:#1f77b4;stroke:#ffffff;stroke-width:0.75;" x="344.780576" xlink:href="#mc498c28e71" y="55.279794"/>
     <use style="fill:#1f77b4;stroke:#ffffff;stroke-width:0.75;" x="350.010192" xlink:href="#mc498c28e71" y="55.788146"/>
     <use style="fill:#1f77b4;stroke:#ffffff;stroke-width:0.75;" x="355.239808" xlink:href="#mc498c28e71" y="56.288142"/>
     <use style="fill:#1f77b4;stroke:#ffffff;stroke-width:0.75;" x="360.469424" xlink:href="#mc498c28e71" y="56.83332"/>
     <use style="fill:#1f77b4;stroke:#ffffff;stroke-width:0.75;" x="365.699039" xlink:href="#mc498c28e71" y="57.405564"/>
     <use style="fill:#1f77b4;stroke:#ffffff;stroke-width:0.75;" x="370.928655" xlink:href="#mc498c28e71" y="57.944402"/>
     <use style="fill:#1f77b4;stroke:#ffffff;stroke-width:0.75;" x="376.158271" xlink:href="#mc498c28e71" y="58.448229"/>
     <use style="fill:#1f77b4;stroke:#ffffff;stroke-width:0.75;" x="381.387887" xlink:href="#mc498c28e71" y="58.941372"/>
     <use style="fill:#1f77b4;stroke:#ffffff;stroke-width:0.75;" x="386.617502" xlink:href="#mc498c28e71" y="59.471338"/>
     <use style="fill:#1f77b4;stroke:#ffffff;stroke-width:0.75;" x="391.847118" xlink:href="#mc498c28e71" y="60.057219"/>
     <use style="fill:#1f77b4;stroke:#ffffff;stroke-width:0.75;" x="397.076734" xlink:href="#mc498c28e71" y="60.867269"/>
     <use style="fill:#1f77b4;stroke:#ffffff;stroke-width:0.75;" x="402.30635" xlink:href="#mc498c28e71" y="61.399424"/>
     <use style="fill:#1f77b4;stroke:#ffffff;stroke-width:0.75;" x="407.535965" xlink:href="#mc498c28e71" y="61.909805"/>
     <use style="fill:#1f77b4;stroke:#ffffff;stroke-width:0.75;" x="412.765581" xlink:href="#mc498c28e71" y="62.438767"/>
     <use style="fill:#1f77b4;stroke:#ffffff;stroke-width:0.75;" x="417.995197" xlink:href="#mc498c28e71" y="63.038172"/>
     <use style="fill:#1f77b4;stroke:#ffffff;stroke-width:0.75;" x="423.224813" xlink:href="#mc498c28e71" y="63.315603"/>
     <use style="fill:#1f77b4;stroke:#ffffff;stroke-width:0.75;" x="428.454428" xlink:href="#mc498c28e71" y="63.799712"/>
     <use style="fill:#1f77b4;stroke:#ffffff;stroke-width:0.75;" x="433.684044" xlink:href="#mc498c28e71" y="64.784452"/>
     <use style="fill:#1f77b4;stroke:#ffffff;stroke-width:0.75;" x="438.91366" xlink:href="#mc498c28e71" y="65.365739"/>
     <use style="fill:#1f77b4;stroke:#ffffff;stroke-width:0.75;" x="444.143276" xlink:href="#mc498c28e71" y="65.876256"/>
     <use style="fill:#1f77b4;stroke:#ffffff;stroke-width:0.75;" x="449.372891" xlink:href="#mc498c28e71" y="66.425759"/>
     <use style="fill:#1f77b4;stroke:#ffffff;stroke-width:0.75;" x="454.602507" xlink:href="#mc498c28e71" y="66.993115"/>
     <use style="fill:#1f77b4;stroke:#ffffff;stroke-width:0.75;" x="459.832123" xlink:href="#mc498c28e71" y="68.231037"/>
     <use style="fill:#1f77b4;stroke:#ffffff;stroke-width:0.75;" x="465.061739" xlink:href="#mc498c28e71" y="68.805696"/>
     <use style="fill:#1f77b4;stroke:#ffffff;stroke-width:0.75;" x="470.291354" xlink:href="#mc498c28e71" y="69.918322"/>
     <use style="fill:#1f77b4;stroke:#ffffff;stroke-width:0.75;" x="475.52097" xlink:href="#mc498c28e71" y="70.410927"/>
     <use style="fill:#1f77b4;stroke:#ffffff;stroke-width:0.75;" x="480.750586" xlink:href="#mc498c28e71" y="70.926031"/>
     <use style="fill:#1f77b4;stroke:#ffffff;stroke-width:0.75;" x="485.980201" xlink:href="#mc498c28e71" y="71.443142"/>
     <use style="fill:#1f77b4;stroke:#ffffff;stroke-width:0.75;" x="491.209817" xlink:href="#mc498c28e71" y="71.98405"/>
     <use style="fill:#1f77b4;stroke:#ffffff;stroke-width:0.75;" x="496.439433" xlink:href="#mc498c28e71" y="72.573892"/>
     <use style="fill:#1f77b4;stroke:#ffffff;stroke-width:0.75;" x="501.669049" xlink:href="#mc498c28e71" y="73.108074"/>
     <use style="fill:#1f77b4;stroke:#ffffff;stroke-width:0.75;" x="506.898664" xlink:href="#mc498c28e71" y="73.599979"/>
     <use style="fill:#1f77b4;stroke:#ffffff;stroke-width:0.75;" x="512.12828" xlink:href="#mc498c28e71" y="74.497978"/>
     <use style="fill:#1f77b4;stroke:#ffffff;stroke-width:0.75;" x="517.357896" xlink:href="#mc498c28e71" y="75.094472"/>
     <use style="fill:#1f77b4;stroke:#ffffff;stroke-width:0.75;" x="522.587512" xlink:href="#mc498c28e71" y="75.616095"/>
     <use style="fill:#1f77b4;stroke:#ffffff;stroke-width:0.75;" x="527.817127" xlink:href="#mc498c28e71" y="76.098329"/>
     <use style="fill:#1f77b4;stroke:#ffffff;stroke-width:0.75;" x="533.046743" xlink:href="#mc498c28e71" y="76.659178"/>
     <use style="fill:#1f77b4;stroke:#ffffff;stroke-width:0.75;" x="538.276359" xlink:href="#mc498c28e71" y="77.701741"/>
     <use style="fill:#1f77b4;stroke:#ffffff;stroke-width:0.75;" x="543.505975" xlink:href="#mc498c28e71" y="78.760756"/>
     <use style="fill:#1f77b4;stroke:#ffffff;stroke-width:0.75;" x="548.73559" xlink:href="#mc498c28e71" y="80.118742"/>
     <use style="fill:#1f77b4;stroke:#ffffff;stroke-width:0.75;" x="553.965206" xlink:href="#mc498c28e71" y="80.644129"/>
     <use style="fill:#1f77b4;stroke:#ffffff;stroke-width:0.75;" x="559.194822" xlink:href="#mc498c28e71" y="81.219128"/>
     <use style="fill:#1f77b4;stroke:#ffffff;stroke-width:0.75;" x="564.424438" xlink:href="#mc498c28e71" y="81.816759"/>
     <use style="fill:#1f77b4;stroke:#ffffff;stroke-width:0.75;" x="569.654053" xlink:href="#mc498c28e71" y="82.834638"/>
     <use style="fill:#1f77b4;stroke:#ffffff;stroke-width:0.75;" x="574.883669" xlink:href="#mc498c28e71" y="84.01882"/>
     <use style="fill:#1f77b4;stroke:#ffffff;stroke-width:0.75;" x="580.113285" xlink:href="#mc498c28e71" y="84.502651"/>
     <use style="fill:#1f77b4;stroke:#ffffff;stroke-width:0.75;" x="585.342901" xlink:href="#mc498c28e71" y="85.463548"/>
     <use style="fill:#1f77b4;stroke:#ffffff;stroke-width:0.75;" x="590.572516" xlink:href="#mc498c28e71" y="85.957829"/>
     <use style="fill:#1f77b4;stroke:#ffffff;stroke-width:0.75;" x="595.802132" xlink:href="#mc498c28e71" y="86.510051"/>
     <use style="fill:#1f77b4;stroke:#ffffff;stroke-width:0.75;" x="601.031748" xlink:href="#mc498c28e71" y="87.453168"/>
     <use style="fill:#1f77b4;stroke:#ffffff;stroke-width:0.75;" x="606.261364" xlink:href="#mc498c28e71" y="88.264595"/>
    </g>
   </g>
   <g id="line2d_8">
    <path clip-path="url(#p6e7ec2abeb)" d="M 98.988636 49.614405 
L 104.218252 57.979725 
L 109.447868 65.246147 
L 114.677484 78.594548 
L 119.907099 82.387609 
L 125.136715 85.698305 
L 130.366331 93.302579 
L 135.595947 96.09514 
L 140.825562 97.741202 
L 146.055178 103.365815 
L 151.284794 107.740781 
L 156.51441 109.499371 
L 161.744025 112.308849 
L 166.973641 115.445551 
L 172.203257 116.538896 
L 177.432873 119.873245 
L 182.662488 123.10644 
L 187.892104 126.201627 
L 193.12172 128.285731 
L 198.351336 130.771926 
L 203.580951 132.870919 
L 208.810567 134.398555 
L 214.040183 138.503302 
L 219.269799 140.102168 
L 224.499414 142.241481 
L 229.72903 144.241311 
L 234.958646 146.5159 
L 240.188261 149.77862 
L 245.417877 153.184092 
L 250.647493 158.059322 
L 255.877109 160.931327 
L 261.106724 165.966223 
L 266.33634 169.475268 
L 271.565956 171.657945 
L 276.795572 172.838656 
L 282.025187 173.914755 
L 287.254803 176.002005 
L 292.484419 177.706897 
L 297.714035 178.896065 
L 302.94365 180.121314 
L 308.173266 182.401449 
L 313.402882 183.219138 
L 318.632498 185.468692 
L 323.862113 187.144979 
L 329.091729 189.238415 
L 334.321345 191.156019 
L 339.550961 191.982198 
L 344.780576 193.089242 
L 350.010192 194.907351 
L 355.239808 197.009284 
L 360.469424 198.373282 
L 365.699039 199.952402 
L 370.928655 201.245943 
L 376.158271 202.913869 
L 381.387887 204.594038 
L 386.617502 206.384427 
L 391.847118 207.988032 
L 397.076734 209.540843 
L 402.30635 211.129732 
L 407.535965 213.005879 
L 412.765581 214.394572 
L 417.995197 216.644981 
L 423.224813 219.141511 
L 428.454428 220.363606 
L 433.684044 222.738144 
L 438.91366 223.699058 
L 444.143276 224.419445 
L 449.372891 225.73267 
L 454.602507 226.958364 
L 459.832123 228.04674 
L 465.061739 229.887529 
L 470.291354 230.515023 
L 475.52097 232.834049 
L 480.750586 235.162773 
L 485.980201 237.33586 
L 491.209817 239.5732 
L 496.439433 240.679622 
L 501.669049 241.977426 
L 506.898664 243.705347 
L 512.12828 244.998143 
L 517.357896 245.946866 
L 522.587512 246.621657 
L 527.817127 247.889087 
L 533.046743 249.044358 
L 538.276359 250.430544 
L 543.505975 251.899732 
L 548.73559 252.839359 
L 553.965206 254.120641 
L 559.194822 255.205319 
L 564.424438 256.122461 
L 569.654053 257.028331 
L 574.883669 258.645012 
L 580.113285 259.898377 
L 585.342901 261.385384 
L 590.572516 262.349433 
L 595.802132 263.732802 
L 601.031748 265.074135 
L 606.261364 266.645455 
" style="fill:none;stroke:#ff7f0e;stroke-linecap:round;stroke-width:1.5;"/>
    <defs>
     <path d="M 0 3 
C 0.795609 3 1.55874 2.683901 2.12132 2.12132 
C 2.683901 1.55874 3 0.795609 3 0 
C 3 -0.795609 2.683901 -1.55874 2.12132 -2.12132 
C 1.55874 -2.683901 0.795609 -3 0 -3 
C -0.795609 -3 -1.55874 -2.683901 -2.12132 -2.12132 
C -2.683901 -1.55874 -3 -0.795609 -3 0 
C -3 0.795609 -2.683901 1.55874 -2.12132 2.12132 
C -1.55874 2.683901 -0.795609 3 0 3 
z
" id="mfbaabc647e" style="stroke:#ffffff;stroke-width:0.75;"/>
    </defs>
    <g clip-path="url(#p6e7ec2abeb)">
     <use style="fill:#ff7f0e;stroke:#ffffff;stroke-width:0.75;" x="98.988636" xlink:href="#mfbaabc647e" y="49.614405"/>
     <use style="fill:#ff7f0e;stroke:#ffffff;stroke-width:0.75;" x="104.218252" xlink:href="#mfbaabc647e" y="57.979725"/>
     <use style="fill:#ff7f0e;stroke:#ffffff;stroke-width:0.75;" x="109.447868" xlink:href="#mfbaabc647e" y="65.246147"/>
     <use style="fill:#ff7f0e;stroke:#ffffff;stroke-width:0.75;" x="114.677484" xlink:href="#mfbaabc647e" y="78.594548"/>
     <use style="fill:#ff7f0e;stroke:#ffffff;stroke-width:0.75;" x="119.907099" xlink:href="#mfbaabc647e" y="82.387609"/>
     <use style="fill:#ff7f0e;stroke:#ffffff;stroke-width:0.75;" x="125.136715" xlink:href="#mfbaabc647e" y="85.698305"/>
     <use style="fill:#ff7f0e;stroke:#ffffff;stroke-width:0.75;" x="130.366331" xlink:href="#mfbaabc647e" y="93.302579"/>
     <use style="fill:#ff7f0e;stroke:#ffffff;stroke-width:0.75;" x="135.595947" xlink:href="#mfbaabc647e" y="96.09514"/>
     <use style="fill:#ff7f0e;stroke:#ffffff;stroke-width:0.75;" x="140.825562" xlink:href="#mfbaabc647e" y="97.741202"/>
     <use style="fill:#ff7f0e;stroke:#ffffff;stroke-width:0.75;" x="146.055178" xlink:href="#mfbaabc647e" y="103.365815"/>
     <use style="fill:#ff7f0e;stroke:#ffffff;stroke-width:0.75;" x="151.284794" xlink:href="#mfbaabc647e" y="107.740781"/>
     <use style="fill:#ff7f0e;stroke:#ffffff;stroke-width:0.75;" x="156.51441" xlink:href="#mfbaabc647e" y="109.499371"/>
     <use style="fill:#ff7f0e;stroke:#ffffff;stroke-width:0.75;" x="161.744025" xlink:href="#mfbaabc647e" y="112.308849"/>
     <use style="fill:#ff7f0e;stroke:#ffffff;stroke-width:0.75;" x="166.973641" xlink:href="#mfbaabc647e" y="115.445551"/>
     <use style="fill:#ff7f0e;stroke:#ffffff;stroke-width:0.75;" x="172.203257" xlink:href="#mfbaabc647e" y="116.538896"/>
     <use style="fill:#ff7f0e;stroke:#ffffff;stroke-width:0.75;" x="177.432873" xlink:href="#mfbaabc647e" y="119.873245"/>
     <use style="fill:#ff7f0e;stroke:#ffffff;stroke-width:0.75;" x="182.662488" xlink:href="#mfbaabc647e" y="123.10644"/>
     <use style="fill:#ff7f0e;stroke:#ffffff;stroke-width:0.75;" x="187.892104" xlink:href="#mfbaabc647e" y="126.201627"/>
     <use style="fill:#ff7f0e;stroke:#ffffff;stroke-width:0.75;" x="193.12172" xlink:href="#mfbaabc647e" y="128.285731"/>
     <use style="fill:#ff7f0e;stroke:#ffffff;stroke-width:0.75;" x="198.351336" xlink:href="#mfbaabc647e" y="130.771926"/>
     <use style="fill:#ff7f0e;stroke:#ffffff;stroke-width:0.75;" x="203.580951" xlink:href="#mfbaabc647e" y="132.870919"/>
     <use style="fill:#ff7f0e;stroke:#ffffff;stroke-width:0.75;" x="208.810567" xlink:href="#mfbaabc647e" y="134.398555"/>
     <use style="fill:#ff7f0e;stroke:#ffffff;stroke-width:0.75;" x="214.040183" xlink:href="#mfbaabc647e" y="138.503302"/>
     <use style="fill:#ff7f0e;stroke:#ffffff;stroke-width:0.75;" x="219.269799" xlink:href="#mfbaabc647e" y="140.102168"/>
     <use style="fill:#ff7f0e;stroke:#ffffff;stroke-width:0.75;" x="224.499414" xlink:href="#mfbaabc647e" y="142.241481"/>
     <use style="fill:#ff7f0e;stroke:#ffffff;stroke-width:0.75;" x="229.72903" xlink:href="#mfbaabc647e" y="144.241311"/>
     <use style="fill:#ff7f0e;stroke:#ffffff;stroke-width:0.75;" x="234.958646" xlink:href="#mfbaabc647e" y="146.5159"/>
     <use style="fill:#ff7f0e;stroke:#ffffff;stroke-width:0.75;" x="240.188261" xlink:href="#mfbaabc647e" y="149.77862"/>
     <use style="fill:#ff7f0e;stroke:#ffffff;stroke-width:0.75;" x="245.417877" xlink:href="#mfbaabc647e" y="153.184092"/>
     <use style="fill:#ff7f0e;stroke:#ffffff;stroke-width:0.75;" x="250.647493" xlink:href="#mfbaabc647e" y="158.059322"/>
     <use style="fill:#ff7f0e;stroke:#ffffff;stroke-width:0.75;" x="255.877109" xlink:href="#mfbaabc647e" y="160.931327"/>
     <use style="fill:#ff7f0e;stroke:#ffffff;stroke-width:0.75;" x="261.106724" xlink:href="#mfbaabc647e" y="165.966223"/>
     <use style="fill:#ff7f0e;stroke:#ffffff;stroke-width:0.75;" x="266.33634" xlink:href="#mfbaabc647e" y="169.475268"/>
     <use style="fill:#ff7f0e;stroke:#ffffff;stroke-width:0.75;" x="271.565956" xlink:href="#mfbaabc647e" y="171.657945"/>
     <use style="fill:#ff7f0e;stroke:#ffffff;stroke-width:0.75;" x="276.795572" xlink:href="#mfbaabc647e" y="172.838656"/>
     <use style="fill:#ff7f0e;stroke:#ffffff;stroke-width:0.75;" x="282.025187" xlink:href="#mfbaabc647e" y="173.914755"/>
     <use style="fill:#ff7f0e;stroke:#ffffff;stroke-width:0.75;" x="287.254803" xlink:href="#mfbaabc647e" y="176.002005"/>
     <use style="fill:#ff7f0e;stroke:#ffffff;stroke-width:0.75;" x="292.484419" xlink:href="#mfbaabc647e" y="177.706897"/>
     <use style="fill:#ff7f0e;stroke:#ffffff;stroke-width:0.75;" x="297.714035" xlink:href="#mfbaabc647e" y="178.896065"/>
     <use style="fill:#ff7f0e;stroke:#ffffff;stroke-width:0.75;" x="302.94365" xlink:href="#mfbaabc647e" y="180.121314"/>
     <use style="fill:#ff7f0e;stroke:#ffffff;stroke-width:0.75;" x="308.173266" xlink:href="#mfbaabc647e" y="182.401449"/>
     <use style="fill:#ff7f0e;stroke:#ffffff;stroke-width:0.75;" x="313.402882" xlink:href="#mfbaabc647e" y="183.219138"/>
     <use style="fill:#ff7f0e;stroke:#ffffff;stroke-width:0.75;" x="318.632498" xlink:href="#mfbaabc647e" y="185.468692"/>
     <use style="fill:#ff7f0e;stroke:#ffffff;stroke-width:0.75;" x="323.862113" xlink:href="#mfbaabc647e" y="187.144979"/>
     <use style="fill:#ff7f0e;stroke:#ffffff;stroke-width:0.75;" x="329.091729" xlink:href="#mfbaabc647e" y="189.238415"/>
     <use style="fill:#ff7f0e;stroke:#ffffff;stroke-width:0.75;" x="334.321345" xlink:href="#mfbaabc647e" y="191.156019"/>
     <use style="fill:#ff7f0e;stroke:#ffffff;stroke-width:0.75;" x="339.550961" xlink:href="#mfbaabc647e" y="191.982198"/>
     <use style="fill:#ff7f0e;stroke:#ffffff;stroke-width:0.75;" x="344.780576" xlink:href="#mfbaabc647e" y="193.089242"/>
     <use style="fill:#ff7f0e;stroke:#ffffff;stroke-width:0.75;" x="350.010192" xlink:href="#mfbaabc647e" y="194.907351"/>
     <use style="fill:#ff7f0e;stroke:#ffffff;stroke-width:0.75;" x="355.239808" xlink:href="#mfbaabc647e" y="197.009284"/>
     <use style="fill:#ff7f0e;stroke:#ffffff;stroke-width:0.75;" x="360.469424" xlink:href="#mfbaabc647e" y="198.373282"/>
     <use style="fill:#ff7f0e;stroke:#ffffff;stroke-width:0.75;" x="365.699039" xlink:href="#mfbaabc647e" y="199.952402"/>
     <use style="fill:#ff7f0e;stroke:#ffffff;stroke-width:0.75;" x="370.928655" xlink:href="#mfbaabc647e" y="201.245943"/>
     <use style="fill:#ff7f0e;stroke:#ffffff;stroke-width:0.75;" x="376.158271" xlink:href="#mfbaabc647e" y="202.913869"/>
     <use style="fill:#ff7f0e;stroke:#ffffff;stroke-width:0.75;" x="381.387887" xlink:href="#mfbaabc647e" y="204.594038"/>
     <use style="fill:#ff7f0e;stroke:#ffffff;stroke-width:0.75;" x="386.617502" xlink:href="#mfbaabc647e" y="206.384427"/>
     <use style="fill:#ff7f0e;stroke:#ffffff;stroke-width:0.75;" x="391.847118" xlink:href="#mfbaabc647e" y="207.988032"/>
     <use style="fill:#ff7f0e;stroke:#ffffff;stroke-width:0.75;" x="397.076734" xlink:href="#mfbaabc647e" y="209.540843"/>
     <use style="fill:#ff7f0e;stroke:#ffffff;stroke-width:0.75;" x="402.30635" xlink:href="#mfbaabc647e" y="211.129732"/>
     <use style="fill:#ff7f0e;stroke:#ffffff;stroke-width:0.75;" x="407.535965" xlink:href="#mfbaabc647e" y="213.005879"/>
     <use style="fill:#ff7f0e;stroke:#ffffff;stroke-width:0.75;" x="412.765581" xlink:href="#mfbaabc647e" y="214.394572"/>
     <use style="fill:#ff7f0e;stroke:#ffffff;stroke-width:0.75;" x="417.995197" xlink:href="#mfbaabc647e" y="216.644981"/>
     <use style="fill:#ff7f0e;stroke:#ffffff;stroke-width:0.75;" x="423.224813" xlink:href="#mfbaabc647e" y="219.141511"/>
     <use style="fill:#ff7f0e;stroke:#ffffff;stroke-width:0.75;" x="428.454428" xlink:href="#mfbaabc647e" y="220.363606"/>
     <use style="fill:#ff7f0e;stroke:#ffffff;stroke-width:0.75;" x="433.684044" xlink:href="#mfbaabc647e" y="222.738144"/>
     <use style="fill:#ff7f0e;stroke:#ffffff;stroke-width:0.75;" x="438.91366" xlink:href="#mfbaabc647e" y="223.699058"/>
     <use style="fill:#ff7f0e;stroke:#ffffff;stroke-width:0.75;" x="444.143276" xlink:href="#mfbaabc647e" y="224.419445"/>
     <use style="fill:#ff7f0e;stroke:#ffffff;stroke-width:0.75;" x="449.372891" xlink:href="#mfbaabc647e" y="225.73267"/>
     <use style="fill:#ff7f0e;stroke:#ffffff;stroke-width:0.75;" x="454.602507" xlink:href="#mfbaabc647e" y="226.958364"/>
     <use style="fill:#ff7f0e;stroke:#ffffff;stroke-width:0.75;" x="459.832123" xlink:href="#mfbaabc647e" y="228.04674"/>
     <use style="fill:#ff7f0e;stroke:#ffffff;stroke-width:0.75;" x="465.061739" xlink:href="#mfbaabc647e" y="229.887529"/>
     <use style="fill:#ff7f0e;stroke:#ffffff;stroke-width:0.75;" x="470.291354" xlink:href="#mfbaabc647e" y="230.515023"/>
     <use style="fill:#ff7f0e;stroke:#ffffff;stroke-width:0.75;" x="475.52097" xlink:href="#mfbaabc647e" y="232.834049"/>
     <use style="fill:#ff7f0e;stroke:#ffffff;stroke-width:0.75;" x="480.750586" xlink:href="#mfbaabc647e" y="235.162773"/>
     <use style="fill:#ff7f0e;stroke:#ffffff;stroke-width:0.75;" x="485.980201" xlink:href="#mfbaabc647e" y="237.33586"/>
     <use style="fill:#ff7f0e;stroke:#ffffff;stroke-width:0.75;" x="491.209817" xlink:href="#mfbaabc647e" y="239.5732"/>
     <use style="fill:#ff7f0e;stroke:#ffffff;stroke-width:0.75;" x="496.439433" xlink:href="#mfbaabc647e" y="240.679622"/>
     <use style="fill:#ff7f0e;stroke:#ffffff;stroke-width:0.75;" x="501.669049" xlink:href="#mfbaabc647e" y="241.977426"/>
     <use style="fill:#ff7f0e;stroke:#ffffff;stroke-width:0.75;" x="506.898664" xlink:href="#mfbaabc647e" y="243.705347"/>
     <use style="fill:#ff7f0e;stroke:#ffffff;stroke-width:0.75;" x="512.12828" xlink:href="#mfbaabc647e" y="244.998143"/>
     <use style="fill:#ff7f0e;stroke:#ffffff;stroke-width:0.75;" x="517.357896" xlink:href="#mfbaabc647e" y="245.946866"/>
     <use style="fill:#ff7f0e;stroke:#ffffff;stroke-width:0.75;" x="522.587512" xlink:href="#mfbaabc647e" y="246.621657"/>
     <use style="fill:#ff7f0e;stroke:#ffffff;stroke-width:0.75;" x="527.817127" xlink:href="#mfbaabc647e" y="247.889087"/>
     <use style="fill:#ff7f0e;stroke:#ffffff;stroke-width:0.75;" x="533.046743" xlink:href="#mfbaabc647e" y="249.044358"/>
     <use style="fill:#ff7f0e;stroke:#ffffff;stroke-width:0.75;" x="538.276359" xlink:href="#mfbaabc647e" y="250.430544"/>
     <use style="fill:#ff7f0e;stroke:#ffffff;stroke-width:0.75;" x="543.505975" xlink:href="#mfbaabc647e" y="251.899732"/>
     <use style="fill:#ff7f0e;stroke:#ffffff;stroke-width:0.75;" x="548.73559" xlink:href="#mfbaabc647e" y="252.839359"/>
     <use style="fill:#ff7f0e;stroke:#ffffff;stroke-width:0.75;" x="553.965206" xlink:href="#mfbaabc647e" y="254.120641"/>
     <use style="fill:#ff7f0e;stroke:#ffffff;stroke-width:0.75;" x="559.194822" xlink:href="#mfbaabc647e" y="255.205319"/>
     <use style="fill:#ff7f0e;stroke:#ffffff;stroke-width:0.75;" x="564.424438" xlink:href="#mfbaabc647e" y="256.122461"/>
     <use style="fill:#ff7f0e;stroke:#ffffff;stroke-width:0.75;" x="569.654053" xlink:href="#mfbaabc647e" y="257.028331"/>
     <use style="fill:#ff7f0e;stroke:#ffffff;stroke-width:0.75;" x="574.883669" xlink:href="#mfbaabc647e" y="258.645012"/>
     <use style="fill:#ff7f0e;stroke:#ffffff;stroke-width:0.75;" x="580.113285" xlink:href="#mfbaabc647e" y="259.898377"/>
     <use style="fill:#ff7f0e;stroke:#ffffff;stroke-width:0.75;" x="585.342901" xlink:href="#mfbaabc647e" y="261.385384"/>
     <use style="fill:#ff7f0e;stroke:#ffffff;stroke-width:0.75;" x="590.572516" xlink:href="#mfbaabc647e" y="262.349433"/>
     <use style="fill:#ff7f0e;stroke:#ffffff;stroke-width:0.75;" x="595.802132" xlink:href="#mfbaabc647e" y="263.732802"/>
     <use style="fill:#ff7f0e;stroke:#ffffff;stroke-width:0.75;" x="601.031748" xlink:href="#mfbaabc647e" y="265.074135"/>
     <use style="fill:#ff7f0e;stroke:#ffffff;stroke-width:0.75;" x="606.261364" xlink:href="#mfbaabc647e" y="266.645455"/>
    </g>
   </g>
   <g id="line2d_9">
    <path clip-path="url(#p6e7ec2abeb)" d="M 98.988636 19.797236 
L 104.218252 20.411762 
L 109.447868 20.985645 
L 114.677484 25.977009 
L 119.907099 28.39726 
L 125.136715 35.914323 
L 130.366331 37.081088 
L 135.595947 38.417646 
L 140.825562 60.165179 
L 146.055178 61.821134 
L 151.284794 78.528071 
L 156.51441 79.880478 
L 161.744025 82.885311 
L 166.973641 84.136015 
L 172.203257 84.61401 
L 177.432873 85.420625 
L 182.662488 88.918381 
L 187.892104 89.526338 
L 193.12172 104.631667 
L 198.351336 113.753116 
L 203.580951 114.29799 
L 208.810567 114.761972 
L 214.040183 116.59702 
L 219.269799 120.124787 
L 224.499414 124.488193 
L 229.72903 126.300942 
L 234.958646 129.555916 
L 240.188261 130.572507 
L 245.417877 133.550244 
L 250.647493 134.907175 
L 255.877109 136.043657 
L 261.106724 137.439069 
L 266.33634 138.396468 
L 271.565956 139.222432 
L 276.795572 140.632264 
L 282.025187 146.566524 
L 287.254803 147.324641 
L 292.484419 148.610462 
L 297.714035 149.308666 
L 302.94365 150.70751 
L 308.173266 151.917238 
L 313.402882 155.364611 
L 318.632498 156.755725 
L 323.862113 158.522055 
L 329.091729 159.782614 
L 334.321345 160.268022 
L 339.550961 164.339436 
L 344.780576 164.819388 
L 350.010192 166.978184 
L 355.239808 167.852385 
L 360.469424 169.377218 
L 365.699039 171.157319 
L 370.928655 171.803001 
L 376.158271 173.475175 
L 381.387887 174.797614 
L 386.617502 176.125657 
L 391.847118 176.603469 
L 397.076734 177.662533 
L 402.30635 178.194596 
L 407.535965 178.621584 
L 412.765581 179.828311 
L 417.995197 181.078768 
L 423.224813 185.211876 
L 428.454428 186.092817 
L 433.684044 187.469239 
L 438.91366 191.967811 
L 444.143276 192.587317 
L 449.372891 195.138737 
L 454.602507 203.03359 
L 459.832123 204.355862 
L 465.061739 205.063047 
L 470.291354 205.797583 
L 475.52097 206.330089 
L 480.750586 207.17927 
L 485.980201 208.269911 
L 491.209817 208.784735 
L 496.439433 210.46156 
L 501.669049 211.112369 
L 506.898664 212.372068 
L 512.12828 212.92429 
L 517.357896 214.052216 
L 522.587512 216.684353 
L 527.817127 220.476508 
L 533.046743 223.257097 
L 538.276359 226.358818 
L 543.505975 227.018574 
L 548.73559 228.022044 
L 553.965206 229.304577 
L 559.194822 230.328066 
L 564.424438 231.318542 
L 569.654053 232.168031 
L 574.883669 234.697145 
L 580.113285 235.322348 
L 585.342901 236.503043 
L 590.572516 236.974905 
L 595.802132 237.577915 
L 601.031748 238.69677 
L 606.261364 239.636078 
" style="fill:none;stroke:#2ca02c;stroke-linecap:round;stroke-width:1.5;"/>
    <defs>
     <path d="M 0 3 
C 0.795609 3 1.55874 2.683901 2.12132 2.12132 
C 2.683901 1.55874 3 0.795609 3 0 
C 3 -0.795609 2.683901 -1.55874 2.12132 -2.12132 
C 1.55874 -2.683901 0.795609 -3 0 -3 
C -0.795609 -3 -1.55874 -2.683901 -2.12132 -2.12132 
C -2.683901 -1.55874 -3 -0.795609 -3 0 
C -3 0.795609 -2.683901 1.55874 -2.12132 2.12132 
C -1.55874 2.683901 -0.795609 3 0 3 
z
" id="m7779e9611a" style="stroke:#ffffff;stroke-width:0.75;"/>
    </defs>
    <g clip-path="url(#p6e7ec2abeb)">
     <use style="fill:#2ca02c;stroke:#ffffff;stroke-width:0.75;" x="98.988636" xlink:href="#m7779e9611a" y="19.797236"/>
     <use style="fill:#2ca02c;stroke:#ffffff;stroke-width:0.75;" x="104.218252" xlink:href="#m7779e9611a" y="20.411762"/>
     <use style="fill:#2ca02c;stroke:#ffffff;stroke-width:0.75;" x="109.447868" xlink:href="#m7779e9611a" y="20.985645"/>
     <use style="fill:#2ca02c;stroke:#ffffff;stroke-width:0.75;" x="114.677484" xlink:href="#m7779e9611a" y="25.977009"/>
     <use style="fill:#2ca02c;stroke:#ffffff;stroke-width:0.75;" x="119.907099" xlink:href="#m7779e9611a" y="28.39726"/>
     <use style="fill:#2ca02c;stroke:#ffffff;stroke-width:0.75;" x="125.136715" xlink:href="#m7779e9611a" y="35.914323"/>
     <use style="fill:#2ca02c;stroke:#ffffff;stroke-width:0.75;" x="130.366331" xlink:href="#m7779e9611a" y="37.081088"/>
     <use style="fill:#2ca02c;stroke:#ffffff;stroke-width:0.75;" x="135.595947" xlink:href="#m7779e9611a" y="38.417646"/>
     <use style="fill:#2ca02c;stroke:#ffffff;stroke-width:0.75;" x="140.825562" xlink:href="#m7779e9611a" y="60.165179"/>
     <use style="fill:#2ca02c;stroke:#ffffff;stroke-width:0.75;" x="146.055178" xlink:href="#m7779e9611a" y="61.821134"/>
     <use style="fill:#2ca02c;stroke:#ffffff;stroke-width:0.75;" x="151.284794" xlink:href="#m7779e9611a" y="78.528071"/>
     <use style="fill:#2ca02c;stroke:#ffffff;stroke-width:0.75;" x="156.51441" xlink:href="#m7779e9611a" y="79.880478"/>
     <use style="fill:#2ca02c;stroke:#ffffff;stroke-width:0.75;" x="161.744025" xlink:href="#m7779e9611a" y="82.885311"/>
     <use style="fill:#2ca02c;stroke:#ffffff;stroke-width:0.75;" x="166.973641" xlink:href="#m7779e9611a" y="84.136015"/>
     <use style="fill:#2ca02c;stroke:#ffffff;stroke-width:0.75;" x="172.203257" xlink:href="#m7779e9611a" y="84.61401"/>
     <use style="fill:#2ca02c;stroke:#ffffff;stroke-width:0.75;" x="177.432873" xlink:href="#m7779e9611a" y="85.420625"/>
     <use style="fill:#2ca02c;stroke:#ffffff;stroke-width:0.75;" x="182.662488" xlink:href="#m7779e9611a" y="88.918381"/>
     <use style="fill:#2ca02c;stroke:#ffffff;stroke-width:0.75;" x="187.892104" xlink:href="#m7779e9611a" y="89.526338"/>
     <use style="fill:#2ca02c;stroke:#ffffff;stroke-width:0.75;" x="193.12172" xlink:href="#m7779e9611a" y="104.631667"/>
     <use style="fill:#2ca02c;stroke:#ffffff;stroke-width:0.75;" x="198.351336" xlink:href="#m7779e9611a" y="113.753116"/>
     <use style="fill:#2ca02c;stroke:#ffffff;stroke-width:0.75;" x="203.580951" xlink:href="#m7779e9611a" y="114.29799"/>
     <use style="fill:#2ca02c;stroke:#ffffff;stroke-width:0.75;" x="208.810567" xlink:href="#m7779e9611a" y="114.761972"/>
     <use style="fill:#2ca02c;stroke:#ffffff;stroke-width:0.75;" x="214.040183" xlink:href="#m7779e9611a" y="116.59702"/>
     <use style="fill:#2ca02c;stroke:#ffffff;stroke-width:0.75;" x="219.269799" xlink:href="#m7779e9611a" y="120.124787"/>
     <use style="fill:#2ca02c;stroke:#ffffff;stroke-width:0.75;" x="224.499414" xlink:href="#m7779e9611a" y="124.488193"/>
     <use style="fill:#2ca02c;stroke:#ffffff;stroke-width:0.75;" x="229.72903" xlink:href="#m7779e9611a" y="126.300942"/>
     <use style="fill:#2ca02c;stroke:#ffffff;stroke-width:0.75;" x="234.958646" xlink:href="#m7779e9611a" y="129.555916"/>
     <use style="fill:#2ca02c;stroke:#ffffff;stroke-width:0.75;" x="240.188261" xlink:href="#m7779e9611a" y="130.572507"/>
     <use style="fill:#2ca02c;stroke:#ffffff;stroke-width:0.75;" x="245.417877" xlink:href="#m7779e9611a" y="133.550244"/>
     <use style="fill:#2ca02c;stroke:#ffffff;stroke-width:0.75;" x="250.647493" xlink:href="#m7779e9611a" y="134.907175"/>
     <use style="fill:#2ca02c;stroke:#ffffff;stroke-width:0.75;" x="255.877109" xlink:href="#m7779e9611a" y="136.043657"/>
     <use style="fill:#2ca02c;stroke:#ffffff;stroke-width:0.75;" x="261.106724" xlink:href="#m7779e9611a" y="137.439069"/>
     <use style="fill:#2ca02c;stroke:#ffffff;stroke-width:0.75;" x="266.33634" xlink:href="#m7779e9611a" y="138.396468"/>
     <use style="fill:#2ca02c;stroke:#ffffff;stroke-width:0.75;" x="271.565956" xlink:href="#m7779e9611a" y="139.222432"/>
     <use style="fill:#2ca02c;stroke:#ffffff;stroke-width:0.75;" x="276.795572" xlink:href="#m7779e9611a" y="140.632264"/>
     <use style="fill:#2ca02c;stroke:#ffffff;stroke-width:0.75;" x="282.025187" xlink:href="#m7779e9611a" y="146.566524"/>
     <use style="fill:#2ca02c;stroke:#ffffff;stroke-width:0.75;" x="287.254803" xlink:href="#m7779e9611a" y="147.324641"/>
     <use style="fill:#2ca02c;stroke:#ffffff;stroke-width:0.75;" x="292.484419" xlink:href="#m7779e9611a" y="148.610462"/>
     <use style="fill:#2ca02c;stroke:#ffffff;stroke-width:0.75;" x="297.714035" xlink:href="#m7779e9611a" y="149.308666"/>
     <use style="fill:#2ca02c;stroke:#ffffff;stroke-width:0.75;" x="302.94365" xlink:href="#m7779e9611a" y="150.70751"/>
     <use style="fill:#2ca02c;stroke:#ffffff;stroke-width:0.75;" x="308.173266" xlink:href="#m7779e9611a" y="151.917238"/>
     <use style="fill:#2ca02c;stroke:#ffffff;stroke-width:0.75;" x="313.402882" xlink:href="#m7779e9611a" y="155.364611"/>
     <use style="fill:#2ca02c;stroke:#ffffff;stroke-width:0.75;" x="318.632498" xlink:href="#m7779e9611a" y="156.755725"/>
     <use style="fill:#2ca02c;stroke:#ffffff;stroke-width:0.75;" x="323.862113" xlink:href="#m7779e9611a" y="158.522055"/>
     <use style="fill:#2ca02c;stroke:#ffffff;stroke-width:0.75;" x="329.091729" xlink:href="#m7779e9611a" y="159.782614"/>
     <use style="fill:#2ca02c;stroke:#ffffff;stroke-width:0.75;" x="334.321345" xlink:href="#m7779e9611a" y="160.268022"/>
     <use style="fill:#2ca02c;stroke:#ffffff;stroke-width:0.75;" x="339.550961" xlink:href="#m7779e9611a" y="164.339436"/>
     <use style="fill:#2ca02c;stroke:#ffffff;stroke-width:0.75;" x="344.780576" xlink:href="#m7779e9611a" y="164.819388"/>
     <use style="fill:#2ca02c;stroke:#ffffff;stroke-width:0.75;" x="350.010192" xlink:href="#m7779e9611a" y="166.978184"/>
     <use style="fill:#2ca02c;stroke:#ffffff;stroke-width:0.75;" x="355.239808" xlink:href="#m7779e9611a" y="167.852385"/>
     <use style="fill:#2ca02c;stroke:#ffffff;stroke-width:0.75;" x="360.469424" xlink:href="#m7779e9611a" y="169.377218"/>
     <use style="fill:#2ca02c;stroke:#ffffff;stroke-width:0.75;" x="365.699039" xlink:href="#m7779e9611a" y="171.157319"/>
     <use style="fill:#2ca02c;stroke:#ffffff;stroke-width:0.75;" x="370.928655" xlink:href="#m7779e9611a" y="171.803001"/>
     <use style="fill:#2ca02c;stroke:#ffffff;stroke-width:0.75;" x="376.158271" xlink:href="#m7779e9611a" y="173.475175"/>
     <use style="fill:#2ca02c;stroke:#ffffff;stroke-width:0.75;" x="381.387887" xlink:href="#m7779e9611a" y="174.797614"/>
     <use style="fill:#2ca02c;stroke:#ffffff;stroke-width:0.75;" x="386.617502" xlink:href="#m7779e9611a" y="176.125657"/>
     <use style="fill:#2ca02c;stroke:#ffffff;stroke-width:0.75;" x="391.847118" xlink:href="#m7779e9611a" y="176.603469"/>
     <use style="fill:#2ca02c;stroke:#ffffff;stroke-width:0.75;" x="397.076734" xlink:href="#m7779e9611a" y="177.662533"/>
     <use style="fill:#2ca02c;stroke:#ffffff;stroke-width:0.75;" x="402.30635" xlink:href="#m7779e9611a" y="178.194596"/>
     <use style="fill:#2ca02c;stroke:#ffffff;stroke-width:0.75;" x="407.535965" xlink:href="#m7779e9611a" y="178.621584"/>
     <use style="fill:#2ca02c;stroke:#ffffff;stroke-width:0.75;" x="412.765581" xlink:href="#m7779e9611a" y="179.828311"/>
     <use style="fill:#2ca02c;stroke:#ffffff;stroke-width:0.75;" x="417.995197" xlink:href="#m7779e9611a" y="181.078768"/>
     <use style="fill:#2ca02c;stroke:#ffffff;stroke-width:0.75;" x="423.224813" xlink:href="#m7779e9611a" y="185.211876"/>
     <use style="fill:#2ca02c;stroke:#ffffff;stroke-width:0.75;" x="428.454428" xlink:href="#m7779e9611a" y="186.092817"/>
     <use style="fill:#2ca02c;stroke:#ffffff;stroke-width:0.75;" x="433.684044" xlink:href="#m7779e9611a" y="187.469239"/>
     <use style="fill:#2ca02c;stroke:#ffffff;stroke-width:0.75;" x="438.91366" xlink:href="#m7779e9611a" y="191.967811"/>
     <use style="fill:#2ca02c;stroke:#ffffff;stroke-width:0.75;" x="444.143276" xlink:href="#m7779e9611a" y="192.587317"/>
     <use style="fill:#2ca02c;stroke:#ffffff;stroke-width:0.75;" x="449.372891" xlink:href="#m7779e9611a" y="195.138737"/>
     <use style="fill:#2ca02c;stroke:#ffffff;stroke-width:0.75;" x="454.602507" xlink:href="#m7779e9611a" y="203.03359"/>
     <use style="fill:#2ca02c;stroke:#ffffff;stroke-width:0.75;" x="459.832123" xlink:href="#m7779e9611a" y="204.355862"/>
     <use style="fill:#2ca02c;stroke:#ffffff;stroke-width:0.75;" x="465.061739" xlink:href="#m7779e9611a" y="205.063047"/>
     <use style="fill:#2ca02c;stroke:#ffffff;stroke-width:0.75;" x="470.291354" xlink:href="#m7779e9611a" y="205.797583"/>
     <use style="fill:#2ca02c;stroke:#ffffff;stroke-width:0.75;" x="475.52097" xlink:href="#m7779e9611a" y="206.330089"/>
     <use style="fill:#2ca02c;stroke:#ffffff;stroke-width:0.75;" x="480.750586" xlink:href="#m7779e9611a" y="207.17927"/>
     <use style="fill:#2ca02c;stroke:#ffffff;stroke-width:0.75;" x="485.980201" xlink:href="#m7779e9611a" y="208.269911"/>
     <use style="fill:#2ca02c;stroke:#ffffff;stroke-width:0.75;" x="491.209817" xlink:href="#m7779e9611a" y="208.784735"/>
     <use style="fill:#2ca02c;stroke:#ffffff;stroke-width:0.75;" x="496.439433" xlink:href="#m7779e9611a" y="210.46156"/>
     <use style="fill:#2ca02c;stroke:#ffffff;stroke-width:0.75;" x="501.669049" xlink:href="#m7779e9611a" y="211.112369"/>
     <use style="fill:#2ca02c;stroke:#ffffff;stroke-width:0.75;" x="506.898664" xlink:href="#m7779e9611a" y="212.372068"/>
     <use style="fill:#2ca02c;stroke:#ffffff;stroke-width:0.75;" x="512.12828" xlink:href="#m7779e9611a" y="212.92429"/>
     <use style="fill:#2ca02c;stroke:#ffffff;stroke-width:0.75;" x="517.357896" xlink:href="#m7779e9611a" y="214.052216"/>
     <use style="fill:#2ca02c;stroke:#ffffff;stroke-width:0.75;" x="522.587512" xlink:href="#m7779e9611a" y="216.684353"/>
     <use style="fill:#2ca02c;stroke:#ffffff;stroke-width:0.75;" x="527.817127" xlink:href="#m7779e9611a" y="220.476508"/>
     <use style="fill:#2ca02c;stroke:#ffffff;stroke-width:0.75;" x="533.046743" xlink:href="#m7779e9611a" y="223.257097"/>
     <use style="fill:#2ca02c;stroke:#ffffff;stroke-width:0.75;" x="538.276359" xlink:href="#m7779e9611a" y="226.358818"/>
     <use style="fill:#2ca02c;stroke:#ffffff;stroke-width:0.75;" x="543.505975" xlink:href="#m7779e9611a" y="227.018574"/>
     <use style="fill:#2ca02c;stroke:#ffffff;stroke-width:0.75;" x="548.73559" xlink:href="#m7779e9611a" y="228.022044"/>
     <use style="fill:#2ca02c;stroke:#ffffff;stroke-width:0.75;" x="553.965206" xlink:href="#m7779e9611a" y="229.304577"/>
     <use style="fill:#2ca02c;stroke:#ffffff;stroke-width:0.75;" x="559.194822" xlink:href="#m7779e9611a" y="230.328066"/>
     <use style="fill:#2ca02c;stroke:#ffffff;stroke-width:0.75;" x="564.424438" xlink:href="#m7779e9611a" y="231.318542"/>
     <use style="fill:#2ca02c;stroke:#ffffff;stroke-width:0.75;" x="569.654053" xlink:href="#m7779e9611a" y="232.168031"/>
     <use style="fill:#2ca02c;stroke:#ffffff;stroke-width:0.75;" x="574.883669" xlink:href="#m7779e9611a" y="234.697145"/>
     <use style="fill:#2ca02c;stroke:#ffffff;stroke-width:0.75;" x="580.113285" xlink:href="#m7779e9611a" y="235.322348"/>
     <use style="fill:#2ca02c;stroke:#ffffff;stroke-width:0.75;" x="585.342901" xlink:href="#m7779e9611a" y="236.503043"/>
     <use style="fill:#2ca02c;stroke:#ffffff;stroke-width:0.75;" x="590.572516" xlink:href="#m7779e9611a" y="236.974905"/>
     <use style="fill:#2ca02c;stroke:#ffffff;stroke-width:0.75;" x="595.802132" xlink:href="#m7779e9611a" y="237.577915"/>
     <use style="fill:#2ca02c;stroke:#ffffff;stroke-width:0.75;" x="601.031748" xlink:href="#m7779e9611a" y="238.69677"/>
     <use style="fill:#2ca02c;stroke:#ffffff;stroke-width:0.75;" x="606.261364" xlink:href="#m7779e9611a" y="239.636078"/>
    </g>
   </g>
   <g id="line2d_10"/>
   <g id="line2d_11"/>
   <g id="line2d_12"/>
   <g id="patch_3">
    <path d="M 73.625 279 
L 631.625 279 
" style="fill:none;stroke:#cccccc;stroke-linecap:square;stroke-linejoin:miter;stroke-width:0.8;"/>
   </g>
   <g id="legend_1">
    <g id="patch_4">
     <path d="M 512.264844 104.423438 
L 621.125 104.423438 
Q 624.125 104.423438 624.125 101.423438 
L 624.125 17.7 
Q 624.125 14.7 621.125 14.7 
L 512.264844 14.7 
Q 509.264844 14.7 509.264844 17.7 
L 509.264844 101.423438 
Q 509.264844 104.423438 512.264844 104.423438 
z
" style="fill:#ffffff;opacity:0.8;stroke:#cccccc;stroke-linejoin:miter;"/>
    </g>
    <g id="text_15">
     <!-- Method -->
     <g style="fill:#262626;" transform="translate(541.68125 31.436719)scale(0.15 -0.15)">
      <defs>
       <path d="M 475 0 
L 475 4581 
L 1388 4581 
L 2472 1338 
Q 2622 884 2691 659 
Q 2769 909 2934 1394 
L 4031 4581 
L 4847 4581 
L 4847 0 
L 4263 0 
L 4263 3834 
L 2931 0 
L 2384 0 
L 1059 3900 
L 1059 0 
L 475 0 
z
" id="ArialMT-4d" transform="scale(0.015625)"/>
       <path d="M 2575 0 
L 2575 419 
Q 2259 -75 1647 -75 
Q 1250 -75 917 144 
Q 584 363 401 755 
Q 219 1147 219 1656 
Q 219 2153 384 2558 
Q 550 2963 881 3178 
Q 1213 3394 1622 3394 
Q 1922 3394 2156 3267 
Q 2391 3141 2538 2938 
L 2538 4581 
L 3097 4581 
L 3097 0 
L 2575 0 
z
M 797 1656 
Q 797 1019 1065 703 
Q 1334 388 1700 388 
Q 2069 388 2326 689 
Q 2584 991 2584 1609 
Q 2584 2291 2321 2609 
Q 2059 2928 1675 2928 
Q 1300 2928 1048 2622 
Q 797 2316 797 1656 
z
" id="ArialMT-64" transform="scale(0.015625)"/>
      </defs>
      <use xlink:href="#ArialMT-4d"/>
      <use x="83.300781" xlink:href="#ArialMT-65"/>
      <use x="138.916016" xlink:href="#ArialMT-74"/>
      <use x="166.699219" xlink:href="#ArialMT-68"/>
      <use x="222.314453" xlink:href="#ArialMT-6f"/>
      <use x="277.929688" xlink:href="#ArialMT-64"/>
     </g>
    </g>
    <g id="line2d_13">
     <path d="M 515.264844 47.404688 
L 545.264844 47.404688 
" style="fill:none;stroke:#1f77b4;stroke-linecap:round;stroke-width:1.5;"/>
    </g>
    <g id="line2d_14">
     <g>
      <use style="fill:#1f77b4;stroke:#ffffff;stroke-width:0.75;" x="530.264844" xlink:href="#mc498c28e71" y="47.404688"/>
     </g>
    </g>
    <g id="text_16">
     <!-- single -->
     <g style="fill:#262626;" transform="translate(557.264844 52.654688)scale(0.15 -0.15)">
      <defs>
       <path d="M 319 -275 
L 866 -356 
Q 900 -609 1056 -725 
Q 1266 -881 1628 -881 
Q 2019 -881 2231 -725 
Q 2444 -569 2519 -288 
Q 2563 -116 2559 434 
Q 2191 0 1641 0 
Q 956 0 581 494 
Q 206 988 206 1678 
Q 206 2153 378 2554 
Q 550 2956 876 3175 
Q 1203 3394 1644 3394 
Q 2231 3394 2613 2919 
L 2613 3319 
L 3131 3319 
L 3131 450 
Q 3131 -325 2973 -648 
Q 2816 -972 2473 -1159 
Q 2131 -1347 1631 -1347 
Q 1038 -1347 672 -1080 
Q 306 -813 319 -275 
z
M 784 1719 
Q 784 1066 1043 766 
Q 1303 466 1694 466 
Q 2081 466 2343 764 
Q 2606 1063 2606 1700 
Q 2606 2309 2336 2618 
Q 2066 2928 1684 2928 
Q 1309 2928 1046 2623 
Q 784 2319 784 1719 
z
" id="ArialMT-67" transform="scale(0.015625)"/>
      </defs>
      <use xlink:href="#ArialMT-73"/>
      <use x="50" xlink:href="#ArialMT-69"/>
      <use x="72.216797" xlink:href="#ArialMT-6e"/>
      <use x="127.832031" xlink:href="#ArialMT-67"/>
      <use x="183.447266" xlink:href="#ArialMT-6c"/>
      <use x="205.664062" xlink:href="#ArialMT-65"/>
     </g>
    </g>
    <g id="line2d_15">
     <path d="M 515.264844 68.798438 
L 545.264844 68.798438 
" style="fill:none;stroke:#ff7f0e;stroke-linecap:round;stroke-width:1.5;"/>
    </g>
    <g id="line2d_16">
     <g>
      <use style="fill:#ff7f0e;stroke:#ffffff;stroke-width:0.75;" x="530.264844" xlink:href="#mfbaabc647e" y="68.798438"/>
     </g>
    </g>
    <g id="text_17">
     <!-- complete -->
     <g style="fill:#262626;" transform="translate(557.264844 74.048438)scale(0.15 -0.15)">
      <defs>
       <path d="M 2588 1216 
L 3141 1144 
Q 3050 572 2676 248 
Q 2303 -75 1759 -75 
Q 1078 -75 664 370 
Q 250 816 250 1647 
Q 250 2184 428 2587 
Q 606 2991 970 3192 
Q 1334 3394 1763 3394 
Q 2303 3394 2647 3120 
Q 2991 2847 3088 2344 
L 2541 2259 
Q 2463 2594 2264 2762 
Q 2066 2931 1784 2931 
Q 1359 2931 1093 2626 
Q 828 2322 828 1663 
Q 828 994 1084 691 
Q 1341 388 1753 388 
Q 2084 388 2306 591 
Q 2528 794 2588 1216 
z
" id="ArialMT-63" transform="scale(0.015625)"/>
       <path d="M 422 0 
L 422 3319 
L 925 3319 
L 925 2853 
Q 1081 3097 1340 3245 
Q 1600 3394 1931 3394 
Q 2300 3394 2536 3241 
Q 2772 3088 2869 2813 
Q 3263 3394 3894 3394 
Q 4388 3394 4653 3120 
Q 4919 2847 4919 2278 
L 4919 0 
L 4359 0 
L 4359 2091 
Q 4359 2428 4304 2576 
Q 4250 2725 4106 2815 
Q 3963 2906 3769 2906 
Q 3419 2906 3187 2673 
Q 2956 2441 2956 1928 
L 2956 0 
L 2394 0 
L 2394 2156 
Q 2394 2531 2256 2718 
Q 2119 2906 1806 2906 
Q 1569 2906 1367 2781 
Q 1166 2656 1075 2415 
Q 984 2175 984 1722 
L 984 0 
L 422 0 
z
" id="ArialMT-6d" transform="scale(0.015625)"/>
       <path d="M 422 -1272 
L 422 3319 
L 934 3319 
L 934 2888 
Q 1116 3141 1344 3267 
Q 1572 3394 1897 3394 
Q 2322 3394 2647 3175 
Q 2972 2956 3137 2557 
Q 3303 2159 3303 1684 
Q 3303 1175 3120 767 
Q 2938 359 2589 142 
Q 2241 -75 1856 -75 
Q 1575 -75 1351 44 
Q 1128 163 984 344 
L 984 -1272 
L 422 -1272 
z
M 931 1641 
Q 931 1000 1190 694 
Q 1450 388 1819 388 
Q 2194 388 2461 705 
Q 2728 1022 2728 1688 
Q 2728 2322 2467 2637 
Q 2206 2953 1844 2953 
Q 1484 2953 1207 2617 
Q 931 2281 931 1641 
z
" id="ArialMT-70" transform="scale(0.015625)"/>
      </defs>
      <use xlink:href="#ArialMT-63"/>
      <use x="50" xlink:href="#ArialMT-6f"/>
      <use x="105.615234" xlink:href="#ArialMT-6d"/>
      <use x="188.916016" xlink:href="#ArialMT-70"/>
      <use x="244.53125" xlink:href="#ArialMT-6c"/>
      <use x="266.748047" xlink:href="#ArialMT-65"/>
      <use x="322.363281" xlink:href="#ArialMT-74"/>
      <use x="350.146484" xlink:href="#ArialMT-65"/>
     </g>
    </g>
    <g id="line2d_17">
     <path d="M 515.264844 90.016406 
L 545.264844 90.016406 
" style="fill:none;stroke:#2ca02c;stroke-linecap:round;stroke-width:1.5;"/>
    </g>
    <g id="line2d_18">
     <g>
      <use style="fill:#2ca02c;stroke:#ffffff;stroke-width:0.75;" x="530.264844" xlink:href="#m7779e9611a" y="90.016406"/>
     </g>
    </g>
    <g id="text_18">
     <!-- weighted -->
     <g style="fill:#262626;" transform="translate(557.264844 95.266406)scale(0.15 -0.15)">
      <defs>
       <path d="M 1034 0 
L 19 3319 
L 600 3319 
L 1128 1403 
L 1325 691 
Q 1338 744 1497 1375 
L 2025 3319 
L 2603 3319 
L 3100 1394 
L 3266 759 
L 3456 1400 
L 4025 3319 
L 4572 3319 
L 3534 0 
L 2950 0 
L 2422 1988 
L 2294 2553 
L 1622 0 
L 1034 0 
z
" id="ArialMT-77" transform="scale(0.015625)"/>
      </defs>
      <use xlink:href="#ArialMT-77"/>
      <use x="72.216797" xlink:href="#ArialMT-65"/>
      <use x="127.832031" xlink:href="#ArialMT-69"/>
      <use x="150.048828" xlink:href="#ArialMT-67"/>
      <use x="205.664062" xlink:href="#ArialMT-68"/>
      <use x="261.279297" xlink:href="#ArialMT-74"/>
      <use x="289.0625" xlink:href="#ArialMT-65"/>
      <use x="344.677734" xlink:href="#ArialMT-64"/>
     </g>
    </g>
   </g>
  </g>
 </g>
 <defs>
  <clipPath id="p6e7ec2abeb">
   <rect height="271.8" width="558" x="73.625" y="7.2"/>
  </clipPath>
 </defs>
</svg>
