<?xml version="1.0" encoding="utf-8" standalone="no"?>
<!DOCTYPE svg PUBLIC "-//W3C//DTD SVG 1.1//EN"
  "http://www.w3.org/Graphics/SVG/1.1/DTD/svg11.dtd">
<svg height="324.635938pt" version="1.1" viewBox="0 0 345.587287 324.635938" width="345.587287pt" xmlns="http://www.w3.org/2000/svg" xmlns:xlink="http://www.w3.org/1999/xlink">
 <metadata>
  <rdf:RDF xmlns:cc="http://creativecommons.org/ns#" xmlns:dc="http://purl.org/dc/elements/1.1/" xmlns:rdf="http://www.w3.org/1999/02/22-rdf-syntax-ns#">
   <cc:Work>
    <dc:type rdf:resource="http://purl.org/dc/dcmitype/StillImage"/>
    <dc:date>2022-05-13T17:44:39.146577</dc:date>
    <dc:format>image/svg+xml</dc:format>
    <dc:creator>
     <cc:Agent>
      <dc:title>Matplotlib v3.4.3, https://matplotlib.org/</dc:title>
     </cc:Agent>
    </dc:creator>
   </cc:Work>
  </rdf:RDF>
 </metadata>
 <defs>
  <style type="text/css">*{stroke-linecap:butt;stroke-linejoin:round;}</style>
 </defs>
 <g id="figure_1">
  <g id="patch_1">
   <path d="M 0 324.635938 
L 345.587287 324.635938 
L 345.587287 0 
L 0 0 
z
" style="fill:#ffffff;"/>
  </g>
  <g id="axes_1">
   <g id="patch_2">
    <path d="M 56.942188 279 
L 335.942187 279 
L 335.942187 7.2 
L 56.942188 7.2 
z
" style="fill:#ffffff;"/>
   </g>
   <g id="matplotlib.axis_1">
    <g id="xtick_1">
     <g id="text_1">
      <!-- 0 -->
      <g style="fill:#262626;" transform="translate(60.223687 296.736719)scale(0.15 -0.15)">
       <defs>
        <path d="M 266 2259 
Q 266 3072 433 3567 
Q 600 4063 929 4331 
Q 1259 4600 1759 4600 
Q 2128 4600 2406 4451 
Q 2684 4303 2865 4023 
Q 3047 3744 3150 3342 
Q 3253 2941 3253 2259 
Q 3253 1453 3087 958 
Q 2922 463 2592 192 
Q 2263 -78 1759 -78 
Q 1097 -78 719 397 
Q 266 969 266 2259 
z
M 844 2259 
Q 844 1131 1108 757 
Q 1372 384 1759 384 
Q 2147 384 2411 759 
Q 2675 1134 2675 2259 
Q 2675 3391 2411 3762 
Q 2147 4134 1753 4134 
Q 1366 4134 1134 3806 
Q 844 3388 844 2259 
z
" id="ArialMT-30" transform="scale(0.015625)"/>
       </defs>
       <use xlink:href="#ArialMT-30"/>
      </g>
     </g>
    </g>
    <g id="xtick_2">
     <g id="text_2">
      <!-- 20 -->
      <g style="fill:#262626;" transform="translate(108.349141 296.736719)scale(0.15 -0.15)">
       <defs>
        <path d="M 3222 541 
L 3222 0 
L 194 0 
Q 188 203 259 391 
Q 375 700 629 1000 
Q 884 1300 1366 1694 
Q 2113 2306 2375 2664 
Q 2638 3022 2638 3341 
Q 2638 3675 2398 3904 
Q 2159 4134 1775 4134 
Q 1369 4134 1125 3890 
Q 881 3647 878 3216 
L 300 3275 
Q 359 3922 746 4261 
Q 1134 4600 1788 4600 
Q 2447 4600 2831 4234 
Q 3216 3869 3216 3328 
Q 3216 3053 3103 2787 
Q 2991 2522 2730 2228 
Q 2469 1934 1863 1422 
Q 1356 997 1212 845 
Q 1069 694 975 541 
L 3222 541 
z
" id="ArialMT-32" transform="scale(0.015625)"/>
       </defs>
       <use xlink:href="#ArialMT-32"/>
       <use x="55.615234" xlink:href="#ArialMT-30"/>
      </g>
     </g>
    </g>
    <g id="xtick_3">
     <g id="text_3">
      <!-- 40 -->
      <g style="fill:#262626;" transform="translate(160.645299 296.736719)scale(0.15 -0.15)">
       <defs>
        <path d="M 2069 0 
L 2069 1097 
L 81 1097 
L 81 1613 
L 2172 4581 
L 2631 4581 
L 2631 1613 
L 3250 1613 
L 3250 1097 
L 2631 1097 
L 2631 0 
L 2069 0 
z
M 2069 1613 
L 2069 3678 
L 634 1613 
L 2069 1613 
z
" id="ArialMT-34" transform="scale(0.015625)"/>
       </defs>
       <use xlink:href="#ArialMT-34"/>
       <use x="55.615234" xlink:href="#ArialMT-30"/>
      </g>
     </g>
    </g>
    <g id="xtick_4">
     <g id="text_4">
      <!-- 60 -->
      <g style="fill:#262626;" transform="translate(212.941456 296.736719)scale(0.15 -0.15)">
       <defs>
        <path d="M 3184 3459 
L 2625 3416 
Q 2550 3747 2413 3897 
Q 2184 4138 1850 4138 
Q 1581 4138 1378 3988 
Q 1113 3794 959 3422 
Q 806 3050 800 2363 
Q 1003 2672 1297 2822 
Q 1591 2972 1913 2972 
Q 2475 2972 2870 2558 
Q 3266 2144 3266 1488 
Q 3266 1056 3080 686 
Q 2894 316 2569 119 
Q 2244 -78 1831 -78 
Q 1128 -78 684 439 
Q 241 956 241 2144 
Q 241 3472 731 4075 
Q 1159 4600 1884 4600 
Q 2425 4600 2770 4297 
Q 3116 3994 3184 3459 
z
M 888 1484 
Q 888 1194 1011 928 
Q 1134 663 1356 523 
Q 1578 384 1822 384 
Q 2178 384 2434 671 
Q 2691 959 2691 1453 
Q 2691 1928 2437 2201 
Q 2184 2475 1800 2475 
Q 1419 2475 1153 2201 
Q 888 1928 888 1484 
z
" id="ArialMT-36" transform="scale(0.015625)"/>
       </defs>
       <use xlink:href="#ArialMT-36"/>
       <use x="55.615234" xlink:href="#ArialMT-30"/>
      </g>
     </g>
    </g>
    <g id="xtick_5">
     <g id="text_5">
      <!-- 80 -->
      <g style="fill:#262626;" transform="translate(265.237613 296.736719)scale(0.15 -0.15)">
       <defs>
        <path d="M 1131 2484 
Q 781 2613 612 2850 
Q 444 3088 444 3419 
Q 444 3919 803 4259 
Q 1163 4600 1759 4600 
Q 2359 4600 2725 4251 
Q 3091 3903 3091 3403 
Q 3091 3084 2923 2848 
Q 2756 2613 2416 2484 
Q 2838 2347 3058 2040 
Q 3278 1734 3278 1309 
Q 3278 722 2862 322 
Q 2447 -78 1769 -78 
Q 1091 -78 675 323 
Q 259 725 259 1325 
Q 259 1772 486 2073 
Q 713 2375 1131 2484 
z
M 1019 3438 
Q 1019 3113 1228 2906 
Q 1438 2700 1772 2700 
Q 2097 2700 2305 2904 
Q 2513 3109 2513 3406 
Q 2513 3716 2298 3927 
Q 2084 4138 1766 4138 
Q 1444 4138 1231 3931 
Q 1019 3725 1019 3438 
z
M 838 1322 
Q 838 1081 952 856 
Q 1066 631 1291 507 
Q 1516 384 1775 384 
Q 2178 384 2440 643 
Q 2703 903 2703 1303 
Q 2703 1709 2433 1975 
Q 2163 2241 1756 2241 
Q 1359 2241 1098 1978 
Q 838 1716 838 1322 
z
" id="ArialMT-38" transform="scale(0.015625)"/>
       </defs>
       <use xlink:href="#ArialMT-38"/>
       <use x="55.615234" xlink:href="#ArialMT-30"/>
      </g>
     </g>
    </g>
    <g id="xtick_6">
     <g id="text_6">
      <!-- 100 -->
      <g style="fill:#262626;" transform="translate(313.363068 296.736719)scale(0.15 -0.15)">
       <defs>
        <path d="M 2384 0 
L 1822 0 
L 1822 3584 
Q 1619 3391 1289 3197 
Q 959 3003 697 2906 
L 697 3450 
Q 1169 3672 1522 3987 
Q 1875 4303 2022 4600 
L 2384 4600 
L 2384 0 
z
" id="ArialMT-31" transform="scale(0.015625)"/>
       </defs>
       <use xlink:href="#ArialMT-31"/>
       <use x="55.615234" xlink:href="#ArialMT-30"/>
       <use x="111.230469" xlink:href="#ArialMT-30"/>
      </g>
     </g>
    </g>
    <g id="text_7">
     <!-- k -->
     <g style="fill:#262626;" transform="translate(192.692187 314.454688)scale(0.15 -0.15)">
      <defs>
       <path d="M 425 0 
L 425 4581 
L 988 4581 
L 988 1969 
L 2319 3319 
L 3047 3319 
L 1778 2088 
L 3175 0 
L 2481 0 
L 1384 1697 
L 988 1316 
L 988 0 
L 425 0 
z
" id="ArialMT-6b" transform="scale(0.015625)"/>
      </defs>
      <use xlink:href="#ArialMT-6b"/>
     </g>
    </g>
   </g>
   <g id="matplotlib.axis_2">
    <g id="ytick_1">
     <g id="line2d_1">
      <path clip-path="url(#p9cf3c06fe7)" d="M 56.942188 243.663045 
L 335.942187 243.663045 
" style="fill:none;stroke:#cccccc;stroke-linecap:round;stroke-width:0.8;"/>
     </g>
     <g id="text_8">
      <!-- 20 -->
      <g style="fill:#262626;" transform="translate(33.259375 249.031405)scale(0.15 -0.15)">
       <use xlink:href="#ArialMT-32"/>
       <use x="55.615234" xlink:href="#ArialMT-30"/>
      </g>
     </g>
    </g>
    <g id="ytick_2">
     <g id="line2d_2">
      <path clip-path="url(#p9cf3c06fe7)" d="M 56.942188 200.771559 
L 335.942187 200.771559 
" style="fill:none;stroke:#cccccc;stroke-linecap:round;stroke-width:0.8;"/>
     </g>
     <g id="text_9">
      <!-- 40 -->
      <g style="fill:#262626;" transform="translate(33.259375 206.139918)scale(0.15 -0.15)">
       <use xlink:href="#ArialMT-34"/>
       <use x="55.615234" xlink:href="#ArialMT-30"/>
      </g>
     </g>
    </g>
    <g id="ytick_3">
     <g id="line2d_3">
      <path clip-path="url(#p9cf3c06fe7)" d="M 56.942188 157.880073 
L 335.942187 157.880073 
" style="fill:none;stroke:#cccccc;stroke-linecap:round;stroke-width:0.8;"/>
     </g>
     <g id="text_10">
      <!-- 60 -->
      <g style="fill:#262626;" transform="translate(33.259375 163.248432)scale(0.15 -0.15)">
       <use xlink:href="#ArialMT-36"/>
       <use x="55.615234" xlink:href="#ArialMT-30"/>
      </g>
     </g>
    </g>
    <g id="ytick_4">
     <g id="line2d_4">
      <path clip-path="url(#p9cf3c06fe7)" d="M 56.942188 114.988586 
L 335.942187 114.988586 
" style="fill:none;stroke:#cccccc;stroke-linecap:round;stroke-width:0.8;"/>
     </g>
     <g id="text_11">
      <!-- 80 -->
      <g style="fill:#262626;" transform="translate(33.259375 120.356946)scale(0.15 -0.15)">
       <use xlink:href="#ArialMT-38"/>
       <use x="55.615234" xlink:href="#ArialMT-30"/>
      </g>
     </g>
    </g>
    <g id="ytick_5">
     <g id="line2d_5">
      <path clip-path="url(#p9cf3c06fe7)" d="M 56.942188 72.0971 
L 335.942187 72.0971 
" style="fill:none;stroke:#cccccc;stroke-linecap:round;stroke-width:0.8;"/>
     </g>
     <g id="text_12">
      <!-- 100 -->
      <g style="fill:#262626;" transform="translate(24.917969 77.46546)scale(0.15 -0.15)">
       <use xlink:href="#ArialMT-31"/>
       <use x="55.615234" xlink:href="#ArialMT-30"/>
       <use x="111.230469" xlink:href="#ArialMT-30"/>
      </g>
     </g>
    </g>
    <g id="ytick_6">
     <g id="line2d_6">
      <path clip-path="url(#p9cf3c06fe7)" d="M 56.942188 29.205614 
L 335.942187 29.205614 
" style="fill:none;stroke:#cccccc;stroke-linecap:round;stroke-width:0.8;"/>
     </g>
     <g id="text_13">
      <!-- 120 -->
      <g style="fill:#262626;" transform="translate(24.917969 34.573973)scale(0.15 -0.15)">
       <use xlink:href="#ArialMT-31"/>
       <use x="55.615234" xlink:href="#ArialMT-32"/>
       <use x="111.230469" xlink:href="#ArialMT-30"/>
      </g>
     </g>
    </g>
    <g id="text_14">
     <!-- CH Index -->
     <g style="fill:#262626;" transform="translate(17.936719 174.362109)rotate(-90)scale(0.15 -0.15)">
      <defs>
       <path d="M 3763 1606 
L 4369 1453 
Q 4178 706 3683 314 
Q 3188 -78 2472 -78 
Q 1731 -78 1267 223 
Q 803 525 561 1097 
Q 319 1669 319 2325 
Q 319 3041 592 3573 
Q 866 4106 1370 4382 
Q 1875 4659 2481 4659 
Q 3169 4659 3637 4309 
Q 4106 3959 4291 3325 
L 3694 3184 
Q 3534 3684 3231 3912 
Q 2928 4141 2469 4141 
Q 1941 4141 1586 3887 
Q 1231 3634 1087 3207 
Q 944 2781 944 2328 
Q 944 1744 1114 1308 
Q 1284 872 1643 656 
Q 2003 441 2422 441 
Q 2931 441 3284 734 
Q 3638 1028 3763 1606 
z
" id="ArialMT-43" transform="scale(0.015625)"/>
       <path d="M 513 0 
L 513 4581 
L 1119 4581 
L 1119 2700 
L 3500 2700 
L 3500 4581 
L 4106 4581 
L 4106 0 
L 3500 0 
L 3500 2159 
L 1119 2159 
L 1119 0 
L 513 0 
z
" id="ArialMT-48" transform="scale(0.015625)"/>
       <path id="ArialMT-20" transform="scale(0.015625)"/>
       <path d="M 597 0 
L 597 4581 
L 1203 4581 
L 1203 0 
L 597 0 
z
" id="ArialMT-49" transform="scale(0.015625)"/>
       <path d="M 422 0 
L 422 3319 
L 928 3319 
L 928 2847 
Q 1294 3394 1984 3394 
Q 2284 3394 2536 3286 
Q 2788 3178 2913 3003 
Q 3038 2828 3088 2588 
Q 3119 2431 3119 2041 
L 3119 0 
L 2556 0 
L 2556 2019 
Q 2556 2363 2490 2533 
Q 2425 2703 2258 2804 
Q 2091 2906 1866 2906 
Q 1506 2906 1245 2678 
Q 984 2450 984 1813 
L 984 0 
L 422 0 
z
" id="ArialMT-6e" transform="scale(0.015625)"/>
       <path d="M 2575 0 
L 2575 419 
Q 2259 -75 1647 -75 
Q 1250 -75 917 144 
Q 584 363 401 755 
Q 219 1147 219 1656 
Q 219 2153 384 2558 
Q 550 2963 881 3178 
Q 1213 3394 1622 3394 
Q 1922 3394 2156 3267 
Q 2391 3141 2538 2938 
L 2538 4581 
L 3097 4581 
L 3097 0 
L 2575 0 
z
M 797 1656 
Q 797 1019 1065 703 
Q 1334 388 1700 388 
Q 2069 388 2326 689 
Q 2584 991 2584 1609 
Q 2584 2291 2321 2609 
Q 2059 2928 1675 2928 
Q 1300 2928 1048 2622 
Q 797 2316 797 1656 
z
" id="ArialMT-64" transform="scale(0.015625)"/>
       <path d="M 2694 1069 
L 3275 997 
Q 3138 488 2766 206 
Q 2394 -75 1816 -75 
Q 1088 -75 661 373 
Q 234 822 234 1631 
Q 234 2469 665 2931 
Q 1097 3394 1784 3394 
Q 2450 3394 2872 2941 
Q 3294 2488 3294 1666 
Q 3294 1616 3291 1516 
L 816 1516 
Q 847 969 1125 678 
Q 1403 388 1819 388 
Q 2128 388 2347 550 
Q 2566 713 2694 1069 
z
M 847 1978 
L 2700 1978 
Q 2663 2397 2488 2606 
Q 2219 2931 1791 2931 
Q 1403 2931 1139 2672 
Q 875 2413 847 1978 
z
" id="ArialMT-65" transform="scale(0.015625)"/>
       <path d="M 47 0 
L 1259 1725 
L 138 3319 
L 841 3319 
L 1350 2541 
Q 1494 2319 1581 2169 
Q 1719 2375 1834 2534 
L 2394 3319 
L 3066 3319 
L 1919 1756 
L 3153 0 
L 2463 0 
L 1781 1031 
L 1600 1309 
L 728 0 
L 47 0 
z
" id="ArialMT-78" transform="scale(0.015625)"/>
      </defs>
      <use xlink:href="#ArialMT-43"/>
      <use x="72.216797" xlink:href="#ArialMT-48"/>
      <use x="144.433594" xlink:href="#ArialMT-20"/>
      <use x="172.216797" xlink:href="#ArialMT-49"/>
      <use x="200" xlink:href="#ArialMT-6e"/>
      <use x="255.615234" xlink:href="#ArialMT-64"/>
      <use x="311.230469" xlink:href="#ArialMT-65"/>
      <use x="366.845703" xlink:href="#ArialMT-78"/>
     </g>
    </g>
   </g>
   <g id="line2d_7">
    <path clip-path="url(#p9cf3c06fe7)" d="M 69.624006 19.554545 
L 72.238814 74.562741 
L 74.853621 109.573642 
L 77.468429 135.070512 
L 80.083237 151.646636 
L 82.698045 163.881854 
L 85.312853 173.942332 
L 87.927661 182.215894 
L 90.542469 189.051479 
L 93.157277 195.23826 
L 95.772084 201.312593 
L 98.386892 206.031312 
L 101.0017 209.384924 
L 103.616508 213.382476 
L 106.231316 216.679974 
L 108.846124 219.352887 
L 111.460932 222.212173 
L 114.07574 224.569751 
L 116.690547 227.083477 
L 119.305355 228.504309 
L 121.920163 230.954745 
L 124.534971 232.701583 
L 127.149779 234.319644 
L 129.764587 235.876779 
L 132.379395 236.734434 
L 134.994202 238.343008 
L 137.60901 239.632173 
L 140.223818 240.871408 
L 142.838626 241.740993 
L 145.453434 242.957306 
L 148.068242 243.644389 
L 150.68305 244.601857 
L 153.297858 245.54659 
L 155.912665 246.540114 
L 158.527473 247.176893 
L 161.142281 247.877146 
L 163.757089 248.442705 
L 166.371897 249.525733 
L 168.986705 250.069711 
L 171.601513 250.411448 
L 174.216321 251.39902 
L 176.831128 251.791265 
L 179.445936 252.415248 
L 182.060744 252.823483 
L 184.675552 253.161847 
L 187.29036 253.712511 
L 189.905168 254.286844 
L 192.519976 254.843376 
L 195.134784 255.340936 
L 197.749591 255.723613 
L 200.364399 256.114004 
L 202.979207 256.572077 
L 205.594015 256.475967 
L 208.208823 257.279699 
L 210.823631 257.701143 
L 213.438439 257.974925 
L 216.053247 258.33493 
L 218.668054 258.608343 
L 221.282862 258.952157 
L 223.89767 259.410324 
L 226.512478 259.496841 
L 229.127286 259.917908 
L 231.742094 260.071422 
L 234.356902 260.294386 
L 236.97171 260.675076 
L 239.586517 260.923457 
L 242.201325 261.075705 
L 244.816133 261.467197 
L 247.430941 261.613339 
L 250.045749 261.852001 
L 252.660557 262.071129 
L 255.275365 262.404858 
L 257.890173 262.609121 
L 260.50498 262.885127 
L 263.119788 262.777744 
L 265.734596 263.295673 
L 268.349404 263.341187 
L 270.964212 263.72071 
L 273.57902 263.750291 
L 276.193828 263.936763 
L 278.808635 264.112139 
L 281.423443 264.426532 
L 284.038251 264.494643 
L 286.653059 264.622147 
L 289.267867 264.833943 
L 291.882675 264.943993 
L 294.497483 265.057461 
L 297.112291 265.358887 
L 299.727098 265.42547 
L 302.341906 265.493521 
L 304.956714 265.842464 
L 307.571522 265.925048 
L 310.18633 265.97934 
L 312.801138 266.222237 
L 315.415946 266.258475 
L 318.030754 266.527934 
L 320.645561 266.526143 
L 323.260369 266.645455 
" style="fill:none;stroke:#4e79a7;stroke-linecap:round;stroke-width:1.5;"/>
    <defs>
     <path d="M 0 3 
C 0.795609 3 1.55874 2.683901 2.12132 2.12132 
C 2.683901 1.55874 3 0.795609 3 0 
C 3 -0.795609 2.683901 -1.55874 2.12132 -2.12132 
C 1.55874 -2.683901 0.795609 -3 0 -3 
C -0.795609 -3 -1.55874 -2.683901 -2.12132 -2.12132 
C -2.683901 -1.55874 -3 -0.795609 -3 0 
C -3 0.795609 -2.683901 1.55874 -2.12132 2.12132 
C -1.55874 2.683901 -0.795609 3 0 3 
z
" id="mfbe186bc9d" style="stroke:#ffffff;stroke-width:0.75;"/>
    </defs>
    <g clip-path="url(#p9cf3c06fe7)">
     <use style="fill:#4e79a7;stroke:#ffffff;stroke-width:0.75;" x="69.624006" xlink:href="#mfbe186bc9d" y="19.554545"/>
     <use style="fill:#4e79a7;stroke:#ffffff;stroke-width:0.75;" x="72.238814" xlink:href="#mfbe186bc9d" y="74.562741"/>
     <use style="fill:#4e79a7;stroke:#ffffff;stroke-width:0.75;" x="74.853621" xlink:href="#mfbe186bc9d" y="109.573642"/>
     <use style="fill:#4e79a7;stroke:#ffffff;stroke-width:0.75;" x="77.468429" xlink:href="#mfbe186bc9d" y="135.070512"/>
     <use style="fill:#4e79a7;stroke:#ffffff;stroke-width:0.75;" x="80.083237" xlink:href="#mfbe186bc9d" y="151.646636"/>
     <use style="fill:#4e79a7;stroke:#ffffff;stroke-width:0.75;" x="82.698045" xlink:href="#mfbe186bc9d" y="163.881854"/>
     <use style="fill:#4e79a7;stroke:#ffffff;stroke-width:0.75;" x="85.312853" xlink:href="#mfbe186bc9d" y="173.942332"/>
     <use style="fill:#4e79a7;stroke:#ffffff;stroke-width:0.75;" x="87.927661" xlink:href="#mfbe186bc9d" y="182.215894"/>
     <use style="fill:#4e79a7;stroke:#ffffff;stroke-width:0.75;" x="90.542469" xlink:href="#mfbe186bc9d" y="189.051479"/>
     <use style="fill:#4e79a7;stroke:#ffffff;stroke-width:0.75;" x="93.157277" xlink:href="#mfbe186bc9d" y="195.23826"/>
     <use style="fill:#4e79a7;stroke:#ffffff;stroke-width:0.75;" x="95.772084" xlink:href="#mfbe186bc9d" y="201.312593"/>
     <use style="fill:#4e79a7;stroke:#ffffff;stroke-width:0.75;" x="98.386892" xlink:href="#mfbe186bc9d" y="206.031312"/>
     <use style="fill:#4e79a7;stroke:#ffffff;stroke-width:0.75;" x="101.0017" xlink:href="#mfbe186bc9d" y="209.384924"/>
     <use style="fill:#4e79a7;stroke:#ffffff;stroke-width:0.75;" x="103.616508" xlink:href="#mfbe186bc9d" y="213.382476"/>
     <use style="fill:#4e79a7;stroke:#ffffff;stroke-width:0.75;" x="106.231316" xlink:href="#mfbe186bc9d" y="216.679974"/>
     <use style="fill:#4e79a7;stroke:#ffffff;stroke-width:0.75;" x="108.846124" xlink:href="#mfbe186bc9d" y="219.352887"/>
     <use style="fill:#4e79a7;stroke:#ffffff;stroke-width:0.75;" x="111.460932" xlink:href="#mfbe186bc9d" y="222.212173"/>
     <use style="fill:#4e79a7;stroke:#ffffff;stroke-width:0.75;" x="114.07574" xlink:href="#mfbe186bc9d" y="224.569751"/>
     <use style="fill:#4e79a7;stroke:#ffffff;stroke-width:0.75;" x="116.690547" xlink:href="#mfbe186bc9d" y="227.083477"/>
     <use style="fill:#4e79a7;stroke:#ffffff;stroke-width:0.75;" x="119.305355" xlink:href="#mfbe186bc9d" y="228.504309"/>
     <use style="fill:#4e79a7;stroke:#ffffff;stroke-width:0.75;" x="121.920163" xlink:href="#mfbe186bc9d" y="230.954745"/>
     <use style="fill:#4e79a7;stroke:#ffffff;stroke-width:0.75;" x="124.534971" xlink:href="#mfbe186bc9d" y="232.701583"/>
     <use style="fill:#4e79a7;stroke:#ffffff;stroke-width:0.75;" x="127.149779" xlink:href="#mfbe186bc9d" y="234.319644"/>
     <use style="fill:#4e79a7;stroke:#ffffff;stroke-width:0.75;" x="129.764587" xlink:href="#mfbe186bc9d" y="235.876779"/>
     <use style="fill:#4e79a7;stroke:#ffffff;stroke-width:0.75;" x="132.379395" xlink:href="#mfbe186bc9d" y="236.734434"/>
     <use style="fill:#4e79a7;stroke:#ffffff;stroke-width:0.75;" x="134.994202" xlink:href="#mfbe186bc9d" y="238.343008"/>
     <use style="fill:#4e79a7;stroke:#ffffff;stroke-width:0.75;" x="137.60901" xlink:href="#mfbe186bc9d" y="239.632173"/>
     <use style="fill:#4e79a7;stroke:#ffffff;stroke-width:0.75;" x="140.223818" xlink:href="#mfbe186bc9d" y="240.871408"/>
     <use style="fill:#4e79a7;stroke:#ffffff;stroke-width:0.75;" x="142.838626" xlink:href="#mfbe186bc9d" y="241.740993"/>
     <use style="fill:#4e79a7;stroke:#ffffff;stroke-width:0.75;" x="145.453434" xlink:href="#mfbe186bc9d" y="242.957306"/>
     <use style="fill:#4e79a7;stroke:#ffffff;stroke-width:0.75;" x="148.068242" xlink:href="#mfbe186bc9d" y="243.644389"/>
     <use style="fill:#4e79a7;stroke:#ffffff;stroke-width:0.75;" x="150.68305" xlink:href="#mfbe186bc9d" y="244.601857"/>
     <use style="fill:#4e79a7;stroke:#ffffff;stroke-width:0.75;" x="153.297858" xlink:href="#mfbe186bc9d" y="245.54659"/>
     <use style="fill:#4e79a7;stroke:#ffffff;stroke-width:0.75;" x="155.912665" xlink:href="#mfbe186bc9d" y="246.540114"/>
     <use style="fill:#4e79a7;stroke:#ffffff;stroke-width:0.75;" x="158.527473" xlink:href="#mfbe186bc9d" y="247.176893"/>
     <use style="fill:#4e79a7;stroke:#ffffff;stroke-width:0.75;" x="161.142281" xlink:href="#mfbe186bc9d" y="247.877146"/>
     <use style="fill:#4e79a7;stroke:#ffffff;stroke-width:0.75;" x="163.757089" xlink:href="#mfbe186bc9d" y="248.442705"/>
     <use style="fill:#4e79a7;stroke:#ffffff;stroke-width:0.75;" x="166.371897" xlink:href="#mfbe186bc9d" y="249.525733"/>
     <use style="fill:#4e79a7;stroke:#ffffff;stroke-width:0.75;" x="168.986705" xlink:href="#mfbe186bc9d" y="250.069711"/>
     <use style="fill:#4e79a7;stroke:#ffffff;stroke-width:0.75;" x="171.601513" xlink:href="#mfbe186bc9d" y="250.411448"/>
     <use style="fill:#4e79a7;stroke:#ffffff;stroke-width:0.75;" x="174.216321" xlink:href="#mfbe186bc9d" y="251.39902"/>
     <use style="fill:#4e79a7;stroke:#ffffff;stroke-width:0.75;" x="176.831128" xlink:href="#mfbe186bc9d" y="251.791265"/>
     <use style="fill:#4e79a7;stroke:#ffffff;stroke-width:0.75;" x="179.445936" xlink:href="#mfbe186bc9d" y="252.415248"/>
     <use style="fill:#4e79a7;stroke:#ffffff;stroke-width:0.75;" x="182.060744" xlink:href="#mfbe186bc9d" y="252.823483"/>
     <use style="fill:#4e79a7;stroke:#ffffff;stroke-width:0.75;" x="184.675552" xlink:href="#mfbe186bc9d" y="253.161847"/>
     <use style="fill:#4e79a7;stroke:#ffffff;stroke-width:0.75;" x="187.29036" xlink:href="#mfbe186bc9d" y="253.712511"/>
     <use style="fill:#4e79a7;stroke:#ffffff;stroke-width:0.75;" x="189.905168" xlink:href="#mfbe186bc9d" y="254.286844"/>
     <use style="fill:#4e79a7;stroke:#ffffff;stroke-width:0.75;" x="192.519976" xlink:href="#mfbe186bc9d" y="254.843376"/>
     <use style="fill:#4e79a7;stroke:#ffffff;stroke-width:0.75;" x="195.134784" xlink:href="#mfbe186bc9d" y="255.340936"/>
     <use style="fill:#4e79a7;stroke:#ffffff;stroke-width:0.75;" x="197.749591" xlink:href="#mfbe186bc9d" y="255.723613"/>
     <use style="fill:#4e79a7;stroke:#ffffff;stroke-width:0.75;" x="200.364399" xlink:href="#mfbe186bc9d" y="256.114004"/>
     <use style="fill:#4e79a7;stroke:#ffffff;stroke-width:0.75;" x="202.979207" xlink:href="#mfbe186bc9d" y="256.572077"/>
     <use style="fill:#4e79a7;stroke:#ffffff;stroke-width:0.75;" x="205.594015" xlink:href="#mfbe186bc9d" y="256.475967"/>
     <use style="fill:#4e79a7;stroke:#ffffff;stroke-width:0.75;" x="208.208823" xlink:href="#mfbe186bc9d" y="257.279699"/>
     <use style="fill:#4e79a7;stroke:#ffffff;stroke-width:0.75;" x="210.823631" xlink:href="#mfbe186bc9d" y="257.701143"/>
     <use style="fill:#4e79a7;stroke:#ffffff;stroke-width:0.75;" x="213.438439" xlink:href="#mfbe186bc9d" y="257.974925"/>
     <use style="fill:#4e79a7;stroke:#ffffff;stroke-width:0.75;" x="216.053247" xlink:href="#mfbe186bc9d" y="258.33493"/>
     <use style="fill:#4e79a7;stroke:#ffffff;stroke-width:0.75;" x="218.668054" xlink:href="#mfbe186bc9d" y="258.608343"/>
     <use style="fill:#4e79a7;stroke:#ffffff;stroke-width:0.75;" x="221.282862" xlink:href="#mfbe186bc9d" y="258.952157"/>
     <use style="fill:#4e79a7;stroke:#ffffff;stroke-width:0.75;" x="223.89767" xlink:href="#mfbe186bc9d" y="259.410324"/>
     <use style="fill:#4e79a7;stroke:#ffffff;stroke-width:0.75;" x="226.512478" xlink:href="#mfbe186bc9d" y="259.496841"/>
     <use style="fill:#4e79a7;stroke:#ffffff;stroke-width:0.75;" x="229.127286" xlink:href="#mfbe186bc9d" y="259.917908"/>
     <use style="fill:#4e79a7;stroke:#ffffff;stroke-width:0.75;" x="231.742094" xlink:href="#mfbe186bc9d" y="260.071422"/>
     <use style="fill:#4e79a7;stroke:#ffffff;stroke-width:0.75;" x="234.356902" xlink:href="#mfbe186bc9d" y="260.294386"/>
     <use style="fill:#4e79a7;stroke:#ffffff;stroke-width:0.75;" x="236.97171" xlink:href="#mfbe186bc9d" y="260.675076"/>
     <use style="fill:#4e79a7;stroke:#ffffff;stroke-width:0.75;" x="239.586517" xlink:href="#mfbe186bc9d" y="260.923457"/>
     <use style="fill:#4e79a7;stroke:#ffffff;stroke-width:0.75;" x="242.201325" xlink:href="#mfbe186bc9d" y="261.075705"/>
     <use style="fill:#4e79a7;stroke:#ffffff;stroke-width:0.75;" x="244.816133" xlink:href="#mfbe186bc9d" y="261.467197"/>
     <use style="fill:#4e79a7;stroke:#ffffff;stroke-width:0.75;" x="247.430941" xlink:href="#mfbe186bc9d" y="261.613339"/>
     <use style="fill:#4e79a7;stroke:#ffffff;stroke-width:0.75;" x="250.045749" xlink:href="#mfbe186bc9d" y="261.852001"/>
     <use style="fill:#4e79a7;stroke:#ffffff;stroke-width:0.75;" x="252.660557" xlink:href="#mfbe186bc9d" y="262.071129"/>
     <use style="fill:#4e79a7;stroke:#ffffff;stroke-width:0.75;" x="255.275365" xlink:href="#mfbe186bc9d" y="262.404858"/>
     <use style="fill:#4e79a7;stroke:#ffffff;stroke-width:0.75;" x="257.890173" xlink:href="#mfbe186bc9d" y="262.609121"/>
     <use style="fill:#4e79a7;stroke:#ffffff;stroke-width:0.75;" x="260.50498" xlink:href="#mfbe186bc9d" y="262.885127"/>
     <use style="fill:#4e79a7;stroke:#ffffff;stroke-width:0.75;" x="263.119788" xlink:href="#mfbe186bc9d" y="262.777744"/>
     <use style="fill:#4e79a7;stroke:#ffffff;stroke-width:0.75;" x="265.734596" xlink:href="#mfbe186bc9d" y="263.295673"/>
     <use style="fill:#4e79a7;stroke:#ffffff;stroke-width:0.75;" x="268.349404" xlink:href="#mfbe186bc9d" y="263.341187"/>
     <use style="fill:#4e79a7;stroke:#ffffff;stroke-width:0.75;" x="270.964212" xlink:href="#mfbe186bc9d" y="263.72071"/>
     <use style="fill:#4e79a7;stroke:#ffffff;stroke-width:0.75;" x="273.57902" xlink:href="#mfbe186bc9d" y="263.750291"/>
     <use style="fill:#4e79a7;stroke:#ffffff;stroke-width:0.75;" x="276.193828" xlink:href="#mfbe186bc9d" y="263.936763"/>
     <use style="fill:#4e79a7;stroke:#ffffff;stroke-width:0.75;" x="278.808635" xlink:href="#mfbe186bc9d" y="264.112139"/>
     <use style="fill:#4e79a7;stroke:#ffffff;stroke-width:0.75;" x="281.423443" xlink:href="#mfbe186bc9d" y="264.426532"/>
     <use style="fill:#4e79a7;stroke:#ffffff;stroke-width:0.75;" x="284.038251" xlink:href="#mfbe186bc9d" y="264.494643"/>
     <use style="fill:#4e79a7;stroke:#ffffff;stroke-width:0.75;" x="286.653059" xlink:href="#mfbe186bc9d" y="264.622147"/>
     <use style="fill:#4e79a7;stroke:#ffffff;stroke-width:0.75;" x="289.267867" xlink:href="#mfbe186bc9d" y="264.833943"/>
     <use style="fill:#4e79a7;stroke:#ffffff;stroke-width:0.75;" x="291.882675" xlink:href="#mfbe186bc9d" y="264.943993"/>
     <use style="fill:#4e79a7;stroke:#ffffff;stroke-width:0.75;" x="294.497483" xlink:href="#mfbe186bc9d" y="265.057461"/>
     <use style="fill:#4e79a7;stroke:#ffffff;stroke-width:0.75;" x="297.112291" xlink:href="#mfbe186bc9d" y="265.358887"/>
     <use style="fill:#4e79a7;stroke:#ffffff;stroke-width:0.75;" x="299.727098" xlink:href="#mfbe186bc9d" y="265.42547"/>
     <use style="fill:#4e79a7;stroke:#ffffff;stroke-width:0.75;" x="302.341906" xlink:href="#mfbe186bc9d" y="265.493521"/>
     <use style="fill:#4e79a7;stroke:#ffffff;stroke-width:0.75;" x="304.956714" xlink:href="#mfbe186bc9d" y="265.842464"/>
     <use style="fill:#4e79a7;stroke:#ffffff;stroke-width:0.75;" x="307.571522" xlink:href="#mfbe186bc9d" y="265.925048"/>
     <use style="fill:#4e79a7;stroke:#ffffff;stroke-width:0.75;" x="310.18633" xlink:href="#mfbe186bc9d" y="265.97934"/>
     <use style="fill:#4e79a7;stroke:#ffffff;stroke-width:0.75;" x="312.801138" xlink:href="#mfbe186bc9d" y="266.222237"/>
     <use style="fill:#4e79a7;stroke:#ffffff;stroke-width:0.75;" x="315.415946" xlink:href="#mfbe186bc9d" y="266.258475"/>
     <use style="fill:#4e79a7;stroke:#ffffff;stroke-width:0.75;" x="318.030754" xlink:href="#mfbe186bc9d" y="266.527934"/>
     <use style="fill:#4e79a7;stroke:#ffffff;stroke-width:0.75;" x="320.645561" xlink:href="#mfbe186bc9d" y="266.526143"/>
     <use style="fill:#4e79a7;stroke:#ffffff;stroke-width:0.75;" x="323.260369" xlink:href="#mfbe186bc9d" y="266.645455"/>
    </g>
   </g>
   <g id="patch_3">
    <path d="M 56.942187 279 
L 335.942188 279 
" style="fill:none;stroke:#cccccc;stroke-linecap:square;stroke-linejoin:miter;stroke-width:0.8;"/>
   </g>
  </g>
 </g>
 <defs>
  <clipPath id="p9cf3c06fe7">
   <rect height="271.8" width="279" x="56.942188" y="7.2"/>
  </clipPath>
 </defs>
</svg>
