<?xml version="1.0" encoding="utf-8" standalone="no"?>
<!DOCTYPE svg PUBLIC "-//W3C//DTD SVG 1.1//EN"
  "http://www.w3.org/Graphics/SVG/1.1/DTD/svg11.dtd">
<svg height="324.635938pt" version="1.1" viewBox="0 0 613.800781 324.635938" width="613.800781pt" xmlns="http://www.w3.org/2000/svg" xmlns:xlink="http://www.w3.org/1999/xlink">
 <metadata>
  <rdf:RDF xmlns:cc="http://creativecommons.org/ns#" xmlns:dc="http://purl.org/dc/elements/1.1/" xmlns:rdf="http://www.w3.org/1999/02/22-rdf-syntax-ns#">
   <cc:Work>
    <dc:type rdf:resource="http://purl.org/dc/dcmitype/StillImage"/>
    <dc:date>2022-05-13T18:13:17.276345</dc:date>
    <dc:format>image/svg+xml</dc:format>
    <dc:creator>
     <cc:Agent>
      <dc:title>Matplotlib v3.4.3, https://matplotlib.org/</dc:title>
     </cc:Agent>
    </dc:creator>
   </cc:Work>
  </rdf:RDF>
 </metadata>
 <defs>
  <style type="text/css">*{stroke-linecap:butt;stroke-linejoin:round;}</style>
 </defs>
 <g id="figure_1">
  <g id="patch_1">
   <path d="M 0 324.635938 
L 613.800781 324.635938 
L 613.800781 0 
L 0 0 
z
" style="fill:#ffffff;"/>
  </g>
  <g id="axes_1">
   <g id="patch_2">
    <path d="M 48.600781 279 
L 606.600781 279 
L 606.600781 7.2 
L 48.600781 7.2 
z
" style="fill:#ffffff;"/>
   </g>
   <g id="matplotlib.axis_1">
    <g id="xtick_1">
     <g id="text_1">
      <!-- 0 -->
      <g style="fill:#262626;" transform="translate(59.334483 296.736719)scale(0.15 -0.15)">
       <defs>
        <path d="M 266 2259 
Q 266 3072 433 3567 
Q 600 4063 929 4331 
Q 1259 4600 1759 4600 
Q 2128 4600 2406 4451 
Q 2684 4303 2865 4023 
Q 3047 3744 3150 3342 
Q 3253 2941 3253 2259 
Q 3253 1453 3087 958 
Q 2922 463 2592 192 
Q 2263 -78 1759 -78 
Q 1097 -78 719 397 
Q 266 969 266 2259 
z
M 844 2259 
Q 844 1131 1108 757 
Q 1372 384 1759 384 
Q 2147 384 2411 759 
Q 2675 1134 2675 2259 
Q 2675 3391 2411 3762 
Q 2147 4134 1753 4134 
Q 1366 4134 1134 3806 
Q 844 3388 844 2259 
z
" id="ArialMT-30" transform="scale(0.015625)"/>
       </defs>
       <use xlink:href="#ArialMT-30"/>
      </g>
     </g>
    </g>
    <g id="xtick_2">
     <g id="text_2">
      <!-- 20 -->
      <g style="fill:#262626;" transform="translate(159.756095 296.736719)scale(0.15 -0.15)">
       <defs>
        <path d="M 3222 541 
L 3222 0 
L 194 0 
Q 188 203 259 391 
Q 375 700 629 1000 
Q 884 1300 1366 1694 
Q 2113 2306 2375 2664 
Q 2638 3022 2638 3341 
Q 2638 3675 2398 3904 
Q 2159 4134 1775 4134 
Q 1369 4134 1125 3890 
Q 881 3647 878 3216 
L 300 3275 
Q 359 3922 746 4261 
Q 1134 4600 1788 4600 
Q 2447 4600 2831 4234 
Q 3216 3869 3216 3328 
Q 3216 3053 3103 2787 
Q 2991 2522 2730 2228 
Q 2469 1934 1863 1422 
Q 1356 997 1212 845 
Q 1069 694 975 541 
L 3222 541 
z
" id="ArialMT-32" transform="scale(0.015625)"/>
       </defs>
       <use xlink:href="#ArialMT-32"/>
       <use x="55.615234" xlink:href="#ArialMT-30"/>
      </g>
     </g>
    </g>
    <g id="xtick_3">
     <g id="text_3">
      <!-- 40 -->
      <g style="fill:#262626;" transform="translate(264.34841 296.736719)scale(0.15 -0.15)">
       <defs>
        <path d="M 2069 0 
L 2069 1097 
L 81 1097 
L 81 1613 
L 2172 4581 
L 2631 4581 
L 2631 1613 
L 3250 1613 
L 3250 1097 
L 2631 1097 
L 2631 0 
L 2069 0 
z
M 2069 1613 
L 2069 3678 
L 634 1613 
L 2069 1613 
z
" id="ArialMT-34" transform="scale(0.015625)"/>
       </defs>
       <use xlink:href="#ArialMT-34"/>
       <use x="55.615234" xlink:href="#ArialMT-30"/>
      </g>
     </g>
    </g>
    <g id="xtick_4">
     <g id="text_4">
      <!-- 60 -->
      <g style="fill:#262626;" transform="translate(368.940725 296.736719)scale(0.15 -0.15)">
       <defs>
        <path d="M 3184 3459 
L 2625 3416 
Q 2550 3747 2413 3897 
Q 2184 4138 1850 4138 
Q 1581 4138 1378 3988 
Q 1113 3794 959 3422 
Q 806 3050 800 2363 
Q 1003 2672 1297 2822 
Q 1591 2972 1913 2972 
Q 2475 2972 2870 2558 
Q 3266 2144 3266 1488 
Q 3266 1056 3080 686 
Q 2894 316 2569 119 
Q 2244 -78 1831 -78 
Q 1128 -78 684 439 
Q 241 956 241 2144 
Q 241 3472 731 4075 
Q 1159 4600 1884 4600 
Q 2425 4600 2770 4297 
Q 3116 3994 3184 3459 
z
M 888 1484 
Q 888 1194 1011 928 
Q 1134 663 1356 523 
Q 1578 384 1822 384 
Q 2178 384 2434 671 
Q 2691 959 2691 1453 
Q 2691 1928 2437 2201 
Q 2184 2475 1800 2475 
Q 1419 2475 1153 2201 
Q 888 1928 888 1484 
z
" id="ArialMT-36" transform="scale(0.015625)"/>
       </defs>
       <use xlink:href="#ArialMT-36"/>
       <use x="55.615234" xlink:href="#ArialMT-30"/>
      </g>
     </g>
    </g>
    <g id="xtick_5">
     <g id="text_5">
      <!-- 80 -->
      <g style="fill:#262626;" transform="translate(473.533039 296.736719)scale(0.15 -0.15)">
       <defs>
        <path d="M 1131 2484 
Q 781 2613 612 2850 
Q 444 3088 444 3419 
Q 444 3919 803 4259 
Q 1163 4600 1759 4600 
Q 2359 4600 2725 4251 
Q 3091 3903 3091 3403 
Q 3091 3084 2923 2848 
Q 2756 2613 2416 2484 
Q 2838 2347 3058 2040 
Q 3278 1734 3278 1309 
Q 3278 722 2862 322 
Q 2447 -78 1769 -78 
Q 1091 -78 675 323 
Q 259 725 259 1325 
Q 259 1772 486 2073 
Q 713 2375 1131 2484 
z
M 1019 3438 
Q 1019 3113 1228 2906 
Q 1438 2700 1772 2700 
Q 2097 2700 2305 2904 
Q 2513 3109 2513 3406 
Q 2513 3716 2298 3927 
Q 2084 4138 1766 4138 
Q 1444 4138 1231 3931 
Q 1019 3725 1019 3438 
z
M 838 1322 
Q 838 1081 952 856 
Q 1066 631 1291 507 
Q 1516 384 1775 384 
Q 2178 384 2440 643 
Q 2703 903 2703 1303 
Q 2703 1709 2433 1975 
Q 2163 2241 1756 2241 
Q 1359 2241 1098 1978 
Q 838 1716 838 1322 
z
" id="ArialMT-38" transform="scale(0.015625)"/>
       </defs>
       <use xlink:href="#ArialMT-38"/>
       <use x="55.615234" xlink:href="#ArialMT-30"/>
      </g>
     </g>
    </g>
    <g id="xtick_6">
     <g id="text_6">
      <!-- 100 -->
      <g style="fill:#262626;" transform="translate(573.954651 296.736719)scale(0.15 -0.15)">
       <defs>
        <path d="M 2384 0 
L 1822 0 
L 1822 3584 
Q 1619 3391 1289 3197 
Q 959 3003 697 2906 
L 697 3450 
Q 1169 3672 1522 3987 
Q 1875 4303 2022 4600 
L 2384 4600 
L 2384 0 
z
" id="ArialMT-31" transform="scale(0.015625)"/>
       </defs>
       <use xlink:href="#ArialMT-31"/>
       <use x="55.615234" xlink:href="#ArialMT-30"/>
       <use x="111.230469" xlink:href="#ArialMT-30"/>
      </g>
     </g>
    </g>
    <g id="text_7">
     <!-- k -->
     <g style="fill:#262626;" transform="translate(323.850781 314.454688)scale(0.15 -0.15)">
      <defs>
       <path d="M 425 0 
L 425 4581 
L 988 4581 
L 988 1969 
L 2319 3319 
L 3047 3319 
L 1778 2088 
L 3175 0 
L 2481 0 
L 1384 1697 
L 988 1316 
L 988 0 
L 425 0 
z
" id="ArialMT-6b" transform="scale(0.015625)"/>
      </defs>
      <use xlink:href="#ArialMT-6b"/>
     </g>
    </g>
   </g>
   <g id="matplotlib.axis_2">
    <g id="ytick_1">
     <g id="line2d_1">
      <path clip-path="url(#pb115716944)" d="M 48.600781 272.121691 
L 606.600781 272.121691 
" style="fill:none;stroke:#cccccc;stroke-linecap:round;stroke-width:0.8;"/>
     </g>
     <g id="text_8">
      <!-- 0 -->
      <g style="fill:#262626;" transform="translate(33.259375 277.490051)scale(0.15 -0.15)">
       <use xlink:href="#ArialMT-30"/>
      </g>
     </g>
    </g>
    <g id="ytick_2">
     <g id="line2d_2">
      <path clip-path="url(#pb115716944)" d="M 48.600781 238.794951 
L 606.600781 238.794951 
" style="fill:none;stroke:#cccccc;stroke-linecap:round;stroke-width:0.8;"/>
     </g>
     <g id="text_9">
      <!-- 10 -->
      <g style="fill:#262626;" transform="translate(24.917969 244.163311)scale(0.15 -0.15)">
       <use xlink:href="#ArialMT-31"/>
       <use x="55.615234" xlink:href="#ArialMT-30"/>
      </g>
     </g>
    </g>
    <g id="ytick_3">
     <g id="line2d_3">
      <path clip-path="url(#pb115716944)" d="M 48.600781 205.468211 
L 606.600781 205.468211 
" style="fill:none;stroke:#cccccc;stroke-linecap:round;stroke-width:0.8;"/>
     </g>
     <g id="text_10">
      <!-- 20 -->
      <g style="fill:#262626;" transform="translate(24.917969 210.836571)scale(0.15 -0.15)">
       <use xlink:href="#ArialMT-32"/>
       <use x="55.615234" xlink:href="#ArialMT-30"/>
      </g>
     </g>
    </g>
    <g id="ytick_4">
     <g id="line2d_4">
      <path clip-path="url(#pb115716944)" d="M 48.600781 172.141471 
L 606.600781 172.141471 
" style="fill:none;stroke:#cccccc;stroke-linecap:round;stroke-width:0.8;"/>
     </g>
     <g id="text_11">
      <!-- 30 -->
      <g style="fill:#262626;" transform="translate(24.917969 177.509831)scale(0.15 -0.15)">
       <defs>
        <path d="M 269 1209 
L 831 1284 
Q 928 806 1161 595 
Q 1394 384 1728 384 
Q 2125 384 2398 659 
Q 2672 934 2672 1341 
Q 2672 1728 2419 1979 
Q 2166 2231 1775 2231 
Q 1616 2231 1378 2169 
L 1441 2663 
Q 1497 2656 1531 2656 
Q 1891 2656 2178 2843 
Q 2466 3031 2466 3422 
Q 2466 3731 2256 3934 
Q 2047 4138 1716 4138 
Q 1388 4138 1169 3931 
Q 950 3725 888 3313 
L 325 3413 
Q 428 3978 793 4289 
Q 1159 4600 1703 4600 
Q 2078 4600 2393 4439 
Q 2709 4278 2876 4000 
Q 3044 3722 3044 3409 
Q 3044 3113 2884 2869 
Q 2725 2625 2413 2481 
Q 2819 2388 3044 2092 
Q 3269 1797 3269 1353 
Q 3269 753 2831 336 
Q 2394 -81 1725 -81 
Q 1122 -81 723 278 
Q 325 638 269 1209 
z
" id="ArialMT-33" transform="scale(0.015625)"/>
       </defs>
       <use xlink:href="#ArialMT-33"/>
       <use x="55.615234" xlink:href="#ArialMT-30"/>
      </g>
     </g>
    </g>
    <g id="ytick_5">
     <g id="line2d_5">
      <path clip-path="url(#pb115716944)" d="M 48.600781 138.814731 
L 606.600781 138.814731 
" style="fill:none;stroke:#cccccc;stroke-linecap:round;stroke-width:0.8;"/>
     </g>
     <g id="text_12">
      <!-- 40 -->
      <g style="fill:#262626;" transform="translate(24.917969 144.183091)scale(0.15 -0.15)">
       <use xlink:href="#ArialMT-34"/>
       <use x="55.615234" xlink:href="#ArialMT-30"/>
      </g>
     </g>
    </g>
    <g id="ytick_6">
     <g id="line2d_6">
      <path clip-path="url(#pb115716944)" d="M 48.600781 105.487991 
L 606.600781 105.487991 
" style="fill:none;stroke:#cccccc;stroke-linecap:round;stroke-width:0.8;"/>
     </g>
     <g id="text_13">
      <!-- 50 -->
      <g style="fill:#262626;" transform="translate(24.917969 110.856351)scale(0.15 -0.15)">
       <defs>
        <path d="M 266 1200 
L 856 1250 
Q 922 819 1161 601 
Q 1400 384 1738 384 
Q 2144 384 2425 690 
Q 2706 997 2706 1503 
Q 2706 1984 2436 2262 
Q 2166 2541 1728 2541 
Q 1456 2541 1237 2417 
Q 1019 2294 894 2097 
L 366 2166 
L 809 4519 
L 3088 4519 
L 3088 3981 
L 1259 3981 
L 1013 2750 
Q 1425 3038 1878 3038 
Q 2478 3038 2890 2622 
Q 3303 2206 3303 1553 
Q 3303 931 2941 478 
Q 2500 -78 1738 -78 
Q 1113 -78 717 272 
Q 322 622 266 1200 
z
" id="ArialMT-35" transform="scale(0.015625)"/>
       </defs>
       <use xlink:href="#ArialMT-35"/>
       <use x="55.615234" xlink:href="#ArialMT-30"/>
      </g>
     </g>
    </g>
    <g id="ytick_7">
     <g id="line2d_7">
      <path clip-path="url(#pb115716944)" d="M 48.600781 72.161251 
L 606.600781 72.161251 
" style="fill:none;stroke:#cccccc;stroke-linecap:round;stroke-width:0.8;"/>
     </g>
     <g id="text_14">
      <!-- 60 -->
      <g style="fill:#262626;" transform="translate(24.917969 77.52961)scale(0.15 -0.15)">
       <use xlink:href="#ArialMT-36"/>
       <use x="55.615234" xlink:href="#ArialMT-30"/>
      </g>
     </g>
    </g>
    <g id="ytick_8">
     <g id="line2d_8">
      <path clip-path="url(#pb115716944)" d="M 48.600781 38.834511 
L 606.600781 38.834511 
" style="fill:none;stroke:#cccccc;stroke-linecap:round;stroke-width:0.8;"/>
     </g>
     <g id="text_15">
      <!-- 70 -->
      <g style="fill:#262626;" transform="translate(24.917969 44.20287)scale(0.15 -0.15)">
       <defs>
        <path d="M 303 3981 
L 303 4522 
L 3269 4522 
L 3269 4084 
Q 2831 3619 2401 2847 
Q 1972 2075 1738 1259 
Q 1569 684 1522 0 
L 944 0 
Q 953 541 1156 1306 
Q 1359 2072 1739 2783 
Q 2119 3494 2547 3981 
L 303 3981 
z
" id="ArialMT-37" transform="scale(0.015625)"/>
       </defs>
       <use xlink:href="#ArialMT-37"/>
       <use x="55.615234" xlink:href="#ArialMT-30"/>
      </g>
     </g>
    </g>
    <g id="text_16">
     <!-- CH Index -->
     <g style="fill:#262626;" transform="translate(17.936719 174.362109)rotate(-90)scale(0.15 -0.15)">
      <defs>
       <path d="M 3763 1606 
L 4369 1453 
Q 4178 706 3683 314 
Q 3188 -78 2472 -78 
Q 1731 -78 1267 223 
Q 803 525 561 1097 
Q 319 1669 319 2325 
Q 319 3041 592 3573 
Q 866 4106 1370 4382 
Q 1875 4659 2481 4659 
Q 3169 4659 3637 4309 
Q 4106 3959 4291 3325 
L 3694 3184 
Q 3534 3684 3231 3912 
Q 2928 4141 2469 4141 
Q 1941 4141 1586 3887 
Q 1231 3634 1087 3207 
Q 944 2781 944 2328 
Q 944 1744 1114 1308 
Q 1284 872 1643 656 
Q 2003 441 2422 441 
Q 2931 441 3284 734 
Q 3638 1028 3763 1606 
z
" id="ArialMT-43" transform="scale(0.015625)"/>
       <path d="M 513 0 
L 513 4581 
L 1119 4581 
L 1119 2700 
L 3500 2700 
L 3500 4581 
L 4106 4581 
L 4106 0 
L 3500 0 
L 3500 2159 
L 1119 2159 
L 1119 0 
L 513 0 
z
" id="ArialMT-48" transform="scale(0.015625)"/>
       <path id="ArialMT-20" transform="scale(0.015625)"/>
       <path d="M 597 0 
L 597 4581 
L 1203 4581 
L 1203 0 
L 597 0 
z
" id="ArialMT-49" transform="scale(0.015625)"/>
       <path d="M 422 0 
L 422 3319 
L 928 3319 
L 928 2847 
Q 1294 3394 1984 3394 
Q 2284 3394 2536 3286 
Q 2788 3178 2913 3003 
Q 3038 2828 3088 2588 
Q 3119 2431 3119 2041 
L 3119 0 
L 2556 0 
L 2556 2019 
Q 2556 2363 2490 2533 
Q 2425 2703 2258 2804 
Q 2091 2906 1866 2906 
Q 1506 2906 1245 2678 
Q 984 2450 984 1813 
L 984 0 
L 422 0 
z
" id="ArialMT-6e" transform="scale(0.015625)"/>
       <path d="M 2575 0 
L 2575 419 
Q 2259 -75 1647 -75 
Q 1250 -75 917 144 
Q 584 363 401 755 
Q 219 1147 219 1656 
Q 219 2153 384 2558 
Q 550 2963 881 3178 
Q 1213 3394 1622 3394 
Q 1922 3394 2156 3267 
Q 2391 3141 2538 2938 
L 2538 4581 
L 3097 4581 
L 3097 0 
L 2575 0 
z
M 797 1656 
Q 797 1019 1065 703 
Q 1334 388 1700 388 
Q 2069 388 2326 689 
Q 2584 991 2584 1609 
Q 2584 2291 2321 2609 
Q 2059 2928 1675 2928 
Q 1300 2928 1048 2622 
Q 797 2316 797 1656 
z
" id="ArialMT-64" transform="scale(0.015625)"/>
       <path d="M 2694 1069 
L 3275 997 
Q 3138 488 2766 206 
Q 2394 -75 1816 -75 
Q 1088 -75 661 373 
Q 234 822 234 1631 
Q 234 2469 665 2931 
Q 1097 3394 1784 3394 
Q 2450 3394 2872 2941 
Q 3294 2488 3294 1666 
Q 3294 1616 3291 1516 
L 816 1516 
Q 847 969 1125 678 
Q 1403 388 1819 388 
Q 2128 388 2347 550 
Q 2566 713 2694 1069 
z
M 847 1978 
L 2700 1978 
Q 2663 2397 2488 2606 
Q 2219 2931 1791 2931 
Q 1403 2931 1139 2672 
Q 875 2413 847 1978 
z
" id="ArialMT-65" transform="scale(0.015625)"/>
       <path d="M 47 0 
L 1259 1725 
L 138 3319 
L 841 3319 
L 1350 2541 
Q 1494 2319 1581 2169 
Q 1719 2375 1834 2534 
L 2394 3319 
L 3066 3319 
L 1919 1756 
L 3153 0 
L 2463 0 
L 1781 1031 
L 1600 1309 
L 728 0 
L 47 0 
z
" id="ArialMT-78" transform="scale(0.015625)"/>
      </defs>
      <use xlink:href="#ArialMT-43"/>
      <use x="72.216797" xlink:href="#ArialMT-48"/>
      <use x="144.433594" xlink:href="#ArialMT-20"/>
      <use x="172.216797" xlink:href="#ArialMT-49"/>
      <use x="200" xlink:href="#ArialMT-6e"/>
      <use x="255.615234" xlink:href="#ArialMT-64"/>
      <use x="311.230469" xlink:href="#ArialMT-65"/>
      <use x="366.845703" xlink:href="#ArialMT-78"/>
     </g>
    </g>
   </g>
   <g id="line2d_9">
    <path clip-path="url(#pb115716944)" d="M 73.964418 266.106607 
L 79.194033 266.581427 
L 84.423649 266.645455 
L 89.653265 265.535488 
L 94.882881 265.767422 
L 100.112496 265.947644 
L 105.342112 266.191159 
L 110.571728 266.351022 
L 115.801344 265.737314 
L 121.030959 265.907624 
L 126.260575 266.04215 
L 131.490191 266.157968 
L 136.719807 265.917087 
L 141.949422 265.691071 
L 147.179038 265.826466 
L 152.408654 265.942914 
L 157.63827 265.769602 
L 162.867885 265.882629 
L 168.097501 265.936456 
L 173.327117 265.992533 
L 178.556733 266.048854 
L 183.786348 266.104185 
L 189.015964 266.157601 
L 194.24558 266.219027 
L 199.475195 266.273003 
L 204.704811 266.121413 
L 209.934427 266.129357 
L 215.164043 266.183554 
L 220.393658 266.226163 
L 225.623274 266.273798 
L 230.85289 266.304634 
L 236.082506 266.330358 
L 241.312121 266.243321 
L 246.541737 266.2845 
L 251.771353 266.32864 
L 257.000969 266.241926 
L 262.230584 266.283524 
L 267.4602 266.136645 
L 272.689816 266.061684 
L 277.919432 266.004885 
L 283.149047 266.056311 
L 288.378663 266.093889 
L 293.608279 266.136732 
L 298.837895 266.075156 
L 304.06751 266.108672 
L 309.297126 266.022573 
L 314.526742 266.055169 
L 319.756358 265.976544 
L 324.985973 266.017483 
L 330.215589 266.05817 
L 335.445205 266.089809 
L 340.674821 266.115833 
L 345.904436 266.146146 
L 351.134052 266.180771 
L 356.363668 266.215757 
L 361.593284 266.243943 
L 366.822899 266.262851 
L 372.052515 266.24846 
L 377.282131 266.274259 
L 382.511747 266.302247 
L 387.741362 266.326728 
L 392.970978 266.340785 
L 398.200594 266.397644 
L 403.43021 266.425388 
L 408.659825 266.386963 
L 413.889441 266.401474 
L 419.119057 266.424501 
L 424.348673 266.441964 
L 429.578288 266.456701 
L 434.807904 266.389382 
L 440.03752 266.403464 
L 445.267136 266.353302 
L 450.496751 266.377015 
L 455.726367 266.397475 
L 460.955983 266.417147 
L 466.185598 266.433606 
L 471.415214 266.444172 
L 476.64483 266.460567 
L 481.874446 266.481128 
L 487.104061 266.457534 
L 492.333677 266.466471 
L 497.563293 266.483029 
L 502.792909 266.503265 
L 508.022524 266.514943 
L 513.25214 266.477402 
L 518.481756 266.438943 
L 523.711372 266.371431 
L 528.940987 266.387377 
L 534.170603 266.398111 
L 539.400219 266.406401 
L 544.629835 266.374294 
L 549.85945 266.326994 
L 555.089066 266.346323 
L 560.318682 266.320881 
L 565.548298 266.338865 
L 570.777913 266.351183 
L 576.007529 266.32791 
L 581.237145 266.316818 
" style="fill:none;stroke:#1f77b4;stroke-linecap:round;stroke-width:1.5;"/>
    <defs>
     <path d="M 0 3 
C 0.795609 3 1.55874 2.683901 2.12132 2.12132 
C 2.683901 1.55874 3 0.795609 3 0 
C 3 -0.795609 2.683901 -1.55874 2.12132 -2.12132 
C 1.55874 -2.683901 0.795609 -3 0 -3 
C -0.795609 -3 -1.55874 -2.683901 -2.12132 -2.12132 
C -2.683901 -1.55874 -3 -0.795609 -3 0 
C -3 0.795609 -2.683901 1.55874 -2.12132 2.12132 
C -1.55874 2.683901 -0.795609 3 0 3 
z
" id="m541ab471be" style="stroke:#ffffff;stroke-width:0.75;"/>
    </defs>
    <g clip-path="url(#pb115716944)">
     <use style="fill:#1f77b4;stroke:#ffffff;stroke-width:0.75;" x="73.964418" xlink:href="#m541ab471be" y="266.106607"/>
     <use style="fill:#1f77b4;stroke:#ffffff;stroke-width:0.75;" x="79.194033" xlink:href="#m541ab471be" y="266.581427"/>
     <use style="fill:#1f77b4;stroke:#ffffff;stroke-width:0.75;" x="84.423649" xlink:href="#m541ab471be" y="266.645455"/>
     <use style="fill:#1f77b4;stroke:#ffffff;stroke-width:0.75;" x="89.653265" xlink:href="#m541ab471be" y="265.535488"/>
     <use style="fill:#1f77b4;stroke:#ffffff;stroke-width:0.75;" x="94.882881" xlink:href="#m541ab471be" y="265.767422"/>
     <use style="fill:#1f77b4;stroke:#ffffff;stroke-width:0.75;" x="100.112496" xlink:href="#m541ab471be" y="265.947644"/>
     <use style="fill:#1f77b4;stroke:#ffffff;stroke-width:0.75;" x="105.342112" xlink:href="#m541ab471be" y="266.191159"/>
     <use style="fill:#1f77b4;stroke:#ffffff;stroke-width:0.75;" x="110.571728" xlink:href="#m541ab471be" y="266.351022"/>
     <use style="fill:#1f77b4;stroke:#ffffff;stroke-width:0.75;" x="115.801344" xlink:href="#m541ab471be" y="265.737314"/>
     <use style="fill:#1f77b4;stroke:#ffffff;stroke-width:0.75;" x="121.030959" xlink:href="#m541ab471be" y="265.907624"/>
     <use style="fill:#1f77b4;stroke:#ffffff;stroke-width:0.75;" x="126.260575" xlink:href="#m541ab471be" y="266.04215"/>
     <use style="fill:#1f77b4;stroke:#ffffff;stroke-width:0.75;" x="131.490191" xlink:href="#m541ab471be" y="266.157968"/>
     <use style="fill:#1f77b4;stroke:#ffffff;stroke-width:0.75;" x="136.719807" xlink:href="#m541ab471be" y="265.917087"/>
     <use style="fill:#1f77b4;stroke:#ffffff;stroke-width:0.75;" x="141.949422" xlink:href="#m541ab471be" y="265.691071"/>
     <use style="fill:#1f77b4;stroke:#ffffff;stroke-width:0.75;" x="147.179038" xlink:href="#m541ab471be" y="265.826466"/>
     <use style="fill:#1f77b4;stroke:#ffffff;stroke-width:0.75;" x="152.408654" xlink:href="#m541ab471be" y="265.942914"/>
     <use style="fill:#1f77b4;stroke:#ffffff;stroke-width:0.75;" x="157.63827" xlink:href="#m541ab471be" y="265.769602"/>
     <use style="fill:#1f77b4;stroke:#ffffff;stroke-width:0.75;" x="162.867885" xlink:href="#m541ab471be" y="265.882629"/>
     <use style="fill:#1f77b4;stroke:#ffffff;stroke-width:0.75;" x="168.097501" xlink:href="#m541ab471be" y="265.936456"/>
     <use style="fill:#1f77b4;stroke:#ffffff;stroke-width:0.75;" x="173.327117" xlink:href="#m541ab471be" y="265.992533"/>
     <use style="fill:#1f77b4;stroke:#ffffff;stroke-width:0.75;" x="178.556733" xlink:href="#m541ab471be" y="266.048854"/>
     <use style="fill:#1f77b4;stroke:#ffffff;stroke-width:0.75;" x="183.786348" xlink:href="#m541ab471be" y="266.104185"/>
     <use style="fill:#1f77b4;stroke:#ffffff;stroke-width:0.75;" x="189.015964" xlink:href="#m541ab471be" y="266.157601"/>
     <use style="fill:#1f77b4;stroke:#ffffff;stroke-width:0.75;" x="194.24558" xlink:href="#m541ab471be" y="266.219027"/>
     <use style="fill:#1f77b4;stroke:#ffffff;stroke-width:0.75;" x="199.475195" xlink:href="#m541ab471be" y="266.273003"/>
     <use style="fill:#1f77b4;stroke:#ffffff;stroke-width:0.75;" x="204.704811" xlink:href="#m541ab471be" y="266.121413"/>
     <use style="fill:#1f77b4;stroke:#ffffff;stroke-width:0.75;" x="209.934427" xlink:href="#m541ab471be" y="266.129357"/>
     <use style="fill:#1f77b4;stroke:#ffffff;stroke-width:0.75;" x="215.164043" xlink:href="#m541ab471be" y="266.183554"/>
     <use style="fill:#1f77b4;stroke:#ffffff;stroke-width:0.75;" x="220.393658" xlink:href="#m541ab471be" y="266.226163"/>
     <use style="fill:#1f77b4;stroke:#ffffff;stroke-width:0.75;" x="225.623274" xlink:href="#m541ab471be" y="266.273798"/>
     <use style="fill:#1f77b4;stroke:#ffffff;stroke-width:0.75;" x="230.85289" xlink:href="#m541ab471be" y="266.304634"/>
     <use style="fill:#1f77b4;stroke:#ffffff;stroke-width:0.75;" x="236.082506" xlink:href="#m541ab471be" y="266.330358"/>
     <use style="fill:#1f77b4;stroke:#ffffff;stroke-width:0.75;" x="241.312121" xlink:href="#m541ab471be" y="266.243321"/>
     <use style="fill:#1f77b4;stroke:#ffffff;stroke-width:0.75;" x="246.541737" xlink:href="#m541ab471be" y="266.2845"/>
     <use style="fill:#1f77b4;stroke:#ffffff;stroke-width:0.75;" x="251.771353" xlink:href="#m541ab471be" y="266.32864"/>
     <use style="fill:#1f77b4;stroke:#ffffff;stroke-width:0.75;" x="257.000969" xlink:href="#m541ab471be" y="266.241926"/>
     <use style="fill:#1f77b4;stroke:#ffffff;stroke-width:0.75;" x="262.230584" xlink:href="#m541ab471be" y="266.283524"/>
     <use style="fill:#1f77b4;stroke:#ffffff;stroke-width:0.75;" x="267.4602" xlink:href="#m541ab471be" y="266.136645"/>
     <use style="fill:#1f77b4;stroke:#ffffff;stroke-width:0.75;" x="272.689816" xlink:href="#m541ab471be" y="266.061684"/>
     <use style="fill:#1f77b4;stroke:#ffffff;stroke-width:0.75;" x="277.919432" xlink:href="#m541ab471be" y="266.004885"/>
     <use style="fill:#1f77b4;stroke:#ffffff;stroke-width:0.75;" x="283.149047" xlink:href="#m541ab471be" y="266.056311"/>
     <use style="fill:#1f77b4;stroke:#ffffff;stroke-width:0.75;" x="288.378663" xlink:href="#m541ab471be" y="266.093889"/>
     <use style="fill:#1f77b4;stroke:#ffffff;stroke-width:0.75;" x="293.608279" xlink:href="#m541ab471be" y="266.136732"/>
     <use style="fill:#1f77b4;stroke:#ffffff;stroke-width:0.75;" x="298.837895" xlink:href="#m541ab471be" y="266.075156"/>
     <use style="fill:#1f77b4;stroke:#ffffff;stroke-width:0.75;" x="304.06751" xlink:href="#m541ab471be" y="266.108672"/>
     <use style="fill:#1f77b4;stroke:#ffffff;stroke-width:0.75;" x="309.297126" xlink:href="#m541ab471be" y="266.022573"/>
     <use style="fill:#1f77b4;stroke:#ffffff;stroke-width:0.75;" x="314.526742" xlink:href="#m541ab471be" y="266.055169"/>
     <use style="fill:#1f77b4;stroke:#ffffff;stroke-width:0.75;" x="319.756358" xlink:href="#m541ab471be" y="265.976544"/>
     <use style="fill:#1f77b4;stroke:#ffffff;stroke-width:0.75;" x="324.985973" xlink:href="#m541ab471be" y="266.017483"/>
     <use style="fill:#1f77b4;stroke:#ffffff;stroke-width:0.75;" x="330.215589" xlink:href="#m541ab471be" y="266.05817"/>
     <use style="fill:#1f77b4;stroke:#ffffff;stroke-width:0.75;" x="335.445205" xlink:href="#m541ab471be" y="266.089809"/>
     <use style="fill:#1f77b4;stroke:#ffffff;stroke-width:0.75;" x="340.674821" xlink:href="#m541ab471be" y="266.115833"/>
     <use style="fill:#1f77b4;stroke:#ffffff;stroke-width:0.75;" x="345.904436" xlink:href="#m541ab471be" y="266.146146"/>
     <use style="fill:#1f77b4;stroke:#ffffff;stroke-width:0.75;" x="351.134052" xlink:href="#m541ab471be" y="266.180771"/>
     <use style="fill:#1f77b4;stroke:#ffffff;stroke-width:0.75;" x="356.363668" xlink:href="#m541ab471be" y="266.215757"/>
     <use style="fill:#1f77b4;stroke:#ffffff;stroke-width:0.75;" x="361.593284" xlink:href="#m541ab471be" y="266.243943"/>
     <use style="fill:#1f77b4;stroke:#ffffff;stroke-width:0.75;" x="366.822899" xlink:href="#m541ab471be" y="266.262851"/>
     <use style="fill:#1f77b4;stroke:#ffffff;stroke-width:0.75;" x="372.052515" xlink:href="#m541ab471be" y="266.24846"/>
     <use style="fill:#1f77b4;stroke:#ffffff;stroke-width:0.75;" x="377.282131" xlink:href="#m541ab471be" y="266.274259"/>
     <use style="fill:#1f77b4;stroke:#ffffff;stroke-width:0.75;" x="382.511747" xlink:href="#m541ab471be" y="266.302247"/>
     <use style="fill:#1f77b4;stroke:#ffffff;stroke-width:0.75;" x="387.741362" xlink:href="#m541ab471be" y="266.326728"/>
     <use style="fill:#1f77b4;stroke:#ffffff;stroke-width:0.75;" x="392.970978" xlink:href="#m541ab471be" y="266.340785"/>
     <use style="fill:#1f77b4;stroke:#ffffff;stroke-width:0.75;" x="398.200594" xlink:href="#m541ab471be" y="266.397644"/>
     <use style="fill:#1f77b4;stroke:#ffffff;stroke-width:0.75;" x="403.43021" xlink:href="#m541ab471be" y="266.425388"/>
     <use style="fill:#1f77b4;stroke:#ffffff;stroke-width:0.75;" x="408.659825" xlink:href="#m541ab471be" y="266.386963"/>
     <use style="fill:#1f77b4;stroke:#ffffff;stroke-width:0.75;" x="413.889441" xlink:href="#m541ab471be" y="266.401474"/>
     <use style="fill:#1f77b4;stroke:#ffffff;stroke-width:0.75;" x="419.119057" xlink:href="#m541ab471be" y="266.424501"/>
     <use style="fill:#1f77b4;stroke:#ffffff;stroke-width:0.75;" x="424.348673" xlink:href="#m541ab471be" y="266.441964"/>
     <use style="fill:#1f77b4;stroke:#ffffff;stroke-width:0.75;" x="429.578288" xlink:href="#m541ab471be" y="266.456701"/>
     <use style="fill:#1f77b4;stroke:#ffffff;stroke-width:0.75;" x="434.807904" xlink:href="#m541ab471be" y="266.389382"/>
     <use style="fill:#1f77b4;stroke:#ffffff;stroke-width:0.75;" x="440.03752" xlink:href="#m541ab471be" y="266.403464"/>
     <use style="fill:#1f77b4;stroke:#ffffff;stroke-width:0.75;" x="445.267136" xlink:href="#m541ab471be" y="266.353302"/>
     <use style="fill:#1f77b4;stroke:#ffffff;stroke-width:0.75;" x="450.496751" xlink:href="#m541ab471be" y="266.377015"/>
     <use style="fill:#1f77b4;stroke:#ffffff;stroke-width:0.75;" x="455.726367" xlink:href="#m541ab471be" y="266.397475"/>
     <use style="fill:#1f77b4;stroke:#ffffff;stroke-width:0.75;" x="460.955983" xlink:href="#m541ab471be" y="266.417147"/>
     <use style="fill:#1f77b4;stroke:#ffffff;stroke-width:0.75;" x="466.185598" xlink:href="#m541ab471be" y="266.433606"/>
     <use style="fill:#1f77b4;stroke:#ffffff;stroke-width:0.75;" x="471.415214" xlink:href="#m541ab471be" y="266.444172"/>
     <use style="fill:#1f77b4;stroke:#ffffff;stroke-width:0.75;" x="476.64483" xlink:href="#m541ab471be" y="266.460567"/>
     <use style="fill:#1f77b4;stroke:#ffffff;stroke-width:0.75;" x="481.874446" xlink:href="#m541ab471be" y="266.481128"/>
     <use style="fill:#1f77b4;stroke:#ffffff;stroke-width:0.75;" x="487.104061" xlink:href="#m541ab471be" y="266.457534"/>
     <use style="fill:#1f77b4;stroke:#ffffff;stroke-width:0.75;" x="492.333677" xlink:href="#m541ab471be" y="266.466471"/>
     <use style="fill:#1f77b4;stroke:#ffffff;stroke-width:0.75;" x="497.563293" xlink:href="#m541ab471be" y="266.483029"/>
     <use style="fill:#1f77b4;stroke:#ffffff;stroke-width:0.75;" x="502.792909" xlink:href="#m541ab471be" y="266.503265"/>
     <use style="fill:#1f77b4;stroke:#ffffff;stroke-width:0.75;" x="508.022524" xlink:href="#m541ab471be" y="266.514943"/>
     <use style="fill:#1f77b4;stroke:#ffffff;stroke-width:0.75;" x="513.25214" xlink:href="#m541ab471be" y="266.477402"/>
     <use style="fill:#1f77b4;stroke:#ffffff;stroke-width:0.75;" x="518.481756" xlink:href="#m541ab471be" y="266.438943"/>
     <use style="fill:#1f77b4;stroke:#ffffff;stroke-width:0.75;" x="523.711372" xlink:href="#m541ab471be" y="266.371431"/>
     <use style="fill:#1f77b4;stroke:#ffffff;stroke-width:0.75;" x="528.940987" xlink:href="#m541ab471be" y="266.387377"/>
     <use style="fill:#1f77b4;stroke:#ffffff;stroke-width:0.75;" x="534.170603" xlink:href="#m541ab471be" y="266.398111"/>
     <use style="fill:#1f77b4;stroke:#ffffff;stroke-width:0.75;" x="539.400219" xlink:href="#m541ab471be" y="266.406401"/>
     <use style="fill:#1f77b4;stroke:#ffffff;stroke-width:0.75;" x="544.629835" xlink:href="#m541ab471be" y="266.374294"/>
     <use style="fill:#1f77b4;stroke:#ffffff;stroke-width:0.75;" x="549.85945" xlink:href="#m541ab471be" y="266.326994"/>
     <use style="fill:#1f77b4;stroke:#ffffff;stroke-width:0.75;" x="555.089066" xlink:href="#m541ab471be" y="266.346323"/>
     <use style="fill:#1f77b4;stroke:#ffffff;stroke-width:0.75;" x="560.318682" xlink:href="#m541ab471be" y="266.320881"/>
     <use style="fill:#1f77b4;stroke:#ffffff;stroke-width:0.75;" x="565.548298" xlink:href="#m541ab471be" y="266.338865"/>
     <use style="fill:#1f77b4;stroke:#ffffff;stroke-width:0.75;" x="570.777913" xlink:href="#m541ab471be" y="266.351183"/>
     <use style="fill:#1f77b4;stroke:#ffffff;stroke-width:0.75;" x="576.007529" xlink:href="#m541ab471be" y="266.32791"/>
     <use style="fill:#1f77b4;stroke:#ffffff;stroke-width:0.75;" x="581.237145" xlink:href="#m541ab471be" y="266.316818"/>
    </g>
   </g>
   <g id="line2d_10">
    <path clip-path="url(#pb115716944)" d="M 73.964418 19.554545 
L 79.194033 110.271229 
L 84.423649 143.320775 
L 89.653265 146.104916 
L 94.882881 164.537623 
L 100.112496 177.515865 
L 105.342112 181.134298 
L 110.571728 189.315998 
L 115.801344 196.850136 
L 121.030959 199.149936 
L 126.260575 202.057087 
L 131.490191 206.530424 
L 136.719807 209.539358 
L 141.949422 211.883609 
L 147.179038 215.220208 
L 152.408654 216.781955 
L 157.63827 218.206058 
L 162.867885 219.536558 
L 168.097501 221.243716 
L 173.327117 222.576901 
L 178.556733 223.961575 
L 183.786348 225.476557 
L 189.015964 225.731704 
L 194.24558 227.010296 
L 199.475195 227.965438 
L 204.704811 228.898573 
L 209.934427 229.655665 
L 215.164043 229.991599 
L 220.393658 230.245797 
L 225.623274 229.961645 
L 230.85289 230.363143 
L 236.082506 230.014334 
L 241.312121 230.167745 
L 246.541737 230.726412 
L 251.771353 231.560785 
L 257.000969 232.379682 
L 262.230584 232.856257 
L 267.4602 233.415499 
L 272.689816 234.089656 
L 277.919432 234.719573 
L 283.149047 235.034327 
L 288.378663 235.71718 
L 293.608279 235.998632 
L 298.837895 236.410187 
L 304.06751 236.698407 
L 309.297126 237.015037 
L 314.526742 237.578399 
L 319.756358 238.052052 
L 324.985973 238.341644 
L 330.215589 238.55366 
L 335.445205 238.920725 
L 340.674821 239.225605 
L 345.904436 239.579879 
L 351.134052 239.840583 
L 356.363668 240.088149 
L 361.593284 240.302946 
L 366.822899 240.547135 
L 372.052515 240.792179 
L 377.282131 241.020871 
L 382.511747 241.18469 
L 387.741362 241.436207 
L 392.970978 241.514237 
L 398.200594 241.541268 
L 403.43021 241.803573 
L 408.659825 241.844456 
L 413.889441 242.140438 
L 419.119057 242.470644 
L 424.348673 242.685645 
L 429.578288 242.90926 
L 434.807904 243.149877 
L 440.03752 243.254179 
L 445.267136 243.560615 
L 450.496751 243.574607 
L 455.726367 243.584746 
L 460.955983 243.618499 
L 466.185598 243.639227 
L 471.415214 243.841546 
L 476.64483 244.007598 
L 481.874446 244.100494 
L 487.104061 244.258794 
L 492.333677 244.466428 
L 497.563293 244.711073 
L 502.792909 244.859183 
L 508.022524 245.020314 
L 513.25214 245.142642 
L 518.481756 245.249232 
L 523.711372 245.430892 
L 528.940987 245.558295 
L 534.170603 245.710885 
L 539.400219 245.883843 
L 544.629835 246.054412 
L 549.85945 246.120826 
L 555.089066 246.235986 
L 560.318682 246.315821 
L 565.548298 246.465509 
L 570.777913 246.554526 
L 576.007529 246.646918 
L 581.237145 246.705943 
" style="fill:none;stroke:#ff7f0e;stroke-linecap:round;stroke-width:1.5;"/>
    <defs>
     <path d="M 0 3 
C 0.795609 3 1.55874 2.683901 2.12132 2.12132 
C 2.683901 1.55874 3 0.795609 3 0 
C 3 -0.795609 2.683901 -1.55874 2.12132 -2.12132 
C 1.55874 -2.683901 0.795609 -3 0 -3 
C -0.795609 -3 -1.55874 -2.683901 -2.12132 -2.12132 
C -2.683901 -1.55874 -3 -0.795609 -3 0 
C -3 0.795609 -2.683901 1.55874 -2.12132 2.12132 
C -1.55874 2.683901 -0.795609 3 0 3 
z
" id="m2eb01a0a85" style="stroke:#ffffff;stroke-width:0.75;"/>
    </defs>
    <g clip-path="url(#pb115716944)">
     <use style="fill:#ff7f0e;stroke:#ffffff;stroke-width:0.75;" x="73.964418" xlink:href="#m2eb01a0a85" y="19.554545"/>
     <use style="fill:#ff7f0e;stroke:#ffffff;stroke-width:0.75;" x="79.194033" xlink:href="#m2eb01a0a85" y="110.271229"/>
     <use style="fill:#ff7f0e;stroke:#ffffff;stroke-width:0.75;" x="84.423649" xlink:href="#m2eb01a0a85" y="143.320775"/>
     <use style="fill:#ff7f0e;stroke:#ffffff;stroke-width:0.75;" x="89.653265" xlink:href="#m2eb01a0a85" y="146.104916"/>
     <use style="fill:#ff7f0e;stroke:#ffffff;stroke-width:0.75;" x="94.882881" xlink:href="#m2eb01a0a85" y="164.537623"/>
     <use style="fill:#ff7f0e;stroke:#ffffff;stroke-width:0.75;" x="100.112496" xlink:href="#m2eb01a0a85" y="177.515865"/>
     <use style="fill:#ff7f0e;stroke:#ffffff;stroke-width:0.75;" x="105.342112" xlink:href="#m2eb01a0a85" y="181.134298"/>
     <use style="fill:#ff7f0e;stroke:#ffffff;stroke-width:0.75;" x="110.571728" xlink:href="#m2eb01a0a85" y="189.315998"/>
     <use style="fill:#ff7f0e;stroke:#ffffff;stroke-width:0.75;" x="115.801344" xlink:href="#m2eb01a0a85" y="196.850136"/>
     <use style="fill:#ff7f0e;stroke:#ffffff;stroke-width:0.75;" x="121.030959" xlink:href="#m2eb01a0a85" y="199.149936"/>
     <use style="fill:#ff7f0e;stroke:#ffffff;stroke-width:0.75;" x="126.260575" xlink:href="#m2eb01a0a85" y="202.057087"/>
     <use style="fill:#ff7f0e;stroke:#ffffff;stroke-width:0.75;" x="131.490191" xlink:href="#m2eb01a0a85" y="206.530424"/>
     <use style="fill:#ff7f0e;stroke:#ffffff;stroke-width:0.75;" x="136.719807" xlink:href="#m2eb01a0a85" y="209.539358"/>
     <use style="fill:#ff7f0e;stroke:#ffffff;stroke-width:0.75;" x="141.949422" xlink:href="#m2eb01a0a85" y="211.883609"/>
     <use style="fill:#ff7f0e;stroke:#ffffff;stroke-width:0.75;" x="147.179038" xlink:href="#m2eb01a0a85" y="215.220208"/>
     <use style="fill:#ff7f0e;stroke:#ffffff;stroke-width:0.75;" x="152.408654" xlink:href="#m2eb01a0a85" y="216.781955"/>
     <use style="fill:#ff7f0e;stroke:#ffffff;stroke-width:0.75;" x="157.63827" xlink:href="#m2eb01a0a85" y="218.206058"/>
     <use style="fill:#ff7f0e;stroke:#ffffff;stroke-width:0.75;" x="162.867885" xlink:href="#m2eb01a0a85" y="219.536558"/>
     <use style="fill:#ff7f0e;stroke:#ffffff;stroke-width:0.75;" x="168.097501" xlink:href="#m2eb01a0a85" y="221.243716"/>
     <use style="fill:#ff7f0e;stroke:#ffffff;stroke-width:0.75;" x="173.327117" xlink:href="#m2eb01a0a85" y="222.576901"/>
     <use style="fill:#ff7f0e;stroke:#ffffff;stroke-width:0.75;" x="178.556733" xlink:href="#m2eb01a0a85" y="223.961575"/>
     <use style="fill:#ff7f0e;stroke:#ffffff;stroke-width:0.75;" x="183.786348" xlink:href="#m2eb01a0a85" y="225.476557"/>
     <use style="fill:#ff7f0e;stroke:#ffffff;stroke-width:0.75;" x="189.015964" xlink:href="#m2eb01a0a85" y="225.731704"/>
     <use style="fill:#ff7f0e;stroke:#ffffff;stroke-width:0.75;" x="194.24558" xlink:href="#m2eb01a0a85" y="227.010296"/>
     <use style="fill:#ff7f0e;stroke:#ffffff;stroke-width:0.75;" x="199.475195" xlink:href="#m2eb01a0a85" y="227.965438"/>
     <use style="fill:#ff7f0e;stroke:#ffffff;stroke-width:0.75;" x="204.704811" xlink:href="#m2eb01a0a85" y="228.898573"/>
     <use style="fill:#ff7f0e;stroke:#ffffff;stroke-width:0.75;" x="209.934427" xlink:href="#m2eb01a0a85" y="229.655665"/>
     <use style="fill:#ff7f0e;stroke:#ffffff;stroke-width:0.75;" x="215.164043" xlink:href="#m2eb01a0a85" y="229.991599"/>
     <use style="fill:#ff7f0e;stroke:#ffffff;stroke-width:0.75;" x="220.393658" xlink:href="#m2eb01a0a85" y="230.245797"/>
     <use style="fill:#ff7f0e;stroke:#ffffff;stroke-width:0.75;" x="225.623274" xlink:href="#m2eb01a0a85" y="229.961645"/>
     <use style="fill:#ff7f0e;stroke:#ffffff;stroke-width:0.75;" x="230.85289" xlink:href="#m2eb01a0a85" y="230.363143"/>
     <use style="fill:#ff7f0e;stroke:#ffffff;stroke-width:0.75;" x="236.082506" xlink:href="#m2eb01a0a85" y="230.014334"/>
     <use style="fill:#ff7f0e;stroke:#ffffff;stroke-width:0.75;" x="241.312121" xlink:href="#m2eb01a0a85" y="230.167745"/>
     <use style="fill:#ff7f0e;stroke:#ffffff;stroke-width:0.75;" x="246.541737" xlink:href="#m2eb01a0a85" y="230.726412"/>
     <use style="fill:#ff7f0e;stroke:#ffffff;stroke-width:0.75;" x="251.771353" xlink:href="#m2eb01a0a85" y="231.560785"/>
     <use style="fill:#ff7f0e;stroke:#ffffff;stroke-width:0.75;" x="257.000969" xlink:href="#m2eb01a0a85" y="232.379682"/>
     <use style="fill:#ff7f0e;stroke:#ffffff;stroke-width:0.75;" x="262.230584" xlink:href="#m2eb01a0a85" y="232.856257"/>
     <use style="fill:#ff7f0e;stroke:#ffffff;stroke-width:0.75;" x="267.4602" xlink:href="#m2eb01a0a85" y="233.415499"/>
     <use style="fill:#ff7f0e;stroke:#ffffff;stroke-width:0.75;" x="272.689816" xlink:href="#m2eb01a0a85" y="234.089656"/>
     <use style="fill:#ff7f0e;stroke:#ffffff;stroke-width:0.75;" x="277.919432" xlink:href="#m2eb01a0a85" y="234.719573"/>
     <use style="fill:#ff7f0e;stroke:#ffffff;stroke-width:0.75;" x="283.149047" xlink:href="#m2eb01a0a85" y="235.034327"/>
     <use style="fill:#ff7f0e;stroke:#ffffff;stroke-width:0.75;" x="288.378663" xlink:href="#m2eb01a0a85" y="235.71718"/>
     <use style="fill:#ff7f0e;stroke:#ffffff;stroke-width:0.75;" x="293.608279" xlink:href="#m2eb01a0a85" y="235.998632"/>
     <use style="fill:#ff7f0e;stroke:#ffffff;stroke-width:0.75;" x="298.837895" xlink:href="#m2eb01a0a85" y="236.410187"/>
     <use style="fill:#ff7f0e;stroke:#ffffff;stroke-width:0.75;" x="304.06751" xlink:href="#m2eb01a0a85" y="236.698407"/>
     <use style="fill:#ff7f0e;stroke:#ffffff;stroke-width:0.75;" x="309.297126" xlink:href="#m2eb01a0a85" y="237.015037"/>
     <use style="fill:#ff7f0e;stroke:#ffffff;stroke-width:0.75;" x="314.526742" xlink:href="#m2eb01a0a85" y="237.578399"/>
     <use style="fill:#ff7f0e;stroke:#ffffff;stroke-width:0.75;" x="319.756358" xlink:href="#m2eb01a0a85" y="238.052052"/>
     <use style="fill:#ff7f0e;stroke:#ffffff;stroke-width:0.75;" x="324.985973" xlink:href="#m2eb01a0a85" y="238.341644"/>
     <use style="fill:#ff7f0e;stroke:#ffffff;stroke-width:0.75;" x="330.215589" xlink:href="#m2eb01a0a85" y="238.55366"/>
     <use style="fill:#ff7f0e;stroke:#ffffff;stroke-width:0.75;" x="335.445205" xlink:href="#m2eb01a0a85" y="238.920725"/>
     <use style="fill:#ff7f0e;stroke:#ffffff;stroke-width:0.75;" x="340.674821" xlink:href="#m2eb01a0a85" y="239.225605"/>
     <use style="fill:#ff7f0e;stroke:#ffffff;stroke-width:0.75;" x="345.904436" xlink:href="#m2eb01a0a85" y="239.579879"/>
     <use style="fill:#ff7f0e;stroke:#ffffff;stroke-width:0.75;" x="351.134052" xlink:href="#m2eb01a0a85" y="239.840583"/>
     <use style="fill:#ff7f0e;stroke:#ffffff;stroke-width:0.75;" x="356.363668" xlink:href="#m2eb01a0a85" y="240.088149"/>
     <use style="fill:#ff7f0e;stroke:#ffffff;stroke-width:0.75;" x="361.593284" xlink:href="#m2eb01a0a85" y="240.302946"/>
     <use style="fill:#ff7f0e;stroke:#ffffff;stroke-width:0.75;" x="366.822899" xlink:href="#m2eb01a0a85" y="240.547135"/>
     <use style="fill:#ff7f0e;stroke:#ffffff;stroke-width:0.75;" x="372.052515" xlink:href="#m2eb01a0a85" y="240.792179"/>
     <use style="fill:#ff7f0e;stroke:#ffffff;stroke-width:0.75;" x="377.282131" xlink:href="#m2eb01a0a85" y="241.020871"/>
     <use style="fill:#ff7f0e;stroke:#ffffff;stroke-width:0.75;" x="382.511747" xlink:href="#m2eb01a0a85" y="241.18469"/>
     <use style="fill:#ff7f0e;stroke:#ffffff;stroke-width:0.75;" x="387.741362" xlink:href="#m2eb01a0a85" y="241.436207"/>
     <use style="fill:#ff7f0e;stroke:#ffffff;stroke-width:0.75;" x="392.970978" xlink:href="#m2eb01a0a85" y="241.514237"/>
     <use style="fill:#ff7f0e;stroke:#ffffff;stroke-width:0.75;" x="398.200594" xlink:href="#m2eb01a0a85" y="241.541268"/>
     <use style="fill:#ff7f0e;stroke:#ffffff;stroke-width:0.75;" x="403.43021" xlink:href="#m2eb01a0a85" y="241.803573"/>
     <use style="fill:#ff7f0e;stroke:#ffffff;stroke-width:0.75;" x="408.659825" xlink:href="#m2eb01a0a85" y="241.844456"/>
     <use style="fill:#ff7f0e;stroke:#ffffff;stroke-width:0.75;" x="413.889441" xlink:href="#m2eb01a0a85" y="242.140438"/>
     <use style="fill:#ff7f0e;stroke:#ffffff;stroke-width:0.75;" x="419.119057" xlink:href="#m2eb01a0a85" y="242.470644"/>
     <use style="fill:#ff7f0e;stroke:#ffffff;stroke-width:0.75;" x="424.348673" xlink:href="#m2eb01a0a85" y="242.685645"/>
     <use style="fill:#ff7f0e;stroke:#ffffff;stroke-width:0.75;" x="429.578288" xlink:href="#m2eb01a0a85" y="242.90926"/>
     <use style="fill:#ff7f0e;stroke:#ffffff;stroke-width:0.75;" x="434.807904" xlink:href="#m2eb01a0a85" y="243.149877"/>
     <use style="fill:#ff7f0e;stroke:#ffffff;stroke-width:0.75;" x="440.03752" xlink:href="#m2eb01a0a85" y="243.254179"/>
     <use style="fill:#ff7f0e;stroke:#ffffff;stroke-width:0.75;" x="445.267136" xlink:href="#m2eb01a0a85" y="243.560615"/>
     <use style="fill:#ff7f0e;stroke:#ffffff;stroke-width:0.75;" x="450.496751" xlink:href="#m2eb01a0a85" y="243.574607"/>
     <use style="fill:#ff7f0e;stroke:#ffffff;stroke-width:0.75;" x="455.726367" xlink:href="#m2eb01a0a85" y="243.584746"/>
     <use style="fill:#ff7f0e;stroke:#ffffff;stroke-width:0.75;" x="460.955983" xlink:href="#m2eb01a0a85" y="243.618499"/>
     <use style="fill:#ff7f0e;stroke:#ffffff;stroke-width:0.75;" x="466.185598" xlink:href="#m2eb01a0a85" y="243.639227"/>
     <use style="fill:#ff7f0e;stroke:#ffffff;stroke-width:0.75;" x="471.415214" xlink:href="#m2eb01a0a85" y="243.841546"/>
     <use style="fill:#ff7f0e;stroke:#ffffff;stroke-width:0.75;" x="476.64483" xlink:href="#m2eb01a0a85" y="244.007598"/>
     <use style="fill:#ff7f0e;stroke:#ffffff;stroke-width:0.75;" x="481.874446" xlink:href="#m2eb01a0a85" y="244.100494"/>
     <use style="fill:#ff7f0e;stroke:#ffffff;stroke-width:0.75;" x="487.104061" xlink:href="#m2eb01a0a85" y="244.258794"/>
     <use style="fill:#ff7f0e;stroke:#ffffff;stroke-width:0.75;" x="492.333677" xlink:href="#m2eb01a0a85" y="244.466428"/>
     <use style="fill:#ff7f0e;stroke:#ffffff;stroke-width:0.75;" x="497.563293" xlink:href="#m2eb01a0a85" y="244.711073"/>
     <use style="fill:#ff7f0e;stroke:#ffffff;stroke-width:0.75;" x="502.792909" xlink:href="#m2eb01a0a85" y="244.859183"/>
     <use style="fill:#ff7f0e;stroke:#ffffff;stroke-width:0.75;" x="508.022524" xlink:href="#m2eb01a0a85" y="245.020314"/>
     <use style="fill:#ff7f0e;stroke:#ffffff;stroke-width:0.75;" x="513.25214" xlink:href="#m2eb01a0a85" y="245.142642"/>
     <use style="fill:#ff7f0e;stroke:#ffffff;stroke-width:0.75;" x="518.481756" xlink:href="#m2eb01a0a85" y="245.249232"/>
     <use style="fill:#ff7f0e;stroke:#ffffff;stroke-width:0.75;" x="523.711372" xlink:href="#m2eb01a0a85" y="245.430892"/>
     <use style="fill:#ff7f0e;stroke:#ffffff;stroke-width:0.75;" x="528.940987" xlink:href="#m2eb01a0a85" y="245.558295"/>
     <use style="fill:#ff7f0e;stroke:#ffffff;stroke-width:0.75;" x="534.170603" xlink:href="#m2eb01a0a85" y="245.710885"/>
     <use style="fill:#ff7f0e;stroke:#ffffff;stroke-width:0.75;" x="539.400219" xlink:href="#m2eb01a0a85" y="245.883843"/>
     <use style="fill:#ff7f0e;stroke:#ffffff;stroke-width:0.75;" x="544.629835" xlink:href="#m2eb01a0a85" y="246.054412"/>
     <use style="fill:#ff7f0e;stroke:#ffffff;stroke-width:0.75;" x="549.85945" xlink:href="#m2eb01a0a85" y="246.120826"/>
     <use style="fill:#ff7f0e;stroke:#ffffff;stroke-width:0.75;" x="555.089066" xlink:href="#m2eb01a0a85" y="246.235986"/>
     <use style="fill:#ff7f0e;stroke:#ffffff;stroke-width:0.75;" x="560.318682" xlink:href="#m2eb01a0a85" y="246.315821"/>
     <use style="fill:#ff7f0e;stroke:#ffffff;stroke-width:0.75;" x="565.548298" xlink:href="#m2eb01a0a85" y="246.465509"/>
     <use style="fill:#ff7f0e;stroke:#ffffff;stroke-width:0.75;" x="570.777913" xlink:href="#m2eb01a0a85" y="246.554526"/>
     <use style="fill:#ff7f0e;stroke:#ffffff;stroke-width:0.75;" x="576.007529" xlink:href="#m2eb01a0a85" y="246.646918"/>
     <use style="fill:#ff7f0e;stroke:#ffffff;stroke-width:0.75;" x="581.237145" xlink:href="#m2eb01a0a85" y="246.705943"/>
    </g>
   </g>
   <g id="line2d_11">
    <path clip-path="url(#pb115716944)" d="M 73.964418 264.173555 
L 79.194033 265.700818 
L 84.423649 266.317385 
L 89.653265 257.769502 
L 94.882881 256.738716 
L 100.112496 249.103603 
L 105.342112 251.031283 
L 110.571728 252.300426 
L 115.801344 234.173196 
L 121.030959 236.555905 
L 126.260575 226.481614 
L 131.490191 229.295604 
L 136.719807 230.533554 
L 141.949422 232.715673 
L 147.179038 235.070483 
L 152.408654 236.945488 
L 157.63827 237.164221 
L 162.867885 238.81262 
L 168.097501 233.231565 
L 173.327117 230.869362 
L 178.556733 232.601516 
L 183.786348 234.211351 
L 189.015964 235.108857 
L 194.24558 235.247534 
L 199.475195 235.03958 
L 204.704811 235.79812 
L 209.934427 235.972009 
L 215.164043 236.918742 
L 220.393658 237.128362 
L 225.623274 237.858225 
L 230.85289 238.611158 
L 236.082506 239.23538 
L 241.312121 239.954123 
L 246.541737 240.669091 
L 251.771353 241.174942 
L 257.000969 240.375345 
L 262.230584 241.036835 
L 267.4602 241.521146 
L 272.689816 242.134576 
L 277.919432 242.537206 
L 283.149047 242.96695 
L 288.378663 242.823887 
L 293.608279 243.180754 
L 298.837895 243.431591 
L 304.06751 243.787773 
L 309.297126 244.304649 
L 314.526742 243.996124 
L 319.756358 244.487736 
L 324.985973 244.595863 
L 330.215589 244.971642 
L 335.445205 245.196385 
L 340.674821 245.359081 
L 345.904436 245.744344 
L 351.134052 245.910924 
L 356.363668 246.13911 
L 361.593284 246.357506 
L 366.822899 246.729316 
L 372.052515 246.979649 
L 377.282131 247.318211 
L 382.511747 247.664475 
L 387.741362 247.860328 
L 392.970978 248.041756 
L 398.200594 247.714693 
L 403.43021 247.954355 
L 408.659825 248.102186 
L 413.889441 247.718328 
L 419.119057 247.989226 
L 424.348673 247.933274 
L 429.578288 246.995457 
L 434.807904 247.148154 
L 440.03752 247.395742 
L 445.267136 247.631984 
L 450.496751 247.893548 
L 455.726367 248.098636 
L 460.955983 248.260875 
L 466.185598 248.506317 
L 471.415214 248.570287 
L 476.64483 248.784998 
L 481.874446 248.904402 
L 487.104061 249.123718 
L 492.333677 249.254502 
L 497.563293 249.166352 
L 502.792909 248.912644 
L 508.022524 248.80454 
L 513.25214 248.651261 
L 518.481756 248.841606 
L 523.711372 248.979854 
L 528.940987 249.076386 
L 534.170603 249.205651 
L 539.400219 249.336272 
L 544.629835 249.482671 
L 549.85945 249.402767 
L 555.089066 249.574219 
L 560.318682 249.669433 
L 565.548298 249.854121 
L 570.777913 250.018136 
L 576.007529 250.113173 
L 581.237145 250.228646 
" style="fill:none;stroke:#2ca02c;stroke-linecap:round;stroke-width:1.5;"/>
    <defs>
     <path d="M 0 3 
C 0.795609 3 1.55874 2.683901 2.12132 2.12132 
C 2.683901 1.55874 3 0.795609 3 0 
C 3 -0.795609 2.683901 -1.55874 2.12132 -2.12132 
C 1.55874 -2.683901 0.795609 -3 0 -3 
C -0.795609 -3 -1.55874 -2.683901 -2.12132 -2.12132 
C -2.683901 -1.55874 -3 -0.795609 -3 0 
C -3 0.795609 -2.683901 1.55874 -2.12132 2.12132 
C -1.55874 2.683901 -0.795609 3 0 3 
z
" id="m1a44a1ce2a" style="stroke:#ffffff;stroke-width:0.75;"/>
    </defs>
    <g clip-path="url(#pb115716944)">
     <use style="fill:#2ca02c;stroke:#ffffff;stroke-width:0.75;" x="73.964418" xlink:href="#m1a44a1ce2a" y="264.173555"/>
     <use style="fill:#2ca02c;stroke:#ffffff;stroke-width:0.75;" x="79.194033" xlink:href="#m1a44a1ce2a" y="265.700818"/>
     <use style="fill:#2ca02c;stroke:#ffffff;stroke-width:0.75;" x="84.423649" xlink:href="#m1a44a1ce2a" y="266.317385"/>
     <use style="fill:#2ca02c;stroke:#ffffff;stroke-width:0.75;" x="89.653265" xlink:href="#m1a44a1ce2a" y="257.769502"/>
     <use style="fill:#2ca02c;stroke:#ffffff;stroke-width:0.75;" x="94.882881" xlink:href="#m1a44a1ce2a" y="256.738716"/>
     <use style="fill:#2ca02c;stroke:#ffffff;stroke-width:0.75;" x="100.112496" xlink:href="#m1a44a1ce2a" y="249.103603"/>
     <use style="fill:#2ca02c;stroke:#ffffff;stroke-width:0.75;" x="105.342112" xlink:href="#m1a44a1ce2a" y="251.031283"/>
     <use style="fill:#2ca02c;stroke:#ffffff;stroke-width:0.75;" x="110.571728" xlink:href="#m1a44a1ce2a" y="252.300426"/>
     <use style="fill:#2ca02c;stroke:#ffffff;stroke-width:0.75;" x="115.801344" xlink:href="#m1a44a1ce2a" y="234.173196"/>
     <use style="fill:#2ca02c;stroke:#ffffff;stroke-width:0.75;" x="121.030959" xlink:href="#m1a44a1ce2a" y="236.555905"/>
     <use style="fill:#2ca02c;stroke:#ffffff;stroke-width:0.75;" x="126.260575" xlink:href="#m1a44a1ce2a" y="226.481614"/>
     <use style="fill:#2ca02c;stroke:#ffffff;stroke-width:0.75;" x="131.490191" xlink:href="#m1a44a1ce2a" y="229.295604"/>
     <use style="fill:#2ca02c;stroke:#ffffff;stroke-width:0.75;" x="136.719807" xlink:href="#m1a44a1ce2a" y="230.533554"/>
     <use style="fill:#2ca02c;stroke:#ffffff;stroke-width:0.75;" x="141.949422" xlink:href="#m1a44a1ce2a" y="232.715673"/>
     <use style="fill:#2ca02c;stroke:#ffffff;stroke-width:0.75;" x="147.179038" xlink:href="#m1a44a1ce2a" y="235.070483"/>
     <use style="fill:#2ca02c;stroke:#ffffff;stroke-width:0.75;" x="152.408654" xlink:href="#m1a44a1ce2a" y="236.945488"/>
     <use style="fill:#2ca02c;stroke:#ffffff;stroke-width:0.75;" x="157.63827" xlink:href="#m1a44a1ce2a" y="237.164221"/>
     <use style="fill:#2ca02c;stroke:#ffffff;stroke-width:0.75;" x="162.867885" xlink:href="#m1a44a1ce2a" y="238.81262"/>
     <use style="fill:#2ca02c;stroke:#ffffff;stroke-width:0.75;" x="168.097501" xlink:href="#m1a44a1ce2a" y="233.231565"/>
     <use style="fill:#2ca02c;stroke:#ffffff;stroke-width:0.75;" x="173.327117" xlink:href="#m1a44a1ce2a" y="230.869362"/>
     <use style="fill:#2ca02c;stroke:#ffffff;stroke-width:0.75;" x="178.556733" xlink:href="#m1a44a1ce2a" y="232.601516"/>
     <use style="fill:#2ca02c;stroke:#ffffff;stroke-width:0.75;" x="183.786348" xlink:href="#m1a44a1ce2a" y="234.211351"/>
     <use style="fill:#2ca02c;stroke:#ffffff;stroke-width:0.75;" x="189.015964" xlink:href="#m1a44a1ce2a" y="235.108857"/>
     <use style="fill:#2ca02c;stroke:#ffffff;stroke-width:0.75;" x="194.24558" xlink:href="#m1a44a1ce2a" y="235.247534"/>
     <use style="fill:#2ca02c;stroke:#ffffff;stroke-width:0.75;" x="199.475195" xlink:href="#m1a44a1ce2a" y="235.03958"/>
     <use style="fill:#2ca02c;stroke:#ffffff;stroke-width:0.75;" x="204.704811" xlink:href="#m1a44a1ce2a" y="235.79812"/>
     <use style="fill:#2ca02c;stroke:#ffffff;stroke-width:0.75;" x="209.934427" xlink:href="#m1a44a1ce2a" y="235.972009"/>
     <use style="fill:#2ca02c;stroke:#ffffff;stroke-width:0.75;" x="215.164043" xlink:href="#m1a44a1ce2a" y="236.918742"/>
     <use style="fill:#2ca02c;stroke:#ffffff;stroke-width:0.75;" x="220.393658" xlink:href="#m1a44a1ce2a" y="237.128362"/>
     <use style="fill:#2ca02c;stroke:#ffffff;stroke-width:0.75;" x="225.623274" xlink:href="#m1a44a1ce2a" y="237.858225"/>
     <use style="fill:#2ca02c;stroke:#ffffff;stroke-width:0.75;" x="230.85289" xlink:href="#m1a44a1ce2a" y="238.611158"/>
     <use style="fill:#2ca02c;stroke:#ffffff;stroke-width:0.75;" x="236.082506" xlink:href="#m1a44a1ce2a" y="239.23538"/>
     <use style="fill:#2ca02c;stroke:#ffffff;stroke-width:0.75;" x="241.312121" xlink:href="#m1a44a1ce2a" y="239.954123"/>
     <use style="fill:#2ca02c;stroke:#ffffff;stroke-width:0.75;" x="246.541737" xlink:href="#m1a44a1ce2a" y="240.669091"/>
     <use style="fill:#2ca02c;stroke:#ffffff;stroke-width:0.75;" x="251.771353" xlink:href="#m1a44a1ce2a" y="241.174942"/>
     <use style="fill:#2ca02c;stroke:#ffffff;stroke-width:0.75;" x="257.000969" xlink:href="#m1a44a1ce2a" y="240.375345"/>
     <use style="fill:#2ca02c;stroke:#ffffff;stroke-width:0.75;" x="262.230584" xlink:href="#m1a44a1ce2a" y="241.036835"/>
     <use style="fill:#2ca02c;stroke:#ffffff;stroke-width:0.75;" x="267.4602" xlink:href="#m1a44a1ce2a" y="241.521146"/>
     <use style="fill:#2ca02c;stroke:#ffffff;stroke-width:0.75;" x="272.689816" xlink:href="#m1a44a1ce2a" y="242.134576"/>
     <use style="fill:#2ca02c;stroke:#ffffff;stroke-width:0.75;" x="277.919432" xlink:href="#m1a44a1ce2a" y="242.537206"/>
     <use style="fill:#2ca02c;stroke:#ffffff;stroke-width:0.75;" x="283.149047" xlink:href="#m1a44a1ce2a" y="242.96695"/>
     <use style="fill:#2ca02c;stroke:#ffffff;stroke-width:0.75;" x="288.378663" xlink:href="#m1a44a1ce2a" y="242.823887"/>
     <use style="fill:#2ca02c;stroke:#ffffff;stroke-width:0.75;" x="293.608279" xlink:href="#m1a44a1ce2a" y="243.180754"/>
     <use style="fill:#2ca02c;stroke:#ffffff;stroke-width:0.75;" x="298.837895" xlink:href="#m1a44a1ce2a" y="243.431591"/>
     <use style="fill:#2ca02c;stroke:#ffffff;stroke-width:0.75;" x="304.06751" xlink:href="#m1a44a1ce2a" y="243.787773"/>
     <use style="fill:#2ca02c;stroke:#ffffff;stroke-width:0.75;" x="309.297126" xlink:href="#m1a44a1ce2a" y="244.304649"/>
     <use style="fill:#2ca02c;stroke:#ffffff;stroke-width:0.75;" x="314.526742" xlink:href="#m1a44a1ce2a" y="243.996124"/>
     <use style="fill:#2ca02c;stroke:#ffffff;stroke-width:0.75;" x="319.756358" xlink:href="#m1a44a1ce2a" y="244.487736"/>
     <use style="fill:#2ca02c;stroke:#ffffff;stroke-width:0.75;" x="324.985973" xlink:href="#m1a44a1ce2a" y="244.595863"/>
     <use style="fill:#2ca02c;stroke:#ffffff;stroke-width:0.75;" x="330.215589" xlink:href="#m1a44a1ce2a" y="244.971642"/>
     <use style="fill:#2ca02c;stroke:#ffffff;stroke-width:0.75;" x="335.445205" xlink:href="#m1a44a1ce2a" y="245.196385"/>
     <use style="fill:#2ca02c;stroke:#ffffff;stroke-width:0.75;" x="340.674821" xlink:href="#m1a44a1ce2a" y="245.359081"/>
     <use style="fill:#2ca02c;stroke:#ffffff;stroke-width:0.75;" x="345.904436" xlink:href="#m1a44a1ce2a" y="245.744344"/>
     <use style="fill:#2ca02c;stroke:#ffffff;stroke-width:0.75;" x="351.134052" xlink:href="#m1a44a1ce2a" y="245.910924"/>
     <use style="fill:#2ca02c;stroke:#ffffff;stroke-width:0.75;" x="356.363668" xlink:href="#m1a44a1ce2a" y="246.13911"/>
     <use style="fill:#2ca02c;stroke:#ffffff;stroke-width:0.75;" x="361.593284" xlink:href="#m1a44a1ce2a" y="246.357506"/>
     <use style="fill:#2ca02c;stroke:#ffffff;stroke-width:0.75;" x="366.822899" xlink:href="#m1a44a1ce2a" y="246.729316"/>
     <use style="fill:#2ca02c;stroke:#ffffff;stroke-width:0.75;" x="372.052515" xlink:href="#m1a44a1ce2a" y="246.979649"/>
     <use style="fill:#2ca02c;stroke:#ffffff;stroke-width:0.75;" x="377.282131" xlink:href="#m1a44a1ce2a" y="247.318211"/>
     <use style="fill:#2ca02c;stroke:#ffffff;stroke-width:0.75;" x="382.511747" xlink:href="#m1a44a1ce2a" y="247.664475"/>
     <use style="fill:#2ca02c;stroke:#ffffff;stroke-width:0.75;" x="387.741362" xlink:href="#m1a44a1ce2a" y="247.860328"/>
     <use style="fill:#2ca02c;stroke:#ffffff;stroke-width:0.75;" x="392.970978" xlink:href="#m1a44a1ce2a" y="248.041756"/>
     <use style="fill:#2ca02c;stroke:#ffffff;stroke-width:0.75;" x="398.200594" xlink:href="#m1a44a1ce2a" y="247.714693"/>
     <use style="fill:#2ca02c;stroke:#ffffff;stroke-width:0.75;" x="403.43021" xlink:href="#m1a44a1ce2a" y="247.954355"/>
     <use style="fill:#2ca02c;stroke:#ffffff;stroke-width:0.75;" x="408.659825" xlink:href="#m1a44a1ce2a" y="248.102186"/>
     <use style="fill:#2ca02c;stroke:#ffffff;stroke-width:0.75;" x="413.889441" xlink:href="#m1a44a1ce2a" y="247.718328"/>
     <use style="fill:#2ca02c;stroke:#ffffff;stroke-width:0.75;" x="419.119057" xlink:href="#m1a44a1ce2a" y="247.989226"/>
     <use style="fill:#2ca02c;stroke:#ffffff;stroke-width:0.75;" x="424.348673" xlink:href="#m1a44a1ce2a" y="247.933274"/>
     <use style="fill:#2ca02c;stroke:#ffffff;stroke-width:0.75;" x="429.578288" xlink:href="#m1a44a1ce2a" y="246.995457"/>
     <use style="fill:#2ca02c;stroke:#ffffff;stroke-width:0.75;" x="434.807904" xlink:href="#m1a44a1ce2a" y="247.148154"/>
     <use style="fill:#2ca02c;stroke:#ffffff;stroke-width:0.75;" x="440.03752" xlink:href="#m1a44a1ce2a" y="247.395742"/>
     <use style="fill:#2ca02c;stroke:#ffffff;stroke-width:0.75;" x="445.267136" xlink:href="#m1a44a1ce2a" y="247.631984"/>
     <use style="fill:#2ca02c;stroke:#ffffff;stroke-width:0.75;" x="450.496751" xlink:href="#m1a44a1ce2a" y="247.893548"/>
     <use style="fill:#2ca02c;stroke:#ffffff;stroke-width:0.75;" x="455.726367" xlink:href="#m1a44a1ce2a" y="248.098636"/>
     <use style="fill:#2ca02c;stroke:#ffffff;stroke-width:0.75;" x="460.955983" xlink:href="#m1a44a1ce2a" y="248.260875"/>
     <use style="fill:#2ca02c;stroke:#ffffff;stroke-width:0.75;" x="466.185598" xlink:href="#m1a44a1ce2a" y="248.506317"/>
     <use style="fill:#2ca02c;stroke:#ffffff;stroke-width:0.75;" x="471.415214" xlink:href="#m1a44a1ce2a" y="248.570287"/>
     <use style="fill:#2ca02c;stroke:#ffffff;stroke-width:0.75;" x="476.64483" xlink:href="#m1a44a1ce2a" y="248.784998"/>
     <use style="fill:#2ca02c;stroke:#ffffff;stroke-width:0.75;" x="481.874446" xlink:href="#m1a44a1ce2a" y="248.904402"/>
     <use style="fill:#2ca02c;stroke:#ffffff;stroke-width:0.75;" x="487.104061" xlink:href="#m1a44a1ce2a" y="249.123718"/>
     <use style="fill:#2ca02c;stroke:#ffffff;stroke-width:0.75;" x="492.333677" xlink:href="#m1a44a1ce2a" y="249.254502"/>
     <use style="fill:#2ca02c;stroke:#ffffff;stroke-width:0.75;" x="497.563293" xlink:href="#m1a44a1ce2a" y="249.166352"/>
     <use style="fill:#2ca02c;stroke:#ffffff;stroke-width:0.75;" x="502.792909" xlink:href="#m1a44a1ce2a" y="248.912644"/>
     <use style="fill:#2ca02c;stroke:#ffffff;stroke-width:0.75;" x="508.022524" xlink:href="#m1a44a1ce2a" y="248.80454"/>
     <use style="fill:#2ca02c;stroke:#ffffff;stroke-width:0.75;" x="513.25214" xlink:href="#m1a44a1ce2a" y="248.651261"/>
     <use style="fill:#2ca02c;stroke:#ffffff;stroke-width:0.75;" x="518.481756" xlink:href="#m1a44a1ce2a" y="248.841606"/>
     <use style="fill:#2ca02c;stroke:#ffffff;stroke-width:0.75;" x="523.711372" xlink:href="#m1a44a1ce2a" y="248.979854"/>
     <use style="fill:#2ca02c;stroke:#ffffff;stroke-width:0.75;" x="528.940987" xlink:href="#m1a44a1ce2a" y="249.076386"/>
     <use style="fill:#2ca02c;stroke:#ffffff;stroke-width:0.75;" x="534.170603" xlink:href="#m1a44a1ce2a" y="249.205651"/>
     <use style="fill:#2ca02c;stroke:#ffffff;stroke-width:0.75;" x="539.400219" xlink:href="#m1a44a1ce2a" y="249.336272"/>
     <use style="fill:#2ca02c;stroke:#ffffff;stroke-width:0.75;" x="544.629835" xlink:href="#m1a44a1ce2a" y="249.482671"/>
     <use style="fill:#2ca02c;stroke:#ffffff;stroke-width:0.75;" x="549.85945" xlink:href="#m1a44a1ce2a" y="249.402767"/>
     <use style="fill:#2ca02c;stroke:#ffffff;stroke-width:0.75;" x="555.089066" xlink:href="#m1a44a1ce2a" y="249.574219"/>
     <use style="fill:#2ca02c;stroke:#ffffff;stroke-width:0.75;" x="560.318682" xlink:href="#m1a44a1ce2a" y="249.669433"/>
     <use style="fill:#2ca02c;stroke:#ffffff;stroke-width:0.75;" x="565.548298" xlink:href="#m1a44a1ce2a" y="249.854121"/>
     <use style="fill:#2ca02c;stroke:#ffffff;stroke-width:0.75;" x="570.777913" xlink:href="#m1a44a1ce2a" y="250.018136"/>
     <use style="fill:#2ca02c;stroke:#ffffff;stroke-width:0.75;" x="576.007529" xlink:href="#m1a44a1ce2a" y="250.113173"/>
     <use style="fill:#2ca02c;stroke:#ffffff;stroke-width:0.75;" x="581.237145" xlink:href="#m1a44a1ce2a" y="250.228646"/>
    </g>
   </g>
   <g id="line2d_12"/>
   <g id="line2d_13"/>
   <g id="line2d_14"/>
   <g id="patch_3">
    <path d="M 48.600781 279 
L 606.600781 279 
" style="fill:none;stroke:#cccccc;stroke-linecap:square;stroke-linejoin:miter;stroke-width:0.8;"/>
   </g>
   <g id="legend_1">
    <g id="patch_4">
     <path d="M 487.240625 104.423438 
L 596.100781 104.423438 
Q 599.100781 104.423438 599.100781 101.423438 
L 599.100781 17.7 
Q 599.100781 14.7 596.100781 14.7 
L 487.240625 14.7 
Q 484.240625 14.7 484.240625 17.7 
L 484.240625 101.423438 
Q 484.240625 104.423438 487.240625 104.423438 
z
" style="fill:#ffffff;opacity:0.8;stroke:#cccccc;stroke-linejoin:miter;"/>
    </g>
    <g id="text_17">
     <!-- Method -->
     <g style="fill:#262626;" transform="translate(516.657031 31.436719)scale(0.15 -0.15)">
      <defs>
       <path d="M 475 0 
L 475 4581 
L 1388 4581 
L 2472 1338 
Q 2622 884 2691 659 
Q 2769 909 2934 1394 
L 4031 4581 
L 4847 4581 
L 4847 0 
L 4263 0 
L 4263 3834 
L 2931 0 
L 2384 0 
L 1059 3900 
L 1059 0 
L 475 0 
z
" id="ArialMT-4d" transform="scale(0.015625)"/>
       <path d="M 1650 503 
L 1731 6 
Q 1494 -44 1306 -44 
Q 1000 -44 831 53 
Q 663 150 594 308 
Q 525 466 525 972 
L 525 2881 
L 113 2881 
L 113 3319 
L 525 3319 
L 525 4141 
L 1084 4478 
L 1084 3319 
L 1650 3319 
L 1650 2881 
L 1084 2881 
L 1084 941 
Q 1084 700 1114 631 
Q 1144 563 1211 522 
Q 1278 481 1403 481 
Q 1497 481 1650 503 
z
" id="ArialMT-74" transform="scale(0.015625)"/>
       <path d="M 422 0 
L 422 4581 
L 984 4581 
L 984 2938 
Q 1378 3394 1978 3394 
Q 2347 3394 2619 3248 
Q 2891 3103 3008 2847 
Q 3125 2591 3125 2103 
L 3125 0 
L 2563 0 
L 2563 2103 
Q 2563 2525 2380 2717 
Q 2197 2909 1863 2909 
Q 1613 2909 1392 2779 
Q 1172 2650 1078 2428 
Q 984 2206 984 1816 
L 984 0 
L 422 0 
z
" id="ArialMT-68" transform="scale(0.015625)"/>
       <path d="M 213 1659 
Q 213 2581 725 3025 
Q 1153 3394 1769 3394 
Q 2453 3394 2887 2945 
Q 3322 2497 3322 1706 
Q 3322 1066 3130 698 
Q 2938 331 2570 128 
Q 2203 -75 1769 -75 
Q 1072 -75 642 372 
Q 213 819 213 1659 
z
M 791 1659 
Q 791 1022 1069 705 
Q 1347 388 1769 388 
Q 2188 388 2466 706 
Q 2744 1025 2744 1678 
Q 2744 2294 2464 2611 
Q 2184 2928 1769 2928 
Q 1347 2928 1069 2612 
Q 791 2297 791 1659 
z
" id="ArialMT-6f" transform="scale(0.015625)"/>
      </defs>
      <use xlink:href="#ArialMT-4d"/>
      <use x="83.300781" xlink:href="#ArialMT-65"/>
      <use x="138.916016" xlink:href="#ArialMT-74"/>
      <use x="166.699219" xlink:href="#ArialMT-68"/>
      <use x="222.314453" xlink:href="#ArialMT-6f"/>
      <use x="277.929688" xlink:href="#ArialMT-64"/>
     </g>
    </g>
    <g id="line2d_15">
     <path d="M 490.240625 47.404688 
L 520.240625 47.404688 
" style="fill:none;stroke:#1f77b4;stroke-linecap:round;stroke-width:1.5;"/>
    </g>
    <g id="line2d_16">
     <g>
      <use style="fill:#1f77b4;stroke:#ffffff;stroke-width:0.75;" x="505.240625" xlink:href="#m541ab471be" y="47.404688"/>
     </g>
    </g>
    <g id="text_18">
     <!-- single -->
     <g style="fill:#262626;" transform="translate(532.240625 52.654688)scale(0.15 -0.15)">
      <defs>
       <path d="M 197 991 
L 753 1078 
Q 800 744 1014 566 
Q 1228 388 1613 388 
Q 2000 388 2187 545 
Q 2375 703 2375 916 
Q 2375 1106 2209 1216 
Q 2094 1291 1634 1406 
Q 1016 1563 777 1677 
Q 538 1791 414 1992 
Q 291 2194 291 2438 
Q 291 2659 392 2848 
Q 494 3038 669 3163 
Q 800 3259 1026 3326 
Q 1253 3394 1513 3394 
Q 1903 3394 2198 3281 
Q 2494 3169 2634 2976 
Q 2775 2784 2828 2463 
L 2278 2388 
Q 2241 2644 2061 2787 
Q 1881 2931 1553 2931 
Q 1166 2931 1000 2803 
Q 834 2675 834 2503 
Q 834 2394 903 2306 
Q 972 2216 1119 2156 
Q 1203 2125 1616 2013 
Q 2213 1853 2448 1751 
Q 2684 1650 2818 1456 
Q 2953 1263 2953 975 
Q 2953 694 2789 445 
Q 2625 197 2315 61 
Q 2006 -75 1616 -75 
Q 969 -75 630 194 
Q 291 463 197 991 
z
" id="ArialMT-73" transform="scale(0.015625)"/>
       <path d="M 425 3934 
L 425 4581 
L 988 4581 
L 988 3934 
L 425 3934 
z
M 425 0 
L 425 3319 
L 988 3319 
L 988 0 
L 425 0 
z
" id="ArialMT-69" transform="scale(0.015625)"/>
       <path d="M 319 -275 
L 866 -356 
Q 900 -609 1056 -725 
Q 1266 -881 1628 -881 
Q 2019 -881 2231 -725 
Q 2444 -569 2519 -288 
Q 2563 -116 2559 434 
Q 2191 0 1641 0 
Q 956 0 581 494 
Q 206 988 206 1678 
Q 206 2153 378 2554 
Q 550 2956 876 3175 
Q 1203 3394 1644 3394 
Q 2231 3394 2613 2919 
L 2613 3319 
L 3131 3319 
L 3131 450 
Q 3131 -325 2973 -648 
Q 2816 -972 2473 -1159 
Q 2131 -1347 1631 -1347 
Q 1038 -1347 672 -1080 
Q 306 -813 319 -275 
z
M 784 1719 
Q 784 1066 1043 766 
Q 1303 466 1694 466 
Q 2081 466 2343 764 
Q 2606 1063 2606 1700 
Q 2606 2309 2336 2618 
Q 2066 2928 1684 2928 
Q 1309 2928 1046 2623 
Q 784 2319 784 1719 
z
" id="ArialMT-67" transform="scale(0.015625)"/>
       <path d="M 409 0 
L 409 4581 
L 972 4581 
L 972 0 
L 409 0 
z
" id="ArialMT-6c" transform="scale(0.015625)"/>
      </defs>
      <use xlink:href="#ArialMT-73"/>
      <use x="50" xlink:href="#ArialMT-69"/>
      <use x="72.216797" xlink:href="#ArialMT-6e"/>
      <use x="127.832031" xlink:href="#ArialMT-67"/>
      <use x="183.447266" xlink:href="#ArialMT-6c"/>
      <use x="205.664062" xlink:href="#ArialMT-65"/>
     </g>
    </g>
    <g id="line2d_17">
     <path d="M 490.240625 68.798438 
L 520.240625 68.798438 
" style="fill:none;stroke:#ff7f0e;stroke-linecap:round;stroke-width:1.5;"/>
    </g>
    <g id="line2d_18">
     <g>
      <use style="fill:#ff7f0e;stroke:#ffffff;stroke-width:0.75;" x="505.240625" xlink:href="#m2eb01a0a85" y="68.798438"/>
     </g>
    </g>
    <g id="text_19">
     <!-- complete -->
     <g style="fill:#262626;" transform="translate(532.240625 74.048438)scale(0.15 -0.15)">
      <defs>
       <path d="M 2588 1216 
L 3141 1144 
Q 3050 572 2676 248 
Q 2303 -75 1759 -75 
Q 1078 -75 664 370 
Q 250 816 250 1647 
Q 250 2184 428 2587 
Q 606 2991 970 3192 
Q 1334 3394 1763 3394 
Q 2303 3394 2647 3120 
Q 2991 2847 3088 2344 
L 2541 2259 
Q 2463 2594 2264 2762 
Q 2066 2931 1784 2931 
Q 1359 2931 1093 2626 
Q 828 2322 828 1663 
Q 828 994 1084 691 
Q 1341 388 1753 388 
Q 2084 388 2306 591 
Q 2528 794 2588 1216 
z
" id="ArialMT-63" transform="scale(0.015625)"/>
       <path d="M 422 0 
L 422 3319 
L 925 3319 
L 925 2853 
Q 1081 3097 1340 3245 
Q 1600 3394 1931 3394 
Q 2300 3394 2536 3241 
Q 2772 3088 2869 2813 
Q 3263 3394 3894 3394 
Q 4388 3394 4653 3120 
Q 4919 2847 4919 2278 
L 4919 0 
L 4359 0 
L 4359 2091 
Q 4359 2428 4304 2576 
Q 4250 2725 4106 2815 
Q 3963 2906 3769 2906 
Q 3419 2906 3187 2673 
Q 2956 2441 2956 1928 
L 2956 0 
L 2394 0 
L 2394 2156 
Q 2394 2531 2256 2718 
Q 2119 2906 1806 2906 
Q 1569 2906 1367 2781 
Q 1166 2656 1075 2415 
Q 984 2175 984 1722 
L 984 0 
L 422 0 
z
" id="ArialMT-6d" transform="scale(0.015625)"/>
       <path d="M 422 -1272 
L 422 3319 
L 934 3319 
L 934 2888 
Q 1116 3141 1344 3267 
Q 1572 3394 1897 3394 
Q 2322 3394 2647 3175 
Q 2972 2956 3137 2557 
Q 3303 2159 3303 1684 
Q 3303 1175 3120 767 
Q 2938 359 2589 142 
Q 2241 -75 1856 -75 
Q 1575 -75 1351 44 
Q 1128 163 984 344 
L 984 -1272 
L 422 -1272 
z
M 931 1641 
Q 931 1000 1190 694 
Q 1450 388 1819 388 
Q 2194 388 2461 705 
Q 2728 1022 2728 1688 
Q 2728 2322 2467 2637 
Q 2206 2953 1844 2953 
Q 1484 2953 1207 2617 
Q 931 2281 931 1641 
z
" id="ArialMT-70" transform="scale(0.015625)"/>
      </defs>
      <use xlink:href="#ArialMT-63"/>
      <use x="50" xlink:href="#ArialMT-6f"/>
      <use x="105.615234" xlink:href="#ArialMT-6d"/>
      <use x="188.916016" xlink:href="#ArialMT-70"/>
      <use x="244.53125" xlink:href="#ArialMT-6c"/>
      <use x="266.748047" xlink:href="#ArialMT-65"/>
      <use x="322.363281" xlink:href="#ArialMT-74"/>
      <use x="350.146484" xlink:href="#ArialMT-65"/>
     </g>
    </g>
    <g id="line2d_19">
     <path d="M 490.240625 90.016406 
L 520.240625 90.016406 
" style="fill:none;stroke:#2ca02c;stroke-linecap:round;stroke-width:1.5;"/>
    </g>
    <g id="line2d_20">
     <g>
      <use style="fill:#2ca02c;stroke:#ffffff;stroke-width:0.75;" x="505.240625" xlink:href="#m1a44a1ce2a" y="90.016406"/>
     </g>
    </g>
    <g id="text_20">
     <!-- weighted -->
     <g style="fill:#262626;" transform="translate(532.240625 95.266406)scale(0.15 -0.15)">
      <defs>
       <path d="M 1034 0 
L 19 3319 
L 600 3319 
L 1128 1403 
L 1325 691 
Q 1338 744 1497 1375 
L 2025 3319 
L 2603 3319 
L 3100 1394 
L 3266 759 
L 3456 1400 
L 4025 3319 
L 4572 3319 
L 3534 0 
L 2950 0 
L 2422 1988 
L 2294 2553 
L 1622 0 
L 1034 0 
z
" id="ArialMT-77" transform="scale(0.015625)"/>
      </defs>
      <use xlink:href="#ArialMT-77"/>
      <use x="72.216797" xlink:href="#ArialMT-65"/>
      <use x="127.832031" xlink:href="#ArialMT-69"/>
      <use x="150.048828" xlink:href="#ArialMT-67"/>
      <use x="205.664062" xlink:href="#ArialMT-68"/>
      <use x="261.279297" xlink:href="#ArialMT-74"/>
      <use x="289.0625" xlink:href="#ArialMT-65"/>
      <use x="344.677734" xlink:href="#ArialMT-64"/>
     </g>
    </g>
   </g>
  </g>
 </g>
 <defs>
  <clipPath id="pb115716944">
   <rect height="271.8" width="558" x="48.600781" y="7.2"/>
  </clipPath>
 </defs>
</svg>
